%TF.GenerationSoftware,KiCad,Pcbnew,5.1.7-a382d34a8~88~ubuntu16.04.1*%
%TF.CreationDate,2022-12-09T16:50:10+01:00*%
%TF.ProjectId,fmcp_sma,666d6370-5f73-46d6-912e-6b696361645f,1.0*%
%TF.SameCoordinates,Original*%
%TF.FileFunction,Profile,NP*%
%FSLAX46Y46*%
G04 Gerber Fmt 4.6, Leading zero omitted, Abs format (unit mm)*
G04 Created by KiCad (PCBNEW 5.1.7-a382d34a8~88~ubuntu16.04.1) date 2022-12-09 16:50:10*
%MOMM*%
%LPD*%
G01*
G04 APERTURE LIST*
%ADD10C,0.050000*%
%ADD11C,0.150000*%
%ADD12C,0.300000*%
%ADD13C,0.400000*%
%TA.AperFunction,Profile*%
%ADD14C,0.200000*%
%TD*%
G04 APERTURE END LIST*
D10*
D11*
X177002200Y-166007200D02*
X177002200Y-198007200D01*
X285002200Y-198007200D01*
X285002200Y-166007200D01*
X177002200Y-166007200D01*
D10*
D11*
X10000000Y-10000000D02*
X10000000Y-200007200D01*
X287002200Y-200007200D01*
X287002200Y-10000000D01*
X10000000Y-10000000D01*
D10*
D11*
X12000000Y-12000000D02*
X12000000Y-198007200D01*
X285002200Y-198007200D01*
X285002200Y-12000000D01*
X12000000Y-12000000D01*
D10*
D11*
X60000000Y-12000000D02*
X60000000Y-10000000D01*
D10*
D11*
X110000000Y-12000000D02*
X110000000Y-10000000D01*
D10*
D11*
X160000000Y-12000000D02*
X160000000Y-10000000D01*
D10*
D11*
X210000000Y-12000000D02*
X210000000Y-10000000D01*
D10*
D11*
X260000000Y-12000000D02*
X260000000Y-10000000D01*
D10*
D11*
X36065476Y-11588095D02*
X35322619Y-11588095D01*
X35694047Y-11588095D02*
X35694047Y-10288095D01*
X35570238Y-10473809D01*
X35446428Y-10597619D01*
X35322619Y-10659523D01*
D10*
D11*
X85322619Y-10411904D02*
X85384523Y-10350000D01*
X85508333Y-10288095D01*
X85817857Y-10288095D01*
X85941666Y-10350000D01*
X86003571Y-10411904D01*
X86065476Y-10535714D01*
X86065476Y-10659523D01*
X86003571Y-10845238D01*
X85260714Y-11588095D01*
X86065476Y-11588095D01*
D10*
D11*
X135260714Y-10288095D02*
X136065476Y-10288095D01*
X135632142Y-10783333D01*
X135817857Y-10783333D01*
X135941666Y-10845238D01*
X136003571Y-10907142D01*
X136065476Y-11030952D01*
X136065476Y-11340476D01*
X136003571Y-11464285D01*
X135941666Y-11526190D01*
X135817857Y-11588095D01*
X135446428Y-11588095D01*
X135322619Y-11526190D01*
X135260714Y-11464285D01*
D10*
D11*
X185941666Y-10721428D02*
X185941666Y-11588095D01*
X185632142Y-10226190D02*
X185322619Y-11154761D01*
X186127380Y-11154761D01*
D10*
D11*
X236003571Y-10288095D02*
X235384523Y-10288095D01*
X235322619Y-10907142D01*
X235384523Y-10845238D01*
X235508333Y-10783333D01*
X235817857Y-10783333D01*
X235941666Y-10845238D01*
X236003571Y-10907142D01*
X236065476Y-11030952D01*
X236065476Y-11340476D01*
X236003571Y-11464285D01*
X235941666Y-11526190D01*
X235817857Y-11588095D01*
X235508333Y-11588095D01*
X235384523Y-11526190D01*
X235322619Y-11464285D01*
D10*
D11*
X285941666Y-10288095D02*
X285694047Y-10288095D01*
X285570238Y-10350000D01*
X285508333Y-10411904D01*
X285384523Y-10597619D01*
X285322619Y-10845238D01*
X285322619Y-11340476D01*
X285384523Y-11464285D01*
X285446428Y-11526190D01*
X285570238Y-11588095D01*
X285817857Y-11588095D01*
X285941666Y-11526190D01*
X286003571Y-11464285D01*
X286065476Y-11340476D01*
X286065476Y-11030952D01*
X286003571Y-10907142D01*
X285941666Y-10845238D01*
X285817857Y-10783333D01*
X285570238Y-10783333D01*
X285446428Y-10845238D01*
X285384523Y-10907142D01*
X285322619Y-11030952D01*
D10*
D11*
X60000000Y-198007200D02*
X60000000Y-200007200D01*
D10*
D11*
X110000000Y-198007200D02*
X110000000Y-200007200D01*
D10*
D11*
X160000000Y-198007200D02*
X160000000Y-200007200D01*
D10*
D11*
X210000000Y-198007200D02*
X210000000Y-200007200D01*
D10*
D11*
X260000000Y-198007200D02*
X260000000Y-200007200D01*
D10*
D11*
X36065476Y-199595295D02*
X35322619Y-199595295D01*
X35694047Y-199595295D02*
X35694047Y-198295295D01*
X35570238Y-198481009D01*
X35446428Y-198604819D01*
X35322619Y-198666723D01*
D10*
D11*
X85322619Y-198419104D02*
X85384523Y-198357200D01*
X85508333Y-198295295D01*
X85817857Y-198295295D01*
X85941666Y-198357200D01*
X86003571Y-198419104D01*
X86065476Y-198542914D01*
X86065476Y-198666723D01*
X86003571Y-198852438D01*
X85260714Y-199595295D01*
X86065476Y-199595295D01*
D10*
D11*
X135260714Y-198295295D02*
X136065476Y-198295295D01*
X135632142Y-198790533D01*
X135817857Y-198790533D01*
X135941666Y-198852438D01*
X136003571Y-198914342D01*
X136065476Y-199038152D01*
X136065476Y-199347676D01*
X136003571Y-199471485D01*
X135941666Y-199533390D01*
X135817857Y-199595295D01*
X135446428Y-199595295D01*
X135322619Y-199533390D01*
X135260714Y-199471485D01*
D10*
D11*
X185941666Y-198728628D02*
X185941666Y-199595295D01*
X185632142Y-198233390D02*
X185322619Y-199161961D01*
X186127380Y-199161961D01*
D10*
D11*
X236003571Y-198295295D02*
X235384523Y-198295295D01*
X235322619Y-198914342D01*
X235384523Y-198852438D01*
X235508333Y-198790533D01*
X235817857Y-198790533D01*
X235941666Y-198852438D01*
X236003571Y-198914342D01*
X236065476Y-199038152D01*
X236065476Y-199347676D01*
X236003571Y-199471485D01*
X235941666Y-199533390D01*
X235817857Y-199595295D01*
X235508333Y-199595295D01*
X235384523Y-199533390D01*
X235322619Y-199471485D01*
D10*
D11*
X285941666Y-198295295D02*
X285694047Y-198295295D01*
X285570238Y-198357200D01*
X285508333Y-198419104D01*
X285384523Y-198604819D01*
X285322619Y-198852438D01*
X285322619Y-199347676D01*
X285384523Y-199471485D01*
X285446428Y-199533390D01*
X285570238Y-199595295D01*
X285817857Y-199595295D01*
X285941666Y-199533390D01*
X286003571Y-199471485D01*
X286065476Y-199347676D01*
X286065476Y-199038152D01*
X286003571Y-198914342D01*
X285941666Y-198852438D01*
X285817857Y-198790533D01*
X285570238Y-198790533D01*
X285446428Y-198852438D01*
X285384523Y-198914342D01*
X285322619Y-199038152D01*
D10*
D11*
X10000000Y-60000000D02*
X12000000Y-60000000D01*
D10*
D11*
X10000000Y-110000000D02*
X12000000Y-110000000D01*
D10*
D11*
X10000000Y-160000000D02*
X12000000Y-160000000D01*
D10*
D11*
X10690476Y-35216666D02*
X11309523Y-35216666D01*
X10566666Y-35588095D02*
X11000000Y-34288095D01*
X11433333Y-35588095D01*
D10*
D11*
X11092857Y-84907142D02*
X11278571Y-84969047D01*
X11340476Y-85030952D01*
X11402380Y-85154761D01*
X11402380Y-85340476D01*
X11340476Y-85464285D01*
X11278571Y-85526190D01*
X11154761Y-85588095D01*
X10659523Y-85588095D01*
X10659523Y-84288095D01*
X11092857Y-84288095D01*
X11216666Y-84350000D01*
X11278571Y-84411904D01*
X11340476Y-84535714D01*
X11340476Y-84659523D01*
X11278571Y-84783333D01*
X11216666Y-84845238D01*
X11092857Y-84907142D01*
X10659523Y-84907142D01*
D10*
D11*
X11402380Y-135464285D02*
X11340476Y-135526190D01*
X11154761Y-135588095D01*
X11030952Y-135588095D01*
X10845238Y-135526190D01*
X10721428Y-135402380D01*
X10659523Y-135278571D01*
X10597619Y-135030952D01*
X10597619Y-134845238D01*
X10659523Y-134597619D01*
X10721428Y-134473809D01*
X10845238Y-134350000D01*
X11030952Y-134288095D01*
X11154761Y-134288095D01*
X11340476Y-134350000D01*
X11402380Y-134411904D01*
D10*
D11*
X10659523Y-185588095D02*
X10659523Y-184288095D01*
X10969047Y-184288095D01*
X11154761Y-184350000D01*
X11278571Y-184473809D01*
X11340476Y-184597619D01*
X11402380Y-184845238D01*
X11402380Y-185030952D01*
X11340476Y-185278571D01*
X11278571Y-185402380D01*
X11154761Y-185526190D01*
X10969047Y-185588095D01*
X10659523Y-185588095D01*
D10*
D11*
X287002200Y-60000000D02*
X285002200Y-60000000D01*
D10*
D11*
X287002200Y-110000000D02*
X285002200Y-110000000D01*
D10*
D11*
X287002200Y-160000000D02*
X285002200Y-160000000D01*
D10*
D11*
X285692676Y-35216666D02*
X286311723Y-35216666D01*
X285568866Y-35588095D02*
X286002200Y-34288095D01*
X286435533Y-35588095D01*
D10*
D11*
X286095057Y-84907142D02*
X286280771Y-84969047D01*
X286342676Y-85030952D01*
X286404580Y-85154761D01*
X286404580Y-85340476D01*
X286342676Y-85464285D01*
X286280771Y-85526190D01*
X286156961Y-85588095D01*
X285661723Y-85588095D01*
X285661723Y-84288095D01*
X286095057Y-84288095D01*
X286218866Y-84350000D01*
X286280771Y-84411904D01*
X286342676Y-84535714D01*
X286342676Y-84659523D01*
X286280771Y-84783333D01*
X286218866Y-84845238D01*
X286095057Y-84907142D01*
X285661723Y-84907142D01*
D10*
D11*
X286404580Y-135464285D02*
X286342676Y-135526190D01*
X286156961Y-135588095D01*
X286033152Y-135588095D01*
X285847438Y-135526190D01*
X285723628Y-135402380D01*
X285661723Y-135278571D01*
X285599819Y-135030952D01*
X285599819Y-134845238D01*
X285661723Y-134597619D01*
X285723628Y-134473809D01*
X285847438Y-134350000D01*
X286033152Y-134288095D01*
X286156961Y-134288095D01*
X286342676Y-134350000D01*
X286404580Y-134411904D01*
D10*
D11*
X285661723Y-185588095D02*
X285661723Y-184288095D01*
X285971247Y-184288095D01*
X286156961Y-184350000D01*
X286280771Y-184473809D01*
X286342676Y-184597619D01*
X286404580Y-184845238D01*
X286404580Y-185030952D01*
X286342676Y-185278571D01*
X286280771Y-185402380D01*
X286156961Y-185526190D01*
X285971247Y-185588095D01*
X285661723Y-185588095D01*
D10*
D11*
X200434342Y-193785771D02*
X200434342Y-192285771D01*
X200791485Y-192285771D01*
X201005771Y-192357200D01*
X201148628Y-192500057D01*
X201220057Y-192642914D01*
X201291485Y-192928628D01*
X201291485Y-193142914D01*
X201220057Y-193428628D01*
X201148628Y-193571485D01*
X201005771Y-193714342D01*
X200791485Y-193785771D01*
X200434342Y-193785771D01*
X202577200Y-193785771D02*
X202577200Y-193000057D01*
X202505771Y-192857200D01*
X202362914Y-192785771D01*
X202077200Y-192785771D01*
X201934342Y-192857200D01*
X202577200Y-193714342D02*
X202434342Y-193785771D01*
X202077200Y-193785771D01*
X201934342Y-193714342D01*
X201862914Y-193571485D01*
X201862914Y-193428628D01*
X201934342Y-193285771D01*
X202077200Y-193214342D01*
X202434342Y-193214342D01*
X202577200Y-193142914D01*
X203077200Y-192785771D02*
X203648628Y-192785771D01*
X203291485Y-192285771D02*
X203291485Y-193571485D01*
X203362914Y-193714342D01*
X203505771Y-193785771D01*
X203648628Y-193785771D01*
X204720057Y-193714342D02*
X204577200Y-193785771D01*
X204291485Y-193785771D01*
X204148628Y-193714342D01*
X204077200Y-193571485D01*
X204077200Y-193000057D01*
X204148628Y-192857200D01*
X204291485Y-192785771D01*
X204577200Y-192785771D01*
X204720057Y-192857200D01*
X204791485Y-193000057D01*
X204791485Y-193142914D01*
X204077200Y-193285771D01*
X205434342Y-193642914D02*
X205505771Y-193714342D01*
X205434342Y-193785771D01*
X205362914Y-193714342D01*
X205434342Y-193642914D01*
X205434342Y-193785771D01*
X205434342Y-192857200D02*
X205505771Y-192928628D01*
X205434342Y-193000057D01*
X205362914Y-192928628D01*
X205434342Y-192857200D01*
X205434342Y-193000057D01*
X207220057Y-192428628D02*
X207291485Y-192357200D01*
X207434342Y-192285771D01*
X207791485Y-192285771D01*
X207934342Y-192357200D01*
X208005771Y-192428628D01*
X208077200Y-192571485D01*
X208077200Y-192714342D01*
X208005771Y-192928628D01*
X207148628Y-193785771D01*
X208077200Y-193785771D01*
X209005771Y-192285771D02*
X209148628Y-192285771D01*
X209291485Y-192357200D01*
X209362914Y-192428628D01*
X209434342Y-192571485D01*
X209505771Y-192857200D01*
X209505771Y-193214342D01*
X209434342Y-193500057D01*
X209362914Y-193642914D01*
X209291485Y-193714342D01*
X209148628Y-193785771D01*
X209005771Y-193785771D01*
X208862914Y-193714342D01*
X208791485Y-193642914D01*
X208720057Y-193500057D01*
X208648628Y-193214342D01*
X208648628Y-192857200D01*
X208720057Y-192571485D01*
X208791485Y-192428628D01*
X208862914Y-192357200D01*
X209005771Y-192285771D01*
X210077200Y-192428628D02*
X210148628Y-192357200D01*
X210291485Y-192285771D01*
X210648628Y-192285771D01*
X210791485Y-192357200D01*
X210862914Y-192428628D01*
X210934342Y-192571485D01*
X210934342Y-192714342D01*
X210862914Y-192928628D01*
X210005771Y-193785771D01*
X210934342Y-193785771D01*
X211505771Y-192428628D02*
X211577200Y-192357200D01*
X211720057Y-192285771D01*
X212077200Y-192285771D01*
X212220057Y-192357200D01*
X212291485Y-192428628D01*
X212362914Y-192571485D01*
X212362914Y-192714342D01*
X212291485Y-192928628D01*
X211434342Y-193785771D01*
X212362914Y-193785771D01*
X213005771Y-193214342D02*
X214148628Y-193214342D01*
X215648628Y-193785771D02*
X214791485Y-193785771D01*
X215220057Y-193785771D02*
X215220057Y-192285771D01*
X215077200Y-192500057D01*
X214934342Y-192642914D01*
X214791485Y-192714342D01*
X216220057Y-192428628D02*
X216291485Y-192357200D01*
X216434342Y-192285771D01*
X216791485Y-192285771D01*
X216934342Y-192357200D01*
X217005771Y-192428628D01*
X217077200Y-192571485D01*
X217077200Y-192714342D01*
X217005771Y-192928628D01*
X216148628Y-193785771D01*
X217077200Y-193785771D01*
X217720057Y-193214342D02*
X218862914Y-193214342D01*
X219862914Y-192285771D02*
X220005771Y-192285771D01*
X220148628Y-192357200D01*
X220220057Y-192428628D01*
X220291485Y-192571485D01*
X220362914Y-192857200D01*
X220362914Y-193214342D01*
X220291485Y-193500057D01*
X220220057Y-193642914D01*
X220148628Y-193714342D01*
X220005771Y-193785771D01*
X219862914Y-193785771D01*
X219720057Y-193714342D01*
X219648628Y-193642914D01*
X219577200Y-193500057D01*
X219505771Y-193214342D01*
X219505771Y-192857200D01*
X219577200Y-192571485D01*
X219648628Y-192428628D01*
X219720057Y-192357200D01*
X219862914Y-192285771D01*
X221077200Y-193785771D02*
X221362914Y-193785771D01*
X221505771Y-193714342D01*
X221577200Y-193642914D01*
X221720057Y-193428628D01*
X221791485Y-193142914D01*
X221791485Y-192571485D01*
X221720057Y-192428628D01*
X221648628Y-192357200D01*
X221505771Y-192285771D01*
X221220057Y-192285771D01*
X221077200Y-192357200D01*
X221005771Y-192428628D01*
X220934342Y-192571485D01*
X220934342Y-192928628D01*
X221005771Y-193071485D01*
X221077200Y-193142914D01*
X221220057Y-193214342D01*
X221505771Y-193214342D01*
X221648628Y-193142914D01*
X221720057Y-193071485D01*
X221791485Y-192928628D01*
D10*
D11*
X177002200Y-194507200D02*
X285002200Y-194507200D01*
D10*
D11*
X178434342Y-196585771D02*
X178434342Y-195085771D01*
X179291485Y-196585771D02*
X178648628Y-195728628D01*
X179291485Y-195085771D02*
X178434342Y-195942914D01*
X179934342Y-196585771D02*
X179934342Y-195585771D01*
X179934342Y-195085771D02*
X179862914Y-195157200D01*
X179934342Y-195228628D01*
X180005771Y-195157200D01*
X179934342Y-195085771D01*
X179934342Y-195228628D01*
X181505771Y-196442914D02*
X181434342Y-196514342D01*
X181220057Y-196585771D01*
X181077200Y-196585771D01*
X180862914Y-196514342D01*
X180720057Y-196371485D01*
X180648628Y-196228628D01*
X180577200Y-195942914D01*
X180577200Y-195728628D01*
X180648628Y-195442914D01*
X180720057Y-195300057D01*
X180862914Y-195157200D01*
X181077200Y-195085771D01*
X181220057Y-195085771D01*
X181434342Y-195157200D01*
X181505771Y-195228628D01*
X182791485Y-196585771D02*
X182791485Y-195800057D01*
X182720057Y-195657200D01*
X182577200Y-195585771D01*
X182291485Y-195585771D01*
X182148628Y-195657200D01*
X182791485Y-196514342D02*
X182648628Y-196585771D01*
X182291485Y-196585771D01*
X182148628Y-196514342D01*
X182077200Y-196371485D01*
X182077200Y-196228628D01*
X182148628Y-196085771D01*
X182291485Y-196014342D01*
X182648628Y-196014342D01*
X182791485Y-195942914D01*
X184148628Y-196585771D02*
X184148628Y-195085771D01*
X184148628Y-196514342D02*
X184005771Y-196585771D01*
X183720057Y-196585771D01*
X183577200Y-196514342D01*
X183505771Y-196442914D01*
X183434342Y-196300057D01*
X183434342Y-195871485D01*
X183505771Y-195728628D01*
X183577200Y-195657200D01*
X183720057Y-195585771D01*
X184005771Y-195585771D01*
X184148628Y-195657200D01*
X186005771Y-195800057D02*
X186505771Y-195800057D01*
X186720057Y-196585771D02*
X186005771Y-196585771D01*
X186005771Y-195085771D01*
X186720057Y-195085771D01*
X187362914Y-196442914D02*
X187434342Y-196514342D01*
X187362914Y-196585771D01*
X187291485Y-196514342D01*
X187362914Y-196442914D01*
X187362914Y-196585771D01*
X188077200Y-196585771D02*
X188077200Y-195085771D01*
X188434342Y-195085771D01*
X188648628Y-195157200D01*
X188791485Y-195300057D01*
X188862914Y-195442914D01*
X188934342Y-195728628D01*
X188934342Y-195942914D01*
X188862914Y-196228628D01*
X188791485Y-196371485D01*
X188648628Y-196514342D01*
X188434342Y-196585771D01*
X188077200Y-196585771D01*
X189577200Y-196442914D02*
X189648628Y-196514342D01*
X189577200Y-196585771D01*
X189505771Y-196514342D01*
X189577200Y-196442914D01*
X189577200Y-196585771D01*
X190220057Y-196157200D02*
X190934342Y-196157200D01*
X190077200Y-196585771D02*
X190577200Y-195085771D01*
X191077200Y-196585771D01*
X191577200Y-196442914D02*
X191648628Y-196514342D01*
X191577200Y-196585771D01*
X191505771Y-196514342D01*
X191577200Y-196442914D01*
X191577200Y-196585771D01*
X194577200Y-196585771D02*
X194577200Y-195085771D01*
X194720057Y-196014342D02*
X195148628Y-196585771D01*
X195148628Y-195585771D02*
X194577200Y-196157200D01*
X195791485Y-196585771D02*
X195791485Y-195585771D01*
X195791485Y-195085771D02*
X195720057Y-195157200D01*
X195791485Y-195228628D01*
X195862914Y-195157200D01*
X195791485Y-195085771D01*
X195791485Y-195228628D01*
X197148628Y-196514342D02*
X197005771Y-196585771D01*
X196720057Y-196585771D01*
X196577200Y-196514342D01*
X196505771Y-196442914D01*
X196434342Y-196300057D01*
X196434342Y-195871485D01*
X196505771Y-195728628D01*
X196577200Y-195657200D01*
X196720057Y-195585771D01*
X197005771Y-195585771D01*
X197148628Y-195657200D01*
X198434342Y-196585771D02*
X198434342Y-195800057D01*
X198362914Y-195657200D01*
X198220057Y-195585771D01*
X197934342Y-195585771D01*
X197791485Y-195657200D01*
X198434342Y-196514342D02*
X198291485Y-196585771D01*
X197934342Y-196585771D01*
X197791485Y-196514342D01*
X197720057Y-196371485D01*
X197720057Y-196228628D01*
X197791485Y-196085771D01*
X197934342Y-196014342D01*
X198291485Y-196014342D01*
X198434342Y-195942914D01*
X199791485Y-196585771D02*
X199791485Y-195085771D01*
X199791485Y-196514342D02*
X199648628Y-196585771D01*
X199362914Y-196585771D01*
X199220057Y-196514342D01*
X199148628Y-196442914D01*
X199077200Y-196300057D01*
X199077200Y-195871485D01*
X199148628Y-195728628D01*
X199220057Y-195657200D01*
X199362914Y-195585771D01*
X199648628Y-195585771D01*
X199791485Y-195657200D01*
X202362914Y-195085771D02*
X201648628Y-195085771D01*
X201577200Y-195800057D01*
X201648628Y-195728628D01*
X201791485Y-195657200D01*
X202148628Y-195657200D01*
X202291485Y-195728628D01*
X202362914Y-195800057D01*
X202434342Y-195942914D01*
X202434342Y-196300057D01*
X202362914Y-196442914D01*
X202291485Y-196514342D01*
X202148628Y-196585771D01*
X201791485Y-196585771D01*
X201648628Y-196514342D01*
X201577200Y-196442914D01*
X203077200Y-196442914D02*
X203148628Y-196514342D01*
X203077200Y-196585771D01*
X203005771Y-196514342D01*
X203077200Y-196442914D01*
X203077200Y-196585771D01*
X204577200Y-196585771D02*
X203720057Y-196585771D01*
X204148628Y-196585771D02*
X204148628Y-195085771D01*
X204005771Y-195300057D01*
X203862914Y-195442914D01*
X203720057Y-195514342D01*
X205220057Y-196442914D02*
X205291485Y-196514342D01*
X205220057Y-196585771D01*
X205148628Y-196514342D01*
X205220057Y-196442914D01*
X205220057Y-196585771D01*
X205791485Y-195085771D02*
X206791485Y-195085771D01*
X206148628Y-196585771D01*
X207362914Y-196014342D02*
X208505771Y-196014342D01*
X209862914Y-196585771D02*
X209862914Y-195800057D01*
X209791485Y-195657200D01*
X209648628Y-195585771D01*
X209362914Y-195585771D01*
X209220057Y-195657200D01*
X209862914Y-196514342D02*
X209720057Y-196585771D01*
X209362914Y-196585771D01*
X209220057Y-196514342D01*
X209148628Y-196371485D01*
X209148628Y-196228628D01*
X209220057Y-196085771D01*
X209362914Y-196014342D01*
X209720057Y-196014342D01*
X209862914Y-195942914D01*
X210434342Y-195085771D02*
X211362914Y-195085771D01*
X210862914Y-195657200D01*
X211077200Y-195657200D01*
X211220057Y-195728628D01*
X211291485Y-195800057D01*
X211362914Y-195942914D01*
X211362914Y-196300057D01*
X211291485Y-196442914D01*
X211220057Y-196514342D01*
X211077200Y-196585771D01*
X210648628Y-196585771D01*
X210505771Y-196514342D01*
X210434342Y-196442914D01*
X212220057Y-195728628D02*
X212077200Y-195657200D01*
X212005771Y-195585771D01*
X211934342Y-195442914D01*
X211934342Y-195371485D01*
X212005771Y-195228628D01*
X212077200Y-195157200D01*
X212220057Y-195085771D01*
X212505771Y-195085771D01*
X212648628Y-195157200D01*
X212720057Y-195228628D01*
X212791485Y-195371485D01*
X212791485Y-195442914D01*
X212720057Y-195585771D01*
X212648628Y-195657200D01*
X212505771Y-195728628D01*
X212220057Y-195728628D01*
X212077200Y-195800057D01*
X212005771Y-195871485D01*
X211934342Y-196014342D01*
X211934342Y-196300057D01*
X212005771Y-196442914D01*
X212077200Y-196514342D01*
X212220057Y-196585771D01*
X212505771Y-196585771D01*
X212648628Y-196514342D01*
X212720057Y-196442914D01*
X212791485Y-196300057D01*
X212791485Y-196014342D01*
X212720057Y-195871485D01*
X212648628Y-195800057D01*
X212505771Y-195728628D01*
X213362914Y-195228628D02*
X213434342Y-195157200D01*
X213577200Y-195085771D01*
X213934342Y-195085771D01*
X214077200Y-195157200D01*
X214148628Y-195228628D01*
X214220057Y-195371485D01*
X214220057Y-195514342D01*
X214148628Y-195728628D01*
X213291485Y-196585771D01*
X214220057Y-196585771D01*
X215505771Y-196585771D02*
X215505771Y-195085771D01*
X215505771Y-196514342D02*
X215362914Y-196585771D01*
X215077200Y-196585771D01*
X214934342Y-196514342D01*
X214862914Y-196442914D01*
X214791485Y-196300057D01*
X214791485Y-195871485D01*
X214862914Y-195728628D01*
X214934342Y-195657200D01*
X215077200Y-195585771D01*
X215362914Y-195585771D01*
X215505771Y-195657200D01*
X216077200Y-195085771D02*
X217005771Y-195085771D01*
X216505771Y-195657200D01*
X216720057Y-195657200D01*
X216862914Y-195728628D01*
X216934342Y-195800057D01*
X217005771Y-195942914D01*
X217005771Y-196300057D01*
X216934342Y-196442914D01*
X216862914Y-196514342D01*
X216720057Y-196585771D01*
X216291485Y-196585771D01*
X216148628Y-196514342D01*
X216077200Y-196442914D01*
X218291485Y-195585771D02*
X218291485Y-196585771D01*
X217934342Y-195014342D02*
X217577200Y-196085771D01*
X218505771Y-196085771D01*
X219720057Y-196585771D02*
X219720057Y-195800057D01*
X219648628Y-195657200D01*
X219505771Y-195585771D01*
X219220057Y-195585771D01*
X219077200Y-195657200D01*
X219720057Y-196514342D02*
X219577200Y-196585771D01*
X219220057Y-196585771D01*
X219077200Y-196514342D01*
X219005771Y-196371485D01*
X219005771Y-196228628D01*
X219077200Y-196085771D01*
X219220057Y-196014342D01*
X219577200Y-196014342D01*
X219720057Y-195942914D01*
X220648628Y-195728628D02*
X220505771Y-195657200D01*
X220434342Y-195585771D01*
X220362914Y-195442914D01*
X220362914Y-195371485D01*
X220434342Y-195228628D01*
X220505771Y-195157200D01*
X220648628Y-195085771D01*
X220934342Y-195085771D01*
X221077200Y-195157200D01*
X221148628Y-195228628D01*
X221220057Y-195371485D01*
X221220057Y-195442914D01*
X221148628Y-195585771D01*
X221077200Y-195657200D01*
X220934342Y-195728628D01*
X220648628Y-195728628D01*
X220505771Y-195800057D01*
X220434342Y-195871485D01*
X220362914Y-196014342D01*
X220362914Y-196300057D01*
X220434342Y-196442914D01*
X220505771Y-196514342D01*
X220648628Y-196585771D01*
X220934342Y-196585771D01*
X221077200Y-196514342D01*
X221148628Y-196442914D01*
X221220057Y-196300057D01*
X221220057Y-196014342D01*
X221148628Y-195871485D01*
X221077200Y-195800057D01*
X220934342Y-195728628D01*
X221505771Y-194677200D02*
X222934342Y-194677200D01*
X222077200Y-195728628D02*
X221934342Y-195657200D01*
X221862914Y-195585771D01*
X221791485Y-195442914D01*
X221791485Y-195371485D01*
X221862914Y-195228628D01*
X221934342Y-195157200D01*
X222077200Y-195085771D01*
X222362914Y-195085771D01*
X222505771Y-195157200D01*
X222577200Y-195228628D01*
X222648628Y-195371485D01*
X222648628Y-195442914D01*
X222577200Y-195585771D01*
X222505771Y-195657200D01*
X222362914Y-195728628D01*
X222077200Y-195728628D01*
X221934342Y-195800057D01*
X221862914Y-195871485D01*
X221791485Y-196014342D01*
X221791485Y-196300057D01*
X221862914Y-196442914D01*
X221934342Y-196514342D01*
X222077200Y-196585771D01*
X222362914Y-196585771D01*
X222505771Y-196514342D01*
X222577200Y-196442914D01*
X222648628Y-196300057D01*
X222648628Y-196014342D01*
X222577200Y-195871485D01*
X222505771Y-195800057D01*
X222362914Y-195728628D01*
X222934342Y-194677200D02*
X224362914Y-194677200D01*
X223505771Y-195728628D02*
X223362914Y-195657200D01*
X223291485Y-195585771D01*
X223220057Y-195442914D01*
X223220057Y-195371485D01*
X223291485Y-195228628D01*
X223362914Y-195157200D01*
X223505771Y-195085771D01*
X223791485Y-195085771D01*
X223934342Y-195157200D01*
X224005771Y-195228628D01*
X224077199Y-195371485D01*
X224077199Y-195442914D01*
X224005771Y-195585771D01*
X223934342Y-195657200D01*
X223791485Y-195728628D01*
X223505771Y-195728628D01*
X223362914Y-195800057D01*
X223291485Y-195871485D01*
X223220057Y-196014342D01*
X223220057Y-196300057D01*
X223291485Y-196442914D01*
X223362914Y-196514342D01*
X223505771Y-196585771D01*
X223791485Y-196585771D01*
X223934342Y-196514342D01*
X224005771Y-196442914D01*
X224077199Y-196300057D01*
X224077199Y-196014342D01*
X224005771Y-195871485D01*
X223934342Y-195800057D01*
X223791485Y-195728628D01*
X225362914Y-195585771D02*
X225362914Y-196585771D01*
X224720057Y-195585771D02*
X224720057Y-196371485D01*
X224791485Y-196514342D01*
X224934342Y-196585771D01*
X225148628Y-196585771D01*
X225291485Y-196514342D01*
X225362914Y-196442914D01*
X226077199Y-196585771D02*
X226077199Y-195085771D01*
X226077199Y-195657200D02*
X226220057Y-195585771D01*
X226505771Y-195585771D01*
X226648628Y-195657200D01*
X226720057Y-195728628D01*
X226791485Y-195871485D01*
X226791485Y-196300057D01*
X226720057Y-196442914D01*
X226648628Y-196514342D01*
X226505771Y-196585771D01*
X226220057Y-196585771D01*
X226077199Y-196514342D01*
X228077199Y-195585771D02*
X228077199Y-196585771D01*
X227434342Y-195585771D02*
X227434342Y-196371485D01*
X227505771Y-196514342D01*
X227648628Y-196585771D01*
X227862914Y-196585771D01*
X228005771Y-196514342D01*
X228077199Y-196442914D01*
X228791485Y-195585771D02*
X228791485Y-196585771D01*
X228791485Y-195728628D02*
X228862914Y-195657200D01*
X229005771Y-195585771D01*
X229220057Y-195585771D01*
X229362914Y-195657200D01*
X229434342Y-195800057D01*
X229434342Y-196585771D01*
X229934342Y-195585771D02*
X230505771Y-195585771D01*
X230148628Y-195085771D02*
X230148628Y-196371485D01*
X230220057Y-196514342D01*
X230362914Y-196585771D01*
X230505771Y-196585771D01*
X231648628Y-195585771D02*
X231648628Y-196585771D01*
X231005771Y-195585771D02*
X231005771Y-196371485D01*
X231077199Y-196514342D01*
X231220057Y-196585771D01*
X231434342Y-196585771D01*
X231577199Y-196514342D01*
X231648628Y-196442914D01*
X233148628Y-196585771D02*
X232291485Y-196585771D01*
X232720057Y-196585771D02*
X232720057Y-195085771D01*
X232577200Y-195300057D01*
X232434342Y-195442914D01*
X232291485Y-195514342D01*
X234434342Y-195085771D02*
X234148628Y-195085771D01*
X234005771Y-195157200D01*
X233934342Y-195228628D01*
X233791485Y-195442914D01*
X233720057Y-195728628D01*
X233720057Y-196300057D01*
X233791485Y-196442914D01*
X233862914Y-196514342D01*
X234005771Y-196585771D01*
X234291485Y-196585771D01*
X234434342Y-196514342D01*
X234505771Y-196442914D01*
X234577199Y-196300057D01*
X234577199Y-195942914D01*
X234505771Y-195800057D01*
X234434342Y-195728628D01*
X234291485Y-195657200D01*
X234005771Y-195657200D01*
X233862914Y-195728628D01*
X233791485Y-195800057D01*
X233720057Y-195942914D01*
X235220057Y-196442914D02*
X235291485Y-196514342D01*
X235220057Y-196585771D01*
X235148628Y-196514342D01*
X235220057Y-196442914D01*
X235220057Y-196585771D01*
X236220057Y-195085771D02*
X236362914Y-195085771D01*
X236505771Y-195157200D01*
X236577199Y-195228628D01*
X236648628Y-195371485D01*
X236720057Y-195657200D01*
X236720057Y-196014342D01*
X236648628Y-196300057D01*
X236577199Y-196442914D01*
X236505771Y-196514342D01*
X236362914Y-196585771D01*
X236220057Y-196585771D01*
X236077199Y-196514342D01*
X236005771Y-196442914D01*
X235934342Y-196300057D01*
X235862914Y-196014342D01*
X235862914Y-195657200D01*
X235934342Y-195371485D01*
X236005771Y-195228628D01*
X236077199Y-195157200D01*
X236220057Y-195085771D01*
X238005771Y-195585771D02*
X238005771Y-196585771D01*
X237648628Y-195014342D02*
X237291485Y-196085771D01*
X238220057Y-196085771D01*
X238791485Y-196442914D02*
X238862914Y-196514342D01*
X238791485Y-196585771D01*
X238720057Y-196514342D01*
X238791485Y-196442914D01*
X238791485Y-196585771D01*
X240291485Y-196585771D02*
X239434342Y-196585771D01*
X239862914Y-196585771D02*
X239862914Y-195085771D01*
X239720057Y-195300057D01*
X239577199Y-195442914D01*
X239434342Y-195514342D01*
D10*
D11*
X177002200Y-191507200D02*
X285002200Y-191507200D01*
D10*
D12*
X264411485Y-193785771D02*
X263911485Y-193071485D01*
X263554342Y-193785771D02*
X263554342Y-192285771D01*
X264125771Y-192285771D01*
X264268628Y-192357200D01*
X264340057Y-192428628D01*
X264411485Y-192571485D01*
X264411485Y-192785771D01*
X264340057Y-192928628D01*
X264268628Y-193000057D01*
X264125771Y-193071485D01*
X263554342Y-193071485D01*
X265625771Y-193714342D02*
X265482914Y-193785771D01*
X265197200Y-193785771D01*
X265054342Y-193714342D01*
X264982914Y-193571485D01*
X264982914Y-193000057D01*
X265054342Y-192857200D01*
X265197200Y-192785771D01*
X265482914Y-192785771D01*
X265625771Y-192857200D01*
X265697200Y-193000057D01*
X265697200Y-193142914D01*
X264982914Y-193285771D01*
X266197200Y-192785771D02*
X266554342Y-193785771D01*
X266911485Y-192785771D01*
X267482914Y-193642914D02*
X267554342Y-193714342D01*
X267482914Y-193785771D01*
X267411485Y-193714342D01*
X267482914Y-193642914D01*
X267482914Y-193785771D01*
X267482914Y-192857200D02*
X267554342Y-192928628D01*
X267482914Y-193000057D01*
X267411485Y-192928628D01*
X267482914Y-192857200D01*
X267482914Y-193000057D01*
X270125771Y-193785771D02*
X269268628Y-193785771D01*
X269697200Y-193785771D02*
X269697200Y-192285771D01*
X269554342Y-192500057D01*
X269411485Y-192642914D01*
X269268628Y-192714342D01*
X270768628Y-193642914D02*
X270840057Y-193714342D01*
X270768628Y-193785771D01*
X270697200Y-193714342D01*
X270768628Y-193642914D01*
X270768628Y-193785771D01*
X271768628Y-192285771D02*
X271911485Y-192285771D01*
X272054342Y-192357200D01*
X272125771Y-192428628D01*
X272197200Y-192571485D01*
X272268628Y-192857200D01*
X272268628Y-193214342D01*
X272197200Y-193500057D01*
X272125771Y-193642914D01*
X272054342Y-193714342D01*
X271911485Y-193785771D01*
X271768628Y-193785771D01*
X271625771Y-193714342D01*
X271554342Y-193642914D01*
X271482914Y-193500057D01*
X271411485Y-193214342D01*
X271411485Y-192857200D01*
X271482914Y-192571485D01*
X271554342Y-192428628D01*
X271625771Y-192357200D01*
X271768628Y-192285771D01*
D10*
D11*
X178362914Y-193714342D02*
X178577200Y-193785771D01*
X178934342Y-193785771D01*
X179077200Y-193714342D01*
X179148628Y-193642914D01*
X179220057Y-193500057D01*
X179220057Y-193357200D01*
X179148628Y-193214342D01*
X179077200Y-193142914D01*
X178934342Y-193071485D01*
X178648628Y-193000057D01*
X178505771Y-192928628D01*
X178434342Y-192857200D01*
X178362914Y-192714342D01*
X178362914Y-192571485D01*
X178434342Y-192428628D01*
X178505771Y-192357200D01*
X178648628Y-192285771D01*
X179005771Y-192285771D01*
X179220057Y-192357200D01*
X179862914Y-193785771D02*
X179862914Y-192785771D01*
X179862914Y-192285771D02*
X179791485Y-192357200D01*
X179862914Y-192428628D01*
X179934342Y-192357200D01*
X179862914Y-192285771D01*
X179862914Y-192428628D01*
X180434342Y-192785771D02*
X181220057Y-192785771D01*
X180434342Y-193785771D01*
X181220057Y-193785771D01*
X182362914Y-193714342D02*
X182220057Y-193785771D01*
X181934342Y-193785771D01*
X181791485Y-193714342D01*
X181720057Y-193571485D01*
X181720057Y-193000057D01*
X181791485Y-192857200D01*
X181934342Y-192785771D01*
X182220057Y-192785771D01*
X182362914Y-192857200D01*
X182434342Y-193000057D01*
X182434342Y-193142914D01*
X181720057Y-193285771D01*
X183077200Y-193642914D02*
X183148628Y-193714342D01*
X183077200Y-193785771D01*
X183005771Y-193714342D01*
X183077200Y-193642914D01*
X183077200Y-193785771D01*
X183077200Y-192857200D02*
X183148628Y-192928628D01*
X183077200Y-193000057D01*
X183005771Y-192928628D01*
X183077200Y-192857200D01*
X183077200Y-193000057D01*
X184862914Y-193357200D02*
X185577200Y-193357200D01*
X184720057Y-193785771D02*
X185220057Y-192285771D01*
X185720057Y-193785771D01*
X186862914Y-192785771D02*
X186862914Y-193785771D01*
X186505771Y-192214342D02*
X186148628Y-193285771D01*
X187077200Y-193285771D01*
D10*
D11*
X263434342Y-196585771D02*
X263434342Y-195085771D01*
X264791485Y-196585771D02*
X264791485Y-195085771D01*
X264791485Y-196514342D02*
X264648628Y-196585771D01*
X264362914Y-196585771D01*
X264220057Y-196514342D01*
X264148628Y-196442914D01*
X264077200Y-196300057D01*
X264077200Y-195871485D01*
X264148628Y-195728628D01*
X264220057Y-195657200D01*
X264362914Y-195585771D01*
X264648628Y-195585771D01*
X264791485Y-195657200D01*
X265505771Y-196442914D02*
X265577200Y-196514342D01*
X265505771Y-196585771D01*
X265434342Y-196514342D01*
X265505771Y-196442914D01*
X265505771Y-196585771D01*
X265505771Y-195657200D02*
X265577200Y-195728628D01*
X265505771Y-195800057D01*
X265434342Y-195728628D01*
X265505771Y-195657200D01*
X265505771Y-195800057D01*
X268148628Y-196585771D02*
X267291485Y-196585771D01*
X267720057Y-196585771D02*
X267720057Y-195085771D01*
X267577200Y-195300057D01*
X267434342Y-195442914D01*
X267291485Y-195514342D01*
X269862914Y-195014342D02*
X268577200Y-196942914D01*
X271148628Y-196585771D02*
X270291485Y-196585771D01*
X270720057Y-196585771D02*
X270720057Y-195085771D01*
X270577200Y-195300057D01*
X270434342Y-195442914D01*
X270291485Y-195514342D01*
D10*
D11*
X177002200Y-187507200D02*
X285002200Y-187507200D01*
D10*
D13*
X178714580Y-188211961D02*
X179857438Y-188211961D01*
X179036009Y-190211961D02*
X179286009Y-188211961D01*
X180274104Y-190211961D02*
X180440771Y-188878628D01*
X180524104Y-188211961D02*
X180416961Y-188307200D01*
X180500295Y-188402438D01*
X180607438Y-188307200D01*
X180524104Y-188211961D01*
X180500295Y-188402438D01*
X181107438Y-188878628D02*
X181869342Y-188878628D01*
X181476485Y-188211961D02*
X181262200Y-189926247D01*
X181333628Y-190116723D01*
X181512200Y-190211961D01*
X181702676Y-190211961D01*
X182655057Y-190211961D02*
X182476485Y-190116723D01*
X182405057Y-189926247D01*
X182619342Y-188211961D01*
X184190771Y-190116723D02*
X183988390Y-190211961D01*
X183607438Y-190211961D01*
X183428866Y-190116723D01*
X183357438Y-189926247D01*
X183452676Y-189164342D01*
X183571723Y-188973866D01*
X183774104Y-188878628D01*
X184155057Y-188878628D01*
X184333628Y-188973866D01*
X184405057Y-189164342D01*
X184381247Y-189354819D01*
X183405057Y-189545295D01*
X185155057Y-190021485D02*
X185238390Y-190116723D01*
X185131247Y-190211961D01*
X185047914Y-190116723D01*
X185155057Y-190021485D01*
X185131247Y-190211961D01*
X185286009Y-188973866D02*
X185369342Y-189069104D01*
X185262200Y-189164342D01*
X185178866Y-189069104D01*
X185286009Y-188973866D01*
X185262200Y-189164342D01*
X188405057Y-189164342D02*
X187738390Y-189164342D01*
X187607438Y-190211961D02*
X187857438Y-188211961D01*
X188809819Y-188211961D01*
X189321723Y-190211961D02*
X189571723Y-188211961D01*
X190059819Y-189640533D01*
X190905057Y-188211961D01*
X190655057Y-190211961D01*
X192774104Y-190021485D02*
X192666961Y-190116723D01*
X192369342Y-190211961D01*
X192178866Y-190211961D01*
X191905057Y-190116723D01*
X191738390Y-189926247D01*
X191666961Y-189735771D01*
X191619342Y-189354819D01*
X191655057Y-189069104D01*
X191797914Y-188688152D01*
X191916961Y-188497676D01*
X192131247Y-188307200D01*
X192428866Y-188211961D01*
X192619342Y-188211961D01*
X192893152Y-188307200D01*
X192976485Y-188402438D01*
X193702676Y-189450057D02*
X195226485Y-189450057D01*
X194369342Y-190211961D02*
X194559819Y-188688152D01*
X197524104Y-190116723D02*
X197797914Y-190211961D01*
X198274104Y-190211961D01*
X198476485Y-190116723D01*
X198583628Y-190021485D01*
X198702676Y-189831009D01*
X198726485Y-189640533D01*
X198655057Y-189450057D01*
X198571723Y-189354819D01*
X198393152Y-189259580D01*
X198024104Y-189164342D01*
X197845533Y-189069104D01*
X197762200Y-188973866D01*
X197690771Y-188783390D01*
X197714580Y-188592914D01*
X197833628Y-188402438D01*
X197940771Y-188307200D01*
X198143152Y-188211961D01*
X198619342Y-188211961D01*
X198893152Y-188307200D01*
X199512200Y-190211961D02*
X199762200Y-188211961D01*
X200250295Y-189640533D01*
X201095533Y-188211961D01*
X200845533Y-190211961D01*
X201774104Y-189640533D02*
X202726485Y-189640533D01*
X201512200Y-190211961D02*
X202428866Y-188211961D01*
X202845533Y-190211961D01*
X205036009Y-190211961D02*
X205286009Y-188211961D01*
X205190771Y-188973866D02*
X205393152Y-188878628D01*
X205774104Y-188878628D01*
X205952676Y-188973866D01*
X206036009Y-189069104D01*
X206107438Y-189259580D01*
X206036009Y-189831009D01*
X205916961Y-190021485D01*
X205809819Y-190116723D01*
X205607438Y-190211961D01*
X205226485Y-190211961D01*
X205047914Y-190116723D01*
X206845533Y-190211961D02*
X207012200Y-188878628D01*
X206964580Y-189259580D02*
X207083628Y-189069104D01*
X207190771Y-188973866D01*
X207393152Y-188878628D01*
X207583628Y-188878628D01*
X208857438Y-190116723D02*
X208655057Y-190211961D01*
X208274104Y-190211961D01*
X208095533Y-190116723D01*
X208024104Y-189926247D01*
X208119342Y-189164342D01*
X208238390Y-188973866D01*
X208440771Y-188878628D01*
X208821723Y-188878628D01*
X209000295Y-188973866D01*
X209071723Y-189164342D01*
X209047914Y-189354819D01*
X208071723Y-189545295D01*
X210655057Y-190211961D02*
X210786009Y-189164342D01*
X210714580Y-188973866D01*
X210536009Y-188878628D01*
X210155057Y-188878628D01*
X209952676Y-188973866D01*
X210666961Y-190116723D02*
X210464580Y-190211961D01*
X209988390Y-190211961D01*
X209809819Y-190116723D01*
X209738390Y-189926247D01*
X209762200Y-189735771D01*
X209881247Y-189545295D01*
X210083628Y-189450057D01*
X210559819Y-189450057D01*
X210762200Y-189354819D01*
X211607438Y-190211961D02*
X211857438Y-188211961D01*
X211893152Y-189450057D02*
X212369342Y-190211961D01*
X212536009Y-188878628D02*
X211678866Y-189640533D01*
X213512200Y-190211961D02*
X213333628Y-190116723D01*
X213250295Y-190021485D01*
X213178866Y-189831009D01*
X213250295Y-189259580D01*
X213369342Y-189069104D01*
X213476485Y-188973866D01*
X213678866Y-188878628D01*
X213964580Y-188878628D01*
X214143152Y-188973866D01*
X214226485Y-189069104D01*
X214297914Y-189259580D01*
X214226485Y-189831009D01*
X214107438Y-190021485D01*
X214000295Y-190116723D01*
X213797914Y-190211961D01*
X213512200Y-190211961D01*
X216059819Y-188878628D02*
X215893152Y-190211961D01*
X215202676Y-188878628D02*
X215071723Y-189926247D01*
X215143152Y-190116723D01*
X215321723Y-190211961D01*
X215607438Y-190211961D01*
X215809819Y-190116723D01*
X215916961Y-190021485D01*
X216726485Y-188878628D02*
X217488390Y-188878628D01*
X217095533Y-188211961D02*
X216881247Y-189926247D01*
X216952676Y-190116723D01*
X217131247Y-190211961D01*
X217321723Y-190211961D01*
D10*
D11*
X178934342Y-185600057D02*
X178434342Y-185600057D01*
X178434342Y-186385771D02*
X178434342Y-184885771D01*
X179148628Y-184885771D01*
X179720057Y-186385771D02*
X179720057Y-185385771D01*
X179720057Y-184885771D02*
X179648628Y-184957200D01*
X179720057Y-185028628D01*
X179791485Y-184957200D01*
X179720057Y-184885771D01*
X179720057Y-185028628D01*
X180648628Y-186385771D02*
X180505771Y-186314342D01*
X180434342Y-186171485D01*
X180434342Y-184885771D01*
X181791485Y-186314342D02*
X181648628Y-186385771D01*
X181362914Y-186385771D01*
X181220057Y-186314342D01*
X181148628Y-186171485D01*
X181148628Y-185600057D01*
X181220057Y-185457200D01*
X181362914Y-185385771D01*
X181648628Y-185385771D01*
X181791485Y-185457200D01*
X181862914Y-185600057D01*
X181862914Y-185742914D01*
X181148628Y-185885771D01*
X182505771Y-186242914D02*
X182577200Y-186314342D01*
X182505771Y-186385771D01*
X182434342Y-186314342D01*
X182505771Y-186242914D01*
X182505771Y-186385771D01*
X182505771Y-185457200D02*
X182577200Y-185528628D01*
X182505771Y-185600057D01*
X182434342Y-185528628D01*
X182505771Y-185457200D01*
X182505771Y-185600057D01*
X184148628Y-185385771D02*
X184720057Y-185385771D01*
X184362914Y-186385771D02*
X184362914Y-185100057D01*
X184434342Y-184957200D01*
X184577200Y-184885771D01*
X184720057Y-184885771D01*
X185220057Y-186385771D02*
X185220057Y-185385771D01*
X185220057Y-185528628D02*
X185291485Y-185457200D01*
X185434342Y-185385771D01*
X185648628Y-185385771D01*
X185791485Y-185457200D01*
X185862914Y-185600057D01*
X185862914Y-186385771D01*
X185862914Y-185600057D02*
X185934342Y-185457200D01*
X186077200Y-185385771D01*
X186291485Y-185385771D01*
X186434342Y-185457200D01*
X186505771Y-185600057D01*
X186505771Y-186385771D01*
X187862914Y-186314342D02*
X187720057Y-186385771D01*
X187434342Y-186385771D01*
X187291485Y-186314342D01*
X187220057Y-186242914D01*
X187148628Y-186100057D01*
X187148628Y-185671485D01*
X187220057Y-185528628D01*
X187291485Y-185457200D01*
X187434342Y-185385771D01*
X187720057Y-185385771D01*
X187862914Y-185457200D01*
X188505771Y-185385771D02*
X188505771Y-186885771D01*
X188505771Y-185457200D02*
X188648628Y-185385771D01*
X188934342Y-185385771D01*
X189077200Y-185457200D01*
X189148628Y-185528628D01*
X189220057Y-185671485D01*
X189220057Y-186100057D01*
X189148628Y-186242914D01*
X189077200Y-186314342D01*
X188934342Y-186385771D01*
X188648628Y-186385771D01*
X188505771Y-186314342D01*
X189505771Y-186528628D02*
X190648628Y-186528628D01*
X190934342Y-186314342D02*
X191077200Y-186385771D01*
X191362914Y-186385771D01*
X191505771Y-186314342D01*
X191577200Y-186171485D01*
X191577200Y-186100057D01*
X191505771Y-185957200D01*
X191362914Y-185885771D01*
X191148628Y-185885771D01*
X191005771Y-185814342D01*
X190934342Y-185671485D01*
X190934342Y-185600057D01*
X191005771Y-185457200D01*
X191148628Y-185385771D01*
X191362914Y-185385771D01*
X191505771Y-185457200D01*
X192220057Y-186385771D02*
X192220057Y-185385771D01*
X192220057Y-185528628D02*
X192291485Y-185457200D01*
X192434342Y-185385771D01*
X192648628Y-185385771D01*
X192791485Y-185457200D01*
X192862914Y-185600057D01*
X192862914Y-186385771D01*
X192862914Y-185600057D02*
X192934342Y-185457200D01*
X193077200Y-185385771D01*
X193291485Y-185385771D01*
X193434342Y-185457200D01*
X193505771Y-185600057D01*
X193505771Y-186385771D01*
X194862914Y-186385771D02*
X194862914Y-185600057D01*
X194791485Y-185457200D01*
X194648628Y-185385771D01*
X194362914Y-185385771D01*
X194220057Y-185457200D01*
X194862914Y-186314342D02*
X194720057Y-186385771D01*
X194362914Y-186385771D01*
X194220057Y-186314342D01*
X194148628Y-186171485D01*
X194148628Y-186028628D01*
X194220057Y-185885771D01*
X194362914Y-185814342D01*
X194720057Y-185814342D01*
X194862914Y-185742914D01*
X195577200Y-186242914D02*
X195648628Y-186314342D01*
X195577200Y-186385771D01*
X195505771Y-186314342D01*
X195577200Y-186242914D01*
X195577200Y-186385771D01*
X196291485Y-186385771D02*
X196291485Y-184885771D01*
X196434342Y-185814342D02*
X196862914Y-186385771D01*
X196862914Y-185385771D02*
X196291485Y-185957200D01*
X197505771Y-186385771D02*
X197505771Y-185385771D01*
X197505771Y-184885771D02*
X197434342Y-184957200D01*
X197505771Y-185028628D01*
X197577200Y-184957200D01*
X197505771Y-184885771D01*
X197505771Y-185028628D01*
X198862914Y-186314342D02*
X198720057Y-186385771D01*
X198434342Y-186385771D01*
X198291485Y-186314342D01*
X198220057Y-186242914D01*
X198148628Y-186100057D01*
X198148628Y-185671485D01*
X198220057Y-185528628D01*
X198291485Y-185457200D01*
X198434342Y-185385771D01*
X198720057Y-185385771D01*
X198862914Y-185457200D01*
X200148628Y-186385771D02*
X200148628Y-185600057D01*
X200077200Y-185457200D01*
X199934342Y-185385771D01*
X199648628Y-185385771D01*
X199505771Y-185457200D01*
X200148628Y-186314342D02*
X200005771Y-186385771D01*
X199648628Y-186385771D01*
X199505771Y-186314342D01*
X199434342Y-186171485D01*
X199434342Y-186028628D01*
X199505771Y-185885771D01*
X199648628Y-185814342D01*
X200005771Y-185814342D01*
X200148628Y-185742914D01*
X201505771Y-186385771D02*
X201505771Y-184885771D01*
X201505771Y-186314342D02*
X201362914Y-186385771D01*
X201077200Y-186385771D01*
X200934342Y-186314342D01*
X200862914Y-186242914D01*
X200791485Y-186100057D01*
X200791485Y-185671485D01*
X200862914Y-185528628D01*
X200934342Y-185457200D01*
X201077200Y-185385771D01*
X201362914Y-185385771D01*
X201505771Y-185457200D01*
X201862914Y-186528628D02*
X203005771Y-186528628D01*
X203362914Y-185385771D02*
X203362914Y-186885771D01*
X203362914Y-185457200D02*
X203505771Y-185385771D01*
X203791485Y-185385771D01*
X203934342Y-185457200D01*
X204005771Y-185528628D01*
X204077200Y-185671485D01*
X204077200Y-186100057D01*
X204005771Y-186242914D01*
X203934342Y-186314342D01*
X203791485Y-186385771D01*
X203505771Y-186385771D01*
X203362914Y-186314342D01*
X205362914Y-186314342D02*
X205220057Y-186385771D01*
X204934342Y-186385771D01*
X204791485Y-186314342D01*
X204720057Y-186242914D01*
X204648628Y-186100057D01*
X204648628Y-185671485D01*
X204720057Y-185528628D01*
X204791485Y-185457200D01*
X204934342Y-185385771D01*
X205220057Y-185385771D01*
X205362914Y-185457200D01*
X206005771Y-186385771D02*
X206005771Y-184885771D01*
X206005771Y-185457200D02*
X206148628Y-185385771D01*
X206434342Y-185385771D01*
X206577200Y-185457200D01*
X206648628Y-185528628D01*
X206720057Y-185671485D01*
X206720057Y-186100057D01*
X206648628Y-186242914D01*
X206577200Y-186314342D01*
X206434342Y-186385771D01*
X206148628Y-186385771D01*
X206005771Y-186314342D01*
D10*
D11*
X177002200Y-181507200D02*
X285002200Y-181507200D01*
D10*
D11*
X178362914Y-183614342D02*
X178577200Y-183685771D01*
X178934342Y-183685771D01*
X179077200Y-183614342D01*
X179148628Y-183542914D01*
X179220057Y-183400057D01*
X179220057Y-183257200D01*
X179148628Y-183114342D01*
X179077200Y-183042914D01*
X178934342Y-182971485D01*
X178648628Y-182900057D01*
X178505771Y-182828628D01*
X178434342Y-182757200D01*
X178362914Y-182614342D01*
X178362914Y-182471485D01*
X178434342Y-182328628D01*
X178505771Y-182257200D01*
X178648628Y-182185771D01*
X179005771Y-182185771D01*
X179220057Y-182257200D01*
X179862914Y-183685771D02*
X179862914Y-182185771D01*
X180505771Y-183685771D02*
X180505771Y-182900057D01*
X180434342Y-182757200D01*
X180291485Y-182685771D01*
X180077200Y-182685771D01*
X179934342Y-182757200D01*
X179862914Y-182828628D01*
X181791485Y-183614342D02*
X181648628Y-183685771D01*
X181362914Y-183685771D01*
X181220057Y-183614342D01*
X181148628Y-183471485D01*
X181148628Y-182900057D01*
X181220057Y-182757200D01*
X181362914Y-182685771D01*
X181648628Y-182685771D01*
X181791485Y-182757200D01*
X181862914Y-182900057D01*
X181862914Y-183042914D01*
X181148628Y-183185771D01*
X183077200Y-183614342D02*
X182934342Y-183685771D01*
X182648628Y-183685771D01*
X182505771Y-183614342D01*
X182434342Y-183471485D01*
X182434342Y-182900057D01*
X182505771Y-182757200D01*
X182648628Y-182685771D01*
X182934342Y-182685771D01*
X183077200Y-182757200D01*
X183148628Y-182900057D01*
X183148628Y-183042914D01*
X182434342Y-183185771D01*
X183577200Y-182685771D02*
X184148628Y-182685771D01*
X183791485Y-182185771D02*
X183791485Y-183471485D01*
X183862914Y-183614342D01*
X184005771Y-183685771D01*
X184148628Y-183685771D01*
X184648628Y-183542914D02*
X184720057Y-183614342D01*
X184648628Y-183685771D01*
X184577200Y-183614342D01*
X184648628Y-183542914D01*
X184648628Y-183685771D01*
X184648628Y-182757200D02*
X184720057Y-182828628D01*
X184648628Y-182900057D01*
X184577200Y-182828628D01*
X184648628Y-182757200D01*
X184648628Y-182900057D01*
D10*
D12*
X178554342Y-180685771D02*
X178554342Y-179185771D01*
X179411485Y-180685771D02*
X178768628Y-179828628D01*
X179411485Y-179185771D02*
X178554342Y-180042914D01*
X180697200Y-180685771D02*
X180697200Y-179900057D01*
X180625771Y-179757200D01*
X180482914Y-179685771D01*
X180197200Y-179685771D01*
X180054342Y-179757200D01*
X180697200Y-180614342D02*
X180554342Y-180685771D01*
X180197200Y-180685771D01*
X180054342Y-180614342D01*
X179982914Y-180471485D01*
X179982914Y-180328628D01*
X180054342Y-180185771D01*
X180197200Y-180114342D01*
X180554342Y-180114342D01*
X180697200Y-180042914D01*
X181411485Y-180685771D02*
X181411485Y-179685771D01*
X181411485Y-179971485D02*
X181482914Y-179828628D01*
X181554342Y-179757200D01*
X181697200Y-179685771D01*
X181840057Y-179685771D01*
X182554342Y-180685771D02*
X182411485Y-180614342D01*
X182340057Y-180471485D01*
X182340057Y-179185771D01*
X183054342Y-180614342D02*
X183197200Y-180685771D01*
X183482914Y-180685771D01*
X183625771Y-180614342D01*
X183697200Y-180471485D01*
X183697200Y-180400057D01*
X183625771Y-180257200D01*
X183482914Y-180185771D01*
X183268628Y-180185771D01*
X183125771Y-180114342D01*
X183054342Y-179971485D01*
X183054342Y-179900057D01*
X183125771Y-179757200D01*
X183268628Y-179685771D01*
X183482914Y-179685771D01*
X183625771Y-179757200D01*
X184340057Y-180685771D02*
X184340057Y-179685771D01*
X184340057Y-179971485D02*
X184411485Y-179828628D01*
X184482914Y-179757200D01*
X184625771Y-179685771D01*
X184768628Y-179685771D01*
X185911485Y-179685771D02*
X185911485Y-180685771D01*
X185268628Y-179685771D02*
X185268628Y-180471485D01*
X185340057Y-180614342D01*
X185482914Y-180685771D01*
X185697200Y-180685771D01*
X185840057Y-180614342D01*
X185911485Y-180542914D01*
X186625771Y-180685771D02*
X186625771Y-179185771D01*
X187268628Y-180685771D02*
X187268628Y-179900057D01*
X187197200Y-179757200D01*
X187054342Y-179685771D01*
X186840057Y-179685771D01*
X186697200Y-179757200D01*
X186625771Y-179828628D01*
X188554342Y-180614342D02*
X188411485Y-180685771D01*
X188125771Y-180685771D01*
X187982914Y-180614342D01*
X187911485Y-180471485D01*
X187911485Y-179900057D01*
X187982914Y-179757200D01*
X188125771Y-179685771D01*
X188411485Y-179685771D01*
X188554342Y-179757200D01*
X188625771Y-179900057D01*
X188625771Y-180042914D01*
X187911485Y-180185771D01*
X190411485Y-180685771D02*
X190411485Y-179185771D01*
X191125771Y-179685771D02*
X191125771Y-180685771D01*
X191125771Y-179828628D02*
X191197200Y-179757200D01*
X191340057Y-179685771D01*
X191554342Y-179685771D01*
X191697200Y-179757200D01*
X191768628Y-179900057D01*
X191768628Y-180685771D01*
X192411485Y-180614342D02*
X192554342Y-180685771D01*
X192840057Y-180685771D01*
X192982914Y-180614342D01*
X193054342Y-180471485D01*
X193054342Y-180400057D01*
X192982914Y-180257200D01*
X192840057Y-180185771D01*
X192625771Y-180185771D01*
X192482914Y-180114342D01*
X192411485Y-179971485D01*
X192411485Y-179900057D01*
X192482914Y-179757200D01*
X192625771Y-179685771D01*
X192840057Y-179685771D01*
X192982914Y-179757200D01*
X193482914Y-179685771D02*
X194054342Y-179685771D01*
X193697200Y-179185771D02*
X193697200Y-180471485D01*
X193768628Y-180614342D01*
X193911485Y-180685771D01*
X194054342Y-180685771D01*
X194554342Y-180685771D02*
X194554342Y-179685771D01*
X194554342Y-179185771D02*
X194482914Y-179257200D01*
X194554342Y-179328628D01*
X194625771Y-179257200D01*
X194554342Y-179185771D01*
X194554342Y-179328628D01*
X195054342Y-179685771D02*
X195625771Y-179685771D01*
X195268628Y-179185771D02*
X195268628Y-180471485D01*
X195340057Y-180614342D01*
X195482914Y-180685771D01*
X195625771Y-180685771D01*
X196768628Y-179685771D02*
X196768628Y-180685771D01*
X196125771Y-179685771D02*
X196125771Y-180471485D01*
X196197200Y-180614342D01*
X196340057Y-180685771D01*
X196554342Y-180685771D01*
X196697200Y-180614342D01*
X196768628Y-180542914D01*
X197268628Y-179685771D02*
X197840057Y-179685771D01*
X197482914Y-179185771D02*
X197482914Y-180471485D01*
X197554342Y-180614342D01*
X197697200Y-180685771D01*
X197840057Y-180685771D01*
X198911485Y-180614342D02*
X198768628Y-180685771D01*
X198482914Y-180685771D01*
X198340057Y-180614342D01*
X198268628Y-180471485D01*
X198268628Y-179900057D01*
X198340057Y-179757200D01*
X198482914Y-179685771D01*
X198768628Y-179685771D01*
X198911485Y-179757200D01*
X198982914Y-179900057D01*
X198982914Y-180042914D01*
X198268628Y-180185771D01*
X200982914Y-180685771D02*
X200840057Y-180614342D01*
X200768628Y-180542914D01*
X200697200Y-180400057D01*
X200697200Y-179971485D01*
X200768628Y-179828628D01*
X200840057Y-179757200D01*
X200982914Y-179685771D01*
X201197200Y-179685771D01*
X201340057Y-179757200D01*
X201411485Y-179828628D01*
X201482914Y-179971485D01*
X201482914Y-180400057D01*
X201411485Y-180542914D01*
X201340057Y-180614342D01*
X201197200Y-180685771D01*
X200982914Y-180685771D01*
X201911485Y-179685771D02*
X202482914Y-179685771D01*
X202125771Y-180685771D02*
X202125771Y-179400057D01*
X202197200Y-179257200D01*
X202340057Y-179185771D01*
X202482914Y-179185771D01*
X203911485Y-179185771D02*
X204768628Y-179185771D01*
X204340057Y-180685771D02*
X204340057Y-179185771D01*
X205840057Y-180614342D02*
X205697200Y-180685771D01*
X205411485Y-180685771D01*
X205268628Y-180614342D01*
X205197200Y-180471485D01*
X205197200Y-179900057D01*
X205268628Y-179757200D01*
X205411485Y-179685771D01*
X205697200Y-179685771D01*
X205840057Y-179757200D01*
X205911485Y-179900057D01*
X205911485Y-180042914D01*
X205197200Y-180185771D01*
X207197200Y-180614342D02*
X207054342Y-180685771D01*
X206768628Y-180685771D01*
X206625771Y-180614342D01*
X206554342Y-180542914D01*
X206482914Y-180400057D01*
X206482914Y-179971485D01*
X206554342Y-179828628D01*
X206625771Y-179757200D01*
X206768628Y-179685771D01*
X207054342Y-179685771D01*
X207197200Y-179757200D01*
X207840057Y-180685771D02*
X207840057Y-179185771D01*
X208482914Y-180685771D02*
X208482914Y-179900057D01*
X208411485Y-179757200D01*
X208268628Y-179685771D01*
X208054342Y-179685771D01*
X207911485Y-179757200D01*
X207840057Y-179828628D01*
X209197200Y-179685771D02*
X209197200Y-180685771D01*
X209197200Y-179828628D02*
X209268628Y-179757200D01*
X209411485Y-179685771D01*
X209625771Y-179685771D01*
X209768628Y-179757200D01*
X209840057Y-179900057D01*
X209840057Y-180685771D01*
X210768628Y-180685771D02*
X210625771Y-180614342D01*
X210554342Y-180542914D01*
X210482914Y-180400057D01*
X210482914Y-179971485D01*
X210554342Y-179828628D01*
X210625771Y-179757200D01*
X210768628Y-179685771D01*
X210982914Y-179685771D01*
X211125771Y-179757200D01*
X211197200Y-179828628D01*
X211268628Y-179971485D01*
X211268628Y-180400057D01*
X211197200Y-180542914D01*
X211125771Y-180614342D01*
X210982914Y-180685771D01*
X210768628Y-180685771D01*
X212125771Y-180685771D02*
X211982914Y-180614342D01*
X211911485Y-180471485D01*
X211911485Y-179185771D01*
X212911485Y-180685771D02*
X212768628Y-180614342D01*
X212697200Y-180542914D01*
X212625771Y-180400057D01*
X212625771Y-179971485D01*
X212697200Y-179828628D01*
X212768628Y-179757200D01*
X212911485Y-179685771D01*
X213125771Y-179685771D01*
X213268628Y-179757200D01*
X213340057Y-179828628D01*
X213411485Y-179971485D01*
X213411485Y-180400057D01*
X213340057Y-180542914D01*
X213268628Y-180614342D01*
X213125771Y-180685771D01*
X212911485Y-180685771D01*
X214697200Y-179685771D02*
X214697200Y-180900057D01*
X214625771Y-181042914D01*
X214554342Y-181114342D01*
X214411485Y-181185771D01*
X214197200Y-181185771D01*
X214054342Y-181114342D01*
X214697200Y-180614342D02*
X214554342Y-180685771D01*
X214268628Y-180685771D01*
X214125771Y-180614342D01*
X214054342Y-180542914D01*
X213982914Y-180400057D01*
X213982914Y-179971485D01*
X214054342Y-179828628D01*
X214125771Y-179757200D01*
X214268628Y-179685771D01*
X214554342Y-179685771D01*
X214697200Y-179757200D01*
X215268628Y-179685771D02*
X215625771Y-180685771D01*
X215982914Y-179685771D02*
X215625771Y-180685771D01*
X215482914Y-181042914D01*
X215411485Y-181114342D01*
X215268628Y-181185771D01*
X218125771Y-181257200D02*
X218054342Y-181185771D01*
X217911485Y-180971485D01*
X217840057Y-180828628D01*
X217768628Y-180614342D01*
X217697200Y-180257200D01*
X217697200Y-179971485D01*
X217768628Y-179614342D01*
X217840057Y-179400057D01*
X217911485Y-179257200D01*
X218054342Y-179042914D01*
X218125771Y-178971485D01*
X218697200Y-180685771D02*
X218697200Y-179185771D01*
X219554342Y-180685771D02*
X218911485Y-179828628D01*
X219554342Y-179185771D02*
X218697200Y-180042914D01*
X220197200Y-180685771D02*
X220197200Y-179185771D01*
X220697200Y-179185771D02*
X221554342Y-179185771D01*
X221125771Y-180685771D02*
X221125771Y-179185771D01*
X221911485Y-181257200D02*
X221982914Y-181185771D01*
X222125771Y-180971485D01*
X222197200Y-180828628D01*
X222268628Y-180614342D01*
X222340057Y-180257200D01*
X222340057Y-179971485D01*
X222268628Y-179614342D01*
X222197200Y-179400057D01*
X222125771Y-179257200D01*
X221982914Y-179042914D01*
X221911485Y-178971485D01*
D10*
D11*
X178434342Y-177685771D02*
X178434342Y-176185771D01*
X179148628Y-176685771D02*
X179148628Y-177685771D01*
X179148628Y-176828628D02*
X179220057Y-176757200D01*
X179362914Y-176685771D01*
X179577200Y-176685771D01*
X179720057Y-176757200D01*
X179791485Y-176900057D01*
X179791485Y-177685771D01*
X180434342Y-177614342D02*
X180577200Y-177685771D01*
X180862914Y-177685771D01*
X181005771Y-177614342D01*
X181077200Y-177471485D01*
X181077200Y-177400057D01*
X181005771Y-177257200D01*
X180862914Y-177185771D01*
X180648628Y-177185771D01*
X180505771Y-177114342D01*
X180434342Y-176971485D01*
X180434342Y-176900057D01*
X180505771Y-176757200D01*
X180648628Y-176685771D01*
X180862914Y-176685771D01*
X181005771Y-176757200D01*
X181505771Y-176685771D02*
X182077200Y-176685771D01*
X181720057Y-176185771D02*
X181720057Y-177471485D01*
X181791485Y-177614342D01*
X181934342Y-177685771D01*
X182077200Y-177685771D01*
X182577200Y-177685771D02*
X182577200Y-176685771D01*
X182577200Y-176185771D02*
X182505771Y-176257200D01*
X182577200Y-176328628D01*
X182648628Y-176257200D01*
X182577200Y-176185771D01*
X182577200Y-176328628D01*
X183077200Y-176685771D02*
X183648628Y-176685771D01*
X183291485Y-176185771D02*
X183291485Y-177471485D01*
X183362914Y-177614342D01*
X183505771Y-177685771D01*
X183648628Y-177685771D01*
X184791485Y-176685771D02*
X184791485Y-177685771D01*
X184148628Y-176685771D02*
X184148628Y-177471485D01*
X184220057Y-177614342D01*
X184362914Y-177685771D01*
X184577200Y-177685771D01*
X184720057Y-177614342D01*
X184791485Y-177542914D01*
X185291485Y-176685771D02*
X185862914Y-176685771D01*
X185505771Y-176185771D02*
X185505771Y-177471485D01*
X185577200Y-177614342D01*
X185720057Y-177685771D01*
X185862914Y-177685771D01*
X186934342Y-177614342D02*
X186791485Y-177685771D01*
X186505771Y-177685771D01*
X186362914Y-177614342D01*
X186291485Y-177471485D01*
X186291485Y-176900057D01*
X186362914Y-176757200D01*
X186505771Y-176685771D01*
X186791485Y-176685771D01*
X186934342Y-176757200D01*
X187005771Y-176900057D01*
X187005771Y-177042914D01*
X186291485Y-177185771D01*
X188577200Y-176685771D02*
X189148628Y-176685771D01*
X188791485Y-177685771D02*
X188791485Y-176400057D01*
X188862914Y-176257200D01*
X189005771Y-176185771D01*
X189148628Y-176185771D01*
X189862914Y-177685771D02*
X189720057Y-177614342D01*
X189648628Y-177542914D01*
X189577200Y-177400057D01*
X189577200Y-176971485D01*
X189648628Y-176828628D01*
X189720057Y-176757200D01*
X189862914Y-176685771D01*
X190077200Y-176685771D01*
X190220057Y-176757200D01*
X190291485Y-176828628D01*
X190362914Y-176971485D01*
X190362914Y-177400057D01*
X190291485Y-177542914D01*
X190220057Y-177614342D01*
X190077200Y-177685771D01*
X189862914Y-177685771D01*
X191005771Y-177685771D02*
X191005771Y-176685771D01*
X191005771Y-176971485D02*
X191077200Y-176828628D01*
X191148628Y-176757200D01*
X191291485Y-176685771D01*
X191434342Y-176685771D01*
X193077200Y-177685771D02*
X193077200Y-176185771D01*
X193434342Y-176185771D01*
X193648628Y-176257200D01*
X193791485Y-176400057D01*
X193862914Y-176542914D01*
X193934342Y-176828628D01*
X193934342Y-177042914D01*
X193862914Y-177328628D01*
X193791485Y-177471485D01*
X193648628Y-177614342D01*
X193434342Y-177685771D01*
X193077200Y-177685771D01*
X195220057Y-177685771D02*
X195220057Y-176900057D01*
X195148628Y-176757200D01*
X195005771Y-176685771D01*
X194720057Y-176685771D01*
X194577200Y-176757200D01*
X195220057Y-177614342D02*
X195077200Y-177685771D01*
X194720057Y-177685771D01*
X194577200Y-177614342D01*
X194505771Y-177471485D01*
X194505771Y-177328628D01*
X194577200Y-177185771D01*
X194720057Y-177114342D01*
X195077200Y-177114342D01*
X195220057Y-177042914D01*
X195720057Y-176685771D02*
X196291485Y-176685771D01*
X195934342Y-176185771D02*
X195934342Y-177471485D01*
X196005771Y-177614342D01*
X196148628Y-177685771D01*
X196291485Y-177685771D01*
X197434342Y-177685771D02*
X197434342Y-176900057D01*
X197362914Y-176757200D01*
X197220057Y-176685771D01*
X196934342Y-176685771D01*
X196791485Y-176757200D01*
X197434342Y-177614342D02*
X197291485Y-177685771D01*
X196934342Y-177685771D01*
X196791485Y-177614342D01*
X196720057Y-177471485D01*
X196720057Y-177328628D01*
X196791485Y-177185771D01*
X196934342Y-177114342D01*
X197291485Y-177114342D01*
X197434342Y-177042914D01*
X199291485Y-177685771D02*
X199291485Y-176185771D01*
X199862914Y-176185771D01*
X200005771Y-176257200D01*
X200077200Y-176328628D01*
X200148628Y-176471485D01*
X200148628Y-176685771D01*
X200077200Y-176828628D01*
X200005771Y-176900057D01*
X199862914Y-176971485D01*
X199291485Y-176971485D01*
X200791485Y-177685771D02*
X200791485Y-176685771D01*
X200791485Y-176971485D02*
X200862914Y-176828628D01*
X200934342Y-176757200D01*
X201077200Y-176685771D01*
X201220057Y-176685771D01*
X201934342Y-177685771D02*
X201791485Y-177614342D01*
X201720057Y-177542914D01*
X201648628Y-177400057D01*
X201648628Y-176971485D01*
X201720057Y-176828628D01*
X201791485Y-176757200D01*
X201934342Y-176685771D01*
X202148628Y-176685771D01*
X202291485Y-176757200D01*
X202362914Y-176828628D01*
X202434342Y-176971485D01*
X202434342Y-177400057D01*
X202362914Y-177542914D01*
X202291485Y-177614342D01*
X202148628Y-177685771D01*
X201934342Y-177685771D01*
X203720057Y-177614342D02*
X203577200Y-177685771D01*
X203291485Y-177685771D01*
X203148628Y-177614342D01*
X203077200Y-177542914D01*
X203005771Y-177400057D01*
X203005771Y-176971485D01*
X203077200Y-176828628D01*
X203148628Y-176757200D01*
X203291485Y-176685771D01*
X203577200Y-176685771D01*
X203720057Y-176757200D01*
X204934342Y-177614342D02*
X204791485Y-177685771D01*
X204505771Y-177685771D01*
X204362914Y-177614342D01*
X204291485Y-177471485D01*
X204291485Y-176900057D01*
X204362914Y-176757200D01*
X204505771Y-176685771D01*
X204791485Y-176685771D01*
X204934342Y-176757200D01*
X205005771Y-176900057D01*
X205005771Y-177042914D01*
X204291485Y-177185771D01*
X205577200Y-177614342D02*
X205720057Y-177685771D01*
X206005771Y-177685771D01*
X206148628Y-177614342D01*
X206220057Y-177471485D01*
X206220057Y-177400057D01*
X206148628Y-177257200D01*
X206005771Y-177185771D01*
X205791485Y-177185771D01*
X205648628Y-177114342D01*
X205577200Y-176971485D01*
X205577200Y-176900057D01*
X205648628Y-176757200D01*
X205791485Y-176685771D01*
X206005771Y-176685771D01*
X206148628Y-176757200D01*
X206791485Y-177614342D02*
X206934342Y-177685771D01*
X207220057Y-177685771D01*
X207362914Y-177614342D01*
X207434342Y-177471485D01*
X207434342Y-177400057D01*
X207362914Y-177257200D01*
X207220057Y-177185771D01*
X207005771Y-177185771D01*
X206862914Y-177114342D01*
X206791485Y-176971485D01*
X206791485Y-176900057D01*
X206862914Y-176757200D01*
X207005771Y-176685771D01*
X207220057Y-176685771D01*
X207362914Y-176757200D01*
X208077200Y-177685771D02*
X208077200Y-176685771D01*
X208077200Y-176185771D02*
X208005771Y-176257200D01*
X208077200Y-176328628D01*
X208148628Y-176257200D01*
X208077200Y-176185771D01*
X208077200Y-176328628D01*
X208791485Y-176685771D02*
X208791485Y-177685771D01*
X208791485Y-176828628D02*
X208862914Y-176757200D01*
X209005771Y-176685771D01*
X209220057Y-176685771D01*
X209362914Y-176757200D01*
X209434342Y-176900057D01*
X209434342Y-177685771D01*
X210791485Y-176685771D02*
X210791485Y-177900057D01*
X210720057Y-178042914D01*
X210648628Y-178114342D01*
X210505771Y-178185771D01*
X210291485Y-178185771D01*
X210148628Y-178114342D01*
X210791485Y-177614342D02*
X210648628Y-177685771D01*
X210362914Y-177685771D01*
X210220057Y-177614342D01*
X210148628Y-177542914D01*
X210077200Y-177400057D01*
X210077200Y-176971485D01*
X210148628Y-176828628D01*
X210220057Y-176757200D01*
X210362914Y-176685771D01*
X210648628Y-176685771D01*
X210791485Y-176757200D01*
X213291485Y-177685771D02*
X213291485Y-176900057D01*
X213220057Y-176757200D01*
X213077200Y-176685771D01*
X212791485Y-176685771D01*
X212648628Y-176757200D01*
X213291485Y-177614342D02*
X213148628Y-177685771D01*
X212791485Y-177685771D01*
X212648628Y-177614342D01*
X212577200Y-177471485D01*
X212577200Y-177328628D01*
X212648628Y-177185771D01*
X212791485Y-177114342D01*
X213148628Y-177114342D01*
X213291485Y-177042914D01*
X214005771Y-176685771D02*
X214005771Y-177685771D01*
X214005771Y-176828628D02*
X214077200Y-176757200D01*
X214220057Y-176685771D01*
X214434342Y-176685771D01*
X214577200Y-176757200D01*
X214648628Y-176900057D01*
X214648628Y-177685771D01*
X216005771Y-177685771D02*
X216005771Y-176185771D01*
X216005771Y-177614342D02*
X215862914Y-177685771D01*
X215577200Y-177685771D01*
X215434342Y-177614342D01*
X215362914Y-177542914D01*
X215291485Y-177400057D01*
X215291485Y-176971485D01*
X215362914Y-176828628D01*
X215434342Y-176757200D01*
X215577200Y-176685771D01*
X215862914Y-176685771D01*
X216005771Y-176757200D01*
X217862914Y-176900057D02*
X218362914Y-176900057D01*
X218577200Y-177685771D02*
X217862914Y-177685771D01*
X217862914Y-176185771D01*
X218577200Y-176185771D01*
X219434342Y-177685771D02*
X219291485Y-177614342D01*
X219220057Y-177471485D01*
X219220057Y-176185771D01*
X220577200Y-177614342D02*
X220434342Y-177685771D01*
X220148628Y-177685771D01*
X220005771Y-177614342D01*
X219934342Y-177471485D01*
X219934342Y-176900057D01*
X220005771Y-176757200D01*
X220148628Y-176685771D01*
X220434342Y-176685771D01*
X220577200Y-176757200D01*
X220648628Y-176900057D01*
X220648628Y-177042914D01*
X219934342Y-177185771D01*
X221934342Y-177614342D02*
X221791485Y-177685771D01*
X221505771Y-177685771D01*
X221362914Y-177614342D01*
X221291485Y-177542914D01*
X221220057Y-177400057D01*
X221220057Y-176971485D01*
X221291485Y-176828628D01*
X221362914Y-176757200D01*
X221505771Y-176685771D01*
X221791485Y-176685771D01*
X221934342Y-176757200D01*
X222362914Y-176685771D02*
X222934342Y-176685771D01*
X222577200Y-176185771D02*
X222577200Y-177471485D01*
X222648628Y-177614342D01*
X222791485Y-177685771D01*
X222934342Y-177685771D01*
X223434342Y-177685771D02*
X223434342Y-176685771D01*
X223434342Y-176971485D02*
X223505771Y-176828628D01*
X223577200Y-176757200D01*
X223720057Y-176685771D01*
X223862914Y-176685771D01*
X224577200Y-177685771D02*
X224434342Y-177614342D01*
X224362914Y-177542914D01*
X224291485Y-177400057D01*
X224291485Y-176971485D01*
X224362914Y-176828628D01*
X224434342Y-176757200D01*
X224577200Y-176685771D01*
X224791485Y-176685771D01*
X224934342Y-176757200D01*
X225005771Y-176828628D01*
X225077200Y-176971485D01*
X225077200Y-177400057D01*
X225005771Y-177542914D01*
X224934342Y-177614342D01*
X224791485Y-177685771D01*
X224577200Y-177685771D01*
X225720057Y-176685771D02*
X225720057Y-177685771D01*
X225720057Y-176828628D02*
X225791485Y-176757200D01*
X225934342Y-176685771D01*
X226148628Y-176685771D01*
X226291485Y-176757200D01*
X226362914Y-176900057D01*
X226362914Y-177685771D01*
X227077200Y-177685771D02*
X227077200Y-176685771D01*
X227077200Y-176185771D02*
X227005771Y-176257200D01*
X227077200Y-176328628D01*
X227148628Y-176257200D01*
X227077200Y-176185771D01*
X227077200Y-176328628D01*
X228434342Y-177614342D02*
X228291485Y-177685771D01*
X228005771Y-177685771D01*
X227862914Y-177614342D01*
X227791485Y-177542914D01*
X227720057Y-177400057D01*
X227720057Y-176971485D01*
X227791485Y-176828628D01*
X227862914Y-176757200D01*
X228005771Y-176685771D01*
X228291485Y-176685771D01*
X228434342Y-176757200D01*
X229005771Y-177614342D02*
X229148628Y-177685771D01*
X229434342Y-177685771D01*
X229577200Y-177614342D01*
X229648628Y-177471485D01*
X229648628Y-177400057D01*
X229577200Y-177257200D01*
X229434342Y-177185771D01*
X229220057Y-177185771D01*
X229077200Y-177114342D01*
X229005771Y-176971485D01*
X229005771Y-176900057D01*
X229077200Y-176757200D01*
X229220057Y-176685771D01*
X229434342Y-176685771D01*
X229577200Y-176757200D01*
X231862914Y-178257200D02*
X231791485Y-178185771D01*
X231648628Y-177971485D01*
X231577200Y-177828628D01*
X231505771Y-177614342D01*
X231434342Y-177257200D01*
X231434342Y-176971485D01*
X231505771Y-176614342D01*
X231577200Y-176400057D01*
X231648628Y-176257200D01*
X231791485Y-176042914D01*
X231862914Y-175971485D01*
X232434342Y-177685771D02*
X232434342Y-176185771D01*
X233148628Y-177685771D02*
X233148628Y-176185771D01*
X233720057Y-176185771D01*
X233862914Y-176257200D01*
X233934342Y-176328628D01*
X234005771Y-176471485D01*
X234005771Y-176685771D01*
X233934342Y-176828628D01*
X233862914Y-176900057D01*
X233720057Y-176971485D01*
X233148628Y-176971485D01*
X234648628Y-176900057D02*
X235148628Y-176900057D01*
X235362914Y-177685771D02*
X234648628Y-177685771D01*
X234648628Y-176185771D01*
X235362914Y-176185771D01*
X235862914Y-178257200D02*
X235934342Y-178185771D01*
X236077200Y-177971485D01*
X236148628Y-177828628D01*
X236220057Y-177614342D01*
X236291485Y-177257200D01*
X236291485Y-176971485D01*
X236220057Y-176614342D01*
X236148628Y-176400057D01*
X236077200Y-176257200D01*
X235934342Y-176042914D01*
X235862914Y-175971485D01*
D10*
D11*
X179291485Y-174685771D02*
X178791485Y-173971485D01*
X178434342Y-174685771D02*
X178434342Y-173185771D01*
X179005771Y-173185771D01*
X179148628Y-173257200D01*
X179220057Y-173328628D01*
X179291485Y-173471485D01*
X179291485Y-173685771D01*
X179220057Y-173828628D01*
X179148628Y-173900057D01*
X179005771Y-173971485D01*
X178434342Y-173971485D01*
X180148628Y-174685771D02*
X180005771Y-174614342D01*
X179934342Y-174542914D01*
X179862914Y-174400057D01*
X179862914Y-173971485D01*
X179934342Y-173828628D01*
X180005771Y-173757200D01*
X180148628Y-173685771D01*
X180362914Y-173685771D01*
X180505771Y-173757200D01*
X180577200Y-173828628D01*
X180648628Y-173971485D01*
X180648628Y-174400057D01*
X180577200Y-174542914D01*
X180505771Y-174614342D01*
X180362914Y-174685771D01*
X180148628Y-174685771D01*
X181291485Y-174685771D02*
X181291485Y-173185771D01*
X181291485Y-173757200D02*
X181434342Y-173685771D01*
X181720057Y-173685771D01*
X181862914Y-173757200D01*
X181934342Y-173828628D01*
X182005771Y-173971485D01*
X182005771Y-174400057D01*
X181934342Y-174542914D01*
X181862914Y-174614342D01*
X181720057Y-174685771D01*
X181434342Y-174685771D01*
X181291485Y-174614342D01*
X183220057Y-174614342D02*
X183077200Y-174685771D01*
X182791485Y-174685771D01*
X182648628Y-174614342D01*
X182577200Y-174471485D01*
X182577200Y-173900057D01*
X182648628Y-173757200D01*
X182791485Y-173685771D01*
X183077200Y-173685771D01*
X183220057Y-173757200D01*
X183291485Y-173900057D01*
X183291485Y-174042914D01*
X182577200Y-174185771D01*
X183934342Y-174685771D02*
X183934342Y-173685771D01*
X183934342Y-173971485D02*
X184005771Y-173828628D01*
X184077200Y-173757200D01*
X184220057Y-173685771D01*
X184362914Y-173685771D01*
X184648628Y-173685771D02*
X185220057Y-173685771D01*
X184862914Y-173185771D02*
X184862914Y-174471485D01*
X184934342Y-174614342D01*
X185077200Y-174685771D01*
X185220057Y-174685771D01*
X187648628Y-173257200D02*
X187505771Y-173185771D01*
X187291485Y-173185771D01*
X187077200Y-173257200D01*
X186934342Y-173400057D01*
X186862914Y-173542914D01*
X186791485Y-173828628D01*
X186791485Y-174042914D01*
X186862914Y-174328628D01*
X186934342Y-174471485D01*
X187077200Y-174614342D01*
X187291485Y-174685771D01*
X187434342Y-174685771D01*
X187648628Y-174614342D01*
X187720057Y-174542914D01*
X187720057Y-174042914D01*
X187434342Y-174042914D01*
X189005771Y-174685771D02*
X189005771Y-173900057D01*
X188934342Y-173757200D01*
X188791485Y-173685771D01*
X188505771Y-173685771D01*
X188362914Y-173757200D01*
X189005771Y-174614342D02*
X188862914Y-174685771D01*
X188505771Y-174685771D01*
X188362914Y-174614342D01*
X188291485Y-174471485D01*
X188291485Y-174328628D01*
X188362914Y-174185771D01*
X188505771Y-174114342D01*
X188862914Y-174114342D01*
X189005771Y-174042914D01*
X189720057Y-174685771D02*
X189720057Y-173685771D01*
X189720057Y-173971485D02*
X189791485Y-173828628D01*
X189862914Y-173757200D01*
X190005771Y-173685771D01*
X190148628Y-173685771D01*
X190434342Y-173685771D02*
X191005771Y-173685771D01*
X190648628Y-173185771D02*
X190648628Y-174471485D01*
X190720057Y-174614342D01*
X190862914Y-174685771D01*
X191005771Y-174685771D01*
X191505771Y-174685771D02*
X191505771Y-173685771D01*
X191505771Y-173828628D02*
X191577200Y-173757200D01*
X191720057Y-173685771D01*
X191934342Y-173685771D01*
X192077200Y-173757200D01*
X192148628Y-173900057D01*
X192148628Y-174685771D01*
X192148628Y-173900057D02*
X192220057Y-173757200D01*
X192362914Y-173685771D01*
X192577200Y-173685771D01*
X192720057Y-173757200D01*
X192791485Y-173900057D01*
X192791485Y-174685771D01*
X194148628Y-174685771D02*
X194148628Y-173900057D01*
X194077200Y-173757200D01*
X193934342Y-173685771D01*
X193648628Y-173685771D01*
X193505771Y-173757200D01*
X194148628Y-174614342D02*
X194005771Y-174685771D01*
X193648628Y-174685771D01*
X193505771Y-174614342D01*
X193434342Y-174471485D01*
X193434342Y-174328628D01*
X193505771Y-174185771D01*
X193648628Y-174114342D01*
X194005771Y-174114342D01*
X194148628Y-174042914D01*
X194862914Y-173685771D02*
X194862914Y-174685771D01*
X194862914Y-173828628D02*
X194934342Y-173757200D01*
X195077200Y-173685771D01*
X195291485Y-173685771D01*
X195434342Y-173757200D01*
X195505771Y-173900057D01*
X195505771Y-174685771D01*
X196220057Y-173685771D02*
X196220057Y-174685771D01*
X196220057Y-173828628D02*
X196291485Y-173757200D01*
X196434342Y-173685771D01*
X196648628Y-173685771D01*
X196791485Y-173757200D01*
X196862914Y-173900057D01*
X196862914Y-174685771D01*
X197648628Y-174614342D02*
X197648628Y-174685771D01*
X197577200Y-174828628D01*
X197505771Y-174900057D01*
X200148628Y-174685771D02*
X199434342Y-174685771D01*
X199434342Y-173185771D01*
X201291485Y-173685771D02*
X201291485Y-174685771D01*
X200648628Y-173685771D02*
X200648628Y-174471485D01*
X200720057Y-174614342D01*
X200862914Y-174685771D01*
X201077200Y-174685771D01*
X201220057Y-174614342D01*
X201291485Y-174542914D01*
X202005771Y-174685771D02*
X202005771Y-173185771D01*
X202148628Y-174114342D02*
X202577200Y-174685771D01*
X202577200Y-173685771D02*
X202005771Y-174257200D01*
X203862914Y-174685771D02*
X203862914Y-173900057D01*
X203791485Y-173757200D01*
X203648628Y-173685771D01*
X203362914Y-173685771D01*
X203220057Y-173757200D01*
X203862914Y-174614342D02*
X203720057Y-174685771D01*
X203362914Y-174685771D01*
X203220057Y-174614342D01*
X203148628Y-174471485D01*
X203148628Y-174328628D01*
X203220057Y-174185771D01*
X203362914Y-174114342D01*
X203720057Y-174114342D01*
X203862914Y-174042914D01*
X204505771Y-174614342D02*
X204648628Y-174685771D01*
X204934342Y-174685771D01*
X205077200Y-174614342D01*
X205148628Y-174471485D01*
X205148628Y-174400057D01*
X205077200Y-174257200D01*
X204934342Y-174185771D01*
X204720057Y-174185771D01*
X204577200Y-174114342D01*
X204505771Y-173971485D01*
X204505771Y-173900057D01*
X204577200Y-173757200D01*
X204720057Y-173685771D01*
X204934342Y-173685771D01*
X205077200Y-173757200D01*
X206862914Y-174614342D02*
X207077200Y-174685771D01*
X207434342Y-174685771D01*
X207577200Y-174614342D01*
X207648628Y-174542914D01*
X207720057Y-174400057D01*
X207720057Y-174257200D01*
X207648628Y-174114342D01*
X207577200Y-174042914D01*
X207434342Y-173971485D01*
X207148628Y-173900057D01*
X207005771Y-173828628D01*
X206934342Y-173757200D01*
X206862914Y-173614342D01*
X206862914Y-173471485D01*
X206934342Y-173328628D01*
X207005771Y-173257200D01*
X207148628Y-173185771D01*
X207505771Y-173185771D01*
X207720057Y-173257200D01*
X209005771Y-174614342D02*
X208862914Y-174685771D01*
X208577200Y-174685771D01*
X208434342Y-174614342D01*
X208362914Y-174542914D01*
X208291485Y-174400057D01*
X208291485Y-173971485D01*
X208362914Y-173828628D01*
X208434342Y-173757200D01*
X208577200Y-173685771D01*
X208862914Y-173685771D01*
X209005771Y-173757200D01*
X209648628Y-174685771D02*
X209648628Y-173185771D01*
X210291485Y-174685771D02*
X210291485Y-173900057D01*
X210220057Y-173757200D01*
X210077200Y-173685771D01*
X209862914Y-173685771D01*
X209720057Y-173757200D01*
X209648628Y-173828628D01*
X211577200Y-174614342D02*
X211434342Y-174685771D01*
X211148628Y-174685771D01*
X211005771Y-174614342D01*
X210934342Y-174471485D01*
X210934342Y-173900057D01*
X211005771Y-173757200D01*
X211148628Y-173685771D01*
X211434342Y-173685771D01*
X211577200Y-173757200D01*
X211648628Y-173900057D01*
X211648628Y-174042914D01*
X210934342Y-174185771D01*
X212505771Y-174685771D02*
X212362914Y-174614342D01*
X212291485Y-174471485D01*
X212291485Y-173185771D01*
X213291485Y-174685771D02*
X213148628Y-174614342D01*
X213077200Y-174471485D01*
X213077200Y-173185771D01*
X214434342Y-174614342D02*
X214291485Y-174685771D01*
X214005771Y-174685771D01*
X213862914Y-174614342D01*
X213791485Y-174471485D01*
X213791485Y-173900057D01*
X213862914Y-173757200D01*
X214005771Y-173685771D01*
X214291485Y-173685771D01*
X214434342Y-173757200D01*
X214505771Y-173900057D01*
X214505771Y-174042914D01*
X213791485Y-174185771D01*
X215148628Y-174685771D02*
X215148628Y-173685771D01*
X215148628Y-173971485D02*
X215220057Y-173828628D01*
X215291485Y-173757200D01*
X215434342Y-173685771D01*
X215577200Y-173685771D01*
D10*
D11*
X179148628Y-171685771D02*
X178434342Y-171685771D01*
X178434342Y-170185771D01*
X180291485Y-170685771D02*
X180291485Y-171685771D01*
X179648628Y-170685771D02*
X179648628Y-171471485D01*
X179720057Y-171614342D01*
X179862914Y-171685771D01*
X180077200Y-171685771D01*
X180220057Y-171614342D01*
X180291485Y-171542914D01*
X181005771Y-171685771D02*
X181005771Y-170685771D01*
X181005771Y-170185771D02*
X180934342Y-170257200D01*
X181005771Y-170328628D01*
X181077200Y-170257200D01*
X181005771Y-170185771D01*
X181005771Y-170328628D01*
X181648628Y-171614342D02*
X181791485Y-171685771D01*
X182077200Y-171685771D01*
X182220057Y-171614342D01*
X182291485Y-171471485D01*
X182291485Y-171400057D01*
X182220057Y-171257200D01*
X182077200Y-171185771D01*
X181862914Y-171185771D01*
X181720057Y-171114342D01*
X181648628Y-170971485D01*
X181648628Y-170900057D01*
X181720057Y-170757200D01*
X181862914Y-170685771D01*
X182077200Y-170685771D01*
X182220057Y-170757200D01*
X184005771Y-171257200D02*
X184720057Y-171257200D01*
X183862914Y-171685771D02*
X184362914Y-170185771D01*
X184862914Y-171685771D01*
X185362914Y-171685771D02*
X185362914Y-170685771D01*
X185362914Y-170971485D02*
X185434342Y-170828628D01*
X185505771Y-170757200D01*
X185648628Y-170685771D01*
X185791485Y-170685771D01*
X186934342Y-171685771D02*
X186934342Y-170185771D01*
X186934342Y-171614342D02*
X186791485Y-171685771D01*
X186505771Y-171685771D01*
X186362914Y-171614342D01*
X186291485Y-171542914D01*
X186220057Y-171400057D01*
X186220057Y-170971485D01*
X186291485Y-170828628D01*
X186362914Y-170757200D01*
X186505771Y-170685771D01*
X186791485Y-170685771D01*
X186934342Y-170757200D01*
X187648628Y-171685771D02*
X187648628Y-170685771D01*
X187648628Y-170185771D02*
X187577200Y-170257200D01*
X187648628Y-170328628D01*
X187720057Y-170257200D01*
X187648628Y-170185771D01*
X187648628Y-170328628D01*
X188577200Y-171685771D02*
X188434342Y-171614342D01*
X188362914Y-171471485D01*
X188362914Y-170185771D01*
X189791485Y-171685771D02*
X189791485Y-170900057D01*
X189720057Y-170757200D01*
X189577200Y-170685771D01*
X189291485Y-170685771D01*
X189148628Y-170757200D01*
X189791485Y-171614342D02*
X189648628Y-171685771D01*
X189291485Y-171685771D01*
X189148628Y-171614342D01*
X189077200Y-171471485D01*
X189077200Y-171328628D01*
X189148628Y-171185771D01*
X189291485Y-171114342D01*
X189648628Y-171114342D01*
X189791485Y-171042914D01*
X190577200Y-171614342D02*
X190577200Y-171685771D01*
X190505771Y-171828628D01*
X190434342Y-171900057D01*
X192362914Y-171685771D02*
X192362914Y-170185771D01*
X192862914Y-171257200D01*
X193362914Y-170185771D01*
X193362914Y-171685771D01*
X194720057Y-171685771D02*
X194720057Y-170900057D01*
X194648628Y-170757200D01*
X194505771Y-170685771D01*
X194220057Y-170685771D01*
X194077200Y-170757200D01*
X194720057Y-171614342D02*
X194577200Y-171685771D01*
X194220057Y-171685771D01*
X194077200Y-171614342D01*
X194005771Y-171471485D01*
X194005771Y-171328628D01*
X194077200Y-171185771D01*
X194220057Y-171114342D01*
X194577200Y-171114342D01*
X194720057Y-171042914D01*
X195434342Y-171685771D02*
X195434342Y-170685771D01*
X195434342Y-170971485D02*
X195505771Y-170828628D01*
X195577200Y-170757200D01*
X195720057Y-170685771D01*
X195862914Y-170685771D01*
X196220057Y-170685771D02*
X196577200Y-171685771D01*
X196934342Y-170685771D01*
X197505771Y-171685771D02*
X197505771Y-170685771D01*
X197505771Y-170185771D02*
X197434342Y-170257200D01*
X197505771Y-170328628D01*
X197577200Y-170257200D01*
X197505771Y-170185771D01*
X197505771Y-170328628D01*
X198220057Y-170685771D02*
X198220057Y-171685771D01*
X198220057Y-170828628D02*
X198291485Y-170757200D01*
X198434342Y-170685771D01*
X198648628Y-170685771D01*
X198791485Y-170757200D01*
X198862914Y-170900057D01*
X198862914Y-171685771D01*
X201220057Y-170900057D02*
X200720057Y-170900057D01*
X200720057Y-171685771D02*
X200720057Y-170185771D01*
X201434342Y-170185771D01*
X202648628Y-170685771D02*
X202648628Y-171685771D01*
X202005771Y-170685771D02*
X202005771Y-171471485D01*
X202077200Y-171614342D01*
X202220057Y-171685771D01*
X202434342Y-171685771D01*
X202577200Y-171614342D01*
X202648628Y-171542914D01*
X204005771Y-171614342D02*
X203862914Y-171685771D01*
X203577200Y-171685771D01*
X203434342Y-171614342D01*
X203362914Y-171542914D01*
X203291485Y-171400057D01*
X203291485Y-170971485D01*
X203362914Y-170828628D01*
X203434342Y-170757200D01*
X203577200Y-170685771D01*
X203862914Y-170685771D01*
X204005771Y-170757200D01*
X204648628Y-171685771D02*
X204648628Y-170185771D01*
X205291485Y-171685771D02*
X205291485Y-170900057D01*
X205220057Y-170757200D01*
X205077200Y-170685771D01*
X204862914Y-170685771D01*
X204720057Y-170757200D01*
X204648628Y-170828628D01*
X205934342Y-171614342D02*
X206077200Y-171685771D01*
X206362914Y-171685771D01*
X206505771Y-171614342D01*
X206577200Y-171471485D01*
X206577200Y-171400057D01*
X206505771Y-171257200D01*
X206362914Y-171185771D01*
X206148628Y-171185771D01*
X206005771Y-171114342D01*
X205934342Y-170971485D01*
X205934342Y-170900057D01*
X206005771Y-170757200D01*
X206148628Y-170685771D01*
X206362914Y-170685771D01*
X206505771Y-170757200D01*
X207291485Y-171614342D02*
X207291485Y-171685771D01*
X207220057Y-171828628D01*
X207148628Y-171900057D01*
D10*
D11*
X197002200Y-191507200D02*
X197002200Y-194507200D01*
D10*
D11*
X261002200Y-191507200D02*
X261002200Y-198007200D01*
D14*
X177000000Y-43600000D02*
X177000000Y-44700000D01*
X110000000Y-41000000D02*
X166200000Y-41000000D01*
X110000000Y-52000000D02*
X110000000Y-41000000D01*
X110000000Y-101500000D02*
X110000000Y-52000000D01*
X167200000Y-43600000D02*
G75*
G02*
X166200000Y-42600000I0J1000000D01*
G01*
X166200000Y-41000000D02*
X166200000Y-42600000D01*
X178000000Y-45700000D02*
G75*
G02*
X177000000Y-44700000I0J1000000D01*
G01*
X178000000Y-45700000D02*
X188500000Y-45700000D01*
X167200000Y-43600000D02*
X177000000Y-43600000D01*
X138400000Y-110000000D02*
X161400000Y-110000000D01*
X110000000Y-101500000D02*
X110000000Y-110000000D01*
X188500000Y-45700000D02*
X188500000Y-106700000D01*
X161400000Y-107700000D02*
G75*
G02*
X162400000Y-106700000I1000000J0D01*
G01*
X138400000Y-110000000D02*
X110000000Y-110000000D01*
X161400000Y-107700000D02*
X161400000Y-110000000D01*
X188500000Y-106700000D02*
X162400000Y-106700000D01*
M02*
