%TF.GenerationSoftware,KiCad,Pcbnew,5.1.7-a382d34a8~88~ubuntu16.04.1*%
%TF.CreationDate,2022-12-07T17:33:48+01:00*%
%TF.ProjectId,fmcp_sma,666d6370-5f73-46d6-912e-6b696361645f,1.0*%
%TF.SameCoordinates,Original*%
%TF.FileFunction,Soldermask,Top*%
%TF.FilePolarity,Negative*%
%FSLAX46Y46*%
G04 Gerber Fmt 4.6, Leading zero omitted, Abs format (unit mm)*
G04 Created by KiCad (PCBNEW 5.1.7-a382d34a8~88~ubuntu16.04.1) date 2022-12-07 17:33:48*
%MOMM*%
%LPD*%
G01*
G04 APERTURE LIST*
%ADD10C,0.050000*%
%ADD11C,0.150000*%
%ADD12C,0.300000*%
%ADD13C,0.400000*%
%ADD14C,0.010000*%
%ADD15C,0.120000*%
%ADD16C,1.270000*%
%ADD17C,1.550000*%
%ADD18C,0.510000*%
%ADD19C,2.000000*%
%ADD20C,2.250000*%
%ADD21C,2.050000*%
%ADD22C,2.700000*%
%ADD23C,5.400000*%
G04 APERTURE END LIST*
D10*
D11*
X177002200Y-166007200D02*
X177002200Y-198007200D01*
X285002200Y-198007200D01*
X285002200Y-166007200D01*
X177002200Y-166007200D01*
D10*
D11*
X10000000Y-10000000D02*
X10000000Y-200007200D01*
X287002200Y-200007200D01*
X287002200Y-10000000D01*
X10000000Y-10000000D01*
D10*
D11*
X12000000Y-12000000D02*
X12000000Y-198007200D01*
X285002200Y-198007200D01*
X285002200Y-12000000D01*
X12000000Y-12000000D01*
D10*
D11*
X60000000Y-12000000D02*
X60000000Y-10000000D01*
D10*
D11*
X110000000Y-12000000D02*
X110000000Y-10000000D01*
D10*
D11*
X160000000Y-12000000D02*
X160000000Y-10000000D01*
D10*
D11*
X210000000Y-12000000D02*
X210000000Y-10000000D01*
D10*
D11*
X260000000Y-12000000D02*
X260000000Y-10000000D01*
D10*
D11*
X36065476Y-11588095D02*
X35322619Y-11588095D01*
X35694047Y-11588095D02*
X35694047Y-10288095D01*
X35570238Y-10473809D01*
X35446428Y-10597619D01*
X35322619Y-10659523D01*
D10*
D11*
X85322619Y-10411904D02*
X85384523Y-10350000D01*
X85508333Y-10288095D01*
X85817857Y-10288095D01*
X85941666Y-10350000D01*
X86003571Y-10411904D01*
X86065476Y-10535714D01*
X86065476Y-10659523D01*
X86003571Y-10845238D01*
X85260714Y-11588095D01*
X86065476Y-11588095D01*
D10*
D11*
X135260714Y-10288095D02*
X136065476Y-10288095D01*
X135632142Y-10783333D01*
X135817857Y-10783333D01*
X135941666Y-10845238D01*
X136003571Y-10907142D01*
X136065476Y-11030952D01*
X136065476Y-11340476D01*
X136003571Y-11464285D01*
X135941666Y-11526190D01*
X135817857Y-11588095D01*
X135446428Y-11588095D01*
X135322619Y-11526190D01*
X135260714Y-11464285D01*
D10*
D11*
X185941666Y-10721428D02*
X185941666Y-11588095D01*
X185632142Y-10226190D02*
X185322619Y-11154761D01*
X186127380Y-11154761D01*
D10*
D11*
X236003571Y-10288095D02*
X235384523Y-10288095D01*
X235322619Y-10907142D01*
X235384523Y-10845238D01*
X235508333Y-10783333D01*
X235817857Y-10783333D01*
X235941666Y-10845238D01*
X236003571Y-10907142D01*
X236065476Y-11030952D01*
X236065476Y-11340476D01*
X236003571Y-11464285D01*
X235941666Y-11526190D01*
X235817857Y-11588095D01*
X235508333Y-11588095D01*
X235384523Y-11526190D01*
X235322619Y-11464285D01*
D10*
D11*
X285941666Y-10288095D02*
X285694047Y-10288095D01*
X285570238Y-10350000D01*
X285508333Y-10411904D01*
X285384523Y-10597619D01*
X285322619Y-10845238D01*
X285322619Y-11340476D01*
X285384523Y-11464285D01*
X285446428Y-11526190D01*
X285570238Y-11588095D01*
X285817857Y-11588095D01*
X285941666Y-11526190D01*
X286003571Y-11464285D01*
X286065476Y-11340476D01*
X286065476Y-11030952D01*
X286003571Y-10907142D01*
X285941666Y-10845238D01*
X285817857Y-10783333D01*
X285570238Y-10783333D01*
X285446428Y-10845238D01*
X285384523Y-10907142D01*
X285322619Y-11030952D01*
D10*
D11*
X60000000Y-198007200D02*
X60000000Y-200007200D01*
D10*
D11*
X110000000Y-198007200D02*
X110000000Y-200007200D01*
D10*
D11*
X160000000Y-198007200D02*
X160000000Y-200007200D01*
D10*
D11*
X210000000Y-198007200D02*
X210000000Y-200007200D01*
D10*
D11*
X260000000Y-198007200D02*
X260000000Y-200007200D01*
D10*
D11*
X36065476Y-199595295D02*
X35322619Y-199595295D01*
X35694047Y-199595295D02*
X35694047Y-198295295D01*
X35570238Y-198481009D01*
X35446428Y-198604819D01*
X35322619Y-198666723D01*
D10*
D11*
X85322619Y-198419104D02*
X85384523Y-198357200D01*
X85508333Y-198295295D01*
X85817857Y-198295295D01*
X85941666Y-198357200D01*
X86003571Y-198419104D01*
X86065476Y-198542914D01*
X86065476Y-198666723D01*
X86003571Y-198852438D01*
X85260714Y-199595295D01*
X86065476Y-199595295D01*
D10*
D11*
X135260714Y-198295295D02*
X136065476Y-198295295D01*
X135632142Y-198790533D01*
X135817857Y-198790533D01*
X135941666Y-198852438D01*
X136003571Y-198914342D01*
X136065476Y-199038152D01*
X136065476Y-199347676D01*
X136003571Y-199471485D01*
X135941666Y-199533390D01*
X135817857Y-199595295D01*
X135446428Y-199595295D01*
X135322619Y-199533390D01*
X135260714Y-199471485D01*
D10*
D11*
X185941666Y-198728628D02*
X185941666Y-199595295D01*
X185632142Y-198233390D02*
X185322619Y-199161961D01*
X186127380Y-199161961D01*
D10*
D11*
X236003571Y-198295295D02*
X235384523Y-198295295D01*
X235322619Y-198914342D01*
X235384523Y-198852438D01*
X235508333Y-198790533D01*
X235817857Y-198790533D01*
X235941666Y-198852438D01*
X236003571Y-198914342D01*
X236065476Y-199038152D01*
X236065476Y-199347676D01*
X236003571Y-199471485D01*
X235941666Y-199533390D01*
X235817857Y-199595295D01*
X235508333Y-199595295D01*
X235384523Y-199533390D01*
X235322619Y-199471485D01*
D10*
D11*
X285941666Y-198295295D02*
X285694047Y-198295295D01*
X285570238Y-198357200D01*
X285508333Y-198419104D01*
X285384523Y-198604819D01*
X285322619Y-198852438D01*
X285322619Y-199347676D01*
X285384523Y-199471485D01*
X285446428Y-199533390D01*
X285570238Y-199595295D01*
X285817857Y-199595295D01*
X285941666Y-199533390D01*
X286003571Y-199471485D01*
X286065476Y-199347676D01*
X286065476Y-199038152D01*
X286003571Y-198914342D01*
X285941666Y-198852438D01*
X285817857Y-198790533D01*
X285570238Y-198790533D01*
X285446428Y-198852438D01*
X285384523Y-198914342D01*
X285322619Y-199038152D01*
D10*
D11*
X10000000Y-60000000D02*
X12000000Y-60000000D01*
D10*
D11*
X10000000Y-110000000D02*
X12000000Y-110000000D01*
D10*
D11*
X10000000Y-160000000D02*
X12000000Y-160000000D01*
D10*
D11*
X10690476Y-35216666D02*
X11309523Y-35216666D01*
X10566666Y-35588095D02*
X11000000Y-34288095D01*
X11433333Y-35588095D01*
D10*
D11*
X11092857Y-84907142D02*
X11278571Y-84969047D01*
X11340476Y-85030952D01*
X11402380Y-85154761D01*
X11402380Y-85340476D01*
X11340476Y-85464285D01*
X11278571Y-85526190D01*
X11154761Y-85588095D01*
X10659523Y-85588095D01*
X10659523Y-84288095D01*
X11092857Y-84288095D01*
X11216666Y-84350000D01*
X11278571Y-84411904D01*
X11340476Y-84535714D01*
X11340476Y-84659523D01*
X11278571Y-84783333D01*
X11216666Y-84845238D01*
X11092857Y-84907142D01*
X10659523Y-84907142D01*
D10*
D11*
X11402380Y-135464285D02*
X11340476Y-135526190D01*
X11154761Y-135588095D01*
X11030952Y-135588095D01*
X10845238Y-135526190D01*
X10721428Y-135402380D01*
X10659523Y-135278571D01*
X10597619Y-135030952D01*
X10597619Y-134845238D01*
X10659523Y-134597619D01*
X10721428Y-134473809D01*
X10845238Y-134350000D01*
X11030952Y-134288095D01*
X11154761Y-134288095D01*
X11340476Y-134350000D01*
X11402380Y-134411904D01*
D10*
D11*
X10659523Y-185588095D02*
X10659523Y-184288095D01*
X10969047Y-184288095D01*
X11154761Y-184350000D01*
X11278571Y-184473809D01*
X11340476Y-184597619D01*
X11402380Y-184845238D01*
X11402380Y-185030952D01*
X11340476Y-185278571D01*
X11278571Y-185402380D01*
X11154761Y-185526190D01*
X10969047Y-185588095D01*
X10659523Y-185588095D01*
D10*
D11*
X287002200Y-60000000D02*
X285002200Y-60000000D01*
D10*
D11*
X287002200Y-110000000D02*
X285002200Y-110000000D01*
D10*
D11*
X287002200Y-160000000D02*
X285002200Y-160000000D01*
D10*
D11*
X285692676Y-35216666D02*
X286311723Y-35216666D01*
X285568866Y-35588095D02*
X286002200Y-34288095D01*
X286435533Y-35588095D01*
D10*
D11*
X286095057Y-84907142D02*
X286280771Y-84969047D01*
X286342676Y-85030952D01*
X286404580Y-85154761D01*
X286404580Y-85340476D01*
X286342676Y-85464285D01*
X286280771Y-85526190D01*
X286156961Y-85588095D01*
X285661723Y-85588095D01*
X285661723Y-84288095D01*
X286095057Y-84288095D01*
X286218866Y-84350000D01*
X286280771Y-84411904D01*
X286342676Y-84535714D01*
X286342676Y-84659523D01*
X286280771Y-84783333D01*
X286218866Y-84845238D01*
X286095057Y-84907142D01*
X285661723Y-84907142D01*
D10*
D11*
X286404580Y-135464285D02*
X286342676Y-135526190D01*
X286156961Y-135588095D01*
X286033152Y-135588095D01*
X285847438Y-135526190D01*
X285723628Y-135402380D01*
X285661723Y-135278571D01*
X285599819Y-135030952D01*
X285599819Y-134845238D01*
X285661723Y-134597619D01*
X285723628Y-134473809D01*
X285847438Y-134350000D01*
X286033152Y-134288095D01*
X286156961Y-134288095D01*
X286342676Y-134350000D01*
X286404580Y-134411904D01*
D10*
D11*
X285661723Y-185588095D02*
X285661723Y-184288095D01*
X285971247Y-184288095D01*
X286156961Y-184350000D01*
X286280771Y-184473809D01*
X286342676Y-184597619D01*
X286404580Y-184845238D01*
X286404580Y-185030952D01*
X286342676Y-185278571D01*
X286280771Y-185402380D01*
X286156961Y-185526190D01*
X285971247Y-185588095D01*
X285661723Y-185588095D01*
D10*
D11*
X200434342Y-193785771D02*
X200434342Y-192285771D01*
X200791485Y-192285771D01*
X201005771Y-192357200D01*
X201148628Y-192500057D01*
X201220057Y-192642914D01*
X201291485Y-192928628D01*
X201291485Y-193142914D01*
X201220057Y-193428628D01*
X201148628Y-193571485D01*
X201005771Y-193714342D01*
X200791485Y-193785771D01*
X200434342Y-193785771D01*
X202577200Y-193785771D02*
X202577200Y-193000057D01*
X202505771Y-192857200D01*
X202362914Y-192785771D01*
X202077200Y-192785771D01*
X201934342Y-192857200D01*
X202577200Y-193714342D02*
X202434342Y-193785771D01*
X202077200Y-193785771D01*
X201934342Y-193714342D01*
X201862914Y-193571485D01*
X201862914Y-193428628D01*
X201934342Y-193285771D01*
X202077200Y-193214342D01*
X202434342Y-193214342D01*
X202577200Y-193142914D01*
X203077200Y-192785771D02*
X203648628Y-192785771D01*
X203291485Y-192285771D02*
X203291485Y-193571485D01*
X203362914Y-193714342D01*
X203505771Y-193785771D01*
X203648628Y-193785771D01*
X204720057Y-193714342D02*
X204577200Y-193785771D01*
X204291485Y-193785771D01*
X204148628Y-193714342D01*
X204077200Y-193571485D01*
X204077200Y-193000057D01*
X204148628Y-192857200D01*
X204291485Y-192785771D01*
X204577200Y-192785771D01*
X204720057Y-192857200D01*
X204791485Y-193000057D01*
X204791485Y-193142914D01*
X204077200Y-193285771D01*
X205434342Y-193642914D02*
X205505771Y-193714342D01*
X205434342Y-193785771D01*
X205362914Y-193714342D01*
X205434342Y-193642914D01*
X205434342Y-193785771D01*
X205434342Y-192857200D02*
X205505771Y-192928628D01*
X205434342Y-193000057D01*
X205362914Y-192928628D01*
X205434342Y-192857200D01*
X205434342Y-193000057D01*
X207220057Y-192428628D02*
X207291485Y-192357200D01*
X207434342Y-192285771D01*
X207791485Y-192285771D01*
X207934342Y-192357200D01*
X208005771Y-192428628D01*
X208077200Y-192571485D01*
X208077200Y-192714342D01*
X208005771Y-192928628D01*
X207148628Y-193785771D01*
X208077200Y-193785771D01*
X209005771Y-192285771D02*
X209148628Y-192285771D01*
X209291485Y-192357200D01*
X209362914Y-192428628D01*
X209434342Y-192571485D01*
X209505771Y-192857200D01*
X209505771Y-193214342D01*
X209434342Y-193500057D01*
X209362914Y-193642914D01*
X209291485Y-193714342D01*
X209148628Y-193785771D01*
X209005771Y-193785771D01*
X208862914Y-193714342D01*
X208791485Y-193642914D01*
X208720057Y-193500057D01*
X208648628Y-193214342D01*
X208648628Y-192857200D01*
X208720057Y-192571485D01*
X208791485Y-192428628D01*
X208862914Y-192357200D01*
X209005771Y-192285771D01*
X210077200Y-192428628D02*
X210148628Y-192357200D01*
X210291485Y-192285771D01*
X210648628Y-192285771D01*
X210791485Y-192357200D01*
X210862914Y-192428628D01*
X210934342Y-192571485D01*
X210934342Y-192714342D01*
X210862914Y-192928628D01*
X210005771Y-193785771D01*
X210934342Y-193785771D01*
X211505771Y-192428628D02*
X211577200Y-192357200D01*
X211720057Y-192285771D01*
X212077200Y-192285771D01*
X212220057Y-192357200D01*
X212291485Y-192428628D01*
X212362914Y-192571485D01*
X212362914Y-192714342D01*
X212291485Y-192928628D01*
X211434342Y-193785771D01*
X212362914Y-193785771D01*
X213005771Y-193214342D02*
X214148628Y-193214342D01*
X215648628Y-193785771D02*
X214791485Y-193785771D01*
X215220057Y-193785771D02*
X215220057Y-192285771D01*
X215077200Y-192500057D01*
X214934342Y-192642914D01*
X214791485Y-192714342D01*
X216220057Y-192428628D02*
X216291485Y-192357200D01*
X216434342Y-192285771D01*
X216791485Y-192285771D01*
X216934342Y-192357200D01*
X217005771Y-192428628D01*
X217077200Y-192571485D01*
X217077200Y-192714342D01*
X217005771Y-192928628D01*
X216148628Y-193785771D01*
X217077200Y-193785771D01*
X217720057Y-193214342D02*
X218862914Y-193214342D01*
X219862914Y-192285771D02*
X220005771Y-192285771D01*
X220148628Y-192357200D01*
X220220057Y-192428628D01*
X220291485Y-192571485D01*
X220362914Y-192857200D01*
X220362914Y-193214342D01*
X220291485Y-193500057D01*
X220220057Y-193642914D01*
X220148628Y-193714342D01*
X220005771Y-193785771D01*
X219862914Y-193785771D01*
X219720057Y-193714342D01*
X219648628Y-193642914D01*
X219577200Y-193500057D01*
X219505771Y-193214342D01*
X219505771Y-192857200D01*
X219577200Y-192571485D01*
X219648628Y-192428628D01*
X219720057Y-192357200D01*
X219862914Y-192285771D01*
X220862914Y-192285771D02*
X221862914Y-192285771D01*
X221220057Y-193785771D01*
D10*
D11*
X177002200Y-194507200D02*
X285002200Y-194507200D01*
D10*
D11*
X178434342Y-196585771D02*
X178434342Y-195085771D01*
X179291485Y-196585771D02*
X178648628Y-195728628D01*
X179291485Y-195085771D02*
X178434342Y-195942914D01*
X179934342Y-196585771D02*
X179934342Y-195585771D01*
X179934342Y-195085771D02*
X179862914Y-195157200D01*
X179934342Y-195228628D01*
X180005771Y-195157200D01*
X179934342Y-195085771D01*
X179934342Y-195228628D01*
X181505771Y-196442914D02*
X181434342Y-196514342D01*
X181220057Y-196585771D01*
X181077200Y-196585771D01*
X180862914Y-196514342D01*
X180720057Y-196371485D01*
X180648628Y-196228628D01*
X180577200Y-195942914D01*
X180577200Y-195728628D01*
X180648628Y-195442914D01*
X180720057Y-195300057D01*
X180862914Y-195157200D01*
X181077200Y-195085771D01*
X181220057Y-195085771D01*
X181434342Y-195157200D01*
X181505771Y-195228628D01*
X182791485Y-196585771D02*
X182791485Y-195800057D01*
X182720057Y-195657200D01*
X182577200Y-195585771D01*
X182291485Y-195585771D01*
X182148628Y-195657200D01*
X182791485Y-196514342D02*
X182648628Y-196585771D01*
X182291485Y-196585771D01*
X182148628Y-196514342D01*
X182077200Y-196371485D01*
X182077200Y-196228628D01*
X182148628Y-196085771D01*
X182291485Y-196014342D01*
X182648628Y-196014342D01*
X182791485Y-195942914D01*
X184148628Y-196585771D02*
X184148628Y-195085771D01*
X184148628Y-196514342D02*
X184005771Y-196585771D01*
X183720057Y-196585771D01*
X183577200Y-196514342D01*
X183505771Y-196442914D01*
X183434342Y-196300057D01*
X183434342Y-195871485D01*
X183505771Y-195728628D01*
X183577200Y-195657200D01*
X183720057Y-195585771D01*
X184005771Y-195585771D01*
X184148628Y-195657200D01*
X186005771Y-195800057D02*
X186505771Y-195800057D01*
X186720057Y-196585771D02*
X186005771Y-196585771D01*
X186005771Y-195085771D01*
X186720057Y-195085771D01*
X187362914Y-196442914D02*
X187434342Y-196514342D01*
X187362914Y-196585771D01*
X187291485Y-196514342D01*
X187362914Y-196442914D01*
X187362914Y-196585771D01*
X188077200Y-196585771D02*
X188077200Y-195085771D01*
X188434342Y-195085771D01*
X188648628Y-195157200D01*
X188791485Y-195300057D01*
X188862914Y-195442914D01*
X188934342Y-195728628D01*
X188934342Y-195942914D01*
X188862914Y-196228628D01*
X188791485Y-196371485D01*
X188648628Y-196514342D01*
X188434342Y-196585771D01*
X188077200Y-196585771D01*
X189577200Y-196442914D02*
X189648628Y-196514342D01*
X189577200Y-196585771D01*
X189505771Y-196514342D01*
X189577200Y-196442914D01*
X189577200Y-196585771D01*
X190220057Y-196157200D02*
X190934342Y-196157200D01*
X190077200Y-196585771D02*
X190577200Y-195085771D01*
X191077200Y-196585771D01*
X191577200Y-196442914D02*
X191648628Y-196514342D01*
X191577200Y-196585771D01*
X191505771Y-196514342D01*
X191577200Y-196442914D01*
X191577200Y-196585771D01*
X194577200Y-196585771D02*
X194577200Y-195085771D01*
X194720057Y-196014342D02*
X195148628Y-196585771D01*
X195148628Y-195585771D02*
X194577200Y-196157200D01*
X195791485Y-196585771D02*
X195791485Y-195585771D01*
X195791485Y-195085771D02*
X195720057Y-195157200D01*
X195791485Y-195228628D01*
X195862914Y-195157200D01*
X195791485Y-195085771D01*
X195791485Y-195228628D01*
X197148628Y-196514342D02*
X197005771Y-196585771D01*
X196720057Y-196585771D01*
X196577200Y-196514342D01*
X196505771Y-196442914D01*
X196434342Y-196300057D01*
X196434342Y-195871485D01*
X196505771Y-195728628D01*
X196577200Y-195657200D01*
X196720057Y-195585771D01*
X197005771Y-195585771D01*
X197148628Y-195657200D01*
X198434342Y-196585771D02*
X198434342Y-195800057D01*
X198362914Y-195657200D01*
X198220057Y-195585771D01*
X197934342Y-195585771D01*
X197791485Y-195657200D01*
X198434342Y-196514342D02*
X198291485Y-196585771D01*
X197934342Y-196585771D01*
X197791485Y-196514342D01*
X197720057Y-196371485D01*
X197720057Y-196228628D01*
X197791485Y-196085771D01*
X197934342Y-196014342D01*
X198291485Y-196014342D01*
X198434342Y-195942914D01*
X199791485Y-196585771D02*
X199791485Y-195085771D01*
X199791485Y-196514342D02*
X199648628Y-196585771D01*
X199362914Y-196585771D01*
X199220057Y-196514342D01*
X199148628Y-196442914D01*
X199077200Y-196300057D01*
X199077200Y-195871485D01*
X199148628Y-195728628D01*
X199220057Y-195657200D01*
X199362914Y-195585771D01*
X199648628Y-195585771D01*
X199791485Y-195657200D01*
X202362914Y-195085771D02*
X201648628Y-195085771D01*
X201577200Y-195800057D01*
X201648628Y-195728628D01*
X201791485Y-195657200D01*
X202148628Y-195657200D01*
X202291485Y-195728628D01*
X202362914Y-195800057D01*
X202434342Y-195942914D01*
X202434342Y-196300057D01*
X202362914Y-196442914D01*
X202291485Y-196514342D01*
X202148628Y-196585771D01*
X201791485Y-196585771D01*
X201648628Y-196514342D01*
X201577200Y-196442914D01*
X203077200Y-196442914D02*
X203148628Y-196514342D01*
X203077200Y-196585771D01*
X203005771Y-196514342D01*
X203077200Y-196442914D01*
X203077200Y-196585771D01*
X204577200Y-196585771D02*
X203720057Y-196585771D01*
X204148628Y-196585771D02*
X204148628Y-195085771D01*
X204005771Y-195300057D01*
X203862914Y-195442914D01*
X203720057Y-195514342D01*
X205220057Y-196442914D02*
X205291485Y-196514342D01*
X205220057Y-196585771D01*
X205148628Y-196514342D01*
X205220057Y-196442914D01*
X205220057Y-196585771D01*
X205791485Y-195085771D02*
X206791485Y-195085771D01*
X206148628Y-196585771D01*
X207362914Y-196014342D02*
X208505771Y-196014342D01*
X209862914Y-196585771D02*
X209862914Y-195800057D01*
X209791485Y-195657200D01*
X209648628Y-195585771D01*
X209362914Y-195585771D01*
X209220057Y-195657200D01*
X209862914Y-196514342D02*
X209720057Y-196585771D01*
X209362914Y-196585771D01*
X209220057Y-196514342D01*
X209148628Y-196371485D01*
X209148628Y-196228628D01*
X209220057Y-196085771D01*
X209362914Y-196014342D01*
X209720057Y-196014342D01*
X209862914Y-195942914D01*
X210434342Y-195085771D02*
X211362914Y-195085771D01*
X210862914Y-195657200D01*
X211077200Y-195657200D01*
X211220057Y-195728628D01*
X211291485Y-195800057D01*
X211362914Y-195942914D01*
X211362914Y-196300057D01*
X211291485Y-196442914D01*
X211220057Y-196514342D01*
X211077200Y-196585771D01*
X210648628Y-196585771D01*
X210505771Y-196514342D01*
X210434342Y-196442914D01*
X212220057Y-195728628D02*
X212077200Y-195657200D01*
X212005771Y-195585771D01*
X211934342Y-195442914D01*
X211934342Y-195371485D01*
X212005771Y-195228628D01*
X212077200Y-195157200D01*
X212220057Y-195085771D01*
X212505771Y-195085771D01*
X212648628Y-195157200D01*
X212720057Y-195228628D01*
X212791485Y-195371485D01*
X212791485Y-195442914D01*
X212720057Y-195585771D01*
X212648628Y-195657200D01*
X212505771Y-195728628D01*
X212220057Y-195728628D01*
X212077200Y-195800057D01*
X212005771Y-195871485D01*
X211934342Y-196014342D01*
X211934342Y-196300057D01*
X212005771Y-196442914D01*
X212077200Y-196514342D01*
X212220057Y-196585771D01*
X212505771Y-196585771D01*
X212648628Y-196514342D01*
X212720057Y-196442914D01*
X212791485Y-196300057D01*
X212791485Y-196014342D01*
X212720057Y-195871485D01*
X212648628Y-195800057D01*
X212505771Y-195728628D01*
X213362914Y-195228628D02*
X213434342Y-195157200D01*
X213577200Y-195085771D01*
X213934342Y-195085771D01*
X214077200Y-195157200D01*
X214148628Y-195228628D01*
X214220057Y-195371485D01*
X214220057Y-195514342D01*
X214148628Y-195728628D01*
X213291485Y-196585771D01*
X214220057Y-196585771D01*
X215505771Y-196585771D02*
X215505771Y-195085771D01*
X215505771Y-196514342D02*
X215362914Y-196585771D01*
X215077200Y-196585771D01*
X214934342Y-196514342D01*
X214862914Y-196442914D01*
X214791485Y-196300057D01*
X214791485Y-195871485D01*
X214862914Y-195728628D01*
X214934342Y-195657200D01*
X215077200Y-195585771D01*
X215362914Y-195585771D01*
X215505771Y-195657200D01*
X216077200Y-195085771D02*
X217005771Y-195085771D01*
X216505771Y-195657200D01*
X216720057Y-195657200D01*
X216862914Y-195728628D01*
X216934342Y-195800057D01*
X217005771Y-195942914D01*
X217005771Y-196300057D01*
X216934342Y-196442914D01*
X216862914Y-196514342D01*
X216720057Y-196585771D01*
X216291485Y-196585771D01*
X216148628Y-196514342D01*
X216077200Y-196442914D01*
X218291485Y-195585771D02*
X218291485Y-196585771D01*
X217934342Y-195014342D02*
X217577200Y-196085771D01*
X218505771Y-196085771D01*
X219720057Y-196585771D02*
X219720057Y-195800057D01*
X219648628Y-195657200D01*
X219505771Y-195585771D01*
X219220057Y-195585771D01*
X219077200Y-195657200D01*
X219720057Y-196514342D02*
X219577200Y-196585771D01*
X219220057Y-196585771D01*
X219077200Y-196514342D01*
X219005771Y-196371485D01*
X219005771Y-196228628D01*
X219077200Y-196085771D01*
X219220057Y-196014342D01*
X219577200Y-196014342D01*
X219720057Y-195942914D01*
X220648628Y-195728628D02*
X220505771Y-195657200D01*
X220434342Y-195585771D01*
X220362914Y-195442914D01*
X220362914Y-195371485D01*
X220434342Y-195228628D01*
X220505771Y-195157200D01*
X220648628Y-195085771D01*
X220934342Y-195085771D01*
X221077200Y-195157200D01*
X221148628Y-195228628D01*
X221220057Y-195371485D01*
X221220057Y-195442914D01*
X221148628Y-195585771D01*
X221077200Y-195657200D01*
X220934342Y-195728628D01*
X220648628Y-195728628D01*
X220505771Y-195800057D01*
X220434342Y-195871485D01*
X220362914Y-196014342D01*
X220362914Y-196300057D01*
X220434342Y-196442914D01*
X220505771Y-196514342D01*
X220648628Y-196585771D01*
X220934342Y-196585771D01*
X221077200Y-196514342D01*
X221148628Y-196442914D01*
X221220057Y-196300057D01*
X221220057Y-196014342D01*
X221148628Y-195871485D01*
X221077200Y-195800057D01*
X220934342Y-195728628D01*
X221505771Y-194677200D02*
X222934342Y-194677200D01*
X222077200Y-195728628D02*
X221934342Y-195657200D01*
X221862914Y-195585771D01*
X221791485Y-195442914D01*
X221791485Y-195371485D01*
X221862914Y-195228628D01*
X221934342Y-195157200D01*
X222077200Y-195085771D01*
X222362914Y-195085771D01*
X222505771Y-195157200D01*
X222577200Y-195228628D01*
X222648628Y-195371485D01*
X222648628Y-195442914D01*
X222577200Y-195585771D01*
X222505771Y-195657200D01*
X222362914Y-195728628D01*
X222077200Y-195728628D01*
X221934342Y-195800057D01*
X221862914Y-195871485D01*
X221791485Y-196014342D01*
X221791485Y-196300057D01*
X221862914Y-196442914D01*
X221934342Y-196514342D01*
X222077200Y-196585771D01*
X222362914Y-196585771D01*
X222505771Y-196514342D01*
X222577200Y-196442914D01*
X222648628Y-196300057D01*
X222648628Y-196014342D01*
X222577200Y-195871485D01*
X222505771Y-195800057D01*
X222362914Y-195728628D01*
X222934342Y-194677200D02*
X224362914Y-194677200D01*
X223505771Y-195728628D02*
X223362914Y-195657200D01*
X223291485Y-195585771D01*
X223220057Y-195442914D01*
X223220057Y-195371485D01*
X223291485Y-195228628D01*
X223362914Y-195157200D01*
X223505771Y-195085771D01*
X223791485Y-195085771D01*
X223934342Y-195157200D01*
X224005771Y-195228628D01*
X224077199Y-195371485D01*
X224077199Y-195442914D01*
X224005771Y-195585771D01*
X223934342Y-195657200D01*
X223791485Y-195728628D01*
X223505771Y-195728628D01*
X223362914Y-195800057D01*
X223291485Y-195871485D01*
X223220057Y-196014342D01*
X223220057Y-196300057D01*
X223291485Y-196442914D01*
X223362914Y-196514342D01*
X223505771Y-196585771D01*
X223791485Y-196585771D01*
X223934342Y-196514342D01*
X224005771Y-196442914D01*
X224077199Y-196300057D01*
X224077199Y-196014342D01*
X224005771Y-195871485D01*
X223934342Y-195800057D01*
X223791485Y-195728628D01*
X225362914Y-195585771D02*
X225362914Y-196585771D01*
X224720057Y-195585771D02*
X224720057Y-196371485D01*
X224791485Y-196514342D01*
X224934342Y-196585771D01*
X225148628Y-196585771D01*
X225291485Y-196514342D01*
X225362914Y-196442914D01*
X226077199Y-196585771D02*
X226077199Y-195085771D01*
X226077199Y-195657200D02*
X226220057Y-195585771D01*
X226505771Y-195585771D01*
X226648628Y-195657200D01*
X226720057Y-195728628D01*
X226791485Y-195871485D01*
X226791485Y-196300057D01*
X226720057Y-196442914D01*
X226648628Y-196514342D01*
X226505771Y-196585771D01*
X226220057Y-196585771D01*
X226077199Y-196514342D01*
X228077199Y-195585771D02*
X228077199Y-196585771D01*
X227434342Y-195585771D02*
X227434342Y-196371485D01*
X227505771Y-196514342D01*
X227648628Y-196585771D01*
X227862914Y-196585771D01*
X228005771Y-196514342D01*
X228077199Y-196442914D01*
X228791485Y-195585771D02*
X228791485Y-196585771D01*
X228791485Y-195728628D02*
X228862914Y-195657200D01*
X229005771Y-195585771D01*
X229220057Y-195585771D01*
X229362914Y-195657200D01*
X229434342Y-195800057D01*
X229434342Y-196585771D01*
X229934342Y-195585771D02*
X230505771Y-195585771D01*
X230148628Y-195085771D02*
X230148628Y-196371485D01*
X230220057Y-196514342D01*
X230362914Y-196585771D01*
X230505771Y-196585771D01*
X231648628Y-195585771D02*
X231648628Y-196585771D01*
X231005771Y-195585771D02*
X231005771Y-196371485D01*
X231077199Y-196514342D01*
X231220057Y-196585771D01*
X231434342Y-196585771D01*
X231577199Y-196514342D01*
X231648628Y-196442914D01*
X233148628Y-196585771D02*
X232291485Y-196585771D01*
X232720057Y-196585771D02*
X232720057Y-195085771D01*
X232577200Y-195300057D01*
X232434342Y-195442914D01*
X232291485Y-195514342D01*
X234434342Y-195085771D02*
X234148628Y-195085771D01*
X234005771Y-195157200D01*
X233934342Y-195228628D01*
X233791485Y-195442914D01*
X233720057Y-195728628D01*
X233720057Y-196300057D01*
X233791485Y-196442914D01*
X233862914Y-196514342D01*
X234005771Y-196585771D01*
X234291485Y-196585771D01*
X234434342Y-196514342D01*
X234505771Y-196442914D01*
X234577199Y-196300057D01*
X234577199Y-195942914D01*
X234505771Y-195800057D01*
X234434342Y-195728628D01*
X234291485Y-195657200D01*
X234005771Y-195657200D01*
X233862914Y-195728628D01*
X233791485Y-195800057D01*
X233720057Y-195942914D01*
X235220057Y-196442914D02*
X235291485Y-196514342D01*
X235220057Y-196585771D01*
X235148628Y-196514342D01*
X235220057Y-196442914D01*
X235220057Y-196585771D01*
X236220057Y-195085771D02*
X236362914Y-195085771D01*
X236505771Y-195157200D01*
X236577199Y-195228628D01*
X236648628Y-195371485D01*
X236720057Y-195657200D01*
X236720057Y-196014342D01*
X236648628Y-196300057D01*
X236577199Y-196442914D01*
X236505771Y-196514342D01*
X236362914Y-196585771D01*
X236220057Y-196585771D01*
X236077199Y-196514342D01*
X236005771Y-196442914D01*
X235934342Y-196300057D01*
X235862914Y-196014342D01*
X235862914Y-195657200D01*
X235934342Y-195371485D01*
X236005771Y-195228628D01*
X236077199Y-195157200D01*
X236220057Y-195085771D01*
X238005771Y-195585771D02*
X238005771Y-196585771D01*
X237648628Y-195014342D02*
X237291485Y-196085771D01*
X238220057Y-196085771D01*
X238791485Y-196442914D02*
X238862914Y-196514342D01*
X238791485Y-196585771D01*
X238720057Y-196514342D01*
X238791485Y-196442914D01*
X238791485Y-196585771D01*
X240291485Y-196585771D02*
X239434342Y-196585771D01*
X239862914Y-196585771D02*
X239862914Y-195085771D01*
X239720057Y-195300057D01*
X239577199Y-195442914D01*
X239434342Y-195514342D01*
D10*
D11*
X177002200Y-191507200D02*
X285002200Y-191507200D01*
D10*
D12*
X264411485Y-193785771D02*
X263911485Y-193071485D01*
X263554342Y-193785771D02*
X263554342Y-192285771D01*
X264125771Y-192285771D01*
X264268628Y-192357200D01*
X264340057Y-192428628D01*
X264411485Y-192571485D01*
X264411485Y-192785771D01*
X264340057Y-192928628D01*
X264268628Y-193000057D01*
X264125771Y-193071485D01*
X263554342Y-193071485D01*
X265625771Y-193714342D02*
X265482914Y-193785771D01*
X265197200Y-193785771D01*
X265054342Y-193714342D01*
X264982914Y-193571485D01*
X264982914Y-193000057D01*
X265054342Y-192857200D01*
X265197200Y-192785771D01*
X265482914Y-192785771D01*
X265625771Y-192857200D01*
X265697200Y-193000057D01*
X265697200Y-193142914D01*
X264982914Y-193285771D01*
X266197200Y-192785771D02*
X266554342Y-193785771D01*
X266911485Y-192785771D01*
X267482914Y-193642914D02*
X267554342Y-193714342D01*
X267482914Y-193785771D01*
X267411485Y-193714342D01*
X267482914Y-193642914D01*
X267482914Y-193785771D01*
X267482914Y-192857200D02*
X267554342Y-192928628D01*
X267482914Y-193000057D01*
X267411485Y-192928628D01*
X267482914Y-192857200D01*
X267482914Y-193000057D01*
X270125771Y-193785771D02*
X269268628Y-193785771D01*
X269697200Y-193785771D02*
X269697200Y-192285771D01*
X269554342Y-192500057D01*
X269411485Y-192642914D01*
X269268628Y-192714342D01*
X270768628Y-193642914D02*
X270840057Y-193714342D01*
X270768628Y-193785771D01*
X270697200Y-193714342D01*
X270768628Y-193642914D01*
X270768628Y-193785771D01*
X271768628Y-192285771D02*
X271911485Y-192285771D01*
X272054342Y-192357200D01*
X272125771Y-192428628D01*
X272197200Y-192571485D01*
X272268628Y-192857200D01*
X272268628Y-193214342D01*
X272197200Y-193500057D01*
X272125771Y-193642914D01*
X272054342Y-193714342D01*
X271911485Y-193785771D01*
X271768628Y-193785771D01*
X271625771Y-193714342D01*
X271554342Y-193642914D01*
X271482914Y-193500057D01*
X271411485Y-193214342D01*
X271411485Y-192857200D01*
X271482914Y-192571485D01*
X271554342Y-192428628D01*
X271625771Y-192357200D01*
X271768628Y-192285771D01*
D10*
D11*
X178362914Y-193714342D02*
X178577200Y-193785771D01*
X178934342Y-193785771D01*
X179077200Y-193714342D01*
X179148628Y-193642914D01*
X179220057Y-193500057D01*
X179220057Y-193357200D01*
X179148628Y-193214342D01*
X179077200Y-193142914D01*
X178934342Y-193071485D01*
X178648628Y-193000057D01*
X178505771Y-192928628D01*
X178434342Y-192857200D01*
X178362914Y-192714342D01*
X178362914Y-192571485D01*
X178434342Y-192428628D01*
X178505771Y-192357200D01*
X178648628Y-192285771D01*
X179005771Y-192285771D01*
X179220057Y-192357200D01*
X179862914Y-193785771D02*
X179862914Y-192785771D01*
X179862914Y-192285771D02*
X179791485Y-192357200D01*
X179862914Y-192428628D01*
X179934342Y-192357200D01*
X179862914Y-192285771D01*
X179862914Y-192428628D01*
X180434342Y-192785771D02*
X181220057Y-192785771D01*
X180434342Y-193785771D01*
X181220057Y-193785771D01*
X182362914Y-193714342D02*
X182220057Y-193785771D01*
X181934342Y-193785771D01*
X181791485Y-193714342D01*
X181720057Y-193571485D01*
X181720057Y-193000057D01*
X181791485Y-192857200D01*
X181934342Y-192785771D01*
X182220057Y-192785771D01*
X182362914Y-192857200D01*
X182434342Y-193000057D01*
X182434342Y-193142914D01*
X181720057Y-193285771D01*
X183077200Y-193642914D02*
X183148628Y-193714342D01*
X183077200Y-193785771D01*
X183005771Y-193714342D01*
X183077200Y-193642914D01*
X183077200Y-193785771D01*
X183077200Y-192857200D02*
X183148628Y-192928628D01*
X183077200Y-193000057D01*
X183005771Y-192928628D01*
X183077200Y-192857200D01*
X183077200Y-193000057D01*
X184862914Y-193357200D02*
X185577200Y-193357200D01*
X184720057Y-193785771D02*
X185220057Y-192285771D01*
X185720057Y-193785771D01*
X186862914Y-192785771D02*
X186862914Y-193785771D01*
X186505771Y-192214342D02*
X186148628Y-193285771D01*
X187077200Y-193285771D01*
D10*
D11*
X263434342Y-196585771D02*
X263434342Y-195085771D01*
X264791485Y-196585771D02*
X264791485Y-195085771D01*
X264791485Y-196514342D02*
X264648628Y-196585771D01*
X264362914Y-196585771D01*
X264220057Y-196514342D01*
X264148628Y-196442914D01*
X264077200Y-196300057D01*
X264077200Y-195871485D01*
X264148628Y-195728628D01*
X264220057Y-195657200D01*
X264362914Y-195585771D01*
X264648628Y-195585771D01*
X264791485Y-195657200D01*
X265505771Y-196442914D02*
X265577200Y-196514342D01*
X265505771Y-196585771D01*
X265434342Y-196514342D01*
X265505771Y-196442914D01*
X265505771Y-196585771D01*
X265505771Y-195657200D02*
X265577200Y-195728628D01*
X265505771Y-195800057D01*
X265434342Y-195728628D01*
X265505771Y-195657200D01*
X265505771Y-195800057D01*
X268148628Y-196585771D02*
X267291485Y-196585771D01*
X267720057Y-196585771D02*
X267720057Y-195085771D01*
X267577200Y-195300057D01*
X267434342Y-195442914D01*
X267291485Y-195514342D01*
X269862914Y-195014342D02*
X268577200Y-196942914D01*
X271148628Y-196585771D02*
X270291485Y-196585771D01*
X270720057Y-196585771D02*
X270720057Y-195085771D01*
X270577200Y-195300057D01*
X270434342Y-195442914D01*
X270291485Y-195514342D01*
D10*
D11*
X177002200Y-187507200D02*
X285002200Y-187507200D01*
D10*
D13*
X178714580Y-188211961D02*
X179857438Y-188211961D01*
X179036009Y-190211961D02*
X179286009Y-188211961D01*
X180274104Y-190211961D02*
X180440771Y-188878628D01*
X180524104Y-188211961D02*
X180416961Y-188307200D01*
X180500295Y-188402438D01*
X180607438Y-188307200D01*
X180524104Y-188211961D01*
X180500295Y-188402438D01*
X181107438Y-188878628D02*
X181869342Y-188878628D01*
X181476485Y-188211961D02*
X181262200Y-189926247D01*
X181333628Y-190116723D01*
X181512200Y-190211961D01*
X181702676Y-190211961D01*
X182655057Y-190211961D02*
X182476485Y-190116723D01*
X182405057Y-189926247D01*
X182619342Y-188211961D01*
X184190771Y-190116723D02*
X183988390Y-190211961D01*
X183607438Y-190211961D01*
X183428866Y-190116723D01*
X183357438Y-189926247D01*
X183452676Y-189164342D01*
X183571723Y-188973866D01*
X183774104Y-188878628D01*
X184155057Y-188878628D01*
X184333628Y-188973866D01*
X184405057Y-189164342D01*
X184381247Y-189354819D01*
X183405057Y-189545295D01*
X185155057Y-190021485D02*
X185238390Y-190116723D01*
X185131247Y-190211961D01*
X185047914Y-190116723D01*
X185155057Y-190021485D01*
X185131247Y-190211961D01*
X185286009Y-188973866D02*
X185369342Y-189069104D01*
X185262200Y-189164342D01*
X185178866Y-189069104D01*
X185286009Y-188973866D01*
X185262200Y-189164342D01*
X188405057Y-189164342D02*
X187738390Y-189164342D01*
X187607438Y-190211961D02*
X187857438Y-188211961D01*
X188809819Y-188211961D01*
X189321723Y-190211961D02*
X189571723Y-188211961D01*
X190059819Y-189640533D01*
X190905057Y-188211961D01*
X190655057Y-190211961D01*
X192774104Y-190021485D02*
X192666961Y-190116723D01*
X192369342Y-190211961D01*
X192178866Y-190211961D01*
X191905057Y-190116723D01*
X191738390Y-189926247D01*
X191666961Y-189735771D01*
X191619342Y-189354819D01*
X191655057Y-189069104D01*
X191797914Y-188688152D01*
X191916961Y-188497676D01*
X192131247Y-188307200D01*
X192428866Y-188211961D01*
X192619342Y-188211961D01*
X192893152Y-188307200D01*
X192976485Y-188402438D01*
X193702676Y-189450057D02*
X195226485Y-189450057D01*
X194369342Y-190211961D02*
X194559819Y-188688152D01*
X197524104Y-190116723D02*
X197797914Y-190211961D01*
X198274104Y-190211961D01*
X198476485Y-190116723D01*
X198583628Y-190021485D01*
X198702676Y-189831009D01*
X198726485Y-189640533D01*
X198655057Y-189450057D01*
X198571723Y-189354819D01*
X198393152Y-189259580D01*
X198024104Y-189164342D01*
X197845533Y-189069104D01*
X197762200Y-188973866D01*
X197690771Y-188783390D01*
X197714580Y-188592914D01*
X197833628Y-188402438D01*
X197940771Y-188307200D01*
X198143152Y-188211961D01*
X198619342Y-188211961D01*
X198893152Y-188307200D01*
X199512200Y-190211961D02*
X199762200Y-188211961D01*
X200250295Y-189640533D01*
X201095533Y-188211961D01*
X200845533Y-190211961D01*
X201774104Y-189640533D02*
X202726485Y-189640533D01*
X201512200Y-190211961D02*
X202428866Y-188211961D01*
X202845533Y-190211961D01*
X205036009Y-190211961D02*
X205286009Y-188211961D01*
X205190771Y-188973866D02*
X205393152Y-188878628D01*
X205774104Y-188878628D01*
X205952676Y-188973866D01*
X206036009Y-189069104D01*
X206107438Y-189259580D01*
X206036009Y-189831009D01*
X205916961Y-190021485D01*
X205809819Y-190116723D01*
X205607438Y-190211961D01*
X205226485Y-190211961D01*
X205047914Y-190116723D01*
X206845533Y-190211961D02*
X207012200Y-188878628D01*
X206964580Y-189259580D02*
X207083628Y-189069104D01*
X207190771Y-188973866D01*
X207393152Y-188878628D01*
X207583628Y-188878628D01*
X208857438Y-190116723D02*
X208655057Y-190211961D01*
X208274104Y-190211961D01*
X208095533Y-190116723D01*
X208024104Y-189926247D01*
X208119342Y-189164342D01*
X208238390Y-188973866D01*
X208440771Y-188878628D01*
X208821723Y-188878628D01*
X209000295Y-188973866D01*
X209071723Y-189164342D01*
X209047914Y-189354819D01*
X208071723Y-189545295D01*
X210655057Y-190211961D02*
X210786009Y-189164342D01*
X210714580Y-188973866D01*
X210536009Y-188878628D01*
X210155057Y-188878628D01*
X209952676Y-188973866D01*
X210666961Y-190116723D02*
X210464580Y-190211961D01*
X209988390Y-190211961D01*
X209809819Y-190116723D01*
X209738390Y-189926247D01*
X209762200Y-189735771D01*
X209881247Y-189545295D01*
X210083628Y-189450057D01*
X210559819Y-189450057D01*
X210762200Y-189354819D01*
X211607438Y-190211961D02*
X211857438Y-188211961D01*
X211893152Y-189450057D02*
X212369342Y-190211961D01*
X212536009Y-188878628D02*
X211678866Y-189640533D01*
X213512200Y-190211961D02*
X213333628Y-190116723D01*
X213250295Y-190021485D01*
X213178866Y-189831009D01*
X213250295Y-189259580D01*
X213369342Y-189069104D01*
X213476485Y-188973866D01*
X213678866Y-188878628D01*
X213964580Y-188878628D01*
X214143152Y-188973866D01*
X214226485Y-189069104D01*
X214297914Y-189259580D01*
X214226485Y-189831009D01*
X214107438Y-190021485D01*
X214000295Y-190116723D01*
X213797914Y-190211961D01*
X213512200Y-190211961D01*
X216059819Y-188878628D02*
X215893152Y-190211961D01*
X215202676Y-188878628D02*
X215071723Y-189926247D01*
X215143152Y-190116723D01*
X215321723Y-190211961D01*
X215607438Y-190211961D01*
X215809819Y-190116723D01*
X215916961Y-190021485D01*
X216726485Y-188878628D02*
X217488390Y-188878628D01*
X217095533Y-188211961D02*
X216881247Y-189926247D01*
X216952676Y-190116723D01*
X217131247Y-190211961D01*
X217321723Y-190211961D01*
D10*
D11*
X178934342Y-185600057D02*
X178434342Y-185600057D01*
X178434342Y-186385771D02*
X178434342Y-184885771D01*
X179148628Y-184885771D01*
X179720057Y-186385771D02*
X179720057Y-185385771D01*
X179720057Y-184885771D02*
X179648628Y-184957200D01*
X179720057Y-185028628D01*
X179791485Y-184957200D01*
X179720057Y-184885771D01*
X179720057Y-185028628D01*
X180648628Y-186385771D02*
X180505771Y-186314342D01*
X180434342Y-186171485D01*
X180434342Y-184885771D01*
X181791485Y-186314342D02*
X181648628Y-186385771D01*
X181362914Y-186385771D01*
X181220057Y-186314342D01*
X181148628Y-186171485D01*
X181148628Y-185600057D01*
X181220057Y-185457200D01*
X181362914Y-185385771D01*
X181648628Y-185385771D01*
X181791485Y-185457200D01*
X181862914Y-185600057D01*
X181862914Y-185742914D01*
X181148628Y-185885771D01*
X182505771Y-186242914D02*
X182577200Y-186314342D01*
X182505771Y-186385771D01*
X182434342Y-186314342D01*
X182505771Y-186242914D01*
X182505771Y-186385771D01*
X182505771Y-185457200D02*
X182577200Y-185528628D01*
X182505771Y-185600057D01*
X182434342Y-185528628D01*
X182505771Y-185457200D01*
X182505771Y-185600057D01*
X184148628Y-185385771D02*
X184720057Y-185385771D01*
X184362914Y-186385771D02*
X184362914Y-185100057D01*
X184434342Y-184957200D01*
X184577200Y-184885771D01*
X184720057Y-184885771D01*
X185220057Y-186385771D02*
X185220057Y-185385771D01*
X185220057Y-185528628D02*
X185291485Y-185457200D01*
X185434342Y-185385771D01*
X185648628Y-185385771D01*
X185791485Y-185457200D01*
X185862914Y-185600057D01*
X185862914Y-186385771D01*
X185862914Y-185600057D02*
X185934342Y-185457200D01*
X186077200Y-185385771D01*
X186291485Y-185385771D01*
X186434342Y-185457200D01*
X186505771Y-185600057D01*
X186505771Y-186385771D01*
X187862914Y-186314342D02*
X187720057Y-186385771D01*
X187434342Y-186385771D01*
X187291485Y-186314342D01*
X187220057Y-186242914D01*
X187148628Y-186100057D01*
X187148628Y-185671485D01*
X187220057Y-185528628D01*
X187291485Y-185457200D01*
X187434342Y-185385771D01*
X187720057Y-185385771D01*
X187862914Y-185457200D01*
X188505771Y-185385771D02*
X188505771Y-186885771D01*
X188505771Y-185457200D02*
X188648628Y-185385771D01*
X188934342Y-185385771D01*
X189077200Y-185457200D01*
X189148628Y-185528628D01*
X189220057Y-185671485D01*
X189220057Y-186100057D01*
X189148628Y-186242914D01*
X189077200Y-186314342D01*
X188934342Y-186385771D01*
X188648628Y-186385771D01*
X188505771Y-186314342D01*
X189505771Y-186528628D02*
X190648628Y-186528628D01*
X190934342Y-186314342D02*
X191077200Y-186385771D01*
X191362914Y-186385771D01*
X191505771Y-186314342D01*
X191577200Y-186171485D01*
X191577200Y-186100057D01*
X191505771Y-185957200D01*
X191362914Y-185885771D01*
X191148628Y-185885771D01*
X191005771Y-185814342D01*
X190934342Y-185671485D01*
X190934342Y-185600057D01*
X191005771Y-185457200D01*
X191148628Y-185385771D01*
X191362914Y-185385771D01*
X191505771Y-185457200D01*
X192220057Y-186385771D02*
X192220057Y-185385771D01*
X192220057Y-185528628D02*
X192291485Y-185457200D01*
X192434342Y-185385771D01*
X192648628Y-185385771D01*
X192791485Y-185457200D01*
X192862914Y-185600057D01*
X192862914Y-186385771D01*
X192862914Y-185600057D02*
X192934342Y-185457200D01*
X193077200Y-185385771D01*
X193291485Y-185385771D01*
X193434342Y-185457200D01*
X193505771Y-185600057D01*
X193505771Y-186385771D01*
X194862914Y-186385771D02*
X194862914Y-185600057D01*
X194791485Y-185457200D01*
X194648628Y-185385771D01*
X194362914Y-185385771D01*
X194220057Y-185457200D01*
X194862914Y-186314342D02*
X194720057Y-186385771D01*
X194362914Y-186385771D01*
X194220057Y-186314342D01*
X194148628Y-186171485D01*
X194148628Y-186028628D01*
X194220057Y-185885771D01*
X194362914Y-185814342D01*
X194720057Y-185814342D01*
X194862914Y-185742914D01*
X195577200Y-186242914D02*
X195648628Y-186314342D01*
X195577200Y-186385771D01*
X195505771Y-186314342D01*
X195577200Y-186242914D01*
X195577200Y-186385771D01*
X196291485Y-186385771D02*
X196291485Y-184885771D01*
X196434342Y-185814342D02*
X196862914Y-186385771D01*
X196862914Y-185385771D02*
X196291485Y-185957200D01*
X197505771Y-186385771D02*
X197505771Y-185385771D01*
X197505771Y-184885771D02*
X197434342Y-184957200D01*
X197505771Y-185028628D01*
X197577200Y-184957200D01*
X197505771Y-184885771D01*
X197505771Y-185028628D01*
X198862914Y-186314342D02*
X198720057Y-186385771D01*
X198434342Y-186385771D01*
X198291485Y-186314342D01*
X198220057Y-186242914D01*
X198148628Y-186100057D01*
X198148628Y-185671485D01*
X198220057Y-185528628D01*
X198291485Y-185457200D01*
X198434342Y-185385771D01*
X198720057Y-185385771D01*
X198862914Y-185457200D01*
X200148628Y-186385771D02*
X200148628Y-185600057D01*
X200077200Y-185457200D01*
X199934342Y-185385771D01*
X199648628Y-185385771D01*
X199505771Y-185457200D01*
X200148628Y-186314342D02*
X200005771Y-186385771D01*
X199648628Y-186385771D01*
X199505771Y-186314342D01*
X199434342Y-186171485D01*
X199434342Y-186028628D01*
X199505771Y-185885771D01*
X199648628Y-185814342D01*
X200005771Y-185814342D01*
X200148628Y-185742914D01*
X201505771Y-186385771D02*
X201505771Y-184885771D01*
X201505771Y-186314342D02*
X201362914Y-186385771D01*
X201077200Y-186385771D01*
X200934342Y-186314342D01*
X200862914Y-186242914D01*
X200791485Y-186100057D01*
X200791485Y-185671485D01*
X200862914Y-185528628D01*
X200934342Y-185457200D01*
X201077200Y-185385771D01*
X201362914Y-185385771D01*
X201505771Y-185457200D01*
X201862914Y-186528628D02*
X203005771Y-186528628D01*
X203362914Y-185385771D02*
X203362914Y-186885771D01*
X203362914Y-185457200D02*
X203505771Y-185385771D01*
X203791485Y-185385771D01*
X203934342Y-185457200D01*
X204005771Y-185528628D01*
X204077200Y-185671485D01*
X204077200Y-186100057D01*
X204005771Y-186242914D01*
X203934342Y-186314342D01*
X203791485Y-186385771D01*
X203505771Y-186385771D01*
X203362914Y-186314342D01*
X205362914Y-186314342D02*
X205220057Y-186385771D01*
X204934342Y-186385771D01*
X204791485Y-186314342D01*
X204720057Y-186242914D01*
X204648628Y-186100057D01*
X204648628Y-185671485D01*
X204720057Y-185528628D01*
X204791485Y-185457200D01*
X204934342Y-185385771D01*
X205220057Y-185385771D01*
X205362914Y-185457200D01*
X206005771Y-186385771D02*
X206005771Y-184885771D01*
X206005771Y-185457200D02*
X206148628Y-185385771D01*
X206434342Y-185385771D01*
X206577200Y-185457200D01*
X206648628Y-185528628D01*
X206720057Y-185671485D01*
X206720057Y-186100057D01*
X206648628Y-186242914D01*
X206577200Y-186314342D01*
X206434342Y-186385771D01*
X206148628Y-186385771D01*
X206005771Y-186314342D01*
D10*
D11*
X177002200Y-181507200D02*
X285002200Y-181507200D01*
D10*
D11*
X178362914Y-183614342D02*
X178577200Y-183685771D01*
X178934342Y-183685771D01*
X179077200Y-183614342D01*
X179148628Y-183542914D01*
X179220057Y-183400057D01*
X179220057Y-183257200D01*
X179148628Y-183114342D01*
X179077200Y-183042914D01*
X178934342Y-182971485D01*
X178648628Y-182900057D01*
X178505771Y-182828628D01*
X178434342Y-182757200D01*
X178362914Y-182614342D01*
X178362914Y-182471485D01*
X178434342Y-182328628D01*
X178505771Y-182257200D01*
X178648628Y-182185771D01*
X179005771Y-182185771D01*
X179220057Y-182257200D01*
X179862914Y-183685771D02*
X179862914Y-182185771D01*
X180505771Y-183685771D02*
X180505771Y-182900057D01*
X180434342Y-182757200D01*
X180291485Y-182685771D01*
X180077200Y-182685771D01*
X179934342Y-182757200D01*
X179862914Y-182828628D01*
X181791485Y-183614342D02*
X181648628Y-183685771D01*
X181362914Y-183685771D01*
X181220057Y-183614342D01*
X181148628Y-183471485D01*
X181148628Y-182900057D01*
X181220057Y-182757200D01*
X181362914Y-182685771D01*
X181648628Y-182685771D01*
X181791485Y-182757200D01*
X181862914Y-182900057D01*
X181862914Y-183042914D01*
X181148628Y-183185771D01*
X183077200Y-183614342D02*
X182934342Y-183685771D01*
X182648628Y-183685771D01*
X182505771Y-183614342D01*
X182434342Y-183471485D01*
X182434342Y-182900057D01*
X182505771Y-182757200D01*
X182648628Y-182685771D01*
X182934342Y-182685771D01*
X183077200Y-182757200D01*
X183148628Y-182900057D01*
X183148628Y-183042914D01*
X182434342Y-183185771D01*
X183577200Y-182685771D02*
X184148628Y-182685771D01*
X183791485Y-182185771D02*
X183791485Y-183471485D01*
X183862914Y-183614342D01*
X184005771Y-183685771D01*
X184148628Y-183685771D01*
X184648628Y-183542914D02*
X184720057Y-183614342D01*
X184648628Y-183685771D01*
X184577200Y-183614342D01*
X184648628Y-183542914D01*
X184648628Y-183685771D01*
X184648628Y-182757200D02*
X184720057Y-182828628D01*
X184648628Y-182900057D01*
X184577200Y-182828628D01*
X184648628Y-182757200D01*
X184648628Y-182900057D01*
D10*
D12*
X178554342Y-180685771D02*
X178554342Y-179185771D01*
X179411485Y-180685771D02*
X178768628Y-179828628D01*
X179411485Y-179185771D02*
X178554342Y-180042914D01*
X180697200Y-180685771D02*
X180697200Y-179900057D01*
X180625771Y-179757200D01*
X180482914Y-179685771D01*
X180197200Y-179685771D01*
X180054342Y-179757200D01*
X180697200Y-180614342D02*
X180554342Y-180685771D01*
X180197200Y-180685771D01*
X180054342Y-180614342D01*
X179982914Y-180471485D01*
X179982914Y-180328628D01*
X180054342Y-180185771D01*
X180197200Y-180114342D01*
X180554342Y-180114342D01*
X180697200Y-180042914D01*
X181411485Y-180685771D02*
X181411485Y-179685771D01*
X181411485Y-179971485D02*
X181482914Y-179828628D01*
X181554342Y-179757200D01*
X181697200Y-179685771D01*
X181840057Y-179685771D01*
X182554342Y-180685771D02*
X182411485Y-180614342D01*
X182340057Y-180471485D01*
X182340057Y-179185771D01*
X183054342Y-180614342D02*
X183197200Y-180685771D01*
X183482914Y-180685771D01*
X183625771Y-180614342D01*
X183697200Y-180471485D01*
X183697200Y-180400057D01*
X183625771Y-180257200D01*
X183482914Y-180185771D01*
X183268628Y-180185771D01*
X183125771Y-180114342D01*
X183054342Y-179971485D01*
X183054342Y-179900057D01*
X183125771Y-179757200D01*
X183268628Y-179685771D01*
X183482914Y-179685771D01*
X183625771Y-179757200D01*
X184340057Y-180685771D02*
X184340057Y-179685771D01*
X184340057Y-179971485D02*
X184411485Y-179828628D01*
X184482914Y-179757200D01*
X184625771Y-179685771D01*
X184768628Y-179685771D01*
X185911485Y-179685771D02*
X185911485Y-180685771D01*
X185268628Y-179685771D02*
X185268628Y-180471485D01*
X185340057Y-180614342D01*
X185482914Y-180685771D01*
X185697200Y-180685771D01*
X185840057Y-180614342D01*
X185911485Y-180542914D01*
X186625771Y-180685771D02*
X186625771Y-179185771D01*
X187268628Y-180685771D02*
X187268628Y-179900057D01*
X187197200Y-179757200D01*
X187054342Y-179685771D01*
X186840057Y-179685771D01*
X186697200Y-179757200D01*
X186625771Y-179828628D01*
X188554342Y-180614342D02*
X188411485Y-180685771D01*
X188125771Y-180685771D01*
X187982914Y-180614342D01*
X187911485Y-180471485D01*
X187911485Y-179900057D01*
X187982914Y-179757200D01*
X188125771Y-179685771D01*
X188411485Y-179685771D01*
X188554342Y-179757200D01*
X188625771Y-179900057D01*
X188625771Y-180042914D01*
X187911485Y-180185771D01*
X190411485Y-180685771D02*
X190411485Y-179185771D01*
X191125771Y-179685771D02*
X191125771Y-180685771D01*
X191125771Y-179828628D02*
X191197200Y-179757200D01*
X191340057Y-179685771D01*
X191554342Y-179685771D01*
X191697200Y-179757200D01*
X191768628Y-179900057D01*
X191768628Y-180685771D01*
X192411485Y-180614342D02*
X192554342Y-180685771D01*
X192840057Y-180685771D01*
X192982914Y-180614342D01*
X193054342Y-180471485D01*
X193054342Y-180400057D01*
X192982914Y-180257200D01*
X192840057Y-180185771D01*
X192625771Y-180185771D01*
X192482914Y-180114342D01*
X192411485Y-179971485D01*
X192411485Y-179900057D01*
X192482914Y-179757200D01*
X192625771Y-179685771D01*
X192840057Y-179685771D01*
X192982914Y-179757200D01*
X193482914Y-179685771D02*
X194054342Y-179685771D01*
X193697200Y-179185771D02*
X193697200Y-180471485D01*
X193768628Y-180614342D01*
X193911485Y-180685771D01*
X194054342Y-180685771D01*
X194554342Y-180685771D02*
X194554342Y-179685771D01*
X194554342Y-179185771D02*
X194482914Y-179257200D01*
X194554342Y-179328628D01*
X194625771Y-179257200D01*
X194554342Y-179185771D01*
X194554342Y-179328628D01*
X195054342Y-179685771D02*
X195625771Y-179685771D01*
X195268628Y-179185771D02*
X195268628Y-180471485D01*
X195340057Y-180614342D01*
X195482914Y-180685771D01*
X195625771Y-180685771D01*
X196768628Y-179685771D02*
X196768628Y-180685771D01*
X196125771Y-179685771D02*
X196125771Y-180471485D01*
X196197200Y-180614342D01*
X196340057Y-180685771D01*
X196554342Y-180685771D01*
X196697200Y-180614342D01*
X196768628Y-180542914D01*
X197268628Y-179685771D02*
X197840057Y-179685771D01*
X197482914Y-179185771D02*
X197482914Y-180471485D01*
X197554342Y-180614342D01*
X197697200Y-180685771D01*
X197840057Y-180685771D01*
X198911485Y-180614342D02*
X198768628Y-180685771D01*
X198482914Y-180685771D01*
X198340057Y-180614342D01*
X198268628Y-180471485D01*
X198268628Y-179900057D01*
X198340057Y-179757200D01*
X198482914Y-179685771D01*
X198768628Y-179685771D01*
X198911485Y-179757200D01*
X198982914Y-179900057D01*
X198982914Y-180042914D01*
X198268628Y-180185771D01*
X200982914Y-180685771D02*
X200840057Y-180614342D01*
X200768628Y-180542914D01*
X200697200Y-180400057D01*
X200697200Y-179971485D01*
X200768628Y-179828628D01*
X200840057Y-179757200D01*
X200982914Y-179685771D01*
X201197200Y-179685771D01*
X201340057Y-179757200D01*
X201411485Y-179828628D01*
X201482914Y-179971485D01*
X201482914Y-180400057D01*
X201411485Y-180542914D01*
X201340057Y-180614342D01*
X201197200Y-180685771D01*
X200982914Y-180685771D01*
X201911485Y-179685771D02*
X202482914Y-179685771D01*
X202125771Y-180685771D02*
X202125771Y-179400057D01*
X202197200Y-179257200D01*
X202340057Y-179185771D01*
X202482914Y-179185771D01*
X203911485Y-179185771D02*
X204768628Y-179185771D01*
X204340057Y-180685771D02*
X204340057Y-179185771D01*
X205840057Y-180614342D02*
X205697200Y-180685771D01*
X205411485Y-180685771D01*
X205268628Y-180614342D01*
X205197200Y-180471485D01*
X205197200Y-179900057D01*
X205268628Y-179757200D01*
X205411485Y-179685771D01*
X205697200Y-179685771D01*
X205840057Y-179757200D01*
X205911485Y-179900057D01*
X205911485Y-180042914D01*
X205197200Y-180185771D01*
X207197200Y-180614342D02*
X207054342Y-180685771D01*
X206768628Y-180685771D01*
X206625771Y-180614342D01*
X206554342Y-180542914D01*
X206482914Y-180400057D01*
X206482914Y-179971485D01*
X206554342Y-179828628D01*
X206625771Y-179757200D01*
X206768628Y-179685771D01*
X207054342Y-179685771D01*
X207197200Y-179757200D01*
X207840057Y-180685771D02*
X207840057Y-179185771D01*
X208482914Y-180685771D02*
X208482914Y-179900057D01*
X208411485Y-179757200D01*
X208268628Y-179685771D01*
X208054342Y-179685771D01*
X207911485Y-179757200D01*
X207840057Y-179828628D01*
X209197200Y-179685771D02*
X209197200Y-180685771D01*
X209197200Y-179828628D02*
X209268628Y-179757200D01*
X209411485Y-179685771D01*
X209625771Y-179685771D01*
X209768628Y-179757200D01*
X209840057Y-179900057D01*
X209840057Y-180685771D01*
X210768628Y-180685771D02*
X210625771Y-180614342D01*
X210554342Y-180542914D01*
X210482914Y-180400057D01*
X210482914Y-179971485D01*
X210554342Y-179828628D01*
X210625771Y-179757200D01*
X210768628Y-179685771D01*
X210982914Y-179685771D01*
X211125771Y-179757200D01*
X211197200Y-179828628D01*
X211268628Y-179971485D01*
X211268628Y-180400057D01*
X211197200Y-180542914D01*
X211125771Y-180614342D01*
X210982914Y-180685771D01*
X210768628Y-180685771D01*
X212125771Y-180685771D02*
X211982914Y-180614342D01*
X211911485Y-180471485D01*
X211911485Y-179185771D01*
X212911485Y-180685771D02*
X212768628Y-180614342D01*
X212697200Y-180542914D01*
X212625771Y-180400057D01*
X212625771Y-179971485D01*
X212697200Y-179828628D01*
X212768628Y-179757200D01*
X212911485Y-179685771D01*
X213125771Y-179685771D01*
X213268628Y-179757200D01*
X213340057Y-179828628D01*
X213411485Y-179971485D01*
X213411485Y-180400057D01*
X213340057Y-180542914D01*
X213268628Y-180614342D01*
X213125771Y-180685771D01*
X212911485Y-180685771D01*
X214697200Y-179685771D02*
X214697200Y-180900057D01*
X214625771Y-181042914D01*
X214554342Y-181114342D01*
X214411485Y-181185771D01*
X214197200Y-181185771D01*
X214054342Y-181114342D01*
X214697200Y-180614342D02*
X214554342Y-180685771D01*
X214268628Y-180685771D01*
X214125771Y-180614342D01*
X214054342Y-180542914D01*
X213982914Y-180400057D01*
X213982914Y-179971485D01*
X214054342Y-179828628D01*
X214125771Y-179757200D01*
X214268628Y-179685771D01*
X214554342Y-179685771D01*
X214697200Y-179757200D01*
X215268628Y-179685771D02*
X215625771Y-180685771D01*
X215982914Y-179685771D02*
X215625771Y-180685771D01*
X215482914Y-181042914D01*
X215411485Y-181114342D01*
X215268628Y-181185771D01*
X218125771Y-181257200D02*
X218054342Y-181185771D01*
X217911485Y-180971485D01*
X217840057Y-180828628D01*
X217768628Y-180614342D01*
X217697200Y-180257200D01*
X217697200Y-179971485D01*
X217768628Y-179614342D01*
X217840057Y-179400057D01*
X217911485Y-179257200D01*
X218054342Y-179042914D01*
X218125771Y-178971485D01*
X218697200Y-180685771D02*
X218697200Y-179185771D01*
X219554342Y-180685771D02*
X218911485Y-179828628D01*
X219554342Y-179185771D02*
X218697200Y-180042914D01*
X220197200Y-180685771D02*
X220197200Y-179185771D01*
X220697200Y-179185771D02*
X221554342Y-179185771D01*
X221125771Y-180685771D02*
X221125771Y-179185771D01*
X221911485Y-181257200D02*
X221982914Y-181185771D01*
X222125771Y-180971485D01*
X222197200Y-180828628D01*
X222268628Y-180614342D01*
X222340057Y-180257200D01*
X222340057Y-179971485D01*
X222268628Y-179614342D01*
X222197200Y-179400057D01*
X222125771Y-179257200D01*
X221982914Y-179042914D01*
X221911485Y-178971485D01*
D10*
D11*
X178434342Y-177685771D02*
X178434342Y-176185771D01*
X179148628Y-176685771D02*
X179148628Y-177685771D01*
X179148628Y-176828628D02*
X179220057Y-176757200D01*
X179362914Y-176685771D01*
X179577200Y-176685771D01*
X179720057Y-176757200D01*
X179791485Y-176900057D01*
X179791485Y-177685771D01*
X180434342Y-177614342D02*
X180577200Y-177685771D01*
X180862914Y-177685771D01*
X181005771Y-177614342D01*
X181077200Y-177471485D01*
X181077200Y-177400057D01*
X181005771Y-177257200D01*
X180862914Y-177185771D01*
X180648628Y-177185771D01*
X180505771Y-177114342D01*
X180434342Y-176971485D01*
X180434342Y-176900057D01*
X180505771Y-176757200D01*
X180648628Y-176685771D01*
X180862914Y-176685771D01*
X181005771Y-176757200D01*
X181505771Y-176685771D02*
X182077200Y-176685771D01*
X181720057Y-176185771D02*
X181720057Y-177471485D01*
X181791485Y-177614342D01*
X181934342Y-177685771D01*
X182077200Y-177685771D01*
X182577200Y-177685771D02*
X182577200Y-176685771D01*
X182577200Y-176185771D02*
X182505771Y-176257200D01*
X182577200Y-176328628D01*
X182648628Y-176257200D01*
X182577200Y-176185771D01*
X182577200Y-176328628D01*
X183077200Y-176685771D02*
X183648628Y-176685771D01*
X183291485Y-176185771D02*
X183291485Y-177471485D01*
X183362914Y-177614342D01*
X183505771Y-177685771D01*
X183648628Y-177685771D01*
X184791485Y-176685771D02*
X184791485Y-177685771D01*
X184148628Y-176685771D02*
X184148628Y-177471485D01*
X184220057Y-177614342D01*
X184362914Y-177685771D01*
X184577200Y-177685771D01*
X184720057Y-177614342D01*
X184791485Y-177542914D01*
X185291485Y-176685771D02*
X185862914Y-176685771D01*
X185505771Y-176185771D02*
X185505771Y-177471485D01*
X185577200Y-177614342D01*
X185720057Y-177685771D01*
X185862914Y-177685771D01*
X186934342Y-177614342D02*
X186791485Y-177685771D01*
X186505771Y-177685771D01*
X186362914Y-177614342D01*
X186291485Y-177471485D01*
X186291485Y-176900057D01*
X186362914Y-176757200D01*
X186505771Y-176685771D01*
X186791485Y-176685771D01*
X186934342Y-176757200D01*
X187005771Y-176900057D01*
X187005771Y-177042914D01*
X186291485Y-177185771D01*
X188577200Y-176685771D02*
X189148628Y-176685771D01*
X188791485Y-177685771D02*
X188791485Y-176400057D01*
X188862914Y-176257200D01*
X189005771Y-176185771D01*
X189148628Y-176185771D01*
X189862914Y-177685771D02*
X189720057Y-177614342D01*
X189648628Y-177542914D01*
X189577200Y-177400057D01*
X189577200Y-176971485D01*
X189648628Y-176828628D01*
X189720057Y-176757200D01*
X189862914Y-176685771D01*
X190077200Y-176685771D01*
X190220057Y-176757200D01*
X190291485Y-176828628D01*
X190362914Y-176971485D01*
X190362914Y-177400057D01*
X190291485Y-177542914D01*
X190220057Y-177614342D01*
X190077200Y-177685771D01*
X189862914Y-177685771D01*
X191005771Y-177685771D02*
X191005771Y-176685771D01*
X191005771Y-176971485D02*
X191077200Y-176828628D01*
X191148628Y-176757200D01*
X191291485Y-176685771D01*
X191434342Y-176685771D01*
X193077200Y-177685771D02*
X193077200Y-176185771D01*
X193434342Y-176185771D01*
X193648628Y-176257200D01*
X193791485Y-176400057D01*
X193862914Y-176542914D01*
X193934342Y-176828628D01*
X193934342Y-177042914D01*
X193862914Y-177328628D01*
X193791485Y-177471485D01*
X193648628Y-177614342D01*
X193434342Y-177685771D01*
X193077200Y-177685771D01*
X195220057Y-177685771D02*
X195220057Y-176900057D01*
X195148628Y-176757200D01*
X195005771Y-176685771D01*
X194720057Y-176685771D01*
X194577200Y-176757200D01*
X195220057Y-177614342D02*
X195077200Y-177685771D01*
X194720057Y-177685771D01*
X194577200Y-177614342D01*
X194505771Y-177471485D01*
X194505771Y-177328628D01*
X194577200Y-177185771D01*
X194720057Y-177114342D01*
X195077200Y-177114342D01*
X195220057Y-177042914D01*
X195720057Y-176685771D02*
X196291485Y-176685771D01*
X195934342Y-176185771D02*
X195934342Y-177471485D01*
X196005771Y-177614342D01*
X196148628Y-177685771D01*
X196291485Y-177685771D01*
X197434342Y-177685771D02*
X197434342Y-176900057D01*
X197362914Y-176757200D01*
X197220057Y-176685771D01*
X196934342Y-176685771D01*
X196791485Y-176757200D01*
X197434342Y-177614342D02*
X197291485Y-177685771D01*
X196934342Y-177685771D01*
X196791485Y-177614342D01*
X196720057Y-177471485D01*
X196720057Y-177328628D01*
X196791485Y-177185771D01*
X196934342Y-177114342D01*
X197291485Y-177114342D01*
X197434342Y-177042914D01*
X199291485Y-177685771D02*
X199291485Y-176185771D01*
X199862914Y-176185771D01*
X200005771Y-176257200D01*
X200077200Y-176328628D01*
X200148628Y-176471485D01*
X200148628Y-176685771D01*
X200077200Y-176828628D01*
X200005771Y-176900057D01*
X199862914Y-176971485D01*
X199291485Y-176971485D01*
X200791485Y-177685771D02*
X200791485Y-176685771D01*
X200791485Y-176971485D02*
X200862914Y-176828628D01*
X200934342Y-176757200D01*
X201077200Y-176685771D01*
X201220057Y-176685771D01*
X201934342Y-177685771D02*
X201791485Y-177614342D01*
X201720057Y-177542914D01*
X201648628Y-177400057D01*
X201648628Y-176971485D01*
X201720057Y-176828628D01*
X201791485Y-176757200D01*
X201934342Y-176685771D01*
X202148628Y-176685771D01*
X202291485Y-176757200D01*
X202362914Y-176828628D01*
X202434342Y-176971485D01*
X202434342Y-177400057D01*
X202362914Y-177542914D01*
X202291485Y-177614342D01*
X202148628Y-177685771D01*
X201934342Y-177685771D01*
X203720057Y-177614342D02*
X203577200Y-177685771D01*
X203291485Y-177685771D01*
X203148628Y-177614342D01*
X203077200Y-177542914D01*
X203005771Y-177400057D01*
X203005771Y-176971485D01*
X203077200Y-176828628D01*
X203148628Y-176757200D01*
X203291485Y-176685771D01*
X203577200Y-176685771D01*
X203720057Y-176757200D01*
X204934342Y-177614342D02*
X204791485Y-177685771D01*
X204505771Y-177685771D01*
X204362914Y-177614342D01*
X204291485Y-177471485D01*
X204291485Y-176900057D01*
X204362914Y-176757200D01*
X204505771Y-176685771D01*
X204791485Y-176685771D01*
X204934342Y-176757200D01*
X205005771Y-176900057D01*
X205005771Y-177042914D01*
X204291485Y-177185771D01*
X205577200Y-177614342D02*
X205720057Y-177685771D01*
X206005771Y-177685771D01*
X206148628Y-177614342D01*
X206220057Y-177471485D01*
X206220057Y-177400057D01*
X206148628Y-177257200D01*
X206005771Y-177185771D01*
X205791485Y-177185771D01*
X205648628Y-177114342D01*
X205577200Y-176971485D01*
X205577200Y-176900057D01*
X205648628Y-176757200D01*
X205791485Y-176685771D01*
X206005771Y-176685771D01*
X206148628Y-176757200D01*
X206791485Y-177614342D02*
X206934342Y-177685771D01*
X207220057Y-177685771D01*
X207362914Y-177614342D01*
X207434342Y-177471485D01*
X207434342Y-177400057D01*
X207362914Y-177257200D01*
X207220057Y-177185771D01*
X207005771Y-177185771D01*
X206862914Y-177114342D01*
X206791485Y-176971485D01*
X206791485Y-176900057D01*
X206862914Y-176757200D01*
X207005771Y-176685771D01*
X207220057Y-176685771D01*
X207362914Y-176757200D01*
X208077200Y-177685771D02*
X208077200Y-176685771D01*
X208077200Y-176185771D02*
X208005771Y-176257200D01*
X208077200Y-176328628D01*
X208148628Y-176257200D01*
X208077200Y-176185771D01*
X208077200Y-176328628D01*
X208791485Y-176685771D02*
X208791485Y-177685771D01*
X208791485Y-176828628D02*
X208862914Y-176757200D01*
X209005771Y-176685771D01*
X209220057Y-176685771D01*
X209362914Y-176757200D01*
X209434342Y-176900057D01*
X209434342Y-177685771D01*
X210791485Y-176685771D02*
X210791485Y-177900057D01*
X210720057Y-178042914D01*
X210648628Y-178114342D01*
X210505771Y-178185771D01*
X210291485Y-178185771D01*
X210148628Y-178114342D01*
X210791485Y-177614342D02*
X210648628Y-177685771D01*
X210362914Y-177685771D01*
X210220057Y-177614342D01*
X210148628Y-177542914D01*
X210077200Y-177400057D01*
X210077200Y-176971485D01*
X210148628Y-176828628D01*
X210220057Y-176757200D01*
X210362914Y-176685771D01*
X210648628Y-176685771D01*
X210791485Y-176757200D01*
X213291485Y-177685771D02*
X213291485Y-176900057D01*
X213220057Y-176757200D01*
X213077200Y-176685771D01*
X212791485Y-176685771D01*
X212648628Y-176757200D01*
X213291485Y-177614342D02*
X213148628Y-177685771D01*
X212791485Y-177685771D01*
X212648628Y-177614342D01*
X212577200Y-177471485D01*
X212577200Y-177328628D01*
X212648628Y-177185771D01*
X212791485Y-177114342D01*
X213148628Y-177114342D01*
X213291485Y-177042914D01*
X214005771Y-176685771D02*
X214005771Y-177685771D01*
X214005771Y-176828628D02*
X214077200Y-176757200D01*
X214220057Y-176685771D01*
X214434342Y-176685771D01*
X214577200Y-176757200D01*
X214648628Y-176900057D01*
X214648628Y-177685771D01*
X216005771Y-177685771D02*
X216005771Y-176185771D01*
X216005771Y-177614342D02*
X215862914Y-177685771D01*
X215577200Y-177685771D01*
X215434342Y-177614342D01*
X215362914Y-177542914D01*
X215291485Y-177400057D01*
X215291485Y-176971485D01*
X215362914Y-176828628D01*
X215434342Y-176757200D01*
X215577200Y-176685771D01*
X215862914Y-176685771D01*
X216005771Y-176757200D01*
X217862914Y-176900057D02*
X218362914Y-176900057D01*
X218577200Y-177685771D02*
X217862914Y-177685771D01*
X217862914Y-176185771D01*
X218577200Y-176185771D01*
X219434342Y-177685771D02*
X219291485Y-177614342D01*
X219220057Y-177471485D01*
X219220057Y-176185771D01*
X220577200Y-177614342D02*
X220434342Y-177685771D01*
X220148628Y-177685771D01*
X220005771Y-177614342D01*
X219934342Y-177471485D01*
X219934342Y-176900057D01*
X220005771Y-176757200D01*
X220148628Y-176685771D01*
X220434342Y-176685771D01*
X220577200Y-176757200D01*
X220648628Y-176900057D01*
X220648628Y-177042914D01*
X219934342Y-177185771D01*
X221934342Y-177614342D02*
X221791485Y-177685771D01*
X221505771Y-177685771D01*
X221362914Y-177614342D01*
X221291485Y-177542914D01*
X221220057Y-177400057D01*
X221220057Y-176971485D01*
X221291485Y-176828628D01*
X221362914Y-176757200D01*
X221505771Y-176685771D01*
X221791485Y-176685771D01*
X221934342Y-176757200D01*
X222362914Y-176685771D02*
X222934342Y-176685771D01*
X222577200Y-176185771D02*
X222577200Y-177471485D01*
X222648628Y-177614342D01*
X222791485Y-177685771D01*
X222934342Y-177685771D01*
X223434342Y-177685771D02*
X223434342Y-176685771D01*
X223434342Y-176971485D02*
X223505771Y-176828628D01*
X223577200Y-176757200D01*
X223720057Y-176685771D01*
X223862914Y-176685771D01*
X224577200Y-177685771D02*
X224434342Y-177614342D01*
X224362914Y-177542914D01*
X224291485Y-177400057D01*
X224291485Y-176971485D01*
X224362914Y-176828628D01*
X224434342Y-176757200D01*
X224577200Y-176685771D01*
X224791485Y-176685771D01*
X224934342Y-176757200D01*
X225005771Y-176828628D01*
X225077200Y-176971485D01*
X225077200Y-177400057D01*
X225005771Y-177542914D01*
X224934342Y-177614342D01*
X224791485Y-177685771D01*
X224577200Y-177685771D01*
X225720057Y-176685771D02*
X225720057Y-177685771D01*
X225720057Y-176828628D02*
X225791485Y-176757200D01*
X225934342Y-176685771D01*
X226148628Y-176685771D01*
X226291485Y-176757200D01*
X226362914Y-176900057D01*
X226362914Y-177685771D01*
X227077200Y-177685771D02*
X227077200Y-176685771D01*
X227077200Y-176185771D02*
X227005771Y-176257200D01*
X227077200Y-176328628D01*
X227148628Y-176257200D01*
X227077200Y-176185771D01*
X227077200Y-176328628D01*
X228434342Y-177614342D02*
X228291485Y-177685771D01*
X228005771Y-177685771D01*
X227862914Y-177614342D01*
X227791485Y-177542914D01*
X227720057Y-177400057D01*
X227720057Y-176971485D01*
X227791485Y-176828628D01*
X227862914Y-176757200D01*
X228005771Y-176685771D01*
X228291485Y-176685771D01*
X228434342Y-176757200D01*
X229005771Y-177614342D02*
X229148628Y-177685771D01*
X229434342Y-177685771D01*
X229577200Y-177614342D01*
X229648628Y-177471485D01*
X229648628Y-177400057D01*
X229577200Y-177257200D01*
X229434342Y-177185771D01*
X229220057Y-177185771D01*
X229077200Y-177114342D01*
X229005771Y-176971485D01*
X229005771Y-176900057D01*
X229077200Y-176757200D01*
X229220057Y-176685771D01*
X229434342Y-176685771D01*
X229577200Y-176757200D01*
X231862914Y-178257200D02*
X231791485Y-178185771D01*
X231648628Y-177971485D01*
X231577200Y-177828628D01*
X231505771Y-177614342D01*
X231434342Y-177257200D01*
X231434342Y-176971485D01*
X231505771Y-176614342D01*
X231577200Y-176400057D01*
X231648628Y-176257200D01*
X231791485Y-176042914D01*
X231862914Y-175971485D01*
X232434342Y-177685771D02*
X232434342Y-176185771D01*
X233148628Y-177685771D02*
X233148628Y-176185771D01*
X233720057Y-176185771D01*
X233862914Y-176257200D01*
X233934342Y-176328628D01*
X234005771Y-176471485D01*
X234005771Y-176685771D01*
X233934342Y-176828628D01*
X233862914Y-176900057D01*
X233720057Y-176971485D01*
X233148628Y-176971485D01*
X234648628Y-176900057D02*
X235148628Y-176900057D01*
X235362914Y-177685771D02*
X234648628Y-177685771D01*
X234648628Y-176185771D01*
X235362914Y-176185771D01*
X235862914Y-178257200D02*
X235934342Y-178185771D01*
X236077200Y-177971485D01*
X236148628Y-177828628D01*
X236220057Y-177614342D01*
X236291485Y-177257200D01*
X236291485Y-176971485D01*
X236220057Y-176614342D01*
X236148628Y-176400057D01*
X236077200Y-176257200D01*
X235934342Y-176042914D01*
X235862914Y-175971485D01*
D10*
D11*
X179148628Y-174685771D02*
X178434342Y-174685771D01*
X178434342Y-173185771D01*
X180291485Y-173685771D02*
X180291485Y-174685771D01*
X179648628Y-173685771D02*
X179648628Y-174471485D01*
X179720057Y-174614342D01*
X179862914Y-174685771D01*
X180077200Y-174685771D01*
X180220057Y-174614342D01*
X180291485Y-174542914D01*
X181005771Y-174685771D02*
X181005771Y-173685771D01*
X181005771Y-173185771D02*
X180934342Y-173257200D01*
X181005771Y-173328628D01*
X181077200Y-173257200D01*
X181005771Y-173185771D01*
X181005771Y-173328628D01*
X181648628Y-174614342D02*
X181791485Y-174685771D01*
X182077200Y-174685771D01*
X182220057Y-174614342D01*
X182291485Y-174471485D01*
X182291485Y-174400057D01*
X182220057Y-174257200D01*
X182077200Y-174185771D01*
X181862914Y-174185771D01*
X181720057Y-174114342D01*
X181648628Y-173971485D01*
X181648628Y-173900057D01*
X181720057Y-173757200D01*
X181862914Y-173685771D01*
X182077200Y-173685771D01*
X182220057Y-173757200D01*
X184005771Y-174257200D02*
X184720057Y-174257200D01*
X183862914Y-174685771D02*
X184362914Y-173185771D01*
X184862914Y-174685771D01*
X185362914Y-174685771D02*
X185362914Y-173685771D01*
X185362914Y-173971485D02*
X185434342Y-173828628D01*
X185505771Y-173757200D01*
X185648628Y-173685771D01*
X185791485Y-173685771D01*
X186934342Y-174685771D02*
X186934342Y-173185771D01*
X186934342Y-174614342D02*
X186791485Y-174685771D01*
X186505771Y-174685771D01*
X186362914Y-174614342D01*
X186291485Y-174542914D01*
X186220057Y-174400057D01*
X186220057Y-173971485D01*
X186291485Y-173828628D01*
X186362914Y-173757200D01*
X186505771Y-173685771D01*
X186791485Y-173685771D01*
X186934342Y-173757200D01*
X187648628Y-174685771D02*
X187648628Y-173685771D01*
X187648628Y-173185771D02*
X187577200Y-173257200D01*
X187648628Y-173328628D01*
X187720057Y-173257200D01*
X187648628Y-173185771D01*
X187648628Y-173328628D01*
X188577200Y-174685771D02*
X188434342Y-174614342D01*
X188362914Y-174471485D01*
X188362914Y-173185771D01*
X189791485Y-174685771D02*
X189791485Y-173900057D01*
X189720057Y-173757200D01*
X189577200Y-173685771D01*
X189291485Y-173685771D01*
X189148628Y-173757200D01*
X189791485Y-174614342D02*
X189648628Y-174685771D01*
X189291485Y-174685771D01*
X189148628Y-174614342D01*
X189077200Y-174471485D01*
X189077200Y-174328628D01*
X189148628Y-174185771D01*
X189291485Y-174114342D01*
X189648628Y-174114342D01*
X189791485Y-174042914D01*
D10*
D11*
X197002200Y-191507200D02*
X197002200Y-194507200D01*
D10*
D11*
X261002200Y-191507200D02*
X261002200Y-198007200D01*
D14*
%TO.C,G102*%
G36*
X183211953Y-59261385D02*
G01*
X183287589Y-59225858D01*
X183360681Y-59191562D01*
X183430704Y-59158742D01*
X183497132Y-59127644D01*
X183559440Y-59098510D01*
X183617103Y-59071588D01*
X183669594Y-59047120D01*
X183716389Y-59025353D01*
X183756962Y-59006530D01*
X183790788Y-58990897D01*
X183817340Y-58978699D01*
X183836094Y-58970179D01*
X183846523Y-58965584D01*
X183848590Y-58964818D01*
X183844946Y-58968186D01*
X183833879Y-58977615D01*
X183815836Y-58992737D01*
X183791262Y-59013184D01*
X183760602Y-59038590D01*
X183724303Y-59068586D01*
X183682810Y-59102806D01*
X183636570Y-59140882D01*
X183586027Y-59182446D01*
X183531627Y-59227132D01*
X183473817Y-59274571D01*
X183413042Y-59324397D01*
X183349747Y-59376242D01*
X183305878Y-59412149D01*
X182761380Y-59857693D01*
X182747375Y-59841317D01*
X182731440Y-59821007D01*
X182712069Y-59793694D01*
X182690475Y-59761345D01*
X182667872Y-59725929D01*
X182645474Y-59689414D01*
X182624496Y-59653771D01*
X182606149Y-59620966D01*
X182591649Y-59592970D01*
X182584120Y-59576531D01*
X182577104Y-59559739D01*
X183211953Y-59261385D01*
G37*
X183211953Y-59261385D02*
X183287589Y-59225858D01*
X183360681Y-59191562D01*
X183430704Y-59158742D01*
X183497132Y-59127644D01*
X183559440Y-59098510D01*
X183617103Y-59071588D01*
X183669594Y-59047120D01*
X183716389Y-59025353D01*
X183756962Y-59006530D01*
X183790788Y-58990897D01*
X183817340Y-58978699D01*
X183836094Y-58970179D01*
X183846523Y-58965584D01*
X183848590Y-58964818D01*
X183844946Y-58968186D01*
X183833879Y-58977615D01*
X183815836Y-58992737D01*
X183791262Y-59013184D01*
X183760602Y-59038590D01*
X183724303Y-59068586D01*
X183682810Y-59102806D01*
X183636570Y-59140882D01*
X183586027Y-59182446D01*
X183531627Y-59227132D01*
X183473817Y-59274571D01*
X183413042Y-59324397D01*
X183349747Y-59376242D01*
X183305878Y-59412149D01*
X182761380Y-59857693D01*
X182747375Y-59841317D01*
X182731440Y-59821007D01*
X182712069Y-59793694D01*
X182690475Y-59761345D01*
X182667872Y-59725929D01*
X182645474Y-59689414D01*
X182624496Y-59653771D01*
X182606149Y-59620966D01*
X182591649Y-59592970D01*
X182584120Y-59576531D01*
X182577104Y-59559739D01*
X183211953Y-59261385D01*
G36*
X183861200Y-57460200D02*
G01*
X183861200Y-57851360D01*
X182443880Y-57851360D01*
X182443880Y-57460200D01*
X183861200Y-57460200D01*
G37*
X183861200Y-57460200D02*
X183861200Y-57851360D01*
X182443880Y-57851360D01*
X182443880Y-57460200D01*
X183861200Y-57460200D01*
G36*
X182444867Y-58016286D02*
G01*
X182445049Y-57982828D01*
X182445348Y-57955742D01*
X182445756Y-57936055D01*
X182446266Y-57924797D01*
X182446669Y-57922480D01*
X182450971Y-57925589D01*
X182462619Y-57934611D01*
X182481041Y-57949092D01*
X182505669Y-57968578D01*
X182535930Y-57992615D01*
X182571254Y-58020748D01*
X182611071Y-58052522D01*
X182654810Y-58087483D01*
X182701899Y-58125177D01*
X182751770Y-58165149D01*
X182798513Y-58202659D01*
X182850487Y-58244389D01*
X182900246Y-58284335D01*
X182947212Y-58322036D01*
X182990808Y-58357026D01*
X183030457Y-58388845D01*
X183065581Y-58417027D01*
X183095603Y-58441111D01*
X183119947Y-58460633D01*
X183138035Y-58475129D01*
X183149289Y-58484138D01*
X183153087Y-58487162D01*
X183158117Y-58484816D01*
X183170743Y-58476071D01*
X183190788Y-58461068D01*
X183218072Y-58439949D01*
X183252417Y-58412854D01*
X183293645Y-58379925D01*
X183341576Y-58341302D01*
X183396033Y-58297128D01*
X183456836Y-58247542D01*
X183473127Y-58234219D01*
X183523180Y-58193264D01*
X183571701Y-58153563D01*
X183618005Y-58115677D01*
X183661409Y-58080165D01*
X183701227Y-58047586D01*
X183736778Y-58018501D01*
X183767375Y-57993469D01*
X183792335Y-57973050D01*
X183810975Y-57957803D01*
X183822610Y-57948289D01*
X183824370Y-57946850D01*
X183861200Y-57916748D01*
X183860848Y-58351740D01*
X183586303Y-58607010D01*
X183311757Y-58862280D01*
X182993953Y-58862280D01*
X182720186Y-58614506D01*
X182446420Y-58366731D01*
X182445096Y-58144606D01*
X182444884Y-58098204D01*
X182444810Y-58055088D01*
X182444867Y-58016286D01*
G37*
X182444867Y-58016286D02*
X182445049Y-57982828D01*
X182445348Y-57955742D01*
X182445756Y-57936055D01*
X182446266Y-57924797D01*
X182446669Y-57922480D01*
X182450971Y-57925589D01*
X182462619Y-57934611D01*
X182481041Y-57949092D01*
X182505669Y-57968578D01*
X182535930Y-57992615D01*
X182571254Y-58020748D01*
X182611071Y-58052522D01*
X182654810Y-58087483D01*
X182701899Y-58125177D01*
X182751770Y-58165149D01*
X182798513Y-58202659D01*
X182850487Y-58244389D01*
X182900246Y-58284335D01*
X182947212Y-58322036D01*
X182990808Y-58357026D01*
X183030457Y-58388845D01*
X183065581Y-58417027D01*
X183095603Y-58441111D01*
X183119947Y-58460633D01*
X183138035Y-58475129D01*
X183149289Y-58484138D01*
X183153087Y-58487162D01*
X183158117Y-58484816D01*
X183170743Y-58476071D01*
X183190788Y-58461068D01*
X183218072Y-58439949D01*
X183252417Y-58412854D01*
X183293645Y-58379925D01*
X183341576Y-58341302D01*
X183396033Y-58297128D01*
X183456836Y-58247542D01*
X183473127Y-58234219D01*
X183523180Y-58193264D01*
X183571701Y-58153563D01*
X183618005Y-58115677D01*
X183661409Y-58080165D01*
X183701227Y-58047586D01*
X183736778Y-58018501D01*
X183767375Y-57993469D01*
X183792335Y-57973050D01*
X183810975Y-57957803D01*
X183822610Y-57948289D01*
X183824370Y-57946850D01*
X183861200Y-57916748D01*
X183860848Y-58351740D01*
X183586303Y-58607010D01*
X183311757Y-58862280D01*
X182993953Y-58862280D01*
X182720186Y-58614506D01*
X182446420Y-58366731D01*
X182445096Y-58144606D01*
X182444884Y-58098204D01*
X182444810Y-58055088D01*
X182444867Y-58016286D01*
G36*
X183150617Y-58954973D02*
G01*
X183858660Y-58956260D01*
X183859947Y-59674531D01*
X183861235Y-60392802D01*
X183798987Y-60389257D01*
X183766266Y-60386855D01*
X183730277Y-60383298D01*
X183692647Y-60378836D01*
X183655006Y-60373723D01*
X183618981Y-60368212D01*
X183586200Y-60362553D01*
X183558292Y-60357001D01*
X183536886Y-60351806D01*
X183523608Y-60347222D01*
X183521930Y-60346314D01*
X183522248Y-60340903D01*
X183525079Y-60325817D01*
X183530424Y-60301040D01*
X183538287Y-60266559D01*
X183548673Y-60222358D01*
X183561583Y-60168422D01*
X183577023Y-60104737D01*
X183594996Y-60031288D01*
X183615504Y-59948060D01*
X183638553Y-59855039D01*
X183664144Y-59752209D01*
X183686448Y-59662885D01*
X183706696Y-59581833D01*
X183726231Y-59503508D01*
X183744912Y-59428474D01*
X183762601Y-59357295D01*
X183779159Y-59290535D01*
X183794447Y-59228757D01*
X183808326Y-59172525D01*
X183820657Y-59122401D01*
X183831301Y-59078951D01*
X183840119Y-59042738D01*
X183846973Y-59014325D01*
X183851723Y-58994275D01*
X183854229Y-58983153D01*
X183854591Y-58980979D01*
X183852266Y-58985273D01*
X183845909Y-58998259D01*
X183835763Y-59019416D01*
X183822076Y-59048221D01*
X183805091Y-59084151D01*
X183785056Y-59126683D01*
X183762214Y-59175296D01*
X183736811Y-59229466D01*
X183709093Y-59288672D01*
X183679306Y-59352390D01*
X183647693Y-59420098D01*
X183614501Y-59491273D01*
X183579975Y-59565393D01*
X183556311Y-59616242D01*
X183259909Y-60253384D01*
X183219731Y-60233182D01*
X183194402Y-60219744D01*
X183165894Y-60203440D01*
X183135429Y-60185089D01*
X183104226Y-60165511D01*
X183073506Y-60145526D01*
X183044490Y-60125955D01*
X183018397Y-60107616D01*
X182996449Y-60091329D01*
X182979865Y-60077915D01*
X182969867Y-60068193D01*
X182967424Y-60063700D01*
X182970596Y-60059223D01*
X182979815Y-60047318D01*
X182994717Y-60028441D01*
X183014936Y-60003045D01*
X183040108Y-59971583D01*
X183069866Y-59934509D01*
X183103847Y-59892277D01*
X183141684Y-59845340D01*
X183183012Y-59794152D01*
X183227467Y-59739167D01*
X183274682Y-59680838D01*
X183324292Y-59619618D01*
X183375933Y-59555963D01*
X183411207Y-59512520D01*
X183463942Y-59447546D01*
X183514847Y-59384729D01*
X183563559Y-59324521D01*
X183609716Y-59267374D01*
X183652956Y-59213739D01*
X183692919Y-59164067D01*
X183729240Y-59118809D01*
X183761560Y-59078418D01*
X183789516Y-59043343D01*
X183812746Y-59014037D01*
X183830888Y-58990951D01*
X183843580Y-58974536D01*
X183850461Y-58965243D01*
X183851639Y-58963225D01*
X183846427Y-58964056D01*
X183831929Y-58967232D01*
X183808713Y-58972615D01*
X183777345Y-58980064D01*
X183738392Y-58989442D01*
X183692420Y-59000610D01*
X183639995Y-59013429D01*
X183581685Y-59027760D01*
X183518057Y-59043465D01*
X183449675Y-59060404D01*
X183377108Y-59078439D01*
X183300922Y-59097432D01*
X183221683Y-59117243D01*
X183172860Y-59129477D01*
X183091995Y-59149748D01*
X183013807Y-59169328D01*
X182938866Y-59188076D01*
X182867742Y-59205851D01*
X182801004Y-59222510D01*
X182739224Y-59237911D01*
X182682970Y-59251913D01*
X182632812Y-59264374D01*
X182589321Y-59275153D01*
X182553066Y-59284107D01*
X182524617Y-59291094D01*
X182504544Y-59295974D01*
X182493417Y-59298603D01*
X182491277Y-59299042D01*
X182487048Y-59294280D01*
X182482170Y-59280731D01*
X182476860Y-59259734D01*
X182471335Y-59232623D01*
X182465812Y-59200738D01*
X182460509Y-59165414D01*
X182455643Y-59127988D01*
X182451432Y-59089797D01*
X182448093Y-59052177D01*
X182446069Y-59021013D01*
X182442574Y-58953685D01*
X183150617Y-58954973D01*
G37*
X183150617Y-58954973D02*
X183858660Y-58956260D01*
X183859947Y-59674531D01*
X183861235Y-60392802D01*
X183798987Y-60389257D01*
X183766266Y-60386855D01*
X183730277Y-60383298D01*
X183692647Y-60378836D01*
X183655006Y-60373723D01*
X183618981Y-60368212D01*
X183586200Y-60362553D01*
X183558292Y-60357001D01*
X183536886Y-60351806D01*
X183523608Y-60347222D01*
X183521930Y-60346314D01*
X183522248Y-60340903D01*
X183525079Y-60325817D01*
X183530424Y-60301040D01*
X183538287Y-60266559D01*
X183548673Y-60222358D01*
X183561583Y-60168422D01*
X183577023Y-60104737D01*
X183594996Y-60031288D01*
X183615504Y-59948060D01*
X183638553Y-59855039D01*
X183664144Y-59752209D01*
X183686448Y-59662885D01*
X183706696Y-59581833D01*
X183726231Y-59503508D01*
X183744912Y-59428474D01*
X183762601Y-59357295D01*
X183779159Y-59290535D01*
X183794447Y-59228757D01*
X183808326Y-59172525D01*
X183820657Y-59122401D01*
X183831301Y-59078951D01*
X183840119Y-59042738D01*
X183846973Y-59014325D01*
X183851723Y-58994275D01*
X183854229Y-58983153D01*
X183854591Y-58980979D01*
X183852266Y-58985273D01*
X183845909Y-58998259D01*
X183835763Y-59019416D01*
X183822076Y-59048221D01*
X183805091Y-59084151D01*
X183785056Y-59126683D01*
X183762214Y-59175296D01*
X183736811Y-59229466D01*
X183709093Y-59288672D01*
X183679306Y-59352390D01*
X183647693Y-59420098D01*
X183614501Y-59491273D01*
X183579975Y-59565393D01*
X183556311Y-59616242D01*
X183259909Y-60253384D01*
X183219731Y-60233182D01*
X183194402Y-60219744D01*
X183165894Y-60203440D01*
X183135429Y-60185089D01*
X183104226Y-60165511D01*
X183073506Y-60145526D01*
X183044490Y-60125955D01*
X183018397Y-60107616D01*
X182996449Y-60091329D01*
X182979865Y-60077915D01*
X182969867Y-60068193D01*
X182967424Y-60063700D01*
X182970596Y-60059223D01*
X182979815Y-60047318D01*
X182994717Y-60028441D01*
X183014936Y-60003045D01*
X183040108Y-59971583D01*
X183069866Y-59934509D01*
X183103847Y-59892277D01*
X183141684Y-59845340D01*
X183183012Y-59794152D01*
X183227467Y-59739167D01*
X183274682Y-59680838D01*
X183324292Y-59619618D01*
X183375933Y-59555963D01*
X183411207Y-59512520D01*
X183463942Y-59447546D01*
X183514847Y-59384729D01*
X183563559Y-59324521D01*
X183609716Y-59267374D01*
X183652956Y-59213739D01*
X183692919Y-59164067D01*
X183729240Y-59118809D01*
X183761560Y-59078418D01*
X183789516Y-59043343D01*
X183812746Y-59014037D01*
X183830888Y-58990951D01*
X183843580Y-58974536D01*
X183850461Y-58965243D01*
X183851639Y-58963225D01*
X183846427Y-58964056D01*
X183831929Y-58967232D01*
X183808713Y-58972615D01*
X183777345Y-58980064D01*
X183738392Y-58989442D01*
X183692420Y-59000610D01*
X183639995Y-59013429D01*
X183581685Y-59027760D01*
X183518057Y-59043465D01*
X183449675Y-59060404D01*
X183377108Y-59078439D01*
X183300922Y-59097432D01*
X183221683Y-59117243D01*
X183172860Y-59129477D01*
X183091995Y-59149748D01*
X183013807Y-59169328D01*
X182938866Y-59188076D01*
X182867742Y-59205851D01*
X182801004Y-59222510D01*
X182739224Y-59237911D01*
X182682970Y-59251913D01*
X182632812Y-59264374D01*
X182589321Y-59275153D01*
X182553066Y-59284107D01*
X182524617Y-59291094D01*
X182504544Y-59295974D01*
X182493417Y-59298603D01*
X182491277Y-59299042D01*
X182487048Y-59294280D01*
X182482170Y-59280731D01*
X182476860Y-59259734D01*
X182471335Y-59232623D01*
X182465812Y-59200738D01*
X182460509Y-59165414D01*
X182455643Y-59127988D01*
X182451432Y-59089797D01*
X182448093Y-59052177D01*
X182446069Y-59021013D01*
X182442574Y-58953685D01*
X183150617Y-58954973D01*
G36*
X182763920Y-56428960D02*
G01*
X182763920Y-56703280D01*
X183866280Y-56703280D01*
X183866280Y-57094440D01*
X182763920Y-57094440D01*
X182763920Y-57368760D01*
X182443880Y-57368760D01*
X182443880Y-56428960D01*
X182763920Y-56428960D01*
G37*
X182763920Y-56428960D02*
X182763920Y-56703280D01*
X183866280Y-56703280D01*
X183866280Y-57094440D01*
X182763920Y-57094440D01*
X182763920Y-57368760D01*
X182443880Y-57368760D01*
X182443880Y-56428960D01*
X182763920Y-56428960D01*
D15*
%TO.C,G101*%
X183450000Y-53700000D02*
X183350000Y-53600000D01*
X183650000Y-52900000D02*
X183750000Y-52800000D01*
X182150000Y-54400000D02*
X183650000Y-55900000D01*
X183650000Y-52900000D02*
X182150000Y-54400000D01*
X184150000Y-53400000D02*
X183650000Y-52900000D01*
X183650000Y-53900000D02*
X184150000Y-53400000D01*
X184150000Y-54400000D02*
X183650000Y-53900000D01*
X183650000Y-54900000D02*
X184150000Y-54400000D01*
X184150000Y-55400000D02*
X183650000Y-54900000D01*
X183650000Y-55900000D02*
X184150000Y-55400000D01*
%TD*%
D16*
%TO.C,J103*%
X123965000Y-48344500D03*
X120915000Y-102725500D03*
%TD*%
D17*
%TO.C,J119*%
X138900000Y-70580000D03*
X138900000Y-63420000D03*
%TD*%
%TO.C,J118*%
X183900000Y-63420000D03*
X183900000Y-70580000D03*
%TD*%
%TO.C,J117*%
X153900000Y-63420000D03*
X153900000Y-70580000D03*
%TD*%
%TO.C,J116*%
X168900000Y-70580000D03*
X168900000Y-63420000D03*
%TD*%
D10*
%TO.C,J107*%
G36*
X168694357Y-69429059D02*
G01*
X168694336Y-69429059D01*
X168694312Y-69429057D01*
X168693500Y-69429022D01*
X168691008Y-69428773D01*
X168688496Y-69428557D01*
X168458283Y-69397396D01*
X168457454Y-69397277D01*
X168455047Y-69396796D01*
X168452519Y-69396327D01*
X168226446Y-69342850D01*
X168225632Y-69342651D01*
X168223234Y-69341922D01*
X168220815Y-69341223D01*
X168001059Y-69265947D01*
X168001040Y-69265942D01*
X168001019Y-69265934D01*
X168000249Y-69265664D01*
X167997967Y-69264718D01*
X167995593Y-69263773D01*
X167784220Y-69167407D01*
X167784212Y-69167404D01*
X167784203Y-69167399D01*
X167783453Y-69167051D01*
X167781270Y-69165885D01*
X167779004Y-69164715D01*
X167578044Y-69048183D01*
X167578035Y-69048178D01*
X167578025Y-69048171D01*
X167577314Y-69047752D01*
X167575273Y-69046391D01*
X167573114Y-69044993D01*
X167384478Y-68909402D01*
X167383801Y-68908908D01*
X167381859Y-68907318D01*
X167379891Y-68905752D01*
X167205386Y-68752400D01*
X167204761Y-68751842D01*
X167203007Y-68750094D01*
X167201177Y-68748320D01*
X167042469Y-68578671D01*
X167041901Y-68578055D01*
X167040326Y-68576143D01*
X167038678Y-68574200D01*
X166897293Y-68389886D01*
X166897283Y-68389874D01*
X166897272Y-68389858D01*
X166896778Y-68389205D01*
X166895408Y-68387165D01*
X166893947Y-68385054D01*
X166771214Y-68187809D01*
X166770776Y-68187094D01*
X166769576Y-68184865D01*
X166768364Y-68182686D01*
X166665464Y-67974408D01*
X166665098Y-67973654D01*
X166664126Y-67971328D01*
X166663127Y-67969031D01*
X166581043Y-67751704D01*
X166580753Y-67750918D01*
X166580028Y-67748560D01*
X166579242Y-67746126D01*
X166518757Y-67521826D01*
X166518545Y-67521015D01*
X166518051Y-67518586D01*
X166517509Y-67516098D01*
X166479200Y-67286968D01*
X166479068Y-67286140D01*
X166478811Y-67283651D01*
X166478517Y-67281145D01*
X166462750Y-67049369D01*
X166462699Y-67048532D01*
X166462687Y-67046020D01*
X166462639Y-67043508D01*
X166469565Y-66811319D01*
X166469565Y-66811299D01*
X166469567Y-66811275D01*
X166469597Y-66810461D01*
X166469823Y-66808023D01*
X166470026Y-66805455D01*
X166499578Y-66575031D01*
X166499691Y-66574201D01*
X166500160Y-66571765D01*
X166500607Y-66569260D01*
X166552504Y-66342819D01*
X166552697Y-66342004D01*
X166553414Y-66339586D01*
X166554092Y-66337176D01*
X166627838Y-66116880D01*
X166628110Y-66116087D01*
X166629054Y-66113764D01*
X166629968Y-66111420D01*
X166724852Y-65899388D01*
X166724859Y-65899371D01*
X166724865Y-65899360D01*
X166725207Y-65898609D01*
X166726358Y-65896417D01*
X166727512Y-65894144D01*
X166842638Y-65692375D01*
X166842643Y-65692366D01*
X166842650Y-65692356D01*
X166843064Y-65691642D01*
X166844422Y-65689575D01*
X166845794Y-65687423D01*
X166980055Y-65497859D01*
X166980064Y-65497845D01*
X166980076Y-65497830D01*
X166980554Y-65497165D01*
X166982092Y-65495260D01*
X166983682Y-65493233D01*
X167135794Y-65317684D01*
X167135812Y-65317661D01*
X167135835Y-65317637D01*
X167136366Y-65317032D01*
X167138097Y-65315271D01*
X167139863Y-65313424D01*
X167308389Y-65153547D01*
X167308399Y-65153536D01*
X167308412Y-65153525D01*
X167309011Y-65152964D01*
X167310922Y-65151366D01*
X167312844Y-65149714D01*
X167496167Y-65007046D01*
X167496179Y-65007035D01*
X167496195Y-65007024D01*
X167496844Y-65006526D01*
X167498892Y-65005129D01*
X167500975Y-65003666D01*
X167697358Y-64879558D01*
X167698070Y-64879116D01*
X167700251Y-64877922D01*
X167702461Y-64876673D01*
X167910001Y-64772329D01*
X167910017Y-64772320D01*
X167910036Y-64772311D01*
X167910768Y-64771950D01*
X167913062Y-64770972D01*
X167915377Y-64769947D01*
X168132100Y-64686358D01*
X168132124Y-64686347D01*
X168132153Y-64686337D01*
X168132909Y-64686052D01*
X168135255Y-64685313D01*
X168137690Y-64684508D01*
X168361550Y-64622461D01*
X168361563Y-64622457D01*
X168361579Y-64622453D01*
X168362371Y-64622240D01*
X168364798Y-64621729D01*
X168367281Y-64621170D01*
X168596140Y-64581263D01*
X168596967Y-64581125D01*
X168599460Y-64580850D01*
X168601958Y-64580539D01*
X168833614Y-64563155D01*
X168833618Y-64563155D01*
X168834453Y-64563098D01*
X168836975Y-64563068D01*
X168839476Y-64563003D01*
X169071708Y-64568307D01*
X169071728Y-64568306D01*
X169071752Y-64568308D01*
X169072566Y-64568332D01*
X169075057Y-64568546D01*
X169077575Y-64568727D01*
X169308181Y-64596669D01*
X169308201Y-64596670D01*
X169308224Y-64596674D01*
X169309032Y-64596777D01*
X169311497Y-64597234D01*
X169313979Y-64597659D01*
X169540776Y-64647974D01*
X169541593Y-64648162D01*
X169543977Y-64648850D01*
X169546430Y-64649522D01*
X169767217Y-64721722D01*
X169767236Y-64721727D01*
X169767257Y-64721735D01*
X169768030Y-64721994D01*
X169770327Y-64722909D01*
X169772712Y-64723820D01*
X169985400Y-64817221D01*
X169985417Y-64817228D01*
X169985436Y-64817238D01*
X169986182Y-64817571D01*
X169988410Y-64818721D01*
X169990662Y-64819845D01*
X170193238Y-64933564D01*
X170193965Y-64933980D01*
X170196037Y-64935321D01*
X170198203Y-64936680D01*
X170388715Y-65069625D01*
X170389399Y-65070109D01*
X170391388Y-65071692D01*
X170393353Y-65073211D01*
X170569982Y-65224110D01*
X170570615Y-65224659D01*
X170572414Y-65226403D01*
X170574247Y-65228131D01*
X170735307Y-65395547D01*
X170735884Y-65396155D01*
X170737522Y-65398087D01*
X170739160Y-65399966D01*
X170883115Y-65582300D01*
X170883630Y-65582962D01*
X170885068Y-65585039D01*
X170886518Y-65587073D01*
X171011985Y-65782570D01*
X171011995Y-65782584D01*
X171012005Y-65782601D01*
X171012442Y-65783292D01*
X171013657Y-65785475D01*
X171014916Y-65787666D01*
X171120714Y-65994489D01*
X171121090Y-65995238D01*
X171122090Y-65997537D01*
X171123125Y-65999832D01*
X171208235Y-66215991D01*
X171208537Y-66216773D01*
X171209036Y-66218319D01*
X171209601Y-66219839D01*
X171237194Y-66306866D01*
X171237442Y-66307667D01*
X171237492Y-66307867D01*
X171237559Y-66308060D01*
X171238193Y-66310680D01*
X171238859Y-66313354D01*
X171238889Y-66313561D01*
X171238937Y-66313757D01*
X171239308Y-66316396D01*
X171239715Y-66319154D01*
X171239725Y-66319365D01*
X171239753Y-66319562D01*
X171239867Y-66322276D01*
X171240000Y-66325008D01*
X171239990Y-66325209D01*
X171239999Y-66325419D01*
X171239846Y-66328146D01*
X171239713Y-66330864D01*
X171239682Y-66331072D01*
X171239671Y-66331272D01*
X171239246Y-66334020D01*
X171238855Y-66336662D01*
X171238808Y-66336849D01*
X171238775Y-66337065D01*
X171238077Y-66339783D01*
X171237437Y-66342350D01*
X171237368Y-66342544D01*
X171237317Y-66342742D01*
X171236394Y-66345279D01*
X171235470Y-66347872D01*
X171235382Y-66348060D01*
X171235312Y-66348251D01*
X171234134Y-66350708D01*
X171232973Y-66353175D01*
X171232869Y-66353350D01*
X171232779Y-66353537D01*
X171231330Y-66355929D01*
X171229970Y-66358210D01*
X171229853Y-66358369D01*
X171229742Y-66358552D01*
X171228096Y-66360752D01*
X171226492Y-66362928D01*
X171226351Y-66363084D01*
X171226231Y-66363245D01*
X171224410Y-66365239D01*
X171222568Y-66367284D01*
X171222417Y-66367422D01*
X171222278Y-66367574D01*
X171220187Y-66369457D01*
X171218238Y-66371236D01*
X171218083Y-66371352D01*
X171217922Y-66371497D01*
X171215673Y-66373155D01*
X171213544Y-66374747D01*
X171213367Y-66374854D01*
X171213203Y-66374975D01*
X171210883Y-66376358D01*
X171208530Y-66377783D01*
X171208344Y-66377872D01*
X171208168Y-66377977D01*
X171205689Y-66379144D01*
X171203243Y-66380315D01*
X171203052Y-66380384D01*
X171202864Y-66380473D01*
X171200331Y-66381375D01*
X171197734Y-66382320D01*
X171197528Y-66382373D01*
X171197342Y-66382439D01*
X171194751Y-66383085D01*
X171192056Y-66383776D01*
X171191853Y-66383808D01*
X171191654Y-66383857D01*
X171188997Y-66384250D01*
X171186263Y-66384673D01*
X171186053Y-66384685D01*
X171185855Y-66384714D01*
X171183192Y-66384844D01*
X171180411Y-66384999D01*
X171180201Y-66384990D01*
X171180000Y-66385000D01*
X170180000Y-66385000D01*
X170179162Y-66384994D01*
X170176876Y-66384850D01*
X170174567Y-66384754D01*
X170173936Y-66384665D01*
X170173312Y-66384626D01*
X170171040Y-66384258D01*
X170168763Y-66383938D01*
X170168156Y-66383791D01*
X170167525Y-66383689D01*
X170165285Y-66383097D01*
X170163065Y-66382560D01*
X170162468Y-66382352D01*
X170161858Y-66382191D01*
X170159710Y-66381392D01*
X170157528Y-66380633D01*
X170156954Y-66380368D01*
X170156363Y-66380148D01*
X170154287Y-66379135D01*
X170152207Y-66378174D01*
X170151665Y-66377856D01*
X170151095Y-66377578D01*
X170149126Y-66376367D01*
X170147150Y-66375208D01*
X170146643Y-66374840D01*
X170146102Y-66374507D01*
X170144262Y-66373110D01*
X170142407Y-66371763D01*
X170141935Y-66371344D01*
X170141433Y-66370963D01*
X170139745Y-66369400D01*
X170138024Y-66367872D01*
X170137595Y-66367409D01*
X170137132Y-66366980D01*
X170135603Y-66365258D01*
X170134041Y-66363571D01*
X170133659Y-66363068D01*
X170133240Y-66362596D01*
X170131885Y-66360732D01*
X170130496Y-66358902D01*
X170130167Y-66358367D01*
X170129794Y-66357854D01*
X170128630Y-66355869D01*
X170127424Y-66353910D01*
X170104050Y-66311400D01*
X170030516Y-66196438D01*
X169946707Y-66089956D01*
X169852906Y-65992157D01*
X169750019Y-65903987D01*
X169639007Y-65826268D01*
X169520947Y-65759758D01*
X169396953Y-65705082D01*
X169268219Y-65662767D01*
X169135967Y-65633216D01*
X169001472Y-65616714D01*
X168866008Y-65613414D01*
X168730854Y-65623350D01*
X168597319Y-65646426D01*
X168466689Y-65682419D01*
X168340178Y-65730994D01*
X168219019Y-65791678D01*
X168104352Y-65863901D01*
X167997282Y-65946968D01*
X167898840Y-66040075D01*
X167809947Y-66142352D01*
X167731451Y-66252825D01*
X167664119Y-66370416D01*
X167608584Y-66494015D01*
X167565368Y-66622461D01*
X167534899Y-66754488D01*
X167517456Y-66888871D01*
X167513211Y-67024320D01*
X167522202Y-67159528D01*
X167544347Y-67293227D01*
X167579426Y-67424103D01*
X167627117Y-67550951D01*
X167686952Y-67672526D01*
X167758374Y-67787696D01*
X167840686Y-67895337D01*
X167933108Y-67994433D01*
X168034765Y-68084041D01*
X168144674Y-68163296D01*
X168261801Y-68231454D01*
X168385015Y-68287854D01*
X168513144Y-68331960D01*
X168644967Y-68363354D01*
X168779230Y-68381735D01*
X168914637Y-68386926D01*
X169049900Y-68378879D01*
X169183753Y-68357667D01*
X169314872Y-68323502D01*
X169442048Y-68276699D01*
X169564046Y-68217711D01*
X169679708Y-68147097D01*
X169787923Y-68065537D01*
X169887663Y-67973807D01*
X169977978Y-67872778D01*
X170057996Y-67763426D01*
X170128462Y-67644255D01*
X170128894Y-67643536D01*
X170129810Y-67642189D01*
X170130258Y-67641448D01*
X170130854Y-67640652D01*
X170132188Y-67638688D01*
X170133511Y-67637100D01*
X170133769Y-67636755D01*
X170134103Y-67636390D01*
X170135940Y-67634184D01*
X170137715Y-67632434D01*
X170137722Y-67632426D01*
X170137731Y-67632418D01*
X170140114Y-67630068D01*
X170144669Y-67626378D01*
X170149563Y-67623151D01*
X170154747Y-67620416D01*
X170160174Y-67618201D01*
X170165792Y-67616526D01*
X170171547Y-67615407D01*
X170177382Y-67614855D01*
X170183244Y-67614875D01*
X170184476Y-67615000D01*
X171180000Y-67615000D01*
X171180838Y-67615006D01*
X171186688Y-67615374D01*
X171192475Y-67616311D01*
X171198142Y-67617809D01*
X171203637Y-67619852D01*
X171208905Y-67622422D01*
X171213898Y-67625493D01*
X171218567Y-67629037D01*
X171222868Y-67633020D01*
X171226760Y-67637404D01*
X171230206Y-67642146D01*
X171233172Y-67647202D01*
X171235631Y-67652524D01*
X171237559Y-67658060D01*
X171238937Y-67663757D01*
X171239753Y-67669562D01*
X171239999Y-67675419D01*
X171239671Y-67681272D01*
X171238775Y-67687065D01*
X171238218Y-67689234D01*
X171238091Y-67689893D01*
X171237774Y-67690961D01*
X171237317Y-67692742D01*
X171236937Y-67693787D01*
X171236425Y-67695513D01*
X171159610Y-67914758D01*
X171159327Y-67915547D01*
X171158355Y-67917847D01*
X171157404Y-67920189D01*
X171059561Y-68130891D01*
X171059203Y-68131648D01*
X171058005Y-68133854D01*
X171056835Y-68136081D01*
X170938908Y-68336215D01*
X170938900Y-68336231D01*
X170938889Y-68336248D01*
X170938469Y-68336950D01*
X170937063Y-68339025D01*
X170935680Y-68341130D01*
X170798775Y-68528815D01*
X170798276Y-68529489D01*
X170796683Y-68531407D01*
X170795093Y-68533377D01*
X170640545Y-68706785D01*
X170640527Y-68706807D01*
X170640504Y-68706831D01*
X170639964Y-68707428D01*
X170638225Y-68709149D01*
X170636417Y-68710987D01*
X170465665Y-68868506D01*
X170465045Y-68869070D01*
X170463070Y-68870675D01*
X170461167Y-68872265D01*
X170275881Y-69012353D01*
X170275859Y-69012371D01*
X170275832Y-69012390D01*
X170275186Y-69012871D01*
X170273108Y-69014246D01*
X170271015Y-69015673D01*
X170072918Y-69137027D01*
X170072200Y-69137460D01*
X170069963Y-69138644D01*
X170067776Y-69139841D01*
X169858799Y-69241276D01*
X169858783Y-69241285D01*
X169858763Y-69241293D01*
X169858026Y-69241645D01*
X169855728Y-69242587D01*
X169853391Y-69243583D01*
X169635515Y-69324141D01*
X169635497Y-69324149D01*
X169635476Y-69324156D01*
X169634709Y-69324433D01*
X169632332Y-69325146D01*
X169629906Y-69325910D01*
X169405208Y-69384823D01*
X169405189Y-69384829D01*
X169405167Y-69384834D01*
X169404377Y-69385035D01*
X169401923Y-69385516D01*
X169399453Y-69386036D01*
X169170080Y-69422741D01*
X169170060Y-69422745D01*
X169170037Y-69422748D01*
X169169232Y-69422871D01*
X169166754Y-69423109D01*
X169164233Y-69423387D01*
X168932352Y-69437535D01*
X168931515Y-69437580D01*
X168928982Y-69437575D01*
X168926491Y-69437605D01*
X168694357Y-69429059D01*
G37*
D17*
X168900000Y-63420000D03*
X168900000Y-70580000D03*
D18*
X168900000Y-67000000D03*
%TD*%
D10*
%TO.C,J106*%
G36*
X184105643Y-64570941D02*
G01*
X184105664Y-64570941D01*
X184105688Y-64570943D01*
X184106500Y-64570978D01*
X184108992Y-64571227D01*
X184111504Y-64571443D01*
X184341717Y-64602604D01*
X184342546Y-64602723D01*
X184344953Y-64603204D01*
X184347481Y-64603673D01*
X184573554Y-64657150D01*
X184574368Y-64657349D01*
X184576766Y-64658078D01*
X184579185Y-64658777D01*
X184798941Y-64734053D01*
X184798960Y-64734058D01*
X184798981Y-64734066D01*
X184799751Y-64734336D01*
X184802033Y-64735282D01*
X184804407Y-64736227D01*
X185015780Y-64832593D01*
X185015788Y-64832596D01*
X185015797Y-64832601D01*
X185016547Y-64832949D01*
X185018730Y-64834115D01*
X185020996Y-64835285D01*
X185221956Y-64951817D01*
X185221965Y-64951822D01*
X185221975Y-64951829D01*
X185222686Y-64952248D01*
X185224727Y-64953609D01*
X185226886Y-64955007D01*
X185415522Y-65090598D01*
X185416199Y-65091092D01*
X185418141Y-65092682D01*
X185420109Y-65094248D01*
X185594614Y-65247600D01*
X185595239Y-65248158D01*
X185596993Y-65249906D01*
X185598823Y-65251680D01*
X185757531Y-65421329D01*
X185758099Y-65421945D01*
X185759674Y-65423857D01*
X185761322Y-65425800D01*
X185902707Y-65610114D01*
X185902717Y-65610126D01*
X185902728Y-65610142D01*
X185903222Y-65610795D01*
X185904592Y-65612835D01*
X185906053Y-65614946D01*
X186028786Y-65812191D01*
X186029224Y-65812906D01*
X186030424Y-65815135D01*
X186031636Y-65817314D01*
X186134536Y-66025592D01*
X186134902Y-66026346D01*
X186135874Y-66028672D01*
X186136873Y-66030969D01*
X186218957Y-66248296D01*
X186219247Y-66249082D01*
X186219972Y-66251440D01*
X186220758Y-66253874D01*
X186281243Y-66478174D01*
X186281455Y-66478985D01*
X186281949Y-66481414D01*
X186282491Y-66483902D01*
X186320800Y-66713032D01*
X186320932Y-66713860D01*
X186321189Y-66716349D01*
X186321483Y-66718855D01*
X186337250Y-66950631D01*
X186337301Y-66951468D01*
X186337313Y-66953980D01*
X186337361Y-66956492D01*
X186330435Y-67188681D01*
X186330435Y-67188701D01*
X186330433Y-67188725D01*
X186330403Y-67189539D01*
X186330177Y-67191977D01*
X186329974Y-67194545D01*
X186300422Y-67424969D01*
X186300309Y-67425799D01*
X186299840Y-67428235D01*
X186299393Y-67430740D01*
X186247496Y-67657181D01*
X186247303Y-67657996D01*
X186246586Y-67660414D01*
X186245908Y-67662824D01*
X186172162Y-67883120D01*
X186171890Y-67883913D01*
X186170946Y-67886236D01*
X186170032Y-67888580D01*
X186075148Y-68100612D01*
X186075141Y-68100629D01*
X186075135Y-68100640D01*
X186074793Y-68101391D01*
X186073642Y-68103583D01*
X186072488Y-68105856D01*
X185957362Y-68307625D01*
X185957357Y-68307634D01*
X185957350Y-68307644D01*
X185956936Y-68308358D01*
X185955578Y-68310425D01*
X185954206Y-68312577D01*
X185819945Y-68502141D01*
X185819936Y-68502155D01*
X185819924Y-68502170D01*
X185819446Y-68502835D01*
X185817908Y-68504740D01*
X185816318Y-68506767D01*
X185664206Y-68682316D01*
X185664188Y-68682339D01*
X185664165Y-68682363D01*
X185663634Y-68682968D01*
X185661903Y-68684729D01*
X185660137Y-68686576D01*
X185491611Y-68846453D01*
X185491601Y-68846464D01*
X185491588Y-68846475D01*
X185490989Y-68847036D01*
X185489078Y-68848634D01*
X185487156Y-68850286D01*
X185303833Y-68992954D01*
X185303821Y-68992965D01*
X185303805Y-68992976D01*
X185303156Y-68993474D01*
X185301108Y-68994871D01*
X185299025Y-68996334D01*
X185102642Y-69120442D01*
X185101930Y-69120884D01*
X185099749Y-69122078D01*
X185097539Y-69123327D01*
X184889999Y-69227671D01*
X184889983Y-69227680D01*
X184889964Y-69227689D01*
X184889232Y-69228050D01*
X184886938Y-69229028D01*
X184884623Y-69230053D01*
X184667900Y-69313642D01*
X184667876Y-69313653D01*
X184667847Y-69313663D01*
X184667091Y-69313948D01*
X184664745Y-69314687D01*
X184662310Y-69315492D01*
X184438450Y-69377539D01*
X184438437Y-69377543D01*
X184438421Y-69377547D01*
X184437629Y-69377760D01*
X184435202Y-69378271D01*
X184432719Y-69378830D01*
X184203860Y-69418737D01*
X184203033Y-69418875D01*
X184200540Y-69419150D01*
X184198042Y-69419461D01*
X183966386Y-69436845D01*
X183966382Y-69436845D01*
X183965547Y-69436902D01*
X183963025Y-69436932D01*
X183960524Y-69436997D01*
X183728292Y-69431693D01*
X183728272Y-69431694D01*
X183728248Y-69431692D01*
X183727434Y-69431668D01*
X183724943Y-69431454D01*
X183722425Y-69431273D01*
X183491819Y-69403331D01*
X183491799Y-69403330D01*
X183491776Y-69403326D01*
X183490968Y-69403223D01*
X183488503Y-69402766D01*
X183486021Y-69402341D01*
X183259224Y-69352026D01*
X183258407Y-69351838D01*
X183256023Y-69351150D01*
X183253570Y-69350478D01*
X183032783Y-69278278D01*
X183032764Y-69278273D01*
X183032743Y-69278265D01*
X183031970Y-69278006D01*
X183029673Y-69277091D01*
X183027288Y-69276180D01*
X182814600Y-69182779D01*
X182814583Y-69182772D01*
X182814564Y-69182762D01*
X182813818Y-69182429D01*
X182811590Y-69181279D01*
X182809338Y-69180155D01*
X182606762Y-69066436D01*
X182606035Y-69066020D01*
X182603963Y-69064679D01*
X182601797Y-69063320D01*
X182411285Y-68930375D01*
X182410601Y-68929891D01*
X182408612Y-68928308D01*
X182406647Y-68926789D01*
X182230018Y-68775890D01*
X182229385Y-68775341D01*
X182227586Y-68773597D01*
X182225753Y-68771869D01*
X182064693Y-68604453D01*
X182064116Y-68603845D01*
X182062478Y-68601913D01*
X182060840Y-68600034D01*
X181916885Y-68417700D01*
X181916370Y-68417038D01*
X181914932Y-68414961D01*
X181913482Y-68412927D01*
X181788015Y-68217430D01*
X181788005Y-68217416D01*
X181787995Y-68217399D01*
X181787558Y-68216708D01*
X181786343Y-68214525D01*
X181785084Y-68212334D01*
X181679286Y-68005511D01*
X181678910Y-68004762D01*
X181677910Y-68002463D01*
X181676875Y-68000168D01*
X181591765Y-67784009D01*
X181591463Y-67783227D01*
X181590964Y-67781681D01*
X181590399Y-67780161D01*
X181562806Y-67693134D01*
X181562558Y-67692333D01*
X181562508Y-67692133D01*
X181562441Y-67691940D01*
X181561807Y-67689320D01*
X181561141Y-67686646D01*
X181561111Y-67686439D01*
X181561063Y-67686243D01*
X181560692Y-67683604D01*
X181560285Y-67680846D01*
X181560275Y-67680635D01*
X181560247Y-67680438D01*
X181560133Y-67677724D01*
X181560000Y-67674992D01*
X181560010Y-67674791D01*
X181560001Y-67674581D01*
X181560154Y-67671854D01*
X181560287Y-67669136D01*
X181560318Y-67668928D01*
X181560329Y-67668728D01*
X181560754Y-67665980D01*
X181561145Y-67663338D01*
X181561192Y-67663151D01*
X181561225Y-67662935D01*
X181561923Y-67660217D01*
X181562563Y-67657650D01*
X181562632Y-67657456D01*
X181562683Y-67657258D01*
X181563606Y-67654721D01*
X181564530Y-67652128D01*
X181564618Y-67651940D01*
X181564688Y-67651749D01*
X181565866Y-67649292D01*
X181567027Y-67646825D01*
X181567131Y-67646650D01*
X181567221Y-67646463D01*
X181568670Y-67644071D01*
X181570030Y-67641790D01*
X181570147Y-67641631D01*
X181570258Y-67641448D01*
X181571904Y-67639248D01*
X181573508Y-67637072D01*
X181573649Y-67636916D01*
X181573769Y-67636755D01*
X181575590Y-67634761D01*
X181577432Y-67632716D01*
X181577583Y-67632578D01*
X181577722Y-67632426D01*
X181579813Y-67630543D01*
X181581762Y-67628764D01*
X181581917Y-67628648D01*
X181582078Y-67628503D01*
X181584327Y-67626845D01*
X181586456Y-67625253D01*
X181586633Y-67625146D01*
X181586797Y-67625025D01*
X181589117Y-67623642D01*
X181591470Y-67622217D01*
X181591656Y-67622128D01*
X181591832Y-67622023D01*
X181594311Y-67620856D01*
X181596757Y-67619685D01*
X181596948Y-67619616D01*
X181597136Y-67619527D01*
X181599669Y-67618625D01*
X181602266Y-67617680D01*
X181602472Y-67617627D01*
X181602658Y-67617561D01*
X181605249Y-67616915D01*
X181607944Y-67616224D01*
X181608147Y-67616192D01*
X181608346Y-67616143D01*
X181611003Y-67615750D01*
X181613737Y-67615327D01*
X181613947Y-67615315D01*
X181614145Y-67615286D01*
X181616808Y-67615156D01*
X181619589Y-67615001D01*
X181619799Y-67615010D01*
X181620000Y-67615000D01*
X182620000Y-67615000D01*
X182620838Y-67615006D01*
X182623124Y-67615150D01*
X182625433Y-67615246D01*
X182626064Y-67615335D01*
X182626688Y-67615374D01*
X182628960Y-67615742D01*
X182631237Y-67616062D01*
X182631844Y-67616209D01*
X182632475Y-67616311D01*
X182634715Y-67616903D01*
X182636935Y-67617440D01*
X182637532Y-67617648D01*
X182638142Y-67617809D01*
X182640290Y-67618608D01*
X182642472Y-67619367D01*
X182643046Y-67619632D01*
X182643637Y-67619852D01*
X182645713Y-67620865D01*
X182647793Y-67621826D01*
X182648335Y-67622144D01*
X182648905Y-67622422D01*
X182650874Y-67623633D01*
X182652850Y-67624792D01*
X182653357Y-67625160D01*
X182653898Y-67625493D01*
X182655738Y-67626890D01*
X182657593Y-67628237D01*
X182658065Y-67628656D01*
X182658567Y-67629037D01*
X182660255Y-67630600D01*
X182661976Y-67632128D01*
X182662405Y-67632591D01*
X182662868Y-67633020D01*
X182664397Y-67634742D01*
X182665959Y-67636429D01*
X182666341Y-67636932D01*
X182666760Y-67637404D01*
X182668115Y-67639268D01*
X182669504Y-67641098D01*
X182669833Y-67641633D01*
X182670206Y-67642146D01*
X182671370Y-67644131D01*
X182672576Y-67646090D01*
X182695950Y-67688600D01*
X182769484Y-67803562D01*
X182853293Y-67910044D01*
X182947094Y-68007843D01*
X183049981Y-68096013D01*
X183160993Y-68173732D01*
X183279053Y-68240242D01*
X183403047Y-68294918D01*
X183531781Y-68337233D01*
X183664033Y-68366784D01*
X183798528Y-68383286D01*
X183933992Y-68386586D01*
X184069146Y-68376650D01*
X184202681Y-68353574D01*
X184333311Y-68317581D01*
X184459822Y-68269006D01*
X184580981Y-68208322D01*
X184695648Y-68136099D01*
X184802718Y-68053032D01*
X184901160Y-67959925D01*
X184990053Y-67857648D01*
X185068549Y-67747175D01*
X185135881Y-67629584D01*
X185191416Y-67505985D01*
X185234632Y-67377539D01*
X185265101Y-67245512D01*
X185282544Y-67111129D01*
X185286789Y-66975680D01*
X185277798Y-66840472D01*
X185255653Y-66706773D01*
X185220574Y-66575897D01*
X185172883Y-66449049D01*
X185113048Y-66327474D01*
X185041626Y-66212304D01*
X184959314Y-66104663D01*
X184866892Y-66005567D01*
X184765235Y-65915959D01*
X184655326Y-65836704D01*
X184538199Y-65768546D01*
X184414985Y-65712146D01*
X184286856Y-65668040D01*
X184155033Y-65636646D01*
X184020770Y-65618265D01*
X183885363Y-65613074D01*
X183750100Y-65621121D01*
X183616247Y-65642333D01*
X183485128Y-65676498D01*
X183357952Y-65723301D01*
X183235954Y-65782289D01*
X183120292Y-65852903D01*
X183012077Y-65934463D01*
X182912337Y-66026193D01*
X182822022Y-66127222D01*
X182742004Y-66236574D01*
X182671538Y-66355745D01*
X182671106Y-66356464D01*
X182670190Y-66357811D01*
X182669742Y-66358552D01*
X182669146Y-66359348D01*
X182667812Y-66361312D01*
X182666489Y-66362900D01*
X182666231Y-66363245D01*
X182665897Y-66363610D01*
X182664060Y-66365816D01*
X182662285Y-66367566D01*
X182662278Y-66367574D01*
X182662269Y-66367582D01*
X182659886Y-66369932D01*
X182655331Y-66373622D01*
X182650437Y-66376849D01*
X182645253Y-66379584D01*
X182639826Y-66381799D01*
X182634208Y-66383474D01*
X182628453Y-66384593D01*
X182622618Y-66385145D01*
X182616756Y-66385125D01*
X182615524Y-66385000D01*
X181620000Y-66385000D01*
X181619162Y-66384994D01*
X181613312Y-66384626D01*
X181607525Y-66383689D01*
X181601858Y-66382191D01*
X181596363Y-66380148D01*
X181591095Y-66377578D01*
X181586102Y-66374507D01*
X181581433Y-66370963D01*
X181577132Y-66366980D01*
X181573240Y-66362596D01*
X181569794Y-66357854D01*
X181566828Y-66352798D01*
X181564369Y-66347476D01*
X181562441Y-66341940D01*
X181561063Y-66336243D01*
X181560247Y-66330438D01*
X181560001Y-66324581D01*
X181560329Y-66318728D01*
X181561225Y-66312935D01*
X181561782Y-66310766D01*
X181561909Y-66310107D01*
X181562226Y-66309039D01*
X181562683Y-66307258D01*
X181563063Y-66306213D01*
X181563575Y-66304487D01*
X181640390Y-66085242D01*
X181640673Y-66084453D01*
X181641645Y-66082153D01*
X181642596Y-66079811D01*
X181740439Y-65869109D01*
X181740797Y-65868352D01*
X181741995Y-65866146D01*
X181743165Y-65863919D01*
X181861092Y-65663785D01*
X181861100Y-65663769D01*
X181861111Y-65663752D01*
X181861531Y-65663050D01*
X181862937Y-65660975D01*
X181864320Y-65658870D01*
X182001225Y-65471185D01*
X182001724Y-65470511D01*
X182003317Y-65468593D01*
X182004907Y-65466623D01*
X182159455Y-65293215D01*
X182159473Y-65293193D01*
X182159496Y-65293169D01*
X182160036Y-65292572D01*
X182161775Y-65290851D01*
X182163583Y-65289013D01*
X182334335Y-65131494D01*
X182334955Y-65130930D01*
X182336930Y-65129325D01*
X182338833Y-65127735D01*
X182524119Y-64987647D01*
X182524141Y-64987629D01*
X182524168Y-64987610D01*
X182524814Y-64987129D01*
X182526892Y-64985754D01*
X182528985Y-64984327D01*
X182727082Y-64862973D01*
X182727800Y-64862540D01*
X182730037Y-64861356D01*
X182732224Y-64860159D01*
X182941201Y-64758724D01*
X182941217Y-64758715D01*
X182941237Y-64758707D01*
X182941974Y-64758355D01*
X182944272Y-64757413D01*
X182946609Y-64756417D01*
X183164485Y-64675859D01*
X183164503Y-64675851D01*
X183164524Y-64675844D01*
X183165291Y-64675567D01*
X183167668Y-64674854D01*
X183170094Y-64674090D01*
X183394792Y-64615177D01*
X183394811Y-64615171D01*
X183394833Y-64615166D01*
X183395623Y-64614965D01*
X183398077Y-64614484D01*
X183400547Y-64613964D01*
X183629920Y-64577259D01*
X183629940Y-64577255D01*
X183629963Y-64577252D01*
X183630768Y-64577129D01*
X183633246Y-64576891D01*
X183635767Y-64576613D01*
X183867648Y-64562465D01*
X183868485Y-64562420D01*
X183871018Y-64562425D01*
X183873509Y-64562395D01*
X184105643Y-64570941D01*
G37*
D17*
X183900000Y-70580000D03*
X183900000Y-63420000D03*
D18*
X183900000Y-67000000D03*
%TD*%
D10*
%TO.C,J105*%
G36*
X138694357Y-69429059D02*
G01*
X138694336Y-69429059D01*
X138694312Y-69429057D01*
X138693500Y-69429022D01*
X138691008Y-69428773D01*
X138688496Y-69428557D01*
X138458283Y-69397396D01*
X138457454Y-69397277D01*
X138455047Y-69396796D01*
X138452519Y-69396327D01*
X138226446Y-69342850D01*
X138225632Y-69342651D01*
X138223234Y-69341922D01*
X138220815Y-69341223D01*
X138001059Y-69265947D01*
X138001040Y-69265942D01*
X138001019Y-69265934D01*
X138000249Y-69265664D01*
X137997967Y-69264718D01*
X137995593Y-69263773D01*
X137784220Y-69167407D01*
X137784212Y-69167404D01*
X137784203Y-69167399D01*
X137783453Y-69167051D01*
X137781270Y-69165885D01*
X137779004Y-69164715D01*
X137578044Y-69048183D01*
X137578035Y-69048178D01*
X137578025Y-69048171D01*
X137577314Y-69047752D01*
X137575273Y-69046391D01*
X137573114Y-69044993D01*
X137384478Y-68909402D01*
X137383801Y-68908908D01*
X137381859Y-68907318D01*
X137379891Y-68905752D01*
X137205386Y-68752400D01*
X137204761Y-68751842D01*
X137203007Y-68750094D01*
X137201177Y-68748320D01*
X137042469Y-68578671D01*
X137041901Y-68578055D01*
X137040326Y-68576143D01*
X137038678Y-68574200D01*
X136897293Y-68389886D01*
X136897283Y-68389874D01*
X136897272Y-68389858D01*
X136896778Y-68389205D01*
X136895408Y-68387165D01*
X136893947Y-68385054D01*
X136771214Y-68187809D01*
X136770776Y-68187094D01*
X136769576Y-68184865D01*
X136768364Y-68182686D01*
X136665464Y-67974408D01*
X136665098Y-67973654D01*
X136664126Y-67971328D01*
X136663127Y-67969031D01*
X136581043Y-67751704D01*
X136580753Y-67750918D01*
X136580028Y-67748560D01*
X136579242Y-67746126D01*
X136518757Y-67521826D01*
X136518545Y-67521015D01*
X136518051Y-67518586D01*
X136517509Y-67516098D01*
X136479200Y-67286968D01*
X136479068Y-67286140D01*
X136478811Y-67283651D01*
X136478517Y-67281145D01*
X136462750Y-67049369D01*
X136462699Y-67048532D01*
X136462687Y-67046020D01*
X136462639Y-67043508D01*
X136469565Y-66811319D01*
X136469565Y-66811299D01*
X136469567Y-66811275D01*
X136469597Y-66810461D01*
X136469823Y-66808023D01*
X136470026Y-66805455D01*
X136499578Y-66575031D01*
X136499691Y-66574201D01*
X136500160Y-66571765D01*
X136500607Y-66569260D01*
X136552504Y-66342819D01*
X136552697Y-66342004D01*
X136553414Y-66339586D01*
X136554092Y-66337176D01*
X136627838Y-66116880D01*
X136628110Y-66116087D01*
X136629054Y-66113764D01*
X136629968Y-66111420D01*
X136724852Y-65899388D01*
X136724859Y-65899371D01*
X136724865Y-65899360D01*
X136725207Y-65898609D01*
X136726358Y-65896417D01*
X136727512Y-65894144D01*
X136842638Y-65692375D01*
X136842643Y-65692366D01*
X136842650Y-65692356D01*
X136843064Y-65691642D01*
X136844422Y-65689575D01*
X136845794Y-65687423D01*
X136980055Y-65497859D01*
X136980064Y-65497845D01*
X136980076Y-65497830D01*
X136980554Y-65497165D01*
X136982092Y-65495260D01*
X136983682Y-65493233D01*
X137135794Y-65317684D01*
X137135812Y-65317661D01*
X137135835Y-65317637D01*
X137136366Y-65317032D01*
X137138097Y-65315271D01*
X137139863Y-65313424D01*
X137308389Y-65153547D01*
X137308399Y-65153536D01*
X137308412Y-65153525D01*
X137309011Y-65152964D01*
X137310922Y-65151366D01*
X137312844Y-65149714D01*
X137496167Y-65007046D01*
X137496179Y-65007035D01*
X137496195Y-65007024D01*
X137496844Y-65006526D01*
X137498892Y-65005129D01*
X137500975Y-65003666D01*
X137697358Y-64879558D01*
X137698070Y-64879116D01*
X137700251Y-64877922D01*
X137702461Y-64876673D01*
X137910001Y-64772329D01*
X137910017Y-64772320D01*
X137910036Y-64772311D01*
X137910768Y-64771950D01*
X137913062Y-64770972D01*
X137915377Y-64769947D01*
X138132100Y-64686358D01*
X138132124Y-64686347D01*
X138132153Y-64686337D01*
X138132909Y-64686052D01*
X138135255Y-64685313D01*
X138137690Y-64684508D01*
X138361550Y-64622461D01*
X138361563Y-64622457D01*
X138361579Y-64622453D01*
X138362371Y-64622240D01*
X138364798Y-64621729D01*
X138367281Y-64621170D01*
X138596140Y-64581263D01*
X138596967Y-64581125D01*
X138599460Y-64580850D01*
X138601958Y-64580539D01*
X138833614Y-64563155D01*
X138833618Y-64563155D01*
X138834453Y-64563098D01*
X138836975Y-64563068D01*
X138839476Y-64563003D01*
X139071708Y-64568307D01*
X139071728Y-64568306D01*
X139071752Y-64568308D01*
X139072566Y-64568332D01*
X139075057Y-64568546D01*
X139077575Y-64568727D01*
X139308181Y-64596669D01*
X139308201Y-64596670D01*
X139308224Y-64596674D01*
X139309032Y-64596777D01*
X139311497Y-64597234D01*
X139313979Y-64597659D01*
X139540776Y-64647974D01*
X139541593Y-64648162D01*
X139543977Y-64648850D01*
X139546430Y-64649522D01*
X139767217Y-64721722D01*
X139767236Y-64721727D01*
X139767257Y-64721735D01*
X139768030Y-64721994D01*
X139770327Y-64722909D01*
X139772712Y-64723820D01*
X139985400Y-64817221D01*
X139985417Y-64817228D01*
X139985436Y-64817238D01*
X139986182Y-64817571D01*
X139988410Y-64818721D01*
X139990662Y-64819845D01*
X140193238Y-64933564D01*
X140193965Y-64933980D01*
X140196037Y-64935321D01*
X140198203Y-64936680D01*
X140388715Y-65069625D01*
X140389399Y-65070109D01*
X140391388Y-65071692D01*
X140393353Y-65073211D01*
X140569982Y-65224110D01*
X140570615Y-65224659D01*
X140572414Y-65226403D01*
X140574247Y-65228131D01*
X140735307Y-65395547D01*
X140735884Y-65396155D01*
X140737522Y-65398087D01*
X140739160Y-65399966D01*
X140883115Y-65582300D01*
X140883630Y-65582962D01*
X140885068Y-65585039D01*
X140886518Y-65587073D01*
X141011985Y-65782570D01*
X141011995Y-65782584D01*
X141012005Y-65782601D01*
X141012442Y-65783292D01*
X141013657Y-65785475D01*
X141014916Y-65787666D01*
X141120714Y-65994489D01*
X141121090Y-65995238D01*
X141122090Y-65997537D01*
X141123125Y-65999832D01*
X141208235Y-66215991D01*
X141208537Y-66216773D01*
X141209036Y-66218319D01*
X141209601Y-66219839D01*
X141237194Y-66306866D01*
X141237442Y-66307667D01*
X141237492Y-66307867D01*
X141237559Y-66308060D01*
X141238193Y-66310680D01*
X141238859Y-66313354D01*
X141238889Y-66313561D01*
X141238937Y-66313757D01*
X141239308Y-66316396D01*
X141239715Y-66319154D01*
X141239725Y-66319365D01*
X141239753Y-66319562D01*
X141239867Y-66322276D01*
X141240000Y-66325008D01*
X141239990Y-66325209D01*
X141239999Y-66325419D01*
X141239846Y-66328146D01*
X141239713Y-66330864D01*
X141239682Y-66331072D01*
X141239671Y-66331272D01*
X141239246Y-66334020D01*
X141238855Y-66336662D01*
X141238808Y-66336849D01*
X141238775Y-66337065D01*
X141238077Y-66339783D01*
X141237437Y-66342350D01*
X141237368Y-66342544D01*
X141237317Y-66342742D01*
X141236394Y-66345279D01*
X141235470Y-66347872D01*
X141235382Y-66348060D01*
X141235312Y-66348251D01*
X141234134Y-66350708D01*
X141232973Y-66353175D01*
X141232869Y-66353350D01*
X141232779Y-66353537D01*
X141231330Y-66355929D01*
X141229970Y-66358210D01*
X141229853Y-66358369D01*
X141229742Y-66358552D01*
X141228096Y-66360752D01*
X141226492Y-66362928D01*
X141226351Y-66363084D01*
X141226231Y-66363245D01*
X141224410Y-66365239D01*
X141222568Y-66367284D01*
X141222417Y-66367422D01*
X141222278Y-66367574D01*
X141220187Y-66369457D01*
X141218238Y-66371236D01*
X141218083Y-66371352D01*
X141217922Y-66371497D01*
X141215673Y-66373155D01*
X141213544Y-66374747D01*
X141213367Y-66374854D01*
X141213203Y-66374975D01*
X141210883Y-66376358D01*
X141208530Y-66377783D01*
X141208344Y-66377872D01*
X141208168Y-66377977D01*
X141205689Y-66379144D01*
X141203243Y-66380315D01*
X141203052Y-66380384D01*
X141202864Y-66380473D01*
X141200331Y-66381375D01*
X141197734Y-66382320D01*
X141197528Y-66382373D01*
X141197342Y-66382439D01*
X141194751Y-66383085D01*
X141192056Y-66383776D01*
X141191853Y-66383808D01*
X141191654Y-66383857D01*
X141188997Y-66384250D01*
X141186263Y-66384673D01*
X141186053Y-66384685D01*
X141185855Y-66384714D01*
X141183192Y-66384844D01*
X141180411Y-66384999D01*
X141180201Y-66384990D01*
X141180000Y-66385000D01*
X140180000Y-66385000D01*
X140179162Y-66384994D01*
X140176876Y-66384850D01*
X140174567Y-66384754D01*
X140173936Y-66384665D01*
X140173312Y-66384626D01*
X140171040Y-66384258D01*
X140168763Y-66383938D01*
X140168156Y-66383791D01*
X140167525Y-66383689D01*
X140165285Y-66383097D01*
X140163065Y-66382560D01*
X140162468Y-66382352D01*
X140161858Y-66382191D01*
X140159710Y-66381392D01*
X140157528Y-66380633D01*
X140156954Y-66380368D01*
X140156363Y-66380148D01*
X140154287Y-66379135D01*
X140152207Y-66378174D01*
X140151665Y-66377856D01*
X140151095Y-66377578D01*
X140149126Y-66376367D01*
X140147150Y-66375208D01*
X140146643Y-66374840D01*
X140146102Y-66374507D01*
X140144262Y-66373110D01*
X140142407Y-66371763D01*
X140141935Y-66371344D01*
X140141433Y-66370963D01*
X140139745Y-66369400D01*
X140138024Y-66367872D01*
X140137595Y-66367409D01*
X140137132Y-66366980D01*
X140135603Y-66365258D01*
X140134041Y-66363571D01*
X140133659Y-66363068D01*
X140133240Y-66362596D01*
X140131885Y-66360732D01*
X140130496Y-66358902D01*
X140130167Y-66358367D01*
X140129794Y-66357854D01*
X140128630Y-66355869D01*
X140127424Y-66353910D01*
X140104050Y-66311400D01*
X140030516Y-66196438D01*
X139946707Y-66089956D01*
X139852906Y-65992157D01*
X139750019Y-65903987D01*
X139639007Y-65826268D01*
X139520947Y-65759758D01*
X139396953Y-65705082D01*
X139268219Y-65662767D01*
X139135967Y-65633216D01*
X139001472Y-65616714D01*
X138866008Y-65613414D01*
X138730854Y-65623350D01*
X138597319Y-65646426D01*
X138466689Y-65682419D01*
X138340178Y-65730994D01*
X138219019Y-65791678D01*
X138104352Y-65863901D01*
X137997282Y-65946968D01*
X137898840Y-66040075D01*
X137809947Y-66142352D01*
X137731451Y-66252825D01*
X137664119Y-66370416D01*
X137608584Y-66494015D01*
X137565368Y-66622461D01*
X137534899Y-66754488D01*
X137517456Y-66888871D01*
X137513211Y-67024320D01*
X137522202Y-67159528D01*
X137544347Y-67293227D01*
X137579426Y-67424103D01*
X137627117Y-67550951D01*
X137686952Y-67672526D01*
X137758374Y-67787696D01*
X137840686Y-67895337D01*
X137933108Y-67994433D01*
X138034765Y-68084041D01*
X138144674Y-68163296D01*
X138261801Y-68231454D01*
X138385015Y-68287854D01*
X138513144Y-68331960D01*
X138644967Y-68363354D01*
X138779230Y-68381735D01*
X138914637Y-68386926D01*
X139049900Y-68378879D01*
X139183753Y-68357667D01*
X139314872Y-68323502D01*
X139442048Y-68276699D01*
X139564046Y-68217711D01*
X139679708Y-68147097D01*
X139787923Y-68065537D01*
X139887663Y-67973807D01*
X139977978Y-67872778D01*
X140057996Y-67763426D01*
X140128462Y-67644255D01*
X140128894Y-67643536D01*
X140129810Y-67642189D01*
X140130258Y-67641448D01*
X140130854Y-67640652D01*
X140132188Y-67638688D01*
X140133511Y-67637100D01*
X140133769Y-67636755D01*
X140134103Y-67636390D01*
X140135940Y-67634184D01*
X140137715Y-67632434D01*
X140137722Y-67632426D01*
X140137731Y-67632418D01*
X140140114Y-67630068D01*
X140144669Y-67626378D01*
X140149563Y-67623151D01*
X140154747Y-67620416D01*
X140160174Y-67618201D01*
X140165792Y-67616526D01*
X140171547Y-67615407D01*
X140177382Y-67614855D01*
X140183244Y-67614875D01*
X140184476Y-67615000D01*
X141180000Y-67615000D01*
X141180838Y-67615006D01*
X141186688Y-67615374D01*
X141192475Y-67616311D01*
X141198142Y-67617809D01*
X141203637Y-67619852D01*
X141208905Y-67622422D01*
X141213898Y-67625493D01*
X141218567Y-67629037D01*
X141222868Y-67633020D01*
X141226760Y-67637404D01*
X141230206Y-67642146D01*
X141233172Y-67647202D01*
X141235631Y-67652524D01*
X141237559Y-67658060D01*
X141238937Y-67663757D01*
X141239753Y-67669562D01*
X141239999Y-67675419D01*
X141239671Y-67681272D01*
X141238775Y-67687065D01*
X141238218Y-67689234D01*
X141238091Y-67689893D01*
X141237774Y-67690961D01*
X141237317Y-67692742D01*
X141236937Y-67693787D01*
X141236425Y-67695513D01*
X141159610Y-67914758D01*
X141159327Y-67915547D01*
X141158355Y-67917847D01*
X141157404Y-67920189D01*
X141059561Y-68130891D01*
X141059203Y-68131648D01*
X141058005Y-68133854D01*
X141056835Y-68136081D01*
X140938908Y-68336215D01*
X140938900Y-68336231D01*
X140938889Y-68336248D01*
X140938469Y-68336950D01*
X140937063Y-68339025D01*
X140935680Y-68341130D01*
X140798775Y-68528815D01*
X140798276Y-68529489D01*
X140796683Y-68531407D01*
X140795093Y-68533377D01*
X140640545Y-68706785D01*
X140640527Y-68706807D01*
X140640504Y-68706831D01*
X140639964Y-68707428D01*
X140638225Y-68709149D01*
X140636417Y-68710987D01*
X140465665Y-68868506D01*
X140465045Y-68869070D01*
X140463070Y-68870675D01*
X140461167Y-68872265D01*
X140275881Y-69012353D01*
X140275859Y-69012371D01*
X140275832Y-69012390D01*
X140275186Y-69012871D01*
X140273108Y-69014246D01*
X140271015Y-69015673D01*
X140072918Y-69137027D01*
X140072200Y-69137460D01*
X140069963Y-69138644D01*
X140067776Y-69139841D01*
X139858799Y-69241276D01*
X139858783Y-69241285D01*
X139858763Y-69241293D01*
X139858026Y-69241645D01*
X139855728Y-69242587D01*
X139853391Y-69243583D01*
X139635515Y-69324141D01*
X139635497Y-69324149D01*
X139635476Y-69324156D01*
X139634709Y-69324433D01*
X139632332Y-69325146D01*
X139629906Y-69325910D01*
X139405208Y-69384823D01*
X139405189Y-69384829D01*
X139405167Y-69384834D01*
X139404377Y-69385035D01*
X139401923Y-69385516D01*
X139399453Y-69386036D01*
X139170080Y-69422741D01*
X139170060Y-69422745D01*
X139170037Y-69422748D01*
X139169232Y-69422871D01*
X139166754Y-69423109D01*
X139164233Y-69423387D01*
X138932352Y-69437535D01*
X138931515Y-69437580D01*
X138928982Y-69437575D01*
X138926491Y-69437605D01*
X138694357Y-69429059D01*
G37*
D17*
X138900000Y-63420000D03*
X138900000Y-70580000D03*
D18*
X138900000Y-67000000D03*
%TD*%
D10*
%TO.C,J104*%
G36*
X154105643Y-64570941D02*
G01*
X154105664Y-64570941D01*
X154105688Y-64570943D01*
X154106500Y-64570978D01*
X154108992Y-64571227D01*
X154111504Y-64571443D01*
X154341717Y-64602604D01*
X154342546Y-64602723D01*
X154344953Y-64603204D01*
X154347481Y-64603673D01*
X154573554Y-64657150D01*
X154574368Y-64657349D01*
X154576766Y-64658078D01*
X154579185Y-64658777D01*
X154798941Y-64734053D01*
X154798960Y-64734058D01*
X154798981Y-64734066D01*
X154799751Y-64734336D01*
X154802033Y-64735282D01*
X154804407Y-64736227D01*
X155015780Y-64832593D01*
X155015788Y-64832596D01*
X155015797Y-64832601D01*
X155016547Y-64832949D01*
X155018730Y-64834115D01*
X155020996Y-64835285D01*
X155221956Y-64951817D01*
X155221965Y-64951822D01*
X155221975Y-64951829D01*
X155222686Y-64952248D01*
X155224727Y-64953609D01*
X155226886Y-64955007D01*
X155415522Y-65090598D01*
X155416199Y-65091092D01*
X155418141Y-65092682D01*
X155420109Y-65094248D01*
X155594614Y-65247600D01*
X155595239Y-65248158D01*
X155596993Y-65249906D01*
X155598823Y-65251680D01*
X155757531Y-65421329D01*
X155758099Y-65421945D01*
X155759674Y-65423857D01*
X155761322Y-65425800D01*
X155902707Y-65610114D01*
X155902717Y-65610126D01*
X155902728Y-65610142D01*
X155903222Y-65610795D01*
X155904592Y-65612835D01*
X155906053Y-65614946D01*
X156028786Y-65812191D01*
X156029224Y-65812906D01*
X156030424Y-65815135D01*
X156031636Y-65817314D01*
X156134536Y-66025592D01*
X156134902Y-66026346D01*
X156135874Y-66028672D01*
X156136873Y-66030969D01*
X156218957Y-66248296D01*
X156219247Y-66249082D01*
X156219972Y-66251440D01*
X156220758Y-66253874D01*
X156281243Y-66478174D01*
X156281455Y-66478985D01*
X156281949Y-66481414D01*
X156282491Y-66483902D01*
X156320800Y-66713032D01*
X156320932Y-66713860D01*
X156321189Y-66716349D01*
X156321483Y-66718855D01*
X156337250Y-66950631D01*
X156337301Y-66951468D01*
X156337313Y-66953980D01*
X156337361Y-66956492D01*
X156330435Y-67188681D01*
X156330435Y-67188701D01*
X156330433Y-67188725D01*
X156330403Y-67189539D01*
X156330177Y-67191977D01*
X156329974Y-67194545D01*
X156300422Y-67424969D01*
X156300309Y-67425799D01*
X156299840Y-67428235D01*
X156299393Y-67430740D01*
X156247496Y-67657181D01*
X156247303Y-67657996D01*
X156246586Y-67660414D01*
X156245908Y-67662824D01*
X156172162Y-67883120D01*
X156171890Y-67883913D01*
X156170946Y-67886236D01*
X156170032Y-67888580D01*
X156075148Y-68100612D01*
X156075141Y-68100629D01*
X156075135Y-68100640D01*
X156074793Y-68101391D01*
X156073642Y-68103583D01*
X156072488Y-68105856D01*
X155957362Y-68307625D01*
X155957357Y-68307634D01*
X155957350Y-68307644D01*
X155956936Y-68308358D01*
X155955578Y-68310425D01*
X155954206Y-68312577D01*
X155819945Y-68502141D01*
X155819936Y-68502155D01*
X155819924Y-68502170D01*
X155819446Y-68502835D01*
X155817908Y-68504740D01*
X155816318Y-68506767D01*
X155664206Y-68682316D01*
X155664188Y-68682339D01*
X155664165Y-68682363D01*
X155663634Y-68682968D01*
X155661903Y-68684729D01*
X155660137Y-68686576D01*
X155491611Y-68846453D01*
X155491601Y-68846464D01*
X155491588Y-68846475D01*
X155490989Y-68847036D01*
X155489078Y-68848634D01*
X155487156Y-68850286D01*
X155303833Y-68992954D01*
X155303821Y-68992965D01*
X155303805Y-68992976D01*
X155303156Y-68993474D01*
X155301108Y-68994871D01*
X155299025Y-68996334D01*
X155102642Y-69120442D01*
X155101930Y-69120884D01*
X155099749Y-69122078D01*
X155097539Y-69123327D01*
X154889999Y-69227671D01*
X154889983Y-69227680D01*
X154889964Y-69227689D01*
X154889232Y-69228050D01*
X154886938Y-69229028D01*
X154884623Y-69230053D01*
X154667900Y-69313642D01*
X154667876Y-69313653D01*
X154667847Y-69313663D01*
X154667091Y-69313948D01*
X154664745Y-69314687D01*
X154662310Y-69315492D01*
X154438450Y-69377539D01*
X154438437Y-69377543D01*
X154438421Y-69377547D01*
X154437629Y-69377760D01*
X154435202Y-69378271D01*
X154432719Y-69378830D01*
X154203860Y-69418737D01*
X154203033Y-69418875D01*
X154200540Y-69419150D01*
X154198042Y-69419461D01*
X153966386Y-69436845D01*
X153966382Y-69436845D01*
X153965547Y-69436902D01*
X153963025Y-69436932D01*
X153960524Y-69436997D01*
X153728292Y-69431693D01*
X153728272Y-69431694D01*
X153728248Y-69431692D01*
X153727434Y-69431668D01*
X153724943Y-69431454D01*
X153722425Y-69431273D01*
X153491819Y-69403331D01*
X153491799Y-69403330D01*
X153491776Y-69403326D01*
X153490968Y-69403223D01*
X153488503Y-69402766D01*
X153486021Y-69402341D01*
X153259224Y-69352026D01*
X153258407Y-69351838D01*
X153256023Y-69351150D01*
X153253570Y-69350478D01*
X153032783Y-69278278D01*
X153032764Y-69278273D01*
X153032743Y-69278265D01*
X153031970Y-69278006D01*
X153029673Y-69277091D01*
X153027288Y-69276180D01*
X152814600Y-69182779D01*
X152814583Y-69182772D01*
X152814564Y-69182762D01*
X152813818Y-69182429D01*
X152811590Y-69181279D01*
X152809338Y-69180155D01*
X152606762Y-69066436D01*
X152606035Y-69066020D01*
X152603963Y-69064679D01*
X152601797Y-69063320D01*
X152411285Y-68930375D01*
X152410601Y-68929891D01*
X152408612Y-68928308D01*
X152406647Y-68926789D01*
X152230018Y-68775890D01*
X152229385Y-68775341D01*
X152227586Y-68773597D01*
X152225753Y-68771869D01*
X152064693Y-68604453D01*
X152064116Y-68603845D01*
X152062478Y-68601913D01*
X152060840Y-68600034D01*
X151916885Y-68417700D01*
X151916370Y-68417038D01*
X151914932Y-68414961D01*
X151913482Y-68412927D01*
X151788015Y-68217430D01*
X151788005Y-68217416D01*
X151787995Y-68217399D01*
X151787558Y-68216708D01*
X151786343Y-68214525D01*
X151785084Y-68212334D01*
X151679286Y-68005511D01*
X151678910Y-68004762D01*
X151677910Y-68002463D01*
X151676875Y-68000168D01*
X151591765Y-67784009D01*
X151591463Y-67783227D01*
X151590964Y-67781681D01*
X151590399Y-67780161D01*
X151562806Y-67693134D01*
X151562558Y-67692333D01*
X151562508Y-67692133D01*
X151562441Y-67691940D01*
X151561807Y-67689320D01*
X151561141Y-67686646D01*
X151561111Y-67686439D01*
X151561063Y-67686243D01*
X151560692Y-67683604D01*
X151560285Y-67680846D01*
X151560275Y-67680635D01*
X151560247Y-67680438D01*
X151560133Y-67677724D01*
X151560000Y-67674992D01*
X151560010Y-67674791D01*
X151560001Y-67674581D01*
X151560154Y-67671854D01*
X151560287Y-67669136D01*
X151560318Y-67668928D01*
X151560329Y-67668728D01*
X151560754Y-67665980D01*
X151561145Y-67663338D01*
X151561192Y-67663151D01*
X151561225Y-67662935D01*
X151561923Y-67660217D01*
X151562563Y-67657650D01*
X151562632Y-67657456D01*
X151562683Y-67657258D01*
X151563606Y-67654721D01*
X151564530Y-67652128D01*
X151564618Y-67651940D01*
X151564688Y-67651749D01*
X151565866Y-67649292D01*
X151567027Y-67646825D01*
X151567131Y-67646650D01*
X151567221Y-67646463D01*
X151568670Y-67644071D01*
X151570030Y-67641790D01*
X151570147Y-67641631D01*
X151570258Y-67641448D01*
X151571904Y-67639248D01*
X151573508Y-67637072D01*
X151573649Y-67636916D01*
X151573769Y-67636755D01*
X151575590Y-67634761D01*
X151577432Y-67632716D01*
X151577583Y-67632578D01*
X151577722Y-67632426D01*
X151579813Y-67630543D01*
X151581762Y-67628764D01*
X151581917Y-67628648D01*
X151582078Y-67628503D01*
X151584327Y-67626845D01*
X151586456Y-67625253D01*
X151586633Y-67625146D01*
X151586797Y-67625025D01*
X151589117Y-67623642D01*
X151591470Y-67622217D01*
X151591656Y-67622128D01*
X151591832Y-67622023D01*
X151594311Y-67620856D01*
X151596757Y-67619685D01*
X151596948Y-67619616D01*
X151597136Y-67619527D01*
X151599669Y-67618625D01*
X151602266Y-67617680D01*
X151602472Y-67617627D01*
X151602658Y-67617561D01*
X151605249Y-67616915D01*
X151607944Y-67616224D01*
X151608147Y-67616192D01*
X151608346Y-67616143D01*
X151611003Y-67615750D01*
X151613737Y-67615327D01*
X151613947Y-67615315D01*
X151614145Y-67615286D01*
X151616808Y-67615156D01*
X151619589Y-67615001D01*
X151619799Y-67615010D01*
X151620000Y-67615000D01*
X152620000Y-67615000D01*
X152620838Y-67615006D01*
X152623124Y-67615150D01*
X152625433Y-67615246D01*
X152626064Y-67615335D01*
X152626688Y-67615374D01*
X152628960Y-67615742D01*
X152631237Y-67616062D01*
X152631844Y-67616209D01*
X152632475Y-67616311D01*
X152634715Y-67616903D01*
X152636935Y-67617440D01*
X152637532Y-67617648D01*
X152638142Y-67617809D01*
X152640290Y-67618608D01*
X152642472Y-67619367D01*
X152643046Y-67619632D01*
X152643637Y-67619852D01*
X152645713Y-67620865D01*
X152647793Y-67621826D01*
X152648335Y-67622144D01*
X152648905Y-67622422D01*
X152650874Y-67623633D01*
X152652850Y-67624792D01*
X152653357Y-67625160D01*
X152653898Y-67625493D01*
X152655738Y-67626890D01*
X152657593Y-67628237D01*
X152658065Y-67628656D01*
X152658567Y-67629037D01*
X152660255Y-67630600D01*
X152661976Y-67632128D01*
X152662405Y-67632591D01*
X152662868Y-67633020D01*
X152664397Y-67634742D01*
X152665959Y-67636429D01*
X152666341Y-67636932D01*
X152666760Y-67637404D01*
X152668115Y-67639268D01*
X152669504Y-67641098D01*
X152669833Y-67641633D01*
X152670206Y-67642146D01*
X152671370Y-67644131D01*
X152672576Y-67646090D01*
X152695950Y-67688600D01*
X152769484Y-67803562D01*
X152853293Y-67910044D01*
X152947094Y-68007843D01*
X153049981Y-68096013D01*
X153160993Y-68173732D01*
X153279053Y-68240242D01*
X153403047Y-68294918D01*
X153531781Y-68337233D01*
X153664033Y-68366784D01*
X153798528Y-68383286D01*
X153933992Y-68386586D01*
X154069146Y-68376650D01*
X154202681Y-68353574D01*
X154333311Y-68317581D01*
X154459822Y-68269006D01*
X154580981Y-68208322D01*
X154695648Y-68136099D01*
X154802718Y-68053032D01*
X154901160Y-67959925D01*
X154990053Y-67857648D01*
X155068549Y-67747175D01*
X155135881Y-67629584D01*
X155191416Y-67505985D01*
X155234632Y-67377539D01*
X155265101Y-67245512D01*
X155282544Y-67111129D01*
X155286789Y-66975680D01*
X155277798Y-66840472D01*
X155255653Y-66706773D01*
X155220574Y-66575897D01*
X155172883Y-66449049D01*
X155113048Y-66327474D01*
X155041626Y-66212304D01*
X154959314Y-66104663D01*
X154866892Y-66005567D01*
X154765235Y-65915959D01*
X154655326Y-65836704D01*
X154538199Y-65768546D01*
X154414985Y-65712146D01*
X154286856Y-65668040D01*
X154155033Y-65636646D01*
X154020770Y-65618265D01*
X153885363Y-65613074D01*
X153750100Y-65621121D01*
X153616247Y-65642333D01*
X153485128Y-65676498D01*
X153357952Y-65723301D01*
X153235954Y-65782289D01*
X153120292Y-65852903D01*
X153012077Y-65934463D01*
X152912337Y-66026193D01*
X152822022Y-66127222D01*
X152742004Y-66236574D01*
X152671538Y-66355745D01*
X152671106Y-66356464D01*
X152670190Y-66357811D01*
X152669742Y-66358552D01*
X152669146Y-66359348D01*
X152667812Y-66361312D01*
X152666489Y-66362900D01*
X152666231Y-66363245D01*
X152665897Y-66363610D01*
X152664060Y-66365816D01*
X152662285Y-66367566D01*
X152662278Y-66367574D01*
X152662269Y-66367582D01*
X152659886Y-66369932D01*
X152655331Y-66373622D01*
X152650437Y-66376849D01*
X152645253Y-66379584D01*
X152639826Y-66381799D01*
X152634208Y-66383474D01*
X152628453Y-66384593D01*
X152622618Y-66385145D01*
X152616756Y-66385125D01*
X152615524Y-66385000D01*
X151620000Y-66385000D01*
X151619162Y-66384994D01*
X151613312Y-66384626D01*
X151607525Y-66383689D01*
X151601858Y-66382191D01*
X151596363Y-66380148D01*
X151591095Y-66377578D01*
X151586102Y-66374507D01*
X151581433Y-66370963D01*
X151577132Y-66366980D01*
X151573240Y-66362596D01*
X151569794Y-66357854D01*
X151566828Y-66352798D01*
X151564369Y-66347476D01*
X151562441Y-66341940D01*
X151561063Y-66336243D01*
X151560247Y-66330438D01*
X151560001Y-66324581D01*
X151560329Y-66318728D01*
X151561225Y-66312935D01*
X151561782Y-66310766D01*
X151561909Y-66310107D01*
X151562226Y-66309039D01*
X151562683Y-66307258D01*
X151563063Y-66306213D01*
X151563575Y-66304487D01*
X151640390Y-66085242D01*
X151640673Y-66084453D01*
X151641645Y-66082153D01*
X151642596Y-66079811D01*
X151740439Y-65869109D01*
X151740797Y-65868352D01*
X151741995Y-65866146D01*
X151743165Y-65863919D01*
X151861092Y-65663785D01*
X151861100Y-65663769D01*
X151861111Y-65663752D01*
X151861531Y-65663050D01*
X151862937Y-65660975D01*
X151864320Y-65658870D01*
X152001225Y-65471185D01*
X152001724Y-65470511D01*
X152003317Y-65468593D01*
X152004907Y-65466623D01*
X152159455Y-65293215D01*
X152159473Y-65293193D01*
X152159496Y-65293169D01*
X152160036Y-65292572D01*
X152161775Y-65290851D01*
X152163583Y-65289013D01*
X152334335Y-65131494D01*
X152334955Y-65130930D01*
X152336930Y-65129325D01*
X152338833Y-65127735D01*
X152524119Y-64987647D01*
X152524141Y-64987629D01*
X152524168Y-64987610D01*
X152524814Y-64987129D01*
X152526892Y-64985754D01*
X152528985Y-64984327D01*
X152727082Y-64862973D01*
X152727800Y-64862540D01*
X152730037Y-64861356D01*
X152732224Y-64860159D01*
X152941201Y-64758724D01*
X152941217Y-64758715D01*
X152941237Y-64758707D01*
X152941974Y-64758355D01*
X152944272Y-64757413D01*
X152946609Y-64756417D01*
X153164485Y-64675859D01*
X153164503Y-64675851D01*
X153164524Y-64675844D01*
X153165291Y-64675567D01*
X153167668Y-64674854D01*
X153170094Y-64674090D01*
X153394792Y-64615177D01*
X153394811Y-64615171D01*
X153394833Y-64615166D01*
X153395623Y-64614965D01*
X153398077Y-64614484D01*
X153400547Y-64613964D01*
X153629920Y-64577259D01*
X153629940Y-64577255D01*
X153629963Y-64577252D01*
X153630768Y-64577129D01*
X153633246Y-64576891D01*
X153635767Y-64576613D01*
X153867648Y-64562465D01*
X153868485Y-64562420D01*
X153871018Y-64562425D01*
X153873509Y-64562395D01*
X154105643Y-64570941D01*
G37*
D17*
X153900000Y-70580000D03*
X153900000Y-63420000D03*
D18*
X153900000Y-67000000D03*
%TD*%
D10*
%TO.C,J102*%
G36*
X138694357Y-53429059D02*
G01*
X138694336Y-53429059D01*
X138694312Y-53429057D01*
X138693500Y-53429022D01*
X138691008Y-53428773D01*
X138688496Y-53428557D01*
X138458283Y-53397396D01*
X138457454Y-53397277D01*
X138455047Y-53396796D01*
X138452519Y-53396327D01*
X138226446Y-53342850D01*
X138225632Y-53342651D01*
X138223234Y-53341922D01*
X138220815Y-53341223D01*
X138001059Y-53265947D01*
X138001040Y-53265942D01*
X138001019Y-53265934D01*
X138000249Y-53265664D01*
X137997967Y-53264718D01*
X137995593Y-53263773D01*
X137784220Y-53167407D01*
X137784212Y-53167404D01*
X137784203Y-53167399D01*
X137783453Y-53167051D01*
X137781270Y-53165885D01*
X137779004Y-53164715D01*
X137578044Y-53048183D01*
X137578035Y-53048178D01*
X137578025Y-53048171D01*
X137577314Y-53047752D01*
X137575273Y-53046391D01*
X137573114Y-53044993D01*
X137384478Y-52909402D01*
X137383801Y-52908908D01*
X137381859Y-52907318D01*
X137379891Y-52905752D01*
X137205386Y-52752400D01*
X137204761Y-52751842D01*
X137203007Y-52750094D01*
X137201177Y-52748320D01*
X137042469Y-52578671D01*
X137041901Y-52578055D01*
X137040326Y-52576143D01*
X137038678Y-52574200D01*
X136897293Y-52389886D01*
X136897283Y-52389874D01*
X136897272Y-52389858D01*
X136896778Y-52389205D01*
X136895408Y-52387165D01*
X136893947Y-52385054D01*
X136771214Y-52187809D01*
X136770776Y-52187094D01*
X136769576Y-52184865D01*
X136768364Y-52182686D01*
X136665464Y-51974408D01*
X136665098Y-51973654D01*
X136664126Y-51971328D01*
X136663127Y-51969031D01*
X136581043Y-51751704D01*
X136580753Y-51750918D01*
X136580028Y-51748560D01*
X136579242Y-51746126D01*
X136518757Y-51521826D01*
X136518545Y-51521015D01*
X136518051Y-51518586D01*
X136517509Y-51516098D01*
X136479200Y-51286968D01*
X136479068Y-51286140D01*
X136478811Y-51283651D01*
X136478517Y-51281145D01*
X136462750Y-51049369D01*
X136462699Y-51048532D01*
X136462687Y-51046020D01*
X136462639Y-51043508D01*
X136469565Y-50811319D01*
X136469565Y-50811299D01*
X136469567Y-50811275D01*
X136469597Y-50810461D01*
X136469823Y-50808023D01*
X136470026Y-50805455D01*
X136499578Y-50575031D01*
X136499691Y-50574201D01*
X136500160Y-50571765D01*
X136500607Y-50569260D01*
X136552504Y-50342819D01*
X136552697Y-50342004D01*
X136553414Y-50339586D01*
X136554092Y-50337176D01*
X136627838Y-50116880D01*
X136628110Y-50116087D01*
X136629054Y-50113764D01*
X136629968Y-50111420D01*
X136724852Y-49899388D01*
X136724859Y-49899371D01*
X136724865Y-49899360D01*
X136725207Y-49898609D01*
X136726358Y-49896417D01*
X136727512Y-49894144D01*
X136842638Y-49692375D01*
X136842643Y-49692366D01*
X136842650Y-49692356D01*
X136843064Y-49691642D01*
X136844422Y-49689575D01*
X136845794Y-49687423D01*
X136980055Y-49497859D01*
X136980064Y-49497845D01*
X136980076Y-49497830D01*
X136980554Y-49497165D01*
X136982092Y-49495260D01*
X136983682Y-49493233D01*
X137135794Y-49317684D01*
X137135812Y-49317661D01*
X137135835Y-49317637D01*
X137136366Y-49317032D01*
X137138097Y-49315271D01*
X137139863Y-49313424D01*
X137308389Y-49153547D01*
X137308399Y-49153536D01*
X137308412Y-49153525D01*
X137309011Y-49152964D01*
X137310922Y-49151366D01*
X137312844Y-49149714D01*
X137496167Y-49007046D01*
X137496179Y-49007035D01*
X137496195Y-49007024D01*
X137496844Y-49006526D01*
X137498892Y-49005129D01*
X137500975Y-49003666D01*
X137697358Y-48879558D01*
X137698070Y-48879116D01*
X137700251Y-48877922D01*
X137702461Y-48876673D01*
X137910001Y-48772329D01*
X137910017Y-48772320D01*
X137910036Y-48772311D01*
X137910768Y-48771950D01*
X137913062Y-48770972D01*
X137915377Y-48769947D01*
X138132100Y-48686358D01*
X138132124Y-48686347D01*
X138132153Y-48686337D01*
X138132909Y-48686052D01*
X138135255Y-48685313D01*
X138137690Y-48684508D01*
X138361550Y-48622461D01*
X138361563Y-48622457D01*
X138361579Y-48622453D01*
X138362371Y-48622240D01*
X138364798Y-48621729D01*
X138367281Y-48621170D01*
X138596140Y-48581263D01*
X138596967Y-48581125D01*
X138599460Y-48580850D01*
X138601958Y-48580539D01*
X138833614Y-48563155D01*
X138833618Y-48563155D01*
X138834453Y-48563098D01*
X138836975Y-48563068D01*
X138839476Y-48563003D01*
X139071708Y-48568307D01*
X139071728Y-48568306D01*
X139071752Y-48568308D01*
X139072566Y-48568332D01*
X139075057Y-48568546D01*
X139077575Y-48568727D01*
X139308181Y-48596669D01*
X139308201Y-48596670D01*
X139308224Y-48596674D01*
X139309032Y-48596777D01*
X139311497Y-48597234D01*
X139313979Y-48597659D01*
X139540776Y-48647974D01*
X139541593Y-48648162D01*
X139543977Y-48648850D01*
X139546430Y-48649522D01*
X139767217Y-48721722D01*
X139767236Y-48721727D01*
X139767257Y-48721735D01*
X139768030Y-48721994D01*
X139770327Y-48722909D01*
X139772712Y-48723820D01*
X139985400Y-48817221D01*
X139985417Y-48817228D01*
X139985436Y-48817238D01*
X139986182Y-48817571D01*
X139988410Y-48818721D01*
X139990662Y-48819845D01*
X140193238Y-48933564D01*
X140193965Y-48933980D01*
X140196037Y-48935321D01*
X140198203Y-48936680D01*
X140388715Y-49069625D01*
X140389399Y-49070109D01*
X140391388Y-49071692D01*
X140393353Y-49073211D01*
X140569982Y-49224110D01*
X140570615Y-49224659D01*
X140572414Y-49226403D01*
X140574247Y-49228131D01*
X140735307Y-49395547D01*
X140735884Y-49396155D01*
X140737522Y-49398087D01*
X140739160Y-49399966D01*
X140883115Y-49582300D01*
X140883630Y-49582962D01*
X140885068Y-49585039D01*
X140886518Y-49587073D01*
X141011985Y-49782570D01*
X141011995Y-49782584D01*
X141012005Y-49782601D01*
X141012442Y-49783292D01*
X141013657Y-49785475D01*
X141014916Y-49787666D01*
X141120714Y-49994489D01*
X141121090Y-49995238D01*
X141122090Y-49997537D01*
X141123125Y-49999832D01*
X141208235Y-50215991D01*
X141208537Y-50216773D01*
X141209036Y-50218319D01*
X141209601Y-50219839D01*
X141237194Y-50306866D01*
X141237442Y-50307667D01*
X141237492Y-50307867D01*
X141237559Y-50308060D01*
X141238193Y-50310680D01*
X141238859Y-50313354D01*
X141238889Y-50313561D01*
X141238937Y-50313757D01*
X141239308Y-50316396D01*
X141239715Y-50319154D01*
X141239725Y-50319365D01*
X141239753Y-50319562D01*
X141239867Y-50322276D01*
X141240000Y-50325008D01*
X141239990Y-50325209D01*
X141239999Y-50325419D01*
X141239846Y-50328146D01*
X141239713Y-50330864D01*
X141239682Y-50331072D01*
X141239671Y-50331272D01*
X141239246Y-50334020D01*
X141238855Y-50336662D01*
X141238808Y-50336849D01*
X141238775Y-50337065D01*
X141238077Y-50339783D01*
X141237437Y-50342350D01*
X141237368Y-50342544D01*
X141237317Y-50342742D01*
X141236394Y-50345279D01*
X141235470Y-50347872D01*
X141235382Y-50348060D01*
X141235312Y-50348251D01*
X141234134Y-50350708D01*
X141232973Y-50353175D01*
X141232869Y-50353350D01*
X141232779Y-50353537D01*
X141231330Y-50355929D01*
X141229970Y-50358210D01*
X141229853Y-50358369D01*
X141229742Y-50358552D01*
X141228096Y-50360752D01*
X141226492Y-50362928D01*
X141226351Y-50363084D01*
X141226231Y-50363245D01*
X141224410Y-50365239D01*
X141222568Y-50367284D01*
X141222417Y-50367422D01*
X141222278Y-50367574D01*
X141220187Y-50369457D01*
X141218238Y-50371236D01*
X141218083Y-50371352D01*
X141217922Y-50371497D01*
X141215673Y-50373155D01*
X141213544Y-50374747D01*
X141213367Y-50374854D01*
X141213203Y-50374975D01*
X141210883Y-50376358D01*
X141208530Y-50377783D01*
X141208344Y-50377872D01*
X141208168Y-50377977D01*
X141205689Y-50379144D01*
X141203243Y-50380315D01*
X141203052Y-50380384D01*
X141202864Y-50380473D01*
X141200331Y-50381375D01*
X141197734Y-50382320D01*
X141197528Y-50382373D01*
X141197342Y-50382439D01*
X141194751Y-50383085D01*
X141192056Y-50383776D01*
X141191853Y-50383808D01*
X141191654Y-50383857D01*
X141188997Y-50384250D01*
X141186263Y-50384673D01*
X141186053Y-50384685D01*
X141185855Y-50384714D01*
X141183192Y-50384844D01*
X141180411Y-50384999D01*
X141180201Y-50384990D01*
X141180000Y-50385000D01*
X140180000Y-50385000D01*
X140179162Y-50384994D01*
X140176876Y-50384850D01*
X140174567Y-50384754D01*
X140173936Y-50384665D01*
X140173312Y-50384626D01*
X140171040Y-50384258D01*
X140168763Y-50383938D01*
X140168156Y-50383791D01*
X140167525Y-50383689D01*
X140165285Y-50383097D01*
X140163065Y-50382560D01*
X140162468Y-50382352D01*
X140161858Y-50382191D01*
X140159710Y-50381392D01*
X140157528Y-50380633D01*
X140156954Y-50380368D01*
X140156363Y-50380148D01*
X140154287Y-50379135D01*
X140152207Y-50378174D01*
X140151665Y-50377856D01*
X140151095Y-50377578D01*
X140149126Y-50376367D01*
X140147150Y-50375208D01*
X140146643Y-50374840D01*
X140146102Y-50374507D01*
X140144262Y-50373110D01*
X140142407Y-50371763D01*
X140141935Y-50371344D01*
X140141433Y-50370963D01*
X140139745Y-50369400D01*
X140138024Y-50367872D01*
X140137595Y-50367409D01*
X140137132Y-50366980D01*
X140135603Y-50365258D01*
X140134041Y-50363571D01*
X140133659Y-50363068D01*
X140133240Y-50362596D01*
X140131885Y-50360732D01*
X140130496Y-50358902D01*
X140130167Y-50358367D01*
X140129794Y-50357854D01*
X140128630Y-50355869D01*
X140127424Y-50353910D01*
X140104050Y-50311400D01*
X140030516Y-50196438D01*
X139946707Y-50089956D01*
X139852906Y-49992157D01*
X139750019Y-49903987D01*
X139639007Y-49826268D01*
X139520947Y-49759758D01*
X139396953Y-49705082D01*
X139268219Y-49662767D01*
X139135967Y-49633216D01*
X139001472Y-49616714D01*
X138866008Y-49613414D01*
X138730854Y-49623350D01*
X138597319Y-49646426D01*
X138466689Y-49682419D01*
X138340178Y-49730994D01*
X138219019Y-49791678D01*
X138104352Y-49863901D01*
X137997282Y-49946968D01*
X137898840Y-50040075D01*
X137809947Y-50142352D01*
X137731451Y-50252825D01*
X137664119Y-50370416D01*
X137608584Y-50494015D01*
X137565368Y-50622461D01*
X137534899Y-50754488D01*
X137517456Y-50888871D01*
X137513211Y-51024320D01*
X137522202Y-51159528D01*
X137544347Y-51293227D01*
X137579426Y-51424103D01*
X137627117Y-51550951D01*
X137686952Y-51672526D01*
X137758374Y-51787696D01*
X137840686Y-51895337D01*
X137933108Y-51994433D01*
X138034765Y-52084041D01*
X138144674Y-52163296D01*
X138261801Y-52231454D01*
X138385015Y-52287854D01*
X138513144Y-52331960D01*
X138644967Y-52363354D01*
X138779230Y-52381735D01*
X138914637Y-52386926D01*
X139049900Y-52378879D01*
X139183753Y-52357667D01*
X139314872Y-52323502D01*
X139442048Y-52276699D01*
X139564046Y-52217711D01*
X139679708Y-52147097D01*
X139787923Y-52065537D01*
X139887663Y-51973807D01*
X139977978Y-51872778D01*
X140057996Y-51763426D01*
X140128462Y-51644255D01*
X140128894Y-51643536D01*
X140129810Y-51642189D01*
X140130258Y-51641448D01*
X140130854Y-51640652D01*
X140132188Y-51638688D01*
X140133511Y-51637100D01*
X140133769Y-51636755D01*
X140134103Y-51636390D01*
X140135940Y-51634184D01*
X140137715Y-51632434D01*
X140137722Y-51632426D01*
X140137731Y-51632418D01*
X140140114Y-51630068D01*
X140144669Y-51626378D01*
X140149563Y-51623151D01*
X140154747Y-51620416D01*
X140160174Y-51618201D01*
X140165792Y-51616526D01*
X140171547Y-51615407D01*
X140177382Y-51614855D01*
X140183244Y-51614875D01*
X140184476Y-51615000D01*
X141180000Y-51615000D01*
X141180838Y-51615006D01*
X141186688Y-51615374D01*
X141192475Y-51616311D01*
X141198142Y-51617809D01*
X141203637Y-51619852D01*
X141208905Y-51622422D01*
X141213898Y-51625493D01*
X141218567Y-51629037D01*
X141222868Y-51633020D01*
X141226760Y-51637404D01*
X141230206Y-51642146D01*
X141233172Y-51647202D01*
X141235631Y-51652524D01*
X141237559Y-51658060D01*
X141238937Y-51663757D01*
X141239753Y-51669562D01*
X141239999Y-51675419D01*
X141239671Y-51681272D01*
X141238775Y-51687065D01*
X141238218Y-51689234D01*
X141238091Y-51689893D01*
X141237774Y-51690961D01*
X141237317Y-51692742D01*
X141236937Y-51693787D01*
X141236425Y-51695513D01*
X141159610Y-51914758D01*
X141159327Y-51915547D01*
X141158355Y-51917847D01*
X141157404Y-51920189D01*
X141059561Y-52130891D01*
X141059203Y-52131648D01*
X141058005Y-52133854D01*
X141056835Y-52136081D01*
X140938908Y-52336215D01*
X140938900Y-52336231D01*
X140938889Y-52336248D01*
X140938469Y-52336950D01*
X140937063Y-52339025D01*
X140935680Y-52341130D01*
X140798775Y-52528815D01*
X140798276Y-52529489D01*
X140796683Y-52531407D01*
X140795093Y-52533377D01*
X140640545Y-52706785D01*
X140640527Y-52706807D01*
X140640504Y-52706831D01*
X140639964Y-52707428D01*
X140638225Y-52709149D01*
X140636417Y-52710987D01*
X140465665Y-52868506D01*
X140465045Y-52869070D01*
X140463070Y-52870675D01*
X140461167Y-52872265D01*
X140275881Y-53012353D01*
X140275859Y-53012371D01*
X140275832Y-53012390D01*
X140275186Y-53012871D01*
X140273108Y-53014246D01*
X140271015Y-53015673D01*
X140072918Y-53137027D01*
X140072200Y-53137460D01*
X140069963Y-53138644D01*
X140067776Y-53139841D01*
X139858799Y-53241276D01*
X139858783Y-53241285D01*
X139858763Y-53241293D01*
X139858026Y-53241645D01*
X139855728Y-53242587D01*
X139853391Y-53243583D01*
X139635515Y-53324141D01*
X139635497Y-53324149D01*
X139635476Y-53324156D01*
X139634709Y-53324433D01*
X139632332Y-53325146D01*
X139629906Y-53325910D01*
X139405208Y-53384823D01*
X139405189Y-53384829D01*
X139405167Y-53384834D01*
X139404377Y-53385035D01*
X139401923Y-53385516D01*
X139399453Y-53386036D01*
X139170080Y-53422741D01*
X139170060Y-53422745D01*
X139170037Y-53422748D01*
X139169232Y-53422871D01*
X139166754Y-53423109D01*
X139164233Y-53423387D01*
X138932352Y-53437535D01*
X138931515Y-53437580D01*
X138928982Y-53437575D01*
X138926491Y-53437605D01*
X138694357Y-53429059D01*
G37*
D17*
X138900000Y-47420000D03*
X138900000Y-54580000D03*
D18*
X138900000Y-51000000D03*
%TD*%
D10*
%TO.C,J101*%
G36*
X154105643Y-48570941D02*
G01*
X154105664Y-48570941D01*
X154105688Y-48570943D01*
X154106500Y-48570978D01*
X154108992Y-48571227D01*
X154111504Y-48571443D01*
X154341717Y-48602604D01*
X154342546Y-48602723D01*
X154344953Y-48603204D01*
X154347481Y-48603673D01*
X154573554Y-48657150D01*
X154574368Y-48657349D01*
X154576766Y-48658078D01*
X154579185Y-48658777D01*
X154798941Y-48734053D01*
X154798960Y-48734058D01*
X154798981Y-48734066D01*
X154799751Y-48734336D01*
X154802033Y-48735282D01*
X154804407Y-48736227D01*
X155015780Y-48832593D01*
X155015788Y-48832596D01*
X155015797Y-48832601D01*
X155016547Y-48832949D01*
X155018730Y-48834115D01*
X155020996Y-48835285D01*
X155221956Y-48951817D01*
X155221965Y-48951822D01*
X155221975Y-48951829D01*
X155222686Y-48952248D01*
X155224727Y-48953609D01*
X155226886Y-48955007D01*
X155415522Y-49090598D01*
X155416199Y-49091092D01*
X155418141Y-49092682D01*
X155420109Y-49094248D01*
X155594614Y-49247600D01*
X155595239Y-49248158D01*
X155596993Y-49249906D01*
X155598823Y-49251680D01*
X155757531Y-49421329D01*
X155758099Y-49421945D01*
X155759674Y-49423857D01*
X155761322Y-49425800D01*
X155902707Y-49610114D01*
X155902717Y-49610126D01*
X155902728Y-49610142D01*
X155903222Y-49610795D01*
X155904592Y-49612835D01*
X155906053Y-49614946D01*
X156028786Y-49812191D01*
X156029224Y-49812906D01*
X156030424Y-49815135D01*
X156031636Y-49817314D01*
X156134536Y-50025592D01*
X156134902Y-50026346D01*
X156135874Y-50028672D01*
X156136873Y-50030969D01*
X156218957Y-50248296D01*
X156219247Y-50249082D01*
X156219972Y-50251440D01*
X156220758Y-50253874D01*
X156281243Y-50478174D01*
X156281455Y-50478985D01*
X156281949Y-50481414D01*
X156282491Y-50483902D01*
X156320800Y-50713032D01*
X156320932Y-50713860D01*
X156321189Y-50716349D01*
X156321483Y-50718855D01*
X156337250Y-50950631D01*
X156337301Y-50951468D01*
X156337313Y-50953980D01*
X156337361Y-50956492D01*
X156330435Y-51188681D01*
X156330435Y-51188701D01*
X156330433Y-51188725D01*
X156330403Y-51189539D01*
X156330177Y-51191977D01*
X156329974Y-51194545D01*
X156300422Y-51424969D01*
X156300309Y-51425799D01*
X156299840Y-51428235D01*
X156299393Y-51430740D01*
X156247496Y-51657181D01*
X156247303Y-51657996D01*
X156246586Y-51660414D01*
X156245908Y-51662824D01*
X156172162Y-51883120D01*
X156171890Y-51883913D01*
X156170946Y-51886236D01*
X156170032Y-51888580D01*
X156075148Y-52100612D01*
X156075141Y-52100629D01*
X156075135Y-52100640D01*
X156074793Y-52101391D01*
X156073642Y-52103583D01*
X156072488Y-52105856D01*
X155957362Y-52307625D01*
X155957357Y-52307634D01*
X155957350Y-52307644D01*
X155956936Y-52308358D01*
X155955578Y-52310425D01*
X155954206Y-52312577D01*
X155819945Y-52502141D01*
X155819936Y-52502155D01*
X155819924Y-52502170D01*
X155819446Y-52502835D01*
X155817908Y-52504740D01*
X155816318Y-52506767D01*
X155664206Y-52682316D01*
X155664188Y-52682339D01*
X155664165Y-52682363D01*
X155663634Y-52682968D01*
X155661903Y-52684729D01*
X155660137Y-52686576D01*
X155491611Y-52846453D01*
X155491601Y-52846464D01*
X155491588Y-52846475D01*
X155490989Y-52847036D01*
X155489078Y-52848634D01*
X155487156Y-52850286D01*
X155303833Y-52992954D01*
X155303821Y-52992965D01*
X155303805Y-52992976D01*
X155303156Y-52993474D01*
X155301108Y-52994871D01*
X155299025Y-52996334D01*
X155102642Y-53120442D01*
X155101930Y-53120884D01*
X155099749Y-53122078D01*
X155097539Y-53123327D01*
X154889999Y-53227671D01*
X154889983Y-53227680D01*
X154889964Y-53227689D01*
X154889232Y-53228050D01*
X154886938Y-53229028D01*
X154884623Y-53230053D01*
X154667900Y-53313642D01*
X154667876Y-53313653D01*
X154667847Y-53313663D01*
X154667091Y-53313948D01*
X154664745Y-53314687D01*
X154662310Y-53315492D01*
X154438450Y-53377539D01*
X154438437Y-53377543D01*
X154438421Y-53377547D01*
X154437629Y-53377760D01*
X154435202Y-53378271D01*
X154432719Y-53378830D01*
X154203860Y-53418737D01*
X154203033Y-53418875D01*
X154200540Y-53419150D01*
X154198042Y-53419461D01*
X153966386Y-53436845D01*
X153966382Y-53436845D01*
X153965547Y-53436902D01*
X153963025Y-53436932D01*
X153960524Y-53436997D01*
X153728292Y-53431693D01*
X153728272Y-53431694D01*
X153728248Y-53431692D01*
X153727434Y-53431668D01*
X153724943Y-53431454D01*
X153722425Y-53431273D01*
X153491819Y-53403331D01*
X153491799Y-53403330D01*
X153491776Y-53403326D01*
X153490968Y-53403223D01*
X153488503Y-53402766D01*
X153486021Y-53402341D01*
X153259224Y-53352026D01*
X153258407Y-53351838D01*
X153256023Y-53351150D01*
X153253570Y-53350478D01*
X153032783Y-53278278D01*
X153032764Y-53278273D01*
X153032743Y-53278265D01*
X153031970Y-53278006D01*
X153029673Y-53277091D01*
X153027288Y-53276180D01*
X152814600Y-53182779D01*
X152814583Y-53182772D01*
X152814564Y-53182762D01*
X152813818Y-53182429D01*
X152811590Y-53181279D01*
X152809338Y-53180155D01*
X152606762Y-53066436D01*
X152606035Y-53066020D01*
X152603963Y-53064679D01*
X152601797Y-53063320D01*
X152411285Y-52930375D01*
X152410601Y-52929891D01*
X152408612Y-52928308D01*
X152406647Y-52926789D01*
X152230018Y-52775890D01*
X152229385Y-52775341D01*
X152227586Y-52773597D01*
X152225753Y-52771869D01*
X152064693Y-52604453D01*
X152064116Y-52603845D01*
X152062478Y-52601913D01*
X152060840Y-52600034D01*
X151916885Y-52417700D01*
X151916370Y-52417038D01*
X151914932Y-52414961D01*
X151913482Y-52412927D01*
X151788015Y-52217430D01*
X151788005Y-52217416D01*
X151787995Y-52217399D01*
X151787558Y-52216708D01*
X151786343Y-52214525D01*
X151785084Y-52212334D01*
X151679286Y-52005511D01*
X151678910Y-52004762D01*
X151677910Y-52002463D01*
X151676875Y-52000168D01*
X151591765Y-51784009D01*
X151591463Y-51783227D01*
X151590964Y-51781681D01*
X151590399Y-51780161D01*
X151562806Y-51693134D01*
X151562558Y-51692333D01*
X151562508Y-51692133D01*
X151562441Y-51691940D01*
X151561807Y-51689320D01*
X151561141Y-51686646D01*
X151561111Y-51686439D01*
X151561063Y-51686243D01*
X151560692Y-51683604D01*
X151560285Y-51680846D01*
X151560275Y-51680635D01*
X151560247Y-51680438D01*
X151560133Y-51677724D01*
X151560000Y-51674992D01*
X151560010Y-51674791D01*
X151560001Y-51674581D01*
X151560154Y-51671854D01*
X151560287Y-51669136D01*
X151560318Y-51668928D01*
X151560329Y-51668728D01*
X151560754Y-51665980D01*
X151561145Y-51663338D01*
X151561192Y-51663151D01*
X151561225Y-51662935D01*
X151561923Y-51660217D01*
X151562563Y-51657650D01*
X151562632Y-51657456D01*
X151562683Y-51657258D01*
X151563606Y-51654721D01*
X151564530Y-51652128D01*
X151564618Y-51651940D01*
X151564688Y-51651749D01*
X151565866Y-51649292D01*
X151567027Y-51646825D01*
X151567131Y-51646650D01*
X151567221Y-51646463D01*
X151568670Y-51644071D01*
X151570030Y-51641790D01*
X151570147Y-51641631D01*
X151570258Y-51641448D01*
X151571904Y-51639248D01*
X151573508Y-51637072D01*
X151573649Y-51636916D01*
X151573769Y-51636755D01*
X151575590Y-51634761D01*
X151577432Y-51632716D01*
X151577583Y-51632578D01*
X151577722Y-51632426D01*
X151579813Y-51630543D01*
X151581762Y-51628764D01*
X151581917Y-51628648D01*
X151582078Y-51628503D01*
X151584327Y-51626845D01*
X151586456Y-51625253D01*
X151586633Y-51625146D01*
X151586797Y-51625025D01*
X151589117Y-51623642D01*
X151591470Y-51622217D01*
X151591656Y-51622128D01*
X151591832Y-51622023D01*
X151594311Y-51620856D01*
X151596757Y-51619685D01*
X151596948Y-51619616D01*
X151597136Y-51619527D01*
X151599669Y-51618625D01*
X151602266Y-51617680D01*
X151602472Y-51617627D01*
X151602658Y-51617561D01*
X151605249Y-51616915D01*
X151607944Y-51616224D01*
X151608147Y-51616192D01*
X151608346Y-51616143D01*
X151611003Y-51615750D01*
X151613737Y-51615327D01*
X151613947Y-51615315D01*
X151614145Y-51615286D01*
X151616808Y-51615156D01*
X151619589Y-51615001D01*
X151619799Y-51615010D01*
X151620000Y-51615000D01*
X152620000Y-51615000D01*
X152620838Y-51615006D01*
X152623124Y-51615150D01*
X152625433Y-51615246D01*
X152626064Y-51615335D01*
X152626688Y-51615374D01*
X152628960Y-51615742D01*
X152631237Y-51616062D01*
X152631844Y-51616209D01*
X152632475Y-51616311D01*
X152634715Y-51616903D01*
X152636935Y-51617440D01*
X152637532Y-51617648D01*
X152638142Y-51617809D01*
X152640290Y-51618608D01*
X152642472Y-51619367D01*
X152643046Y-51619632D01*
X152643637Y-51619852D01*
X152645713Y-51620865D01*
X152647793Y-51621826D01*
X152648335Y-51622144D01*
X152648905Y-51622422D01*
X152650874Y-51623633D01*
X152652850Y-51624792D01*
X152653357Y-51625160D01*
X152653898Y-51625493D01*
X152655738Y-51626890D01*
X152657593Y-51628237D01*
X152658065Y-51628656D01*
X152658567Y-51629037D01*
X152660255Y-51630600D01*
X152661976Y-51632128D01*
X152662405Y-51632591D01*
X152662868Y-51633020D01*
X152664397Y-51634742D01*
X152665959Y-51636429D01*
X152666341Y-51636932D01*
X152666760Y-51637404D01*
X152668115Y-51639268D01*
X152669504Y-51641098D01*
X152669833Y-51641633D01*
X152670206Y-51642146D01*
X152671370Y-51644131D01*
X152672576Y-51646090D01*
X152695950Y-51688600D01*
X152769484Y-51803562D01*
X152853293Y-51910044D01*
X152947094Y-52007843D01*
X153049981Y-52096013D01*
X153160993Y-52173732D01*
X153279053Y-52240242D01*
X153403047Y-52294918D01*
X153531781Y-52337233D01*
X153664033Y-52366784D01*
X153798528Y-52383286D01*
X153933992Y-52386586D01*
X154069146Y-52376650D01*
X154202681Y-52353574D01*
X154333311Y-52317581D01*
X154459822Y-52269006D01*
X154580981Y-52208322D01*
X154695648Y-52136099D01*
X154802718Y-52053032D01*
X154901160Y-51959925D01*
X154990053Y-51857648D01*
X155068549Y-51747175D01*
X155135881Y-51629584D01*
X155191416Y-51505985D01*
X155234632Y-51377539D01*
X155265101Y-51245512D01*
X155282544Y-51111129D01*
X155286789Y-50975680D01*
X155277798Y-50840472D01*
X155255653Y-50706773D01*
X155220574Y-50575897D01*
X155172883Y-50449049D01*
X155113048Y-50327474D01*
X155041626Y-50212304D01*
X154959314Y-50104663D01*
X154866892Y-50005567D01*
X154765235Y-49915959D01*
X154655326Y-49836704D01*
X154538199Y-49768546D01*
X154414985Y-49712146D01*
X154286856Y-49668040D01*
X154155033Y-49636646D01*
X154020770Y-49618265D01*
X153885363Y-49613074D01*
X153750100Y-49621121D01*
X153616247Y-49642333D01*
X153485128Y-49676498D01*
X153357952Y-49723301D01*
X153235954Y-49782289D01*
X153120292Y-49852903D01*
X153012077Y-49934463D01*
X152912337Y-50026193D01*
X152822022Y-50127222D01*
X152742004Y-50236574D01*
X152671538Y-50355745D01*
X152671106Y-50356464D01*
X152670190Y-50357811D01*
X152669742Y-50358552D01*
X152669146Y-50359348D01*
X152667812Y-50361312D01*
X152666489Y-50362900D01*
X152666231Y-50363245D01*
X152665897Y-50363610D01*
X152664060Y-50365816D01*
X152662285Y-50367566D01*
X152662278Y-50367574D01*
X152662269Y-50367582D01*
X152659886Y-50369932D01*
X152655331Y-50373622D01*
X152650437Y-50376849D01*
X152645253Y-50379584D01*
X152639826Y-50381799D01*
X152634208Y-50383474D01*
X152628453Y-50384593D01*
X152622618Y-50385145D01*
X152616756Y-50385125D01*
X152615524Y-50385000D01*
X151620000Y-50385000D01*
X151619162Y-50384994D01*
X151613312Y-50384626D01*
X151607525Y-50383689D01*
X151601858Y-50382191D01*
X151596363Y-50380148D01*
X151591095Y-50377578D01*
X151586102Y-50374507D01*
X151581433Y-50370963D01*
X151577132Y-50366980D01*
X151573240Y-50362596D01*
X151569794Y-50357854D01*
X151566828Y-50352798D01*
X151564369Y-50347476D01*
X151562441Y-50341940D01*
X151561063Y-50336243D01*
X151560247Y-50330438D01*
X151560001Y-50324581D01*
X151560329Y-50318728D01*
X151561225Y-50312935D01*
X151561782Y-50310766D01*
X151561909Y-50310107D01*
X151562226Y-50309039D01*
X151562683Y-50307258D01*
X151563063Y-50306213D01*
X151563575Y-50304487D01*
X151640390Y-50085242D01*
X151640673Y-50084453D01*
X151641645Y-50082153D01*
X151642596Y-50079811D01*
X151740439Y-49869109D01*
X151740797Y-49868352D01*
X151741995Y-49866146D01*
X151743165Y-49863919D01*
X151861092Y-49663785D01*
X151861100Y-49663769D01*
X151861111Y-49663752D01*
X151861531Y-49663050D01*
X151862937Y-49660975D01*
X151864320Y-49658870D01*
X152001225Y-49471185D01*
X152001724Y-49470511D01*
X152003317Y-49468593D01*
X152004907Y-49466623D01*
X152159455Y-49293215D01*
X152159473Y-49293193D01*
X152159496Y-49293169D01*
X152160036Y-49292572D01*
X152161775Y-49290851D01*
X152163583Y-49289013D01*
X152334335Y-49131494D01*
X152334955Y-49130930D01*
X152336930Y-49129325D01*
X152338833Y-49127735D01*
X152524119Y-48987647D01*
X152524141Y-48987629D01*
X152524168Y-48987610D01*
X152524814Y-48987129D01*
X152526892Y-48985754D01*
X152528985Y-48984327D01*
X152727082Y-48862973D01*
X152727800Y-48862540D01*
X152730037Y-48861356D01*
X152732224Y-48860159D01*
X152941201Y-48758724D01*
X152941217Y-48758715D01*
X152941237Y-48758707D01*
X152941974Y-48758355D01*
X152944272Y-48757413D01*
X152946609Y-48756417D01*
X153164485Y-48675859D01*
X153164503Y-48675851D01*
X153164524Y-48675844D01*
X153165291Y-48675567D01*
X153167668Y-48674854D01*
X153170094Y-48674090D01*
X153394792Y-48615177D01*
X153394811Y-48615171D01*
X153394833Y-48615166D01*
X153395623Y-48614965D01*
X153398077Y-48614484D01*
X153400547Y-48613964D01*
X153629920Y-48577259D01*
X153629940Y-48577255D01*
X153629963Y-48577252D01*
X153630768Y-48577129D01*
X153633246Y-48576891D01*
X153635767Y-48576613D01*
X153867648Y-48562465D01*
X153868485Y-48562420D01*
X153871018Y-48562425D01*
X153873509Y-48562395D01*
X154105643Y-48570941D01*
G37*
D17*
X153900000Y-54580000D03*
X153900000Y-47420000D03*
D18*
X153900000Y-51000000D03*
%TD*%
%TO.C,R108*%
G36*
G01*
X145560000Y-50900000D02*
X145560000Y-51100000D01*
G75*
G02*
X145460000Y-51200000I-100000J0D01*
G01*
X145200000Y-51200000D01*
G75*
G02*
X145100000Y-51100000I0J100000D01*
G01*
X145100000Y-50900000D01*
G75*
G02*
X145200000Y-50800000I100000J0D01*
G01*
X145460000Y-50800000D01*
G75*
G02*
X145560000Y-50900000I0J-100000D01*
G01*
G37*
G36*
G01*
X146200000Y-50900000D02*
X146200000Y-51100000D01*
G75*
G02*
X146100000Y-51200000I-100000J0D01*
G01*
X145840000Y-51200000D01*
G75*
G02*
X145740000Y-51100000I0J100000D01*
G01*
X145740000Y-50900000D01*
G75*
G02*
X145840000Y-50800000I100000J0D01*
G01*
X146100000Y-50800000D01*
G75*
G02*
X146200000Y-50900000I0J-100000D01*
G01*
G37*
%TD*%
%TO.C,R107*%
G36*
G01*
X147240000Y-51100000D02*
X147240000Y-50900000D01*
G75*
G02*
X147340000Y-50800000I100000J0D01*
G01*
X147600000Y-50800000D01*
G75*
G02*
X147700000Y-50900000I0J-100000D01*
G01*
X147700000Y-51100000D01*
G75*
G02*
X147600000Y-51200000I-100000J0D01*
G01*
X147340000Y-51200000D01*
G75*
G02*
X147240000Y-51100000I0J100000D01*
G01*
G37*
G36*
G01*
X146600000Y-51100000D02*
X146600000Y-50900000D01*
G75*
G02*
X146700000Y-50800000I100000J0D01*
G01*
X146960000Y-50800000D01*
G75*
G02*
X147060000Y-50900000I0J-100000D01*
G01*
X147060000Y-51100000D01*
G75*
G02*
X146960000Y-51200000I-100000J0D01*
G01*
X146700000Y-51200000D01*
G75*
G02*
X146600000Y-51100000I0J100000D01*
G01*
G37*
%TD*%
%TO.C,R106*%
G36*
G01*
X175740000Y-83100000D02*
X175740000Y-82900000D01*
G75*
G02*
X175840000Y-82800000I100000J0D01*
G01*
X176100000Y-82800000D01*
G75*
G02*
X176200000Y-82900000I0J-100000D01*
G01*
X176200000Y-83100000D01*
G75*
G02*
X176100000Y-83200000I-100000J0D01*
G01*
X175840000Y-83200000D01*
G75*
G02*
X175740000Y-83100000I0J100000D01*
G01*
G37*
G36*
G01*
X175100000Y-83100000D02*
X175100000Y-82900000D01*
G75*
G02*
X175200000Y-82800000I100000J0D01*
G01*
X175460000Y-82800000D01*
G75*
G02*
X175560000Y-82900000I0J-100000D01*
G01*
X175560000Y-83100000D01*
G75*
G02*
X175460000Y-83200000I-100000J0D01*
G01*
X175200000Y-83200000D01*
G75*
G02*
X175100000Y-83100000I0J100000D01*
G01*
G37*
%TD*%
%TO.C,R105*%
G36*
G01*
X177060000Y-82900000D02*
X177060000Y-83100000D01*
G75*
G02*
X176960000Y-83200000I-100000J0D01*
G01*
X176700000Y-83200000D01*
G75*
G02*
X176600000Y-83100000I0J100000D01*
G01*
X176600000Y-82900000D01*
G75*
G02*
X176700000Y-82800000I100000J0D01*
G01*
X176960000Y-82800000D01*
G75*
G02*
X177060000Y-82900000I0J-100000D01*
G01*
G37*
G36*
G01*
X177700000Y-82900000D02*
X177700000Y-83100000D01*
G75*
G02*
X177600000Y-83200000I-100000J0D01*
G01*
X177340000Y-83200000D01*
G75*
G02*
X177240000Y-83100000I0J100000D01*
G01*
X177240000Y-82900000D01*
G75*
G02*
X177340000Y-82800000I100000J0D01*
G01*
X177600000Y-82800000D01*
G75*
G02*
X177700000Y-82900000I0J-100000D01*
G01*
G37*
%TD*%
%TO.C,R104*%
G36*
G01*
X145740000Y-67100000D02*
X145740000Y-66900000D01*
G75*
G02*
X145840000Y-66800000I100000J0D01*
G01*
X146100000Y-66800000D01*
G75*
G02*
X146200000Y-66900000I0J-100000D01*
G01*
X146200000Y-67100000D01*
G75*
G02*
X146100000Y-67200000I-100000J0D01*
G01*
X145840000Y-67200000D01*
G75*
G02*
X145740000Y-67100000I0J100000D01*
G01*
G37*
G36*
G01*
X145100000Y-67100000D02*
X145100000Y-66900000D01*
G75*
G02*
X145200000Y-66800000I100000J0D01*
G01*
X145460000Y-66800000D01*
G75*
G02*
X145560000Y-66900000I0J-100000D01*
G01*
X145560000Y-67100000D01*
G75*
G02*
X145460000Y-67200000I-100000J0D01*
G01*
X145200000Y-67200000D01*
G75*
G02*
X145100000Y-67100000I0J100000D01*
G01*
G37*
%TD*%
%TO.C,R103*%
G36*
G01*
X147060000Y-66900000D02*
X147060000Y-67100000D01*
G75*
G02*
X146960000Y-67200000I-100000J0D01*
G01*
X146700000Y-67200000D01*
G75*
G02*
X146600000Y-67100000I0J100000D01*
G01*
X146600000Y-66900000D01*
G75*
G02*
X146700000Y-66800000I100000J0D01*
G01*
X146960000Y-66800000D01*
G75*
G02*
X147060000Y-66900000I0J-100000D01*
G01*
G37*
G36*
G01*
X147700000Y-66900000D02*
X147700000Y-67100000D01*
G75*
G02*
X147600000Y-67200000I-100000J0D01*
G01*
X147340000Y-67200000D01*
G75*
G02*
X147240000Y-67100000I0J100000D01*
G01*
X147240000Y-66900000D01*
G75*
G02*
X147340000Y-66800000I100000J0D01*
G01*
X147600000Y-66800000D01*
G75*
G02*
X147700000Y-66900000I0J-100000D01*
G01*
G37*
%TD*%
%TO.C,R102*%
G36*
G01*
X145740000Y-83100000D02*
X145740000Y-82900000D01*
G75*
G02*
X145840000Y-82800000I100000J0D01*
G01*
X146100000Y-82800000D01*
G75*
G02*
X146200000Y-82900000I0J-100000D01*
G01*
X146200000Y-83100000D01*
G75*
G02*
X146100000Y-83200000I-100000J0D01*
G01*
X145840000Y-83200000D01*
G75*
G02*
X145740000Y-83100000I0J100000D01*
G01*
G37*
G36*
G01*
X145100000Y-83100000D02*
X145100000Y-82900000D01*
G75*
G02*
X145200000Y-82800000I100000J0D01*
G01*
X145460000Y-82800000D01*
G75*
G02*
X145560000Y-82900000I0J-100000D01*
G01*
X145560000Y-83100000D01*
G75*
G02*
X145460000Y-83200000I-100000J0D01*
G01*
X145200000Y-83200000D01*
G75*
G02*
X145100000Y-83100000I0J100000D01*
G01*
G37*
%TD*%
%TO.C,R101*%
G36*
G01*
X147060000Y-82900000D02*
X147060000Y-83100000D01*
G75*
G02*
X146960000Y-83200000I-100000J0D01*
G01*
X146700000Y-83200000D01*
G75*
G02*
X146600000Y-83100000I0J100000D01*
G01*
X146600000Y-82900000D01*
G75*
G02*
X146700000Y-82800000I100000J0D01*
G01*
X146960000Y-82800000D01*
G75*
G02*
X147060000Y-82900000I0J-100000D01*
G01*
G37*
G36*
G01*
X147700000Y-82900000D02*
X147700000Y-83100000D01*
G75*
G02*
X147600000Y-83200000I-100000J0D01*
G01*
X147340000Y-83200000D01*
G75*
G02*
X147240000Y-83100000I0J100000D01*
G01*
X147240000Y-82900000D01*
G75*
G02*
X147340000Y-82800000I100000J0D01*
G01*
X147600000Y-82800000D01*
G75*
G02*
X147700000Y-82900000I0J-100000D01*
G01*
G37*
%TD*%
D19*
%TO.C,TP105*%
X143900000Y-43000000D03*
%TD*%
%TO.C,C104*%
G36*
G01*
X147060000Y-98900000D02*
X147060000Y-99100000D01*
G75*
G02*
X146960000Y-99200000I-100000J0D01*
G01*
X146700000Y-99200000D01*
G75*
G02*
X146600000Y-99100000I0J100000D01*
G01*
X146600000Y-98900000D01*
G75*
G02*
X146700000Y-98800000I100000J0D01*
G01*
X146960000Y-98800000D01*
G75*
G02*
X147060000Y-98900000I0J-100000D01*
G01*
G37*
G36*
G01*
X147700000Y-98900000D02*
X147700000Y-99100000D01*
G75*
G02*
X147600000Y-99200000I-100000J0D01*
G01*
X147340000Y-99200000D01*
G75*
G02*
X147240000Y-99100000I0J100000D01*
G01*
X147240000Y-98900000D01*
G75*
G02*
X147340000Y-98800000I100000J0D01*
G01*
X147600000Y-98800000D01*
G75*
G02*
X147700000Y-98900000I0J-100000D01*
G01*
G37*
%TD*%
%TO.C,C103*%
G36*
G01*
X145740000Y-99100000D02*
X145740000Y-98900000D01*
G75*
G02*
X145840000Y-98800000I100000J0D01*
G01*
X146100000Y-98800000D01*
G75*
G02*
X146200000Y-98900000I0J-100000D01*
G01*
X146200000Y-99100000D01*
G75*
G02*
X146100000Y-99200000I-100000J0D01*
G01*
X145840000Y-99200000D01*
G75*
G02*
X145740000Y-99100000I0J100000D01*
G01*
G37*
G36*
G01*
X145100000Y-99100000D02*
X145100000Y-98900000D01*
G75*
G02*
X145200000Y-98800000I100000J0D01*
G01*
X145460000Y-98800000D01*
G75*
G02*
X145560000Y-98900000I0J-100000D01*
G01*
X145560000Y-99100000D01*
G75*
G02*
X145460000Y-99200000I-100000J0D01*
G01*
X145200000Y-99200000D01*
G75*
G02*
X145100000Y-99100000I0J100000D01*
G01*
G37*
%TD*%
D20*
%TO.C,J115*%
X136360000Y-85540000D03*
X136360000Y-80460000D03*
X141440000Y-80460000D03*
X141440000Y-85540000D03*
D21*
X138900000Y-83000000D03*
%TD*%
D20*
%TO.C,J114*%
X151360000Y-85540000D03*
X151360000Y-80460000D03*
X156440000Y-80460000D03*
X156440000Y-85540000D03*
D21*
X153900000Y-83000000D03*
%TD*%
D20*
%TO.C,J113*%
X181360000Y-101540000D03*
X181360000Y-96460000D03*
X186440000Y-96460000D03*
X186440000Y-101540000D03*
D21*
X183900000Y-99000000D03*
%TD*%
D20*
%TO.C,J112*%
X166360000Y-101540000D03*
X166360000Y-96460000D03*
X171440000Y-96460000D03*
X171440000Y-101540000D03*
D21*
X168900000Y-99000000D03*
%TD*%
D20*
%TO.C,J111*%
X151360000Y-101540000D03*
X151360000Y-96460000D03*
X156440000Y-96460000D03*
X156440000Y-101540000D03*
D21*
X153900000Y-99000000D03*
%TD*%
D20*
%TO.C,J110*%
X136360000Y-101540000D03*
X136360000Y-96460000D03*
X141440000Y-96460000D03*
X141440000Y-101540000D03*
D21*
X138900000Y-99000000D03*
%TD*%
D20*
%TO.C,J109*%
X166360000Y-85540000D03*
X166360000Y-80460000D03*
X171440000Y-80460000D03*
X171440000Y-85540000D03*
D21*
X168900000Y-83000000D03*
%TD*%
D20*
%TO.C,J108*%
X181360000Y-85540000D03*
X181360000Y-80460000D03*
X186440000Y-80460000D03*
X186440000Y-85540000D03*
D21*
X183900000Y-83000000D03*
%TD*%
%TO.C,C106*%
G36*
G01*
X177060000Y-98900000D02*
X177060000Y-99100000D01*
G75*
G02*
X176960000Y-99200000I-100000J0D01*
G01*
X176700000Y-99200000D01*
G75*
G02*
X176600000Y-99100000I0J100000D01*
G01*
X176600000Y-98900000D01*
G75*
G02*
X176700000Y-98800000I100000J0D01*
G01*
X176960000Y-98800000D01*
G75*
G02*
X177060000Y-98900000I0J-100000D01*
G01*
G37*
G36*
G01*
X177700000Y-98900000D02*
X177700000Y-99100000D01*
G75*
G02*
X177600000Y-99200000I-100000J0D01*
G01*
X177340000Y-99200000D01*
G75*
G02*
X177240000Y-99100000I0J100000D01*
G01*
X177240000Y-98900000D01*
G75*
G02*
X177340000Y-98800000I100000J0D01*
G01*
X177600000Y-98800000D01*
G75*
G02*
X177700000Y-98900000I0J-100000D01*
G01*
G37*
%TD*%
%TO.C,C105*%
G36*
G01*
X175740000Y-99100000D02*
X175740000Y-98900000D01*
G75*
G02*
X175840000Y-98800000I100000J0D01*
G01*
X176100000Y-98800000D01*
G75*
G02*
X176200000Y-98900000I0J-100000D01*
G01*
X176200000Y-99100000D01*
G75*
G02*
X176100000Y-99200000I-100000J0D01*
G01*
X175840000Y-99200000D01*
G75*
G02*
X175740000Y-99100000I0J100000D01*
G01*
G37*
G36*
G01*
X175100000Y-99100000D02*
X175100000Y-98900000D01*
G75*
G02*
X175200000Y-98800000I100000J0D01*
G01*
X175460000Y-98800000D01*
G75*
G02*
X175560000Y-98900000I0J-100000D01*
G01*
X175560000Y-99100000D01*
G75*
G02*
X175460000Y-99200000I-100000J0D01*
G01*
X175200000Y-99200000D01*
G75*
G02*
X175100000Y-99100000I0J100000D01*
G01*
G37*
%TD*%
%TO.C,C102*%
G36*
G01*
X175560000Y-66900000D02*
X175560000Y-67100000D01*
G75*
G02*
X175460000Y-67200000I-100000J0D01*
G01*
X175200000Y-67200000D01*
G75*
G02*
X175100000Y-67100000I0J100000D01*
G01*
X175100000Y-66900000D01*
G75*
G02*
X175200000Y-66800000I100000J0D01*
G01*
X175460000Y-66800000D01*
G75*
G02*
X175560000Y-66900000I0J-100000D01*
G01*
G37*
G36*
G01*
X176200000Y-66900000D02*
X176200000Y-67100000D01*
G75*
G02*
X176100000Y-67200000I-100000J0D01*
G01*
X175840000Y-67200000D01*
G75*
G02*
X175740000Y-67100000I0J100000D01*
G01*
X175740000Y-66900000D01*
G75*
G02*
X175840000Y-66800000I100000J0D01*
G01*
X176100000Y-66800000D01*
G75*
G02*
X176200000Y-66900000I0J-100000D01*
G01*
G37*
%TD*%
%TO.C,C101*%
G36*
G01*
X177240000Y-67100000D02*
X177240000Y-66900000D01*
G75*
G02*
X177340000Y-66800000I100000J0D01*
G01*
X177600000Y-66800000D01*
G75*
G02*
X177700000Y-66900000I0J-100000D01*
G01*
X177700000Y-67100000D01*
G75*
G02*
X177600000Y-67200000I-100000J0D01*
G01*
X177340000Y-67200000D01*
G75*
G02*
X177240000Y-67100000I0J100000D01*
G01*
G37*
G36*
G01*
X176600000Y-67100000D02*
X176600000Y-66900000D01*
G75*
G02*
X176700000Y-66800000I100000J0D01*
G01*
X176960000Y-66800000D01*
G75*
G02*
X177060000Y-66900000I0J-100000D01*
G01*
X177060000Y-67100000D01*
G75*
G02*
X176960000Y-67200000I-100000J0D01*
G01*
X176700000Y-67200000D01*
G75*
G02*
X176600000Y-67100000I0J100000D01*
G01*
G37*
%TD*%
D19*
%TO.C,TP104*%
X144000000Y-108000000D03*
%TD*%
%TO.C,FID102*%
X173000000Y-105000000D03*
%TD*%
D22*
%TO.C,H102*%
X177500000Y-47950000D03*
%TD*%
%TO.C,H104*%
X177500000Y-104500000D03*
%TD*%
D19*
%TO.C,FID104*%
X112000000Y-107000000D03*
%TD*%
%TO.C,FID101*%
X112000000Y-44000000D03*
%TD*%
D23*
%TO.C,H103*%
X122900000Y-107000000D03*
%TD*%
%TO.C,H101*%
X122900000Y-44000000D03*
%TD*%
M02*
