M48
; DRILL file {KiCad 5.1.7-a382d34a8~88~ubuntu16.04.1} date Wed Dec  7 17:33:47 2022
; FORMAT={-:-/ absolute / metric / decimal}
; #@! TF.CreationDate,2022-12-07T17:33:47+01:00
; #@! TF.GenerationSoftware,Kicad,Pcbnew,5.1.7-a382d34a8~88~ubuntu16.04.1
; #@! TF.FileFunction,NonPlated,1,4,NPTH
FMAT,2
METRIC
T1C1.270
T2C1.550
T3C2.700
%
G90
G05
T1
X120.915Y-102.725
X123.965Y-48.344
T2
X183.9Y-63.42
X183.9Y-70.58
X138.9Y-63.42
X138.9Y-70.58
X168.9Y-63.42
X168.9Y-70.58
X138.9Y-63.42
X138.9Y-70.58
X153.9Y-47.42
X153.9Y-54.58
X153.9Y-63.42
X153.9Y-70.58
X183.9Y-63.42
X183.9Y-70.58
X138.9Y-47.42
X138.9Y-54.58
X168.9Y-63.42
X168.9Y-70.58
X153.9Y-63.42
X153.9Y-70.58
T3
X177.5Y-47.95
X177.5Y-104.5
T0
M30
