M48
; DRILL file {KiCad 5.1.12-84ad8e8a86~92~ubuntu18.04.1} date Fri 09 Dec 2022 05:16:07 PM CET
; FORMAT={-:-/ absolute / inch / decimal}
; #@! TF.CreationDate,2022-12-09T17:16:07+01:00
; #@! TF.GenerationSoftware,Kicad,Pcbnew,5.1.12-84ad8e8a86~92~ubuntu18.04.1
; #@! TF.FileFunction,Plated,1,4,PTH
FMAT,2
INCH
T1C0.0079
T2C0.0394
T3C0.0591
T4C0.0610
T5C0.0669
T6C0.1063
%
G90
G05
T1
X4.3602Y-1.752
X4.3602Y-1.8701
X4.3602Y-1.9882
X4.3602Y-2.1063
X4.3602Y-2.2244
X4.3602Y-2.3425
X4.3602Y-2.4606
X4.3602Y-2.5787
X4.3602Y-2.6969
X4.3602Y-2.815
X4.3602Y-2.9331
X4.3602Y-3.0512
X4.3602Y-3.1693
X4.3602Y-3.2874
X4.3602Y-3.4055
X4.3602Y-3.5236
X4.3602Y-3.6417
X4.3602Y-3.7598
X4.3602Y-3.878
X4.3602Y-3.9961
X4.3602Y-4.1142
X4.3602Y-4.2323
X4.4104Y-1.9738
X4.4104Y-2.1238
X4.4104Y-2.1738
X4.4104Y-2.3738
X4.4104Y-2.5738
X4.4104Y-2.6238
X4.4104Y-2.6738
X4.4104Y-2.7238
X4.4104Y-2.7738
X4.4104Y-2.9238
X4.4104Y-2.9738
X4.4104Y-3.1238
X4.4104Y-3.1738
X4.4104Y-3.3738
X4.4104Y-3.4238
X4.4104Y-3.5238
X4.4104Y-3.5738
X4.4104Y-3.7238
X4.4104Y-3.7738
X4.4104Y-3.9238
X4.4252Y-1.6496
X4.4291Y-4.2992
X4.4604Y-1.9738
X4.4604Y-2.0238
X4.4604Y-2.0738
X4.4604Y-2.2238
X4.4604Y-2.2738
X4.4604Y-2.4738
X4.4604Y-2.6738
X4.4604Y-2.8238
X4.4604Y-2.8738
X4.4604Y-3.0238
X4.4604Y-3.0738
X4.4604Y-3.2238
X4.4604Y-3.2738
X4.4604Y-3.4238
X4.4604Y-3.4738
X4.4604Y-3.6238
X4.4604Y-3.6738
X4.4604Y-3.8238
X4.4604Y-3.8738
X4.4604Y-3.9238
X4.5104Y-1.9738
X4.5104Y-2.1238
X4.5104Y-2.1738
X4.5104Y-2.3238
X4.5104Y-2.3738
X4.5104Y-2.5238
X4.5104Y-2.5738
X4.5104Y-2.7238
X4.5104Y-2.7738
X4.5104Y-2.9238
X4.5104Y-2.9738
X4.5104Y-3.1238
X4.5104Y-3.1738
X4.5104Y-3.3238
X4.5104Y-3.3738
X4.5104Y-3.5238
X4.5104Y-3.6238
X4.5104Y-3.7738
X4.5104Y-3.9238
X4.5354Y-1.6988
X4.5433Y-1.6496
X4.5472Y-4.2992
X4.5604Y-2.0238
X4.5604Y-2.0738
X4.5604Y-2.1238
X4.5604Y-2.1738
X4.5604Y-2.2236
X4.5604Y-2.2738
X4.5604Y-2.4238
X4.5604Y-2.4738
X4.5604Y-2.6238
X4.5604Y-2.6738
X4.5604Y-2.8238
X4.5604Y-2.8738
X4.5604Y-2.9238
X4.5604Y-2.9738
X4.5604Y-3.0238
X4.5604Y-3.0738
X4.5604Y-3.1238
X4.5604Y-3.1738
X4.5604Y-3.2238
X4.5604Y-3.2738
X4.5604Y-3.4238
X4.5604Y-3.6238
X4.5604Y-3.6738
X4.5604Y-3.8238
X4.5604Y-3.8738
X4.5657Y-3.4791
X4.6104Y-1.9738
X4.6104Y-2.0238
X4.6104Y-2.0738
X4.6104Y-2.1238
X4.6104Y-2.1238
X4.6104Y-2.1738
X4.6104Y-2.2238
X4.6104Y-2.2738
X4.6104Y-2.3238
X4.6104Y-2.3738
X4.6104Y-2.4238
X4.6104Y-2.4738
X4.6104Y-2.5238
X4.6104Y-2.5738
X4.6104Y-2.7238
X4.6104Y-2.7738
X4.6104Y-2.8238
X4.6104Y-2.8738
X4.6104Y-2.9238
X4.6104Y-2.9738
X4.6104Y-3.1238
X4.6104Y-3.1738
X4.6104Y-3.3238
X4.6104Y-3.3738
X4.6104Y-3.5238
X4.6104Y-3.7238
X4.6104Y-3.7738
X4.6104Y-3.9238
X4.6586Y-1.9732
X4.6604Y-2.0238
X4.6604Y-2.0738
X4.6604Y-2.1238
X4.6604Y-2.1738
X4.6604Y-2.2238
X4.6604Y-2.3738
X4.6604Y-2.4238
X4.6604Y-2.4738
X4.6604Y-2.5738
X4.6604Y-2.7238
X4.6604Y-2.8738
X4.6604Y-3.0238
X4.6604Y-3.1738
X4.6604Y-3.3238
X4.6604Y-3.4738
X4.6604Y-3.5238
X4.6604Y-3.5738
X4.6604Y-3.6238
X4.6604Y-3.6738
X4.6604Y-3.8738
X4.6614Y-1.6496
X4.6654Y-4.2992
X4.7104Y-1.9738
X4.7104Y-2.0238
X4.7104Y-2.0738
X4.7104Y-2.2238
X4.7104Y-2.3738
X4.7104Y-2.5238
X4.7104Y-2.5738
X4.7104Y-2.6238
X4.7104Y-2.6738
X4.7104Y-2.8238
X4.7104Y-2.9738
X4.7104Y-3.1238
X4.7104Y-3.2738
X4.7104Y-3.4238
X4.7104Y-3.5738
X4.7104Y-3.6238
X4.7104Y-3.7238
X4.7104Y-3.7738
X4.7104Y-3.9238
X4.7604Y-1.9738
X4.7604Y-2.0738
X4.7604Y-2.1738
X4.7604Y-2.3238
X4.7604Y-2.4238
X4.7604Y-2.4738
X4.7604Y-2.6238
X4.7604Y-2.7238
X4.7604Y-2.7738
X4.7604Y-2.8738
X4.7604Y-2.9238
X4.7604Y-3.0738
X4.7604Y-3.2238
X4.7604Y-3.3238
X4.7604Y-3.3738
X4.7604Y-3.5238
X4.7604Y-3.6738
X4.7604Y-3.8238
X4.7604Y-3.8738
X4.7604Y-3.9738
X4.8104Y-1.9738
X4.8104Y-2.0238
X4.8104Y-2.0738
X4.8104Y-2.2238
X4.8104Y-2.2738
X4.8104Y-2.3738
X4.8104Y-2.5238
X4.8104Y-2.5738
X4.8104Y-2.6738
X4.8104Y-2.8238
X4.8104Y-2.8738
X4.8104Y-2.9738
X4.8104Y-3.1238
X4.8104Y-3.1738
X4.8104Y-3.2738
X4.8104Y-3.4238
X4.8104Y-3.4738
X4.8104Y-3.5238
X4.8104Y-3.5738
X4.8104Y-3.6238
X4.8104Y-3.6738
X4.8104Y-3.7238
X4.8104Y-3.7738
X4.8104Y-3.9238
X4.8604Y-1.9738
X4.8604Y-2.0238
X4.8604Y-2.0738
X4.8604Y-2.1738
X4.8604Y-2.3238
X4.8604Y-2.4238
X4.8604Y-2.4738
X4.8604Y-2.6238
X4.8604Y-2.7738
X4.8604Y-2.9238
X4.8604Y-3.0738
X4.8604Y-3.2238
X4.8604Y-3.3238
X4.8604Y-3.3738
X4.8604Y-3.5238
X4.8604Y-3.5738
X4.8604Y-3.6238
X4.8604Y-3.6738
X4.8604Y-3.8238
X4.8604Y-3.8738
X4.9087Y-1.9737
X4.9104Y-2.1238
X4.9104Y-2.2238
X4.9104Y-2.2738
X4.9104Y-2.3738
X4.9104Y-2.5238
X4.9104Y-2.5738
X4.9104Y-2.7238
X4.9104Y-2.8238
X4.9104Y-2.8738
X4.9104Y-2.9738
X4.9104Y-3.1238
X4.9104Y-3.1738
X4.9104Y-3.2738
X4.9104Y-3.4238
X4.9104Y-3.4738
X4.9104Y-3.5738
X4.9104Y-3.6238
X4.9104Y-3.7238
X4.9104Y-3.7738
X4.9104Y-3.9238
X4.9604Y-2.0238
X4.9604Y-2.0738
X4.9604Y-2.1738
X4.9604Y-2.3238
X4.9604Y-2.4738
X4.9604Y-2.6738
X4.9604Y-2.7238
X4.9604Y-2.7738
X4.9604Y-2.9238
X4.9604Y-3.0738
X4.9604Y-3.2238
X4.9604Y-3.3238
X4.9604Y-3.3738
X4.9604Y-3.5238
X4.9604Y-3.6738
X4.9604Y-3.8238
X5.0104Y-1.9738
X5.0104Y-2.0238
X5.0104Y-2.1238
X5.0104Y-2.2238
X5.0104Y-2.2738
X5.0104Y-2.4238
X5.0104Y-2.4738
X5.0104Y-2.6238
X5.0104Y-2.6738
X5.0104Y-2.7738
X5.0104Y-2.8238
X5.0104Y-2.8738
X5.0104Y-3.0238
X5.0104Y-3.0738
X5.0104Y-3.2238
X5.0104Y-3.2738
X5.0104Y-3.4238
X5.0104Y-3.4738
X5.0104Y-3.6238
X5.0104Y-3.6738
X5.0104Y-3.8238
X5.0104Y-3.8738
X5.0104Y-3.9238
X5.0157Y-1.6496
X5.0197Y-4.2992
X5.0604Y-1.9738
X5.0604Y-2.0738
X5.0604Y-2.1238
X5.0604Y-2.1738
X5.0604Y-2.2238
X5.0604Y-2.2738
X5.0604Y-2.3238
X5.0604Y-2.3738
X5.0604Y-2.5738
X5.0604Y-2.7238
X5.0604Y-2.7738
X5.0604Y-2.8238
X5.0604Y-2.8738
X5.0604Y-2.9238
X5.0604Y-2.9738
X5.0604Y-3.1238
X5.0604Y-3.1738
X5.0604Y-3.3238
X5.0604Y-3.3738
X5.0604Y-3.5238
X5.0604Y-3.5738
X5.0604Y-3.7238
X5.0604Y-3.7738
X5.0604Y-3.9238
X5.1104Y-2.5738
X5.1339Y-1.6496
X5.1378Y-4.2992
X5.252Y-1.6496
X5.2559Y-4.2992
X5.3307Y-1.9094
X5.3307Y-1.9488
X5.3307Y-2.0669
X5.3307Y-2.1063
X5.3307Y-2.5394
X5.3307Y-2.5787
X5.3307Y-2.6969
X5.3307Y-2.7362
X5.3701Y-1.6496
X5.374Y-4.2992
X5.3996Y-2.0079
X5.3996Y-2.6378
X5.4193Y-1.9587
X5.4193Y-2.0571
X5.4193Y-2.5886
X5.4193Y-2.687
X5.4685Y-1.939
X5.4685Y-2.0768
X5.4685Y-2.5689
X5.4685Y-2.7067
X5.4882Y-1.6496
X5.4921Y-4.2992
X5.5177Y-1.9587
X5.5177Y-2.0571
X5.5177Y-2.5886
X5.5177Y-2.687
X5.6063Y-1.6496
X5.6063Y-1.9094
X5.6063Y-1.9488
X5.6063Y-2.0669
X5.6063Y-2.1063
X5.6063Y-2.5394
X5.6063Y-2.5787
X5.6063Y-2.6969
X5.6063Y-2.7362
X5.6102Y-4.2992
X5.7244Y-1.6496
X5.7283Y-4.2992
X5.8425Y-1.6496
X5.8465Y-4.2992
X5.9213Y-1.9094
X5.9213Y-1.9488
X5.9213Y-2.0669
X5.9213Y-2.1063
X5.9213Y-2.5394
X5.9213Y-2.5787
X5.9213Y-2.6969
X5.9213Y-2.7362
X5.9606Y-1.6496
X5.9646Y-4.2992
X6.0098Y-1.9587
X6.0098Y-2.0571
X6.0098Y-2.5886
X6.0098Y-2.687
X6.0591Y-1.939
X6.0591Y-2.0768
X6.0591Y-2.5689
X6.0591Y-2.7067
X6.0787Y-1.6496
X6.0827Y-4.2992
X6.1083Y-1.9587
X6.1083Y-2.0571
X6.1083Y-2.5886
X6.1083Y-2.687
X6.128Y-2.0079
X6.128Y-2.6378
X6.1969Y-1.6496
X6.1969Y-1.9094
X6.1969Y-1.9488
X6.1969Y-2.0669
X6.1969Y-2.1063
X6.1969Y-2.5394
X6.1969Y-2.5787
X6.1969Y-2.6969
X6.1969Y-2.7362
X6.2008Y-4.2992
X6.2756Y-1.9094
X6.315Y-1.6496
X6.315Y-1.8236
X6.315Y-1.8504
X6.315Y-1.8898
X6.3189Y-4.2992
X6.3976Y-4.1693
X6.4331Y-1.6496
X6.5039Y-1.689
X6.5118Y-2.5394
X6.5118Y-2.5787
X6.5118Y-2.6969
X6.5118Y-2.7362
X6.5157Y-4.1693
X6.5512Y-1.8898
X6.5787Y-1.748
X6.5807Y-2.6378
X6.6004Y-2.5886
X6.6004Y-2.687
X6.6339Y-4.1693
X6.6496Y-2.5689
X6.6496Y-2.7067
X6.6693Y-1.8701
X6.6693Y-1.9291
X6.6693Y-1.9882
X6.6693Y-1.811
X6.6969Y-1.748
X6.6988Y-2.5886
X6.6988Y-2.687
X6.752Y-4.1693
X6.7874Y-2.5394
X6.7874Y-2.5787
X6.7874Y-2.6969
X6.7874Y-2.7362
X6.815Y-1.748
X6.8268Y-1.9291
X6.8268Y-1.9882
X6.8701Y-4.1693
X6.9331Y-1.748
X7.1024Y-2.5394
X7.1024Y-2.5787
X7.1024Y-2.6969
X7.1024Y-2.7362
X7.1299Y-4.1654
X7.1457Y-1.8346
X7.1909Y-2.5886
X7.1909Y-2.687
X7.2402Y-2.5689
X7.2402Y-2.7067
X7.248Y-4.1654
X7.2638Y-1.8346
X7.2894Y-2.5886
X7.2894Y-2.687
X7.3091Y-2.6378
X7.3661Y-4.1654
X7.378Y-2.5394
X7.378Y-2.5787
X7.378Y-2.6969
X7.378Y-2.7362
X7.3819Y-1.8346
X7.3819Y-1.8976
X7.3819Y-2.0157
X7.3819Y-2.1339
X7.3819Y-2.252
X7.3819Y-2.3701
X7.3819Y-2.4882
X7.3858Y-2.8071
X7.3858Y-2.9252
X7.3858Y-3.0433
X7.3858Y-3.4685
X7.3858Y-3.5866
X7.3858Y-3.7047
T2
X5.4291Y-1.6929
X5.6654Y-1.6929
X5.6693Y-4.252
X5.9016Y-1.6929
X6.174Y-1.6929
X6.274Y-1.6929
X6.374Y-1.6929
T3
X5.4685Y-3.2677
X5.4685Y-3.8976
X6.0591Y-3.2677
X6.0591Y-3.8976
X6.6496Y-3.2677
X6.6496Y-3.8976
X7.2402Y-3.2677
X7.2402Y-3.8976
T4
X5.4685Y-1.8669
X5.4685Y-1.8669
X5.4685Y-2.1488
X5.4685Y-2.1488
X5.4685Y-2.4969
X5.4685Y-2.4969
X5.4685Y-2.7787
X5.4685Y-2.7787
X6.0591Y-1.8669
X6.0591Y-1.8669
X6.0591Y-2.1488
X6.0591Y-2.1488
X6.0591Y-2.4969
X6.0591Y-2.4969
X6.0591Y-2.7787
X6.0591Y-2.7787
X6.6496Y-2.4969
X6.6496Y-2.4969
X6.6496Y-2.7787
X6.6496Y-2.7787
X7.2402Y-2.4969
X7.2402Y-2.4969
X7.2402Y-2.7787
X7.2402Y-2.7787
T5
X5.3685Y-3.1677
X5.3685Y-3.3677
X5.3685Y-3.7976
X5.3685Y-3.9976
X5.5685Y-3.1677
X5.5685Y-3.3677
X5.5685Y-3.7976
X5.5685Y-3.9976
X5.9591Y-3.1677
X5.9591Y-3.3677
X5.9591Y-3.7976
X5.9591Y-3.9976
X6.1591Y-3.1677
X6.1591Y-3.3677
X6.1591Y-3.7976
X6.1591Y-3.9976
X6.5496Y-3.1677
X6.5496Y-3.3677
X6.5496Y-3.7976
X6.5496Y-3.9976
X6.7496Y-3.1677
X6.7496Y-3.3677
X6.7496Y-3.7976
X6.7496Y-3.9976
X7.1402Y-3.1677
X7.1402Y-3.3677
X7.1402Y-3.7976
X7.1402Y-3.9976
X7.3402Y-3.1677
X7.3402Y-3.3677
X7.3402Y-3.7976
X7.3402Y-3.9976
T6
X4.8386Y-1.7323
X4.8386Y-4.2126
T0
M30
