M48
; DRILL file {KiCad 5.1.7-a382d34a8~88~ubuntu16.04.1} date Wed Dec  7 17:33:47 2022
; FORMAT={-:-/ absolute / metric / decimal}
; #@! TF.CreationDate,2022-12-07T17:33:47+01:00
; #@! TF.GenerationSoftware,Kicad,Pcbnew,5.1.7-a382d34a8~88~ubuntu16.04.1
; #@! TF.FileFunction,Plated,1,4,PTH
FMAT,2
METRIC
T1C0.200
T2C1.000
T3C1.500
T4C1.700
T5C2.700
%
G90
G05
T1
X110.5Y-44.5
X110.5Y-47.5
X110.5Y-50.5
X110.5Y-53.5
X110.5Y-56.5
X110.5Y-59.5
X110.5Y-62.5
X110.5Y-65.5
X110.5Y-68.5
X110.5Y-71.5
X110.5Y-74.5
X110.5Y-77.5
X110.5Y-80.5
X110.5Y-83.5
X110.5Y-86.5
X110.5Y-89.5
X110.5Y-92.5
X110.5Y-95.5
X110.5Y-98.5
X110.5Y-101.5
X110.5Y-104.5
X110.5Y-107.5
X111.5Y-109.19
X112.025Y-50.135
X112.025Y-53.945
X112.025Y-55.215
X112.025Y-60.295
X112.025Y-65.375
X112.025Y-66.645
X112.025Y-67.915
X112.025Y-69.185
X112.025Y-70.455
X112.025Y-74.265
X112.025Y-75.535
X112.025Y-79.345
X112.025Y-80.615
X112.025Y-85.695
X112.025Y-86.965
X112.025Y-89.505
X112.025Y-90.775
X112.025Y-94.585
X112.025Y-95.855
X112.025Y-99.665
X113.295Y-50.135
X113.295Y-51.405
X113.295Y-52.675
X113.295Y-56.485
X113.295Y-57.755
X113.295Y-62.835
X113.295Y-67.915
X113.295Y-71.725
X113.295Y-72.995
X113.295Y-76.805
X113.295Y-78.075
X113.295Y-81.885
X113.295Y-83.155
X113.295Y-86.965
X113.295Y-88.235
X113.295Y-92.045
X113.295Y-93.315
X113.295Y-97.125
X113.295Y-98.395
X113.295Y-99.665
X114.565Y-50.135
X114.565Y-53.945
X114.565Y-55.215
X114.565Y-59.025
X114.565Y-60.295
X114.565Y-64.105
X114.565Y-65.375
X114.565Y-69.185
X114.565Y-70.455
X114.565Y-74.265
X114.565Y-75.535
X114.565Y-79.345
X114.565Y-80.615
X114.565Y-84.425
X114.565Y-85.695
X114.565Y-89.505
X114.565Y-92.045
X114.565Y-95.855
X114.565Y-99.665
X115.2Y-43.15
X115.835Y-51.405
X115.835Y-52.675
X115.835Y-53.945
X115.835Y-55.215
X115.835Y-56.48
X115.835Y-57.755
X115.835Y-61.565
X115.835Y-62.835
X115.835Y-66.645
X115.835Y-67.915
X115.835Y-71.725
X115.835Y-72.995
X115.835Y-74.265
X115.835Y-75.535
X115.835Y-76.805
X115.835Y-78.075
X115.835Y-79.345
X115.835Y-80.615
X115.835Y-81.885
X115.835Y-83.155
X115.835Y-86.965
X115.835Y-92.045
X115.835Y-93.315
X115.835Y-97.125
X115.835Y-98.395
X115.97Y-88.37
X117.105Y-50.135
X117.105Y-51.405
X117.105Y-52.675
X117.105Y-53.945
X117.105Y-53.945
X117.105Y-55.215
X117.105Y-56.485
X117.105Y-57.755
X117.105Y-59.025
X117.105Y-60.295
X117.105Y-61.565
X117.105Y-62.835
X117.105Y-64.105
X117.105Y-65.375
X117.105Y-69.185
X117.105Y-70.455
X117.105Y-71.725
X117.105Y-72.995
X117.105Y-74.265
X117.105Y-75.535
X117.105Y-79.345
X117.105Y-80.615
X117.105Y-84.425
X117.105Y-85.695
X117.105Y-89.505
X117.105Y-94.585
X117.105Y-95.855
X117.105Y-99.665
X118.329Y-50.12
X118.375Y-51.405
X118.375Y-52.675
X118.375Y-53.945
X118.375Y-55.215
X118.375Y-56.485
X118.375Y-60.295
X118.375Y-61.565
X118.375Y-62.835
X118.375Y-65.375
X118.375Y-69.185
X118.375Y-72.995
X118.375Y-76.805
X118.375Y-80.615
X118.375Y-84.425
X118.375Y-88.235
X118.375Y-89.505
X118.375Y-90.775
X118.375Y-92.045
X118.375Y-93.315
X118.375Y-98.395
X119.645Y-50.135
X119.645Y-51.405
X119.645Y-52.675
X119.645Y-56.485
X119.645Y-60.295
X119.645Y-64.105
X119.645Y-65.375
X119.645Y-66.645
X119.645Y-67.915
X119.645Y-71.725
X119.645Y-75.535
X119.645Y-79.345
X119.645Y-83.155
X119.645Y-86.965
X119.645Y-90.775
X119.645Y-92.045
X119.645Y-94.585
X119.645Y-95.855
X119.645Y-99.665
X120.915Y-50.135
X120.915Y-52.675
X120.915Y-55.215
X120.915Y-59.025
X120.915Y-61.565
X120.915Y-62.835
X120.915Y-66.645
X120.915Y-69.185
X120.915Y-70.455
X120.915Y-72.995
X120.915Y-74.265
X120.915Y-78.075
X120.915Y-81.885
X120.915Y-84.425
X120.915Y-85.695
X120.915Y-89.505
X120.915Y-93.315
X120.915Y-97.125
X120.915Y-98.395
X120.915Y-100.935
X122.185Y-50.135
X122.185Y-51.405
X122.185Y-52.675
X122.185Y-56.485
X122.185Y-57.755
X122.185Y-60.295
X122.185Y-64.105
X122.185Y-65.375
X122.185Y-67.915
X122.185Y-71.725
X122.185Y-72.995
X122.185Y-75.535
X122.185Y-79.345
X122.185Y-80.615
X122.185Y-83.155
X122.185Y-86.965
X122.185Y-88.235
X122.185Y-89.505
X122.185Y-90.775
X122.185Y-92.045
X122.185Y-93.315
X122.185Y-94.585
X122.185Y-95.855
X122.185Y-99.665
X123.455Y-50.135
X123.455Y-51.405
X123.455Y-52.675
X123.455Y-55.215
X123.455Y-59.025
X123.455Y-61.565
X123.455Y-62.835
X123.455Y-66.645
X123.455Y-70.455
X123.455Y-74.265
X123.455Y-78.075
X123.455Y-81.885
X123.455Y-84.425
X123.455Y-85.695
X123.455Y-89.505
X123.455Y-90.775
X123.455Y-92.045
X123.455Y-93.315
X123.455Y-97.125
X123.455Y-98.395
X124.68Y-50.133
X124.725Y-53.945
X124.725Y-56.485
X124.725Y-57.755
X124.725Y-60.295
X124.725Y-64.105
X124.725Y-65.375
X124.725Y-69.185
X124.725Y-71.725
X124.725Y-72.995
X124.725Y-75.535
X124.725Y-79.345
X124.725Y-80.615
X124.725Y-83.155
X124.725Y-86.965
X124.725Y-88.235
X124.725Y-90.775
X124.725Y-92.045
X124.725Y-94.585
X124.725Y-95.855
X124.725Y-99.665
X125.995Y-51.405
X125.995Y-52.675
X125.995Y-55.215
X125.995Y-59.025
X125.995Y-62.835
X125.995Y-67.915
X125.995Y-69.185
X125.995Y-70.455
X125.995Y-74.265
X125.995Y-78.075
X125.995Y-81.885
X125.995Y-84.425
X125.995Y-85.695
X125.995Y-89.505
X125.995Y-93.315
X125.995Y-97.125
X127.265Y-50.135
X127.265Y-51.405
X127.265Y-53.945
X127.265Y-56.485
X127.265Y-57.755
X127.265Y-61.565
X127.265Y-62.835
X127.265Y-66.645
X127.265Y-67.915
X127.265Y-70.455
X127.265Y-71.725
X127.265Y-72.995
X127.265Y-76.805
X127.265Y-78.075
X127.265Y-81.885
X127.265Y-83.155
X127.265Y-86.965
X127.265Y-88.235
X127.265Y-92.045
X127.265Y-93.315
X127.265Y-97.125
X127.265Y-98.395
X127.265Y-99.665
X128.535Y-50.135
X128.535Y-52.675
X128.535Y-53.945
X128.535Y-55.215
X128.535Y-56.485
X128.535Y-57.755
X128.535Y-59.025
X128.535Y-60.295
X128.535Y-65.375
X128.535Y-69.185
X128.535Y-70.455
X128.535Y-71.725
X128.535Y-72.995
X128.535Y-74.265
X128.535Y-75.535
X128.535Y-79.345
X128.535Y-80.615
X128.535Y-84.425
X128.535Y-85.695
X128.535Y-89.505
X128.535Y-90.775
X128.535Y-94.585
X128.535Y-95.855
X128.535Y-99.665
X129.805Y-65.375
X135.4Y-48.5
X135.4Y-49.5
X135.4Y-52.5
X135.4Y-53.5
X135.4Y-64.5
X135.4Y-65.5
X135.4Y-68.5
X135.4Y-69.5
X142.4Y-48.5
X142.4Y-49.5
X142.4Y-52.5
X142.4Y-53.5
X142.4Y-64.5
X142.4Y-65.5
X142.4Y-68.5
X142.4Y-69.5
X150.4Y-48.5
X150.4Y-49.5
X150.4Y-52.5
X150.4Y-53.5
X150.4Y-64.5
X150.4Y-65.5
X150.4Y-68.5
X150.4Y-69.5
X157.4Y-48.5
X157.4Y-49.5
X157.4Y-52.5
X157.4Y-53.5
X157.4Y-64.5
X157.4Y-65.5
X157.4Y-68.5
X157.4Y-69.5
X159.4Y-48.5
X160.4Y-46.32
X160.4Y-47.0
X160.4Y-48.0
X165.4Y-64.5
X165.4Y-65.5
X165.4Y-68.5
X165.4Y-69.5
X166.4Y-48.0
X169.4Y-47.5
X169.4Y-49.0
X169.4Y-50.5
X169.4Y-46.0
X172.4Y-64.5
X172.4Y-65.5
X172.4Y-68.5
X172.4Y-69.5
X173.4Y-49.0
X173.4Y-50.5
X180.4Y-64.5
X180.4Y-65.5
X180.4Y-68.5
X180.4Y-69.5
X187.4Y-64.5
X187.4Y-65.5
X187.4Y-68.5
X187.4Y-69.5
T2
X144.0Y-108.0
X143.9Y-43.0
T3
X138.9Y-99.0
X183.9Y-83.0
X138.9Y-83.0
X153.9Y-83.0
X183.9Y-99.0
X153.9Y-99.0
X168.9Y-83.0
X168.9Y-99.0
T4
X166.36Y-80.46
X166.36Y-85.54
X171.44Y-80.46
X171.44Y-85.54
X166.36Y-96.46
X166.36Y-101.54
X171.44Y-96.46
X171.44Y-101.54
X136.36Y-96.46
X136.36Y-101.54
X141.44Y-96.46
X141.44Y-101.54
X181.36Y-80.46
X181.36Y-85.54
X186.44Y-80.46
X186.44Y-85.54
X136.36Y-80.46
X136.36Y-85.54
X141.44Y-80.46
X141.44Y-85.54
X151.36Y-80.46
X151.36Y-85.54
X156.44Y-80.46
X156.44Y-85.54
X181.36Y-96.46
X181.36Y-101.54
X186.44Y-96.46
X186.44Y-101.54
X151.36Y-96.46
X151.36Y-101.54
X156.44Y-96.46
X156.44Y-101.54
T5
X122.9Y-107.0
X122.9Y-44.0
T0
M30
