%TF.GenerationSoftware,KiCad,Pcbnew,5.1.7-a382d34a8~88~ubuntu16.04.1*%
%TF.CreationDate,2022-12-07T17:33:48+01:00*%
%TF.ProjectId,fmcp_sma,666d6370-5f73-46d6-912e-6b696361645f,1.0*%
%TF.SameCoordinates,Original*%
%TF.FileFunction,Legend,Bot*%
%TF.FilePolarity,Positive*%
%FSLAX46Y46*%
G04 Gerber Fmt 4.6, Leading zero omitted, Abs format (unit mm)*
G04 Created by KiCad (PCBNEW 5.1.7-a382d34a8~88~ubuntu16.04.1) date 2022-12-07 17:33:48*
%MOMM*%
%LPD*%
G01*
G04 APERTURE LIST*
%ADD10C,0.050000*%
%ADD11C,0.150000*%
%ADD12C,0.300000*%
%ADD13C,0.400000*%
%ADD14C,0.200000*%
%ADD15C,0.120000*%
%ADD16C,1.270000*%
%ADD17C,0.640000*%
%ADD18C,1.550000*%
%ADD19C,0.510000*%
%ADD20C,2.000000*%
%ADD21C,2.250000*%
%ADD22C,2.050000*%
%ADD23C,2.700000*%
%ADD24C,5.400000*%
G04 APERTURE END LIST*
D10*
D11*
X177002200Y-166007200D02*
X177002200Y-198007200D01*
X285002200Y-198007200D01*
X285002200Y-166007200D01*
X177002200Y-166007200D01*
D10*
D11*
X10000000Y-10000000D02*
X10000000Y-200007200D01*
X287002200Y-200007200D01*
X287002200Y-10000000D01*
X10000000Y-10000000D01*
D10*
D11*
X12000000Y-12000000D02*
X12000000Y-198007200D01*
X285002200Y-198007200D01*
X285002200Y-12000000D01*
X12000000Y-12000000D01*
D10*
D11*
X60000000Y-12000000D02*
X60000000Y-10000000D01*
D10*
D11*
X110000000Y-12000000D02*
X110000000Y-10000000D01*
D10*
D11*
X160000000Y-12000000D02*
X160000000Y-10000000D01*
D10*
D11*
X210000000Y-12000000D02*
X210000000Y-10000000D01*
D10*
D11*
X260000000Y-12000000D02*
X260000000Y-10000000D01*
D10*
D11*
X36065476Y-11588095D02*
X35322619Y-11588095D01*
X35694047Y-11588095D02*
X35694047Y-10288095D01*
X35570238Y-10473809D01*
X35446428Y-10597619D01*
X35322619Y-10659523D01*
D10*
D11*
X85322619Y-10411904D02*
X85384523Y-10350000D01*
X85508333Y-10288095D01*
X85817857Y-10288095D01*
X85941666Y-10350000D01*
X86003571Y-10411904D01*
X86065476Y-10535714D01*
X86065476Y-10659523D01*
X86003571Y-10845238D01*
X85260714Y-11588095D01*
X86065476Y-11588095D01*
D10*
D11*
X135260714Y-10288095D02*
X136065476Y-10288095D01*
X135632142Y-10783333D01*
X135817857Y-10783333D01*
X135941666Y-10845238D01*
X136003571Y-10907142D01*
X136065476Y-11030952D01*
X136065476Y-11340476D01*
X136003571Y-11464285D01*
X135941666Y-11526190D01*
X135817857Y-11588095D01*
X135446428Y-11588095D01*
X135322619Y-11526190D01*
X135260714Y-11464285D01*
D10*
D11*
X185941666Y-10721428D02*
X185941666Y-11588095D01*
X185632142Y-10226190D02*
X185322619Y-11154761D01*
X186127380Y-11154761D01*
D10*
D11*
X236003571Y-10288095D02*
X235384523Y-10288095D01*
X235322619Y-10907142D01*
X235384523Y-10845238D01*
X235508333Y-10783333D01*
X235817857Y-10783333D01*
X235941666Y-10845238D01*
X236003571Y-10907142D01*
X236065476Y-11030952D01*
X236065476Y-11340476D01*
X236003571Y-11464285D01*
X235941666Y-11526190D01*
X235817857Y-11588095D01*
X235508333Y-11588095D01*
X235384523Y-11526190D01*
X235322619Y-11464285D01*
D10*
D11*
X285941666Y-10288095D02*
X285694047Y-10288095D01*
X285570238Y-10350000D01*
X285508333Y-10411904D01*
X285384523Y-10597619D01*
X285322619Y-10845238D01*
X285322619Y-11340476D01*
X285384523Y-11464285D01*
X285446428Y-11526190D01*
X285570238Y-11588095D01*
X285817857Y-11588095D01*
X285941666Y-11526190D01*
X286003571Y-11464285D01*
X286065476Y-11340476D01*
X286065476Y-11030952D01*
X286003571Y-10907142D01*
X285941666Y-10845238D01*
X285817857Y-10783333D01*
X285570238Y-10783333D01*
X285446428Y-10845238D01*
X285384523Y-10907142D01*
X285322619Y-11030952D01*
D10*
D11*
X60000000Y-198007200D02*
X60000000Y-200007200D01*
D10*
D11*
X110000000Y-198007200D02*
X110000000Y-200007200D01*
D10*
D11*
X160000000Y-198007200D02*
X160000000Y-200007200D01*
D10*
D11*
X210000000Y-198007200D02*
X210000000Y-200007200D01*
D10*
D11*
X260000000Y-198007200D02*
X260000000Y-200007200D01*
D10*
D11*
X36065476Y-199595295D02*
X35322619Y-199595295D01*
X35694047Y-199595295D02*
X35694047Y-198295295D01*
X35570238Y-198481009D01*
X35446428Y-198604819D01*
X35322619Y-198666723D01*
D10*
D11*
X85322619Y-198419104D02*
X85384523Y-198357200D01*
X85508333Y-198295295D01*
X85817857Y-198295295D01*
X85941666Y-198357200D01*
X86003571Y-198419104D01*
X86065476Y-198542914D01*
X86065476Y-198666723D01*
X86003571Y-198852438D01*
X85260714Y-199595295D01*
X86065476Y-199595295D01*
D10*
D11*
X135260714Y-198295295D02*
X136065476Y-198295295D01*
X135632142Y-198790533D01*
X135817857Y-198790533D01*
X135941666Y-198852438D01*
X136003571Y-198914342D01*
X136065476Y-199038152D01*
X136065476Y-199347676D01*
X136003571Y-199471485D01*
X135941666Y-199533390D01*
X135817857Y-199595295D01*
X135446428Y-199595295D01*
X135322619Y-199533390D01*
X135260714Y-199471485D01*
D10*
D11*
X185941666Y-198728628D02*
X185941666Y-199595295D01*
X185632142Y-198233390D02*
X185322619Y-199161961D01*
X186127380Y-199161961D01*
D10*
D11*
X236003571Y-198295295D02*
X235384523Y-198295295D01*
X235322619Y-198914342D01*
X235384523Y-198852438D01*
X235508333Y-198790533D01*
X235817857Y-198790533D01*
X235941666Y-198852438D01*
X236003571Y-198914342D01*
X236065476Y-199038152D01*
X236065476Y-199347676D01*
X236003571Y-199471485D01*
X235941666Y-199533390D01*
X235817857Y-199595295D01*
X235508333Y-199595295D01*
X235384523Y-199533390D01*
X235322619Y-199471485D01*
D10*
D11*
X285941666Y-198295295D02*
X285694047Y-198295295D01*
X285570238Y-198357200D01*
X285508333Y-198419104D01*
X285384523Y-198604819D01*
X285322619Y-198852438D01*
X285322619Y-199347676D01*
X285384523Y-199471485D01*
X285446428Y-199533390D01*
X285570238Y-199595295D01*
X285817857Y-199595295D01*
X285941666Y-199533390D01*
X286003571Y-199471485D01*
X286065476Y-199347676D01*
X286065476Y-199038152D01*
X286003571Y-198914342D01*
X285941666Y-198852438D01*
X285817857Y-198790533D01*
X285570238Y-198790533D01*
X285446428Y-198852438D01*
X285384523Y-198914342D01*
X285322619Y-199038152D01*
D10*
D11*
X10000000Y-60000000D02*
X12000000Y-60000000D01*
D10*
D11*
X10000000Y-110000000D02*
X12000000Y-110000000D01*
D10*
D11*
X10000000Y-160000000D02*
X12000000Y-160000000D01*
D10*
D11*
X10690476Y-35216666D02*
X11309523Y-35216666D01*
X10566666Y-35588095D02*
X11000000Y-34288095D01*
X11433333Y-35588095D01*
D10*
D11*
X11092857Y-84907142D02*
X11278571Y-84969047D01*
X11340476Y-85030952D01*
X11402380Y-85154761D01*
X11402380Y-85340476D01*
X11340476Y-85464285D01*
X11278571Y-85526190D01*
X11154761Y-85588095D01*
X10659523Y-85588095D01*
X10659523Y-84288095D01*
X11092857Y-84288095D01*
X11216666Y-84350000D01*
X11278571Y-84411904D01*
X11340476Y-84535714D01*
X11340476Y-84659523D01*
X11278571Y-84783333D01*
X11216666Y-84845238D01*
X11092857Y-84907142D01*
X10659523Y-84907142D01*
D10*
D11*
X11402380Y-135464285D02*
X11340476Y-135526190D01*
X11154761Y-135588095D01*
X11030952Y-135588095D01*
X10845238Y-135526190D01*
X10721428Y-135402380D01*
X10659523Y-135278571D01*
X10597619Y-135030952D01*
X10597619Y-134845238D01*
X10659523Y-134597619D01*
X10721428Y-134473809D01*
X10845238Y-134350000D01*
X11030952Y-134288095D01*
X11154761Y-134288095D01*
X11340476Y-134350000D01*
X11402380Y-134411904D01*
D10*
D11*
X10659523Y-185588095D02*
X10659523Y-184288095D01*
X10969047Y-184288095D01*
X11154761Y-184350000D01*
X11278571Y-184473809D01*
X11340476Y-184597619D01*
X11402380Y-184845238D01*
X11402380Y-185030952D01*
X11340476Y-185278571D01*
X11278571Y-185402380D01*
X11154761Y-185526190D01*
X10969047Y-185588095D01*
X10659523Y-185588095D01*
D10*
D11*
X287002200Y-60000000D02*
X285002200Y-60000000D01*
D10*
D11*
X287002200Y-110000000D02*
X285002200Y-110000000D01*
D10*
D11*
X287002200Y-160000000D02*
X285002200Y-160000000D01*
D10*
D11*
X285692676Y-35216666D02*
X286311723Y-35216666D01*
X285568866Y-35588095D02*
X286002200Y-34288095D01*
X286435533Y-35588095D01*
D10*
D11*
X286095057Y-84907142D02*
X286280771Y-84969047D01*
X286342676Y-85030952D01*
X286404580Y-85154761D01*
X286404580Y-85340476D01*
X286342676Y-85464285D01*
X286280771Y-85526190D01*
X286156961Y-85588095D01*
X285661723Y-85588095D01*
X285661723Y-84288095D01*
X286095057Y-84288095D01*
X286218866Y-84350000D01*
X286280771Y-84411904D01*
X286342676Y-84535714D01*
X286342676Y-84659523D01*
X286280771Y-84783333D01*
X286218866Y-84845238D01*
X286095057Y-84907142D01*
X285661723Y-84907142D01*
D10*
D11*
X286404580Y-135464285D02*
X286342676Y-135526190D01*
X286156961Y-135588095D01*
X286033152Y-135588095D01*
X285847438Y-135526190D01*
X285723628Y-135402380D01*
X285661723Y-135278571D01*
X285599819Y-135030952D01*
X285599819Y-134845238D01*
X285661723Y-134597619D01*
X285723628Y-134473809D01*
X285847438Y-134350000D01*
X286033152Y-134288095D01*
X286156961Y-134288095D01*
X286342676Y-134350000D01*
X286404580Y-134411904D01*
D10*
D11*
X285661723Y-185588095D02*
X285661723Y-184288095D01*
X285971247Y-184288095D01*
X286156961Y-184350000D01*
X286280771Y-184473809D01*
X286342676Y-184597619D01*
X286404580Y-184845238D01*
X286404580Y-185030952D01*
X286342676Y-185278571D01*
X286280771Y-185402380D01*
X286156961Y-185526190D01*
X285971247Y-185588095D01*
X285661723Y-185588095D01*
D10*
D11*
X200434342Y-193785771D02*
X200434342Y-192285771D01*
X200791485Y-192285771D01*
X201005771Y-192357200D01*
X201148628Y-192500057D01*
X201220057Y-192642914D01*
X201291485Y-192928628D01*
X201291485Y-193142914D01*
X201220057Y-193428628D01*
X201148628Y-193571485D01*
X201005771Y-193714342D01*
X200791485Y-193785771D01*
X200434342Y-193785771D01*
X202577200Y-193785771D02*
X202577200Y-193000057D01*
X202505771Y-192857200D01*
X202362914Y-192785771D01*
X202077200Y-192785771D01*
X201934342Y-192857200D01*
X202577200Y-193714342D02*
X202434342Y-193785771D01*
X202077200Y-193785771D01*
X201934342Y-193714342D01*
X201862914Y-193571485D01*
X201862914Y-193428628D01*
X201934342Y-193285771D01*
X202077200Y-193214342D01*
X202434342Y-193214342D01*
X202577200Y-193142914D01*
X203077200Y-192785771D02*
X203648628Y-192785771D01*
X203291485Y-192285771D02*
X203291485Y-193571485D01*
X203362914Y-193714342D01*
X203505771Y-193785771D01*
X203648628Y-193785771D01*
X204720057Y-193714342D02*
X204577200Y-193785771D01*
X204291485Y-193785771D01*
X204148628Y-193714342D01*
X204077200Y-193571485D01*
X204077200Y-193000057D01*
X204148628Y-192857200D01*
X204291485Y-192785771D01*
X204577200Y-192785771D01*
X204720057Y-192857200D01*
X204791485Y-193000057D01*
X204791485Y-193142914D01*
X204077200Y-193285771D01*
X205434342Y-193642914D02*
X205505771Y-193714342D01*
X205434342Y-193785771D01*
X205362914Y-193714342D01*
X205434342Y-193642914D01*
X205434342Y-193785771D01*
X205434342Y-192857200D02*
X205505771Y-192928628D01*
X205434342Y-193000057D01*
X205362914Y-192928628D01*
X205434342Y-192857200D01*
X205434342Y-193000057D01*
X207220057Y-192428628D02*
X207291485Y-192357200D01*
X207434342Y-192285771D01*
X207791485Y-192285771D01*
X207934342Y-192357200D01*
X208005771Y-192428628D01*
X208077200Y-192571485D01*
X208077200Y-192714342D01*
X208005771Y-192928628D01*
X207148628Y-193785771D01*
X208077200Y-193785771D01*
X209005771Y-192285771D02*
X209148628Y-192285771D01*
X209291485Y-192357200D01*
X209362914Y-192428628D01*
X209434342Y-192571485D01*
X209505771Y-192857200D01*
X209505771Y-193214342D01*
X209434342Y-193500057D01*
X209362914Y-193642914D01*
X209291485Y-193714342D01*
X209148628Y-193785771D01*
X209005771Y-193785771D01*
X208862914Y-193714342D01*
X208791485Y-193642914D01*
X208720057Y-193500057D01*
X208648628Y-193214342D01*
X208648628Y-192857200D01*
X208720057Y-192571485D01*
X208791485Y-192428628D01*
X208862914Y-192357200D01*
X209005771Y-192285771D01*
X210077200Y-192428628D02*
X210148628Y-192357200D01*
X210291485Y-192285771D01*
X210648628Y-192285771D01*
X210791485Y-192357200D01*
X210862914Y-192428628D01*
X210934342Y-192571485D01*
X210934342Y-192714342D01*
X210862914Y-192928628D01*
X210005771Y-193785771D01*
X210934342Y-193785771D01*
X211505771Y-192428628D02*
X211577200Y-192357200D01*
X211720057Y-192285771D01*
X212077200Y-192285771D01*
X212220057Y-192357200D01*
X212291485Y-192428628D01*
X212362914Y-192571485D01*
X212362914Y-192714342D01*
X212291485Y-192928628D01*
X211434342Y-193785771D01*
X212362914Y-193785771D01*
X213005771Y-193214342D02*
X214148628Y-193214342D01*
X215648628Y-193785771D02*
X214791485Y-193785771D01*
X215220057Y-193785771D02*
X215220057Y-192285771D01*
X215077200Y-192500057D01*
X214934342Y-192642914D01*
X214791485Y-192714342D01*
X216220057Y-192428628D02*
X216291485Y-192357200D01*
X216434342Y-192285771D01*
X216791485Y-192285771D01*
X216934342Y-192357200D01*
X217005771Y-192428628D01*
X217077200Y-192571485D01*
X217077200Y-192714342D01*
X217005771Y-192928628D01*
X216148628Y-193785771D01*
X217077200Y-193785771D01*
X217720057Y-193214342D02*
X218862914Y-193214342D01*
X219862914Y-192285771D02*
X220005771Y-192285771D01*
X220148628Y-192357200D01*
X220220057Y-192428628D01*
X220291485Y-192571485D01*
X220362914Y-192857200D01*
X220362914Y-193214342D01*
X220291485Y-193500057D01*
X220220057Y-193642914D01*
X220148628Y-193714342D01*
X220005771Y-193785771D01*
X219862914Y-193785771D01*
X219720057Y-193714342D01*
X219648628Y-193642914D01*
X219577200Y-193500057D01*
X219505771Y-193214342D01*
X219505771Y-192857200D01*
X219577200Y-192571485D01*
X219648628Y-192428628D01*
X219720057Y-192357200D01*
X219862914Y-192285771D01*
X220862914Y-192285771D02*
X221862914Y-192285771D01*
X221220057Y-193785771D01*
D10*
D11*
X177002200Y-194507200D02*
X285002200Y-194507200D01*
D10*
D11*
X178434342Y-196585771D02*
X178434342Y-195085771D01*
X179291485Y-196585771D02*
X178648628Y-195728628D01*
X179291485Y-195085771D02*
X178434342Y-195942914D01*
X179934342Y-196585771D02*
X179934342Y-195585771D01*
X179934342Y-195085771D02*
X179862914Y-195157200D01*
X179934342Y-195228628D01*
X180005771Y-195157200D01*
X179934342Y-195085771D01*
X179934342Y-195228628D01*
X181505771Y-196442914D02*
X181434342Y-196514342D01*
X181220057Y-196585771D01*
X181077200Y-196585771D01*
X180862914Y-196514342D01*
X180720057Y-196371485D01*
X180648628Y-196228628D01*
X180577200Y-195942914D01*
X180577200Y-195728628D01*
X180648628Y-195442914D01*
X180720057Y-195300057D01*
X180862914Y-195157200D01*
X181077200Y-195085771D01*
X181220057Y-195085771D01*
X181434342Y-195157200D01*
X181505771Y-195228628D01*
X182791485Y-196585771D02*
X182791485Y-195800057D01*
X182720057Y-195657200D01*
X182577200Y-195585771D01*
X182291485Y-195585771D01*
X182148628Y-195657200D01*
X182791485Y-196514342D02*
X182648628Y-196585771D01*
X182291485Y-196585771D01*
X182148628Y-196514342D01*
X182077200Y-196371485D01*
X182077200Y-196228628D01*
X182148628Y-196085771D01*
X182291485Y-196014342D01*
X182648628Y-196014342D01*
X182791485Y-195942914D01*
X184148628Y-196585771D02*
X184148628Y-195085771D01*
X184148628Y-196514342D02*
X184005771Y-196585771D01*
X183720057Y-196585771D01*
X183577200Y-196514342D01*
X183505771Y-196442914D01*
X183434342Y-196300057D01*
X183434342Y-195871485D01*
X183505771Y-195728628D01*
X183577200Y-195657200D01*
X183720057Y-195585771D01*
X184005771Y-195585771D01*
X184148628Y-195657200D01*
X186005771Y-195800057D02*
X186505771Y-195800057D01*
X186720057Y-196585771D02*
X186005771Y-196585771D01*
X186005771Y-195085771D01*
X186720057Y-195085771D01*
X187362914Y-196442914D02*
X187434342Y-196514342D01*
X187362914Y-196585771D01*
X187291485Y-196514342D01*
X187362914Y-196442914D01*
X187362914Y-196585771D01*
X188077200Y-196585771D02*
X188077200Y-195085771D01*
X188434342Y-195085771D01*
X188648628Y-195157200D01*
X188791485Y-195300057D01*
X188862914Y-195442914D01*
X188934342Y-195728628D01*
X188934342Y-195942914D01*
X188862914Y-196228628D01*
X188791485Y-196371485D01*
X188648628Y-196514342D01*
X188434342Y-196585771D01*
X188077200Y-196585771D01*
X189577200Y-196442914D02*
X189648628Y-196514342D01*
X189577200Y-196585771D01*
X189505771Y-196514342D01*
X189577200Y-196442914D01*
X189577200Y-196585771D01*
X190220057Y-196157200D02*
X190934342Y-196157200D01*
X190077200Y-196585771D02*
X190577200Y-195085771D01*
X191077200Y-196585771D01*
X191577200Y-196442914D02*
X191648628Y-196514342D01*
X191577200Y-196585771D01*
X191505771Y-196514342D01*
X191577200Y-196442914D01*
X191577200Y-196585771D01*
X194577200Y-196585771D02*
X194577200Y-195085771D01*
X194720057Y-196014342D02*
X195148628Y-196585771D01*
X195148628Y-195585771D02*
X194577200Y-196157200D01*
X195791485Y-196585771D02*
X195791485Y-195585771D01*
X195791485Y-195085771D02*
X195720057Y-195157200D01*
X195791485Y-195228628D01*
X195862914Y-195157200D01*
X195791485Y-195085771D01*
X195791485Y-195228628D01*
X197148628Y-196514342D02*
X197005771Y-196585771D01*
X196720057Y-196585771D01*
X196577200Y-196514342D01*
X196505771Y-196442914D01*
X196434342Y-196300057D01*
X196434342Y-195871485D01*
X196505771Y-195728628D01*
X196577200Y-195657200D01*
X196720057Y-195585771D01*
X197005771Y-195585771D01*
X197148628Y-195657200D01*
X198434342Y-196585771D02*
X198434342Y-195800057D01*
X198362914Y-195657200D01*
X198220057Y-195585771D01*
X197934342Y-195585771D01*
X197791485Y-195657200D01*
X198434342Y-196514342D02*
X198291485Y-196585771D01*
X197934342Y-196585771D01*
X197791485Y-196514342D01*
X197720057Y-196371485D01*
X197720057Y-196228628D01*
X197791485Y-196085771D01*
X197934342Y-196014342D01*
X198291485Y-196014342D01*
X198434342Y-195942914D01*
X199791485Y-196585771D02*
X199791485Y-195085771D01*
X199791485Y-196514342D02*
X199648628Y-196585771D01*
X199362914Y-196585771D01*
X199220057Y-196514342D01*
X199148628Y-196442914D01*
X199077200Y-196300057D01*
X199077200Y-195871485D01*
X199148628Y-195728628D01*
X199220057Y-195657200D01*
X199362914Y-195585771D01*
X199648628Y-195585771D01*
X199791485Y-195657200D01*
X202362914Y-195085771D02*
X201648628Y-195085771D01*
X201577200Y-195800057D01*
X201648628Y-195728628D01*
X201791485Y-195657200D01*
X202148628Y-195657200D01*
X202291485Y-195728628D01*
X202362914Y-195800057D01*
X202434342Y-195942914D01*
X202434342Y-196300057D01*
X202362914Y-196442914D01*
X202291485Y-196514342D01*
X202148628Y-196585771D01*
X201791485Y-196585771D01*
X201648628Y-196514342D01*
X201577200Y-196442914D01*
X203077200Y-196442914D02*
X203148628Y-196514342D01*
X203077200Y-196585771D01*
X203005771Y-196514342D01*
X203077200Y-196442914D01*
X203077200Y-196585771D01*
X204577200Y-196585771D02*
X203720057Y-196585771D01*
X204148628Y-196585771D02*
X204148628Y-195085771D01*
X204005771Y-195300057D01*
X203862914Y-195442914D01*
X203720057Y-195514342D01*
X205220057Y-196442914D02*
X205291485Y-196514342D01*
X205220057Y-196585771D01*
X205148628Y-196514342D01*
X205220057Y-196442914D01*
X205220057Y-196585771D01*
X205791485Y-195085771D02*
X206791485Y-195085771D01*
X206148628Y-196585771D01*
X207362914Y-196014342D02*
X208505771Y-196014342D01*
X209862914Y-196585771D02*
X209862914Y-195800057D01*
X209791485Y-195657200D01*
X209648628Y-195585771D01*
X209362914Y-195585771D01*
X209220057Y-195657200D01*
X209862914Y-196514342D02*
X209720057Y-196585771D01*
X209362914Y-196585771D01*
X209220057Y-196514342D01*
X209148628Y-196371485D01*
X209148628Y-196228628D01*
X209220057Y-196085771D01*
X209362914Y-196014342D01*
X209720057Y-196014342D01*
X209862914Y-195942914D01*
X210434342Y-195085771D02*
X211362914Y-195085771D01*
X210862914Y-195657200D01*
X211077200Y-195657200D01*
X211220057Y-195728628D01*
X211291485Y-195800057D01*
X211362914Y-195942914D01*
X211362914Y-196300057D01*
X211291485Y-196442914D01*
X211220057Y-196514342D01*
X211077200Y-196585771D01*
X210648628Y-196585771D01*
X210505771Y-196514342D01*
X210434342Y-196442914D01*
X212220057Y-195728628D02*
X212077200Y-195657200D01*
X212005771Y-195585771D01*
X211934342Y-195442914D01*
X211934342Y-195371485D01*
X212005771Y-195228628D01*
X212077200Y-195157200D01*
X212220057Y-195085771D01*
X212505771Y-195085771D01*
X212648628Y-195157200D01*
X212720057Y-195228628D01*
X212791485Y-195371485D01*
X212791485Y-195442914D01*
X212720057Y-195585771D01*
X212648628Y-195657200D01*
X212505771Y-195728628D01*
X212220057Y-195728628D01*
X212077200Y-195800057D01*
X212005771Y-195871485D01*
X211934342Y-196014342D01*
X211934342Y-196300057D01*
X212005771Y-196442914D01*
X212077200Y-196514342D01*
X212220057Y-196585771D01*
X212505771Y-196585771D01*
X212648628Y-196514342D01*
X212720057Y-196442914D01*
X212791485Y-196300057D01*
X212791485Y-196014342D01*
X212720057Y-195871485D01*
X212648628Y-195800057D01*
X212505771Y-195728628D01*
X213362914Y-195228628D02*
X213434342Y-195157200D01*
X213577200Y-195085771D01*
X213934342Y-195085771D01*
X214077200Y-195157200D01*
X214148628Y-195228628D01*
X214220057Y-195371485D01*
X214220057Y-195514342D01*
X214148628Y-195728628D01*
X213291485Y-196585771D01*
X214220057Y-196585771D01*
X215505771Y-196585771D02*
X215505771Y-195085771D01*
X215505771Y-196514342D02*
X215362914Y-196585771D01*
X215077200Y-196585771D01*
X214934342Y-196514342D01*
X214862914Y-196442914D01*
X214791485Y-196300057D01*
X214791485Y-195871485D01*
X214862914Y-195728628D01*
X214934342Y-195657200D01*
X215077200Y-195585771D01*
X215362914Y-195585771D01*
X215505771Y-195657200D01*
X216077200Y-195085771D02*
X217005771Y-195085771D01*
X216505771Y-195657200D01*
X216720057Y-195657200D01*
X216862914Y-195728628D01*
X216934342Y-195800057D01*
X217005771Y-195942914D01*
X217005771Y-196300057D01*
X216934342Y-196442914D01*
X216862914Y-196514342D01*
X216720057Y-196585771D01*
X216291485Y-196585771D01*
X216148628Y-196514342D01*
X216077200Y-196442914D01*
X218291485Y-195585771D02*
X218291485Y-196585771D01*
X217934342Y-195014342D02*
X217577200Y-196085771D01*
X218505771Y-196085771D01*
X219720057Y-196585771D02*
X219720057Y-195800057D01*
X219648628Y-195657200D01*
X219505771Y-195585771D01*
X219220057Y-195585771D01*
X219077200Y-195657200D01*
X219720057Y-196514342D02*
X219577200Y-196585771D01*
X219220057Y-196585771D01*
X219077200Y-196514342D01*
X219005771Y-196371485D01*
X219005771Y-196228628D01*
X219077200Y-196085771D01*
X219220057Y-196014342D01*
X219577200Y-196014342D01*
X219720057Y-195942914D01*
X220648628Y-195728628D02*
X220505771Y-195657200D01*
X220434342Y-195585771D01*
X220362914Y-195442914D01*
X220362914Y-195371485D01*
X220434342Y-195228628D01*
X220505771Y-195157200D01*
X220648628Y-195085771D01*
X220934342Y-195085771D01*
X221077200Y-195157200D01*
X221148628Y-195228628D01*
X221220057Y-195371485D01*
X221220057Y-195442914D01*
X221148628Y-195585771D01*
X221077200Y-195657200D01*
X220934342Y-195728628D01*
X220648628Y-195728628D01*
X220505771Y-195800057D01*
X220434342Y-195871485D01*
X220362914Y-196014342D01*
X220362914Y-196300057D01*
X220434342Y-196442914D01*
X220505771Y-196514342D01*
X220648628Y-196585771D01*
X220934342Y-196585771D01*
X221077200Y-196514342D01*
X221148628Y-196442914D01*
X221220057Y-196300057D01*
X221220057Y-196014342D01*
X221148628Y-195871485D01*
X221077200Y-195800057D01*
X220934342Y-195728628D01*
X221505771Y-194677200D02*
X222934342Y-194677200D01*
X222077200Y-195728628D02*
X221934342Y-195657200D01*
X221862914Y-195585771D01*
X221791485Y-195442914D01*
X221791485Y-195371485D01*
X221862914Y-195228628D01*
X221934342Y-195157200D01*
X222077200Y-195085771D01*
X222362914Y-195085771D01*
X222505771Y-195157200D01*
X222577200Y-195228628D01*
X222648628Y-195371485D01*
X222648628Y-195442914D01*
X222577200Y-195585771D01*
X222505771Y-195657200D01*
X222362914Y-195728628D01*
X222077200Y-195728628D01*
X221934342Y-195800057D01*
X221862914Y-195871485D01*
X221791485Y-196014342D01*
X221791485Y-196300057D01*
X221862914Y-196442914D01*
X221934342Y-196514342D01*
X222077200Y-196585771D01*
X222362914Y-196585771D01*
X222505771Y-196514342D01*
X222577200Y-196442914D01*
X222648628Y-196300057D01*
X222648628Y-196014342D01*
X222577200Y-195871485D01*
X222505771Y-195800057D01*
X222362914Y-195728628D01*
X222934342Y-194677200D02*
X224362914Y-194677200D01*
X223505771Y-195728628D02*
X223362914Y-195657200D01*
X223291485Y-195585771D01*
X223220057Y-195442914D01*
X223220057Y-195371485D01*
X223291485Y-195228628D01*
X223362914Y-195157200D01*
X223505771Y-195085771D01*
X223791485Y-195085771D01*
X223934342Y-195157200D01*
X224005771Y-195228628D01*
X224077199Y-195371485D01*
X224077199Y-195442914D01*
X224005771Y-195585771D01*
X223934342Y-195657200D01*
X223791485Y-195728628D01*
X223505771Y-195728628D01*
X223362914Y-195800057D01*
X223291485Y-195871485D01*
X223220057Y-196014342D01*
X223220057Y-196300057D01*
X223291485Y-196442914D01*
X223362914Y-196514342D01*
X223505771Y-196585771D01*
X223791485Y-196585771D01*
X223934342Y-196514342D01*
X224005771Y-196442914D01*
X224077199Y-196300057D01*
X224077199Y-196014342D01*
X224005771Y-195871485D01*
X223934342Y-195800057D01*
X223791485Y-195728628D01*
X225362914Y-195585771D02*
X225362914Y-196585771D01*
X224720057Y-195585771D02*
X224720057Y-196371485D01*
X224791485Y-196514342D01*
X224934342Y-196585771D01*
X225148628Y-196585771D01*
X225291485Y-196514342D01*
X225362914Y-196442914D01*
X226077199Y-196585771D02*
X226077199Y-195085771D01*
X226077199Y-195657200D02*
X226220057Y-195585771D01*
X226505771Y-195585771D01*
X226648628Y-195657200D01*
X226720057Y-195728628D01*
X226791485Y-195871485D01*
X226791485Y-196300057D01*
X226720057Y-196442914D01*
X226648628Y-196514342D01*
X226505771Y-196585771D01*
X226220057Y-196585771D01*
X226077199Y-196514342D01*
X228077199Y-195585771D02*
X228077199Y-196585771D01*
X227434342Y-195585771D02*
X227434342Y-196371485D01*
X227505771Y-196514342D01*
X227648628Y-196585771D01*
X227862914Y-196585771D01*
X228005771Y-196514342D01*
X228077199Y-196442914D01*
X228791485Y-195585771D02*
X228791485Y-196585771D01*
X228791485Y-195728628D02*
X228862914Y-195657200D01*
X229005771Y-195585771D01*
X229220057Y-195585771D01*
X229362914Y-195657200D01*
X229434342Y-195800057D01*
X229434342Y-196585771D01*
X229934342Y-195585771D02*
X230505771Y-195585771D01*
X230148628Y-195085771D02*
X230148628Y-196371485D01*
X230220057Y-196514342D01*
X230362914Y-196585771D01*
X230505771Y-196585771D01*
X231648628Y-195585771D02*
X231648628Y-196585771D01*
X231005771Y-195585771D02*
X231005771Y-196371485D01*
X231077199Y-196514342D01*
X231220057Y-196585771D01*
X231434342Y-196585771D01*
X231577199Y-196514342D01*
X231648628Y-196442914D01*
X233148628Y-196585771D02*
X232291485Y-196585771D01*
X232720057Y-196585771D02*
X232720057Y-195085771D01*
X232577200Y-195300057D01*
X232434342Y-195442914D01*
X232291485Y-195514342D01*
X234434342Y-195085771D02*
X234148628Y-195085771D01*
X234005771Y-195157200D01*
X233934342Y-195228628D01*
X233791485Y-195442914D01*
X233720057Y-195728628D01*
X233720057Y-196300057D01*
X233791485Y-196442914D01*
X233862914Y-196514342D01*
X234005771Y-196585771D01*
X234291485Y-196585771D01*
X234434342Y-196514342D01*
X234505771Y-196442914D01*
X234577199Y-196300057D01*
X234577199Y-195942914D01*
X234505771Y-195800057D01*
X234434342Y-195728628D01*
X234291485Y-195657200D01*
X234005771Y-195657200D01*
X233862914Y-195728628D01*
X233791485Y-195800057D01*
X233720057Y-195942914D01*
X235220057Y-196442914D02*
X235291485Y-196514342D01*
X235220057Y-196585771D01*
X235148628Y-196514342D01*
X235220057Y-196442914D01*
X235220057Y-196585771D01*
X236220057Y-195085771D02*
X236362914Y-195085771D01*
X236505771Y-195157200D01*
X236577199Y-195228628D01*
X236648628Y-195371485D01*
X236720057Y-195657200D01*
X236720057Y-196014342D01*
X236648628Y-196300057D01*
X236577199Y-196442914D01*
X236505771Y-196514342D01*
X236362914Y-196585771D01*
X236220057Y-196585771D01*
X236077199Y-196514342D01*
X236005771Y-196442914D01*
X235934342Y-196300057D01*
X235862914Y-196014342D01*
X235862914Y-195657200D01*
X235934342Y-195371485D01*
X236005771Y-195228628D01*
X236077199Y-195157200D01*
X236220057Y-195085771D01*
X238005771Y-195585771D02*
X238005771Y-196585771D01*
X237648628Y-195014342D02*
X237291485Y-196085771D01*
X238220057Y-196085771D01*
X238791485Y-196442914D02*
X238862914Y-196514342D01*
X238791485Y-196585771D01*
X238720057Y-196514342D01*
X238791485Y-196442914D01*
X238791485Y-196585771D01*
X240291485Y-196585771D02*
X239434342Y-196585771D01*
X239862914Y-196585771D02*
X239862914Y-195085771D01*
X239720057Y-195300057D01*
X239577199Y-195442914D01*
X239434342Y-195514342D01*
D10*
D11*
X177002200Y-191507200D02*
X285002200Y-191507200D01*
D10*
D12*
X264411485Y-193785771D02*
X263911485Y-193071485D01*
X263554342Y-193785771D02*
X263554342Y-192285771D01*
X264125771Y-192285771D01*
X264268628Y-192357200D01*
X264340057Y-192428628D01*
X264411485Y-192571485D01*
X264411485Y-192785771D01*
X264340057Y-192928628D01*
X264268628Y-193000057D01*
X264125771Y-193071485D01*
X263554342Y-193071485D01*
X265625771Y-193714342D02*
X265482914Y-193785771D01*
X265197200Y-193785771D01*
X265054342Y-193714342D01*
X264982914Y-193571485D01*
X264982914Y-193000057D01*
X265054342Y-192857200D01*
X265197200Y-192785771D01*
X265482914Y-192785771D01*
X265625771Y-192857200D01*
X265697200Y-193000057D01*
X265697200Y-193142914D01*
X264982914Y-193285771D01*
X266197200Y-192785771D02*
X266554342Y-193785771D01*
X266911485Y-192785771D01*
X267482914Y-193642914D02*
X267554342Y-193714342D01*
X267482914Y-193785771D01*
X267411485Y-193714342D01*
X267482914Y-193642914D01*
X267482914Y-193785771D01*
X267482914Y-192857200D02*
X267554342Y-192928628D01*
X267482914Y-193000057D01*
X267411485Y-192928628D01*
X267482914Y-192857200D01*
X267482914Y-193000057D01*
X270125771Y-193785771D02*
X269268628Y-193785771D01*
X269697200Y-193785771D02*
X269697200Y-192285771D01*
X269554342Y-192500057D01*
X269411485Y-192642914D01*
X269268628Y-192714342D01*
X270768628Y-193642914D02*
X270840057Y-193714342D01*
X270768628Y-193785771D01*
X270697200Y-193714342D01*
X270768628Y-193642914D01*
X270768628Y-193785771D01*
X271768628Y-192285771D02*
X271911485Y-192285771D01*
X272054342Y-192357200D01*
X272125771Y-192428628D01*
X272197200Y-192571485D01*
X272268628Y-192857200D01*
X272268628Y-193214342D01*
X272197200Y-193500057D01*
X272125771Y-193642914D01*
X272054342Y-193714342D01*
X271911485Y-193785771D01*
X271768628Y-193785771D01*
X271625771Y-193714342D01*
X271554342Y-193642914D01*
X271482914Y-193500057D01*
X271411485Y-193214342D01*
X271411485Y-192857200D01*
X271482914Y-192571485D01*
X271554342Y-192428628D01*
X271625771Y-192357200D01*
X271768628Y-192285771D01*
D10*
D11*
X178362914Y-193714342D02*
X178577200Y-193785771D01*
X178934342Y-193785771D01*
X179077200Y-193714342D01*
X179148628Y-193642914D01*
X179220057Y-193500057D01*
X179220057Y-193357200D01*
X179148628Y-193214342D01*
X179077200Y-193142914D01*
X178934342Y-193071485D01*
X178648628Y-193000057D01*
X178505771Y-192928628D01*
X178434342Y-192857200D01*
X178362914Y-192714342D01*
X178362914Y-192571485D01*
X178434342Y-192428628D01*
X178505771Y-192357200D01*
X178648628Y-192285771D01*
X179005771Y-192285771D01*
X179220057Y-192357200D01*
X179862914Y-193785771D02*
X179862914Y-192785771D01*
X179862914Y-192285771D02*
X179791485Y-192357200D01*
X179862914Y-192428628D01*
X179934342Y-192357200D01*
X179862914Y-192285771D01*
X179862914Y-192428628D01*
X180434342Y-192785771D02*
X181220057Y-192785771D01*
X180434342Y-193785771D01*
X181220057Y-193785771D01*
X182362914Y-193714342D02*
X182220057Y-193785771D01*
X181934342Y-193785771D01*
X181791485Y-193714342D01*
X181720057Y-193571485D01*
X181720057Y-193000057D01*
X181791485Y-192857200D01*
X181934342Y-192785771D01*
X182220057Y-192785771D01*
X182362914Y-192857200D01*
X182434342Y-193000057D01*
X182434342Y-193142914D01*
X181720057Y-193285771D01*
X183077200Y-193642914D02*
X183148628Y-193714342D01*
X183077200Y-193785771D01*
X183005771Y-193714342D01*
X183077200Y-193642914D01*
X183077200Y-193785771D01*
X183077200Y-192857200D02*
X183148628Y-192928628D01*
X183077200Y-193000057D01*
X183005771Y-192928628D01*
X183077200Y-192857200D01*
X183077200Y-193000057D01*
X184862914Y-193357200D02*
X185577200Y-193357200D01*
X184720057Y-193785771D02*
X185220057Y-192285771D01*
X185720057Y-193785771D01*
X186862914Y-192785771D02*
X186862914Y-193785771D01*
X186505771Y-192214342D02*
X186148628Y-193285771D01*
X187077200Y-193285771D01*
D10*
D11*
X263434342Y-196585771D02*
X263434342Y-195085771D01*
X264791485Y-196585771D02*
X264791485Y-195085771D01*
X264791485Y-196514342D02*
X264648628Y-196585771D01*
X264362914Y-196585771D01*
X264220057Y-196514342D01*
X264148628Y-196442914D01*
X264077200Y-196300057D01*
X264077200Y-195871485D01*
X264148628Y-195728628D01*
X264220057Y-195657200D01*
X264362914Y-195585771D01*
X264648628Y-195585771D01*
X264791485Y-195657200D01*
X265505771Y-196442914D02*
X265577200Y-196514342D01*
X265505771Y-196585771D01*
X265434342Y-196514342D01*
X265505771Y-196442914D01*
X265505771Y-196585771D01*
X265505771Y-195657200D02*
X265577200Y-195728628D01*
X265505771Y-195800057D01*
X265434342Y-195728628D01*
X265505771Y-195657200D01*
X265505771Y-195800057D01*
X268148628Y-196585771D02*
X267291485Y-196585771D01*
X267720057Y-196585771D02*
X267720057Y-195085771D01*
X267577200Y-195300057D01*
X267434342Y-195442914D01*
X267291485Y-195514342D01*
X269862914Y-195014342D02*
X268577200Y-196942914D01*
X271148628Y-196585771D02*
X270291485Y-196585771D01*
X270720057Y-196585771D02*
X270720057Y-195085771D01*
X270577200Y-195300057D01*
X270434342Y-195442914D01*
X270291485Y-195514342D01*
D10*
D11*
X177002200Y-187507200D02*
X285002200Y-187507200D01*
D10*
D13*
X178714580Y-188211961D02*
X179857438Y-188211961D01*
X179036009Y-190211961D02*
X179286009Y-188211961D01*
X180274104Y-190211961D02*
X180440771Y-188878628D01*
X180524104Y-188211961D02*
X180416961Y-188307200D01*
X180500295Y-188402438D01*
X180607438Y-188307200D01*
X180524104Y-188211961D01*
X180500295Y-188402438D01*
X181107438Y-188878628D02*
X181869342Y-188878628D01*
X181476485Y-188211961D02*
X181262200Y-189926247D01*
X181333628Y-190116723D01*
X181512200Y-190211961D01*
X181702676Y-190211961D01*
X182655057Y-190211961D02*
X182476485Y-190116723D01*
X182405057Y-189926247D01*
X182619342Y-188211961D01*
X184190771Y-190116723D02*
X183988390Y-190211961D01*
X183607438Y-190211961D01*
X183428866Y-190116723D01*
X183357438Y-189926247D01*
X183452676Y-189164342D01*
X183571723Y-188973866D01*
X183774104Y-188878628D01*
X184155057Y-188878628D01*
X184333628Y-188973866D01*
X184405057Y-189164342D01*
X184381247Y-189354819D01*
X183405057Y-189545295D01*
X185155057Y-190021485D02*
X185238390Y-190116723D01*
X185131247Y-190211961D01*
X185047914Y-190116723D01*
X185155057Y-190021485D01*
X185131247Y-190211961D01*
X185286009Y-188973866D02*
X185369342Y-189069104D01*
X185262200Y-189164342D01*
X185178866Y-189069104D01*
X185286009Y-188973866D01*
X185262200Y-189164342D01*
X188405057Y-189164342D02*
X187738390Y-189164342D01*
X187607438Y-190211961D02*
X187857438Y-188211961D01*
X188809819Y-188211961D01*
X189321723Y-190211961D02*
X189571723Y-188211961D01*
X190059819Y-189640533D01*
X190905057Y-188211961D01*
X190655057Y-190211961D01*
X192774104Y-190021485D02*
X192666961Y-190116723D01*
X192369342Y-190211961D01*
X192178866Y-190211961D01*
X191905057Y-190116723D01*
X191738390Y-189926247D01*
X191666961Y-189735771D01*
X191619342Y-189354819D01*
X191655057Y-189069104D01*
X191797914Y-188688152D01*
X191916961Y-188497676D01*
X192131247Y-188307200D01*
X192428866Y-188211961D01*
X192619342Y-188211961D01*
X192893152Y-188307200D01*
X192976485Y-188402438D01*
X193702676Y-189450057D02*
X195226485Y-189450057D01*
X194369342Y-190211961D02*
X194559819Y-188688152D01*
X197524104Y-190116723D02*
X197797914Y-190211961D01*
X198274104Y-190211961D01*
X198476485Y-190116723D01*
X198583628Y-190021485D01*
X198702676Y-189831009D01*
X198726485Y-189640533D01*
X198655057Y-189450057D01*
X198571723Y-189354819D01*
X198393152Y-189259580D01*
X198024104Y-189164342D01*
X197845533Y-189069104D01*
X197762200Y-188973866D01*
X197690771Y-188783390D01*
X197714580Y-188592914D01*
X197833628Y-188402438D01*
X197940771Y-188307200D01*
X198143152Y-188211961D01*
X198619342Y-188211961D01*
X198893152Y-188307200D01*
X199512200Y-190211961D02*
X199762200Y-188211961D01*
X200250295Y-189640533D01*
X201095533Y-188211961D01*
X200845533Y-190211961D01*
X201774104Y-189640533D02*
X202726485Y-189640533D01*
X201512200Y-190211961D02*
X202428866Y-188211961D01*
X202845533Y-190211961D01*
X205036009Y-190211961D02*
X205286009Y-188211961D01*
X205190771Y-188973866D02*
X205393152Y-188878628D01*
X205774104Y-188878628D01*
X205952676Y-188973866D01*
X206036009Y-189069104D01*
X206107438Y-189259580D01*
X206036009Y-189831009D01*
X205916961Y-190021485D01*
X205809819Y-190116723D01*
X205607438Y-190211961D01*
X205226485Y-190211961D01*
X205047914Y-190116723D01*
X206845533Y-190211961D02*
X207012200Y-188878628D01*
X206964580Y-189259580D02*
X207083628Y-189069104D01*
X207190771Y-188973866D01*
X207393152Y-188878628D01*
X207583628Y-188878628D01*
X208857438Y-190116723D02*
X208655057Y-190211961D01*
X208274104Y-190211961D01*
X208095533Y-190116723D01*
X208024104Y-189926247D01*
X208119342Y-189164342D01*
X208238390Y-188973866D01*
X208440771Y-188878628D01*
X208821723Y-188878628D01*
X209000295Y-188973866D01*
X209071723Y-189164342D01*
X209047914Y-189354819D01*
X208071723Y-189545295D01*
X210655057Y-190211961D02*
X210786009Y-189164342D01*
X210714580Y-188973866D01*
X210536009Y-188878628D01*
X210155057Y-188878628D01*
X209952676Y-188973866D01*
X210666961Y-190116723D02*
X210464580Y-190211961D01*
X209988390Y-190211961D01*
X209809819Y-190116723D01*
X209738390Y-189926247D01*
X209762200Y-189735771D01*
X209881247Y-189545295D01*
X210083628Y-189450057D01*
X210559819Y-189450057D01*
X210762200Y-189354819D01*
X211607438Y-190211961D02*
X211857438Y-188211961D01*
X211893152Y-189450057D02*
X212369342Y-190211961D01*
X212536009Y-188878628D02*
X211678866Y-189640533D01*
X213512200Y-190211961D02*
X213333628Y-190116723D01*
X213250295Y-190021485D01*
X213178866Y-189831009D01*
X213250295Y-189259580D01*
X213369342Y-189069104D01*
X213476485Y-188973866D01*
X213678866Y-188878628D01*
X213964580Y-188878628D01*
X214143152Y-188973866D01*
X214226485Y-189069104D01*
X214297914Y-189259580D01*
X214226485Y-189831009D01*
X214107438Y-190021485D01*
X214000295Y-190116723D01*
X213797914Y-190211961D01*
X213512200Y-190211961D01*
X216059819Y-188878628D02*
X215893152Y-190211961D01*
X215202676Y-188878628D02*
X215071723Y-189926247D01*
X215143152Y-190116723D01*
X215321723Y-190211961D01*
X215607438Y-190211961D01*
X215809819Y-190116723D01*
X215916961Y-190021485D01*
X216726485Y-188878628D02*
X217488390Y-188878628D01*
X217095533Y-188211961D02*
X216881247Y-189926247D01*
X216952676Y-190116723D01*
X217131247Y-190211961D01*
X217321723Y-190211961D01*
D10*
D11*
X178934342Y-185600057D02*
X178434342Y-185600057D01*
X178434342Y-186385771D02*
X178434342Y-184885771D01*
X179148628Y-184885771D01*
X179720057Y-186385771D02*
X179720057Y-185385771D01*
X179720057Y-184885771D02*
X179648628Y-184957200D01*
X179720057Y-185028628D01*
X179791485Y-184957200D01*
X179720057Y-184885771D01*
X179720057Y-185028628D01*
X180648628Y-186385771D02*
X180505771Y-186314342D01*
X180434342Y-186171485D01*
X180434342Y-184885771D01*
X181791485Y-186314342D02*
X181648628Y-186385771D01*
X181362914Y-186385771D01*
X181220057Y-186314342D01*
X181148628Y-186171485D01*
X181148628Y-185600057D01*
X181220057Y-185457200D01*
X181362914Y-185385771D01*
X181648628Y-185385771D01*
X181791485Y-185457200D01*
X181862914Y-185600057D01*
X181862914Y-185742914D01*
X181148628Y-185885771D01*
X182505771Y-186242914D02*
X182577200Y-186314342D01*
X182505771Y-186385771D01*
X182434342Y-186314342D01*
X182505771Y-186242914D01*
X182505771Y-186385771D01*
X182505771Y-185457200D02*
X182577200Y-185528628D01*
X182505771Y-185600057D01*
X182434342Y-185528628D01*
X182505771Y-185457200D01*
X182505771Y-185600057D01*
X184148628Y-185385771D02*
X184720057Y-185385771D01*
X184362914Y-186385771D02*
X184362914Y-185100057D01*
X184434342Y-184957200D01*
X184577200Y-184885771D01*
X184720057Y-184885771D01*
X185220057Y-186385771D02*
X185220057Y-185385771D01*
X185220057Y-185528628D02*
X185291485Y-185457200D01*
X185434342Y-185385771D01*
X185648628Y-185385771D01*
X185791485Y-185457200D01*
X185862914Y-185600057D01*
X185862914Y-186385771D01*
X185862914Y-185600057D02*
X185934342Y-185457200D01*
X186077200Y-185385771D01*
X186291485Y-185385771D01*
X186434342Y-185457200D01*
X186505771Y-185600057D01*
X186505771Y-186385771D01*
X187862914Y-186314342D02*
X187720057Y-186385771D01*
X187434342Y-186385771D01*
X187291485Y-186314342D01*
X187220057Y-186242914D01*
X187148628Y-186100057D01*
X187148628Y-185671485D01*
X187220057Y-185528628D01*
X187291485Y-185457200D01*
X187434342Y-185385771D01*
X187720057Y-185385771D01*
X187862914Y-185457200D01*
X188505771Y-185385771D02*
X188505771Y-186885771D01*
X188505771Y-185457200D02*
X188648628Y-185385771D01*
X188934342Y-185385771D01*
X189077200Y-185457200D01*
X189148628Y-185528628D01*
X189220057Y-185671485D01*
X189220057Y-186100057D01*
X189148628Y-186242914D01*
X189077200Y-186314342D01*
X188934342Y-186385771D01*
X188648628Y-186385771D01*
X188505771Y-186314342D01*
X189505771Y-186528628D02*
X190648628Y-186528628D01*
X190934342Y-186314342D02*
X191077200Y-186385771D01*
X191362914Y-186385771D01*
X191505771Y-186314342D01*
X191577200Y-186171485D01*
X191577200Y-186100057D01*
X191505771Y-185957200D01*
X191362914Y-185885771D01*
X191148628Y-185885771D01*
X191005771Y-185814342D01*
X190934342Y-185671485D01*
X190934342Y-185600057D01*
X191005771Y-185457200D01*
X191148628Y-185385771D01*
X191362914Y-185385771D01*
X191505771Y-185457200D01*
X192220057Y-186385771D02*
X192220057Y-185385771D01*
X192220057Y-185528628D02*
X192291485Y-185457200D01*
X192434342Y-185385771D01*
X192648628Y-185385771D01*
X192791485Y-185457200D01*
X192862914Y-185600057D01*
X192862914Y-186385771D01*
X192862914Y-185600057D02*
X192934342Y-185457200D01*
X193077200Y-185385771D01*
X193291485Y-185385771D01*
X193434342Y-185457200D01*
X193505771Y-185600057D01*
X193505771Y-186385771D01*
X194862914Y-186385771D02*
X194862914Y-185600057D01*
X194791485Y-185457200D01*
X194648628Y-185385771D01*
X194362914Y-185385771D01*
X194220057Y-185457200D01*
X194862914Y-186314342D02*
X194720057Y-186385771D01*
X194362914Y-186385771D01*
X194220057Y-186314342D01*
X194148628Y-186171485D01*
X194148628Y-186028628D01*
X194220057Y-185885771D01*
X194362914Y-185814342D01*
X194720057Y-185814342D01*
X194862914Y-185742914D01*
X195577200Y-186242914D02*
X195648628Y-186314342D01*
X195577200Y-186385771D01*
X195505771Y-186314342D01*
X195577200Y-186242914D01*
X195577200Y-186385771D01*
X196291485Y-186385771D02*
X196291485Y-184885771D01*
X196434342Y-185814342D02*
X196862914Y-186385771D01*
X196862914Y-185385771D02*
X196291485Y-185957200D01*
X197505771Y-186385771D02*
X197505771Y-185385771D01*
X197505771Y-184885771D02*
X197434342Y-184957200D01*
X197505771Y-185028628D01*
X197577200Y-184957200D01*
X197505771Y-184885771D01*
X197505771Y-185028628D01*
X198862914Y-186314342D02*
X198720057Y-186385771D01*
X198434342Y-186385771D01*
X198291485Y-186314342D01*
X198220057Y-186242914D01*
X198148628Y-186100057D01*
X198148628Y-185671485D01*
X198220057Y-185528628D01*
X198291485Y-185457200D01*
X198434342Y-185385771D01*
X198720057Y-185385771D01*
X198862914Y-185457200D01*
X200148628Y-186385771D02*
X200148628Y-185600057D01*
X200077200Y-185457200D01*
X199934342Y-185385771D01*
X199648628Y-185385771D01*
X199505771Y-185457200D01*
X200148628Y-186314342D02*
X200005771Y-186385771D01*
X199648628Y-186385771D01*
X199505771Y-186314342D01*
X199434342Y-186171485D01*
X199434342Y-186028628D01*
X199505771Y-185885771D01*
X199648628Y-185814342D01*
X200005771Y-185814342D01*
X200148628Y-185742914D01*
X201505771Y-186385771D02*
X201505771Y-184885771D01*
X201505771Y-186314342D02*
X201362914Y-186385771D01*
X201077200Y-186385771D01*
X200934342Y-186314342D01*
X200862914Y-186242914D01*
X200791485Y-186100057D01*
X200791485Y-185671485D01*
X200862914Y-185528628D01*
X200934342Y-185457200D01*
X201077200Y-185385771D01*
X201362914Y-185385771D01*
X201505771Y-185457200D01*
X201862914Y-186528628D02*
X203005771Y-186528628D01*
X203362914Y-185385771D02*
X203362914Y-186885771D01*
X203362914Y-185457200D02*
X203505771Y-185385771D01*
X203791485Y-185385771D01*
X203934342Y-185457200D01*
X204005771Y-185528628D01*
X204077200Y-185671485D01*
X204077200Y-186100057D01*
X204005771Y-186242914D01*
X203934342Y-186314342D01*
X203791485Y-186385771D01*
X203505771Y-186385771D01*
X203362914Y-186314342D01*
X205362914Y-186314342D02*
X205220057Y-186385771D01*
X204934342Y-186385771D01*
X204791485Y-186314342D01*
X204720057Y-186242914D01*
X204648628Y-186100057D01*
X204648628Y-185671485D01*
X204720057Y-185528628D01*
X204791485Y-185457200D01*
X204934342Y-185385771D01*
X205220057Y-185385771D01*
X205362914Y-185457200D01*
X206005771Y-186385771D02*
X206005771Y-184885771D01*
X206005771Y-185457200D02*
X206148628Y-185385771D01*
X206434342Y-185385771D01*
X206577200Y-185457200D01*
X206648628Y-185528628D01*
X206720057Y-185671485D01*
X206720057Y-186100057D01*
X206648628Y-186242914D01*
X206577200Y-186314342D01*
X206434342Y-186385771D01*
X206148628Y-186385771D01*
X206005771Y-186314342D01*
D10*
D11*
X177002200Y-181507200D02*
X285002200Y-181507200D01*
D10*
D11*
X178362914Y-183614342D02*
X178577200Y-183685771D01*
X178934342Y-183685771D01*
X179077200Y-183614342D01*
X179148628Y-183542914D01*
X179220057Y-183400057D01*
X179220057Y-183257200D01*
X179148628Y-183114342D01*
X179077200Y-183042914D01*
X178934342Y-182971485D01*
X178648628Y-182900057D01*
X178505771Y-182828628D01*
X178434342Y-182757200D01*
X178362914Y-182614342D01*
X178362914Y-182471485D01*
X178434342Y-182328628D01*
X178505771Y-182257200D01*
X178648628Y-182185771D01*
X179005771Y-182185771D01*
X179220057Y-182257200D01*
X179862914Y-183685771D02*
X179862914Y-182185771D01*
X180505771Y-183685771D02*
X180505771Y-182900057D01*
X180434342Y-182757200D01*
X180291485Y-182685771D01*
X180077200Y-182685771D01*
X179934342Y-182757200D01*
X179862914Y-182828628D01*
X181791485Y-183614342D02*
X181648628Y-183685771D01*
X181362914Y-183685771D01*
X181220057Y-183614342D01*
X181148628Y-183471485D01*
X181148628Y-182900057D01*
X181220057Y-182757200D01*
X181362914Y-182685771D01*
X181648628Y-182685771D01*
X181791485Y-182757200D01*
X181862914Y-182900057D01*
X181862914Y-183042914D01*
X181148628Y-183185771D01*
X183077200Y-183614342D02*
X182934342Y-183685771D01*
X182648628Y-183685771D01*
X182505771Y-183614342D01*
X182434342Y-183471485D01*
X182434342Y-182900057D01*
X182505771Y-182757200D01*
X182648628Y-182685771D01*
X182934342Y-182685771D01*
X183077200Y-182757200D01*
X183148628Y-182900057D01*
X183148628Y-183042914D01*
X182434342Y-183185771D01*
X183577200Y-182685771D02*
X184148628Y-182685771D01*
X183791485Y-182185771D02*
X183791485Y-183471485D01*
X183862914Y-183614342D01*
X184005771Y-183685771D01*
X184148628Y-183685771D01*
X184648628Y-183542914D02*
X184720057Y-183614342D01*
X184648628Y-183685771D01*
X184577200Y-183614342D01*
X184648628Y-183542914D01*
X184648628Y-183685771D01*
X184648628Y-182757200D02*
X184720057Y-182828628D01*
X184648628Y-182900057D01*
X184577200Y-182828628D01*
X184648628Y-182757200D01*
X184648628Y-182900057D01*
D10*
D12*
X178554342Y-180685771D02*
X178554342Y-179185771D01*
X179411485Y-180685771D02*
X178768628Y-179828628D01*
X179411485Y-179185771D02*
X178554342Y-180042914D01*
X180697200Y-180685771D02*
X180697200Y-179900057D01*
X180625771Y-179757200D01*
X180482914Y-179685771D01*
X180197200Y-179685771D01*
X180054342Y-179757200D01*
X180697200Y-180614342D02*
X180554342Y-180685771D01*
X180197200Y-180685771D01*
X180054342Y-180614342D01*
X179982914Y-180471485D01*
X179982914Y-180328628D01*
X180054342Y-180185771D01*
X180197200Y-180114342D01*
X180554342Y-180114342D01*
X180697200Y-180042914D01*
X181411485Y-180685771D02*
X181411485Y-179685771D01*
X181411485Y-179971485D02*
X181482914Y-179828628D01*
X181554342Y-179757200D01*
X181697200Y-179685771D01*
X181840057Y-179685771D01*
X182554342Y-180685771D02*
X182411485Y-180614342D01*
X182340057Y-180471485D01*
X182340057Y-179185771D01*
X183054342Y-180614342D02*
X183197200Y-180685771D01*
X183482914Y-180685771D01*
X183625771Y-180614342D01*
X183697200Y-180471485D01*
X183697200Y-180400057D01*
X183625771Y-180257200D01*
X183482914Y-180185771D01*
X183268628Y-180185771D01*
X183125771Y-180114342D01*
X183054342Y-179971485D01*
X183054342Y-179900057D01*
X183125771Y-179757200D01*
X183268628Y-179685771D01*
X183482914Y-179685771D01*
X183625771Y-179757200D01*
X184340057Y-180685771D02*
X184340057Y-179685771D01*
X184340057Y-179971485D02*
X184411485Y-179828628D01*
X184482914Y-179757200D01*
X184625771Y-179685771D01*
X184768628Y-179685771D01*
X185911485Y-179685771D02*
X185911485Y-180685771D01*
X185268628Y-179685771D02*
X185268628Y-180471485D01*
X185340057Y-180614342D01*
X185482914Y-180685771D01*
X185697200Y-180685771D01*
X185840057Y-180614342D01*
X185911485Y-180542914D01*
X186625771Y-180685771D02*
X186625771Y-179185771D01*
X187268628Y-180685771D02*
X187268628Y-179900057D01*
X187197200Y-179757200D01*
X187054342Y-179685771D01*
X186840057Y-179685771D01*
X186697200Y-179757200D01*
X186625771Y-179828628D01*
X188554342Y-180614342D02*
X188411485Y-180685771D01*
X188125771Y-180685771D01*
X187982914Y-180614342D01*
X187911485Y-180471485D01*
X187911485Y-179900057D01*
X187982914Y-179757200D01*
X188125771Y-179685771D01*
X188411485Y-179685771D01*
X188554342Y-179757200D01*
X188625771Y-179900057D01*
X188625771Y-180042914D01*
X187911485Y-180185771D01*
X190411485Y-180685771D02*
X190411485Y-179185771D01*
X191125771Y-179685771D02*
X191125771Y-180685771D01*
X191125771Y-179828628D02*
X191197200Y-179757200D01*
X191340057Y-179685771D01*
X191554342Y-179685771D01*
X191697200Y-179757200D01*
X191768628Y-179900057D01*
X191768628Y-180685771D01*
X192411485Y-180614342D02*
X192554342Y-180685771D01*
X192840057Y-180685771D01*
X192982914Y-180614342D01*
X193054342Y-180471485D01*
X193054342Y-180400057D01*
X192982914Y-180257200D01*
X192840057Y-180185771D01*
X192625771Y-180185771D01*
X192482914Y-180114342D01*
X192411485Y-179971485D01*
X192411485Y-179900057D01*
X192482914Y-179757200D01*
X192625771Y-179685771D01*
X192840057Y-179685771D01*
X192982914Y-179757200D01*
X193482914Y-179685771D02*
X194054342Y-179685771D01*
X193697200Y-179185771D02*
X193697200Y-180471485D01*
X193768628Y-180614342D01*
X193911485Y-180685771D01*
X194054342Y-180685771D01*
X194554342Y-180685771D02*
X194554342Y-179685771D01*
X194554342Y-179185771D02*
X194482914Y-179257200D01*
X194554342Y-179328628D01*
X194625771Y-179257200D01*
X194554342Y-179185771D01*
X194554342Y-179328628D01*
X195054342Y-179685771D02*
X195625771Y-179685771D01*
X195268628Y-179185771D02*
X195268628Y-180471485D01*
X195340057Y-180614342D01*
X195482914Y-180685771D01*
X195625771Y-180685771D01*
X196768628Y-179685771D02*
X196768628Y-180685771D01*
X196125771Y-179685771D02*
X196125771Y-180471485D01*
X196197200Y-180614342D01*
X196340057Y-180685771D01*
X196554342Y-180685771D01*
X196697200Y-180614342D01*
X196768628Y-180542914D01*
X197268628Y-179685771D02*
X197840057Y-179685771D01*
X197482914Y-179185771D02*
X197482914Y-180471485D01*
X197554342Y-180614342D01*
X197697200Y-180685771D01*
X197840057Y-180685771D01*
X198911485Y-180614342D02*
X198768628Y-180685771D01*
X198482914Y-180685771D01*
X198340057Y-180614342D01*
X198268628Y-180471485D01*
X198268628Y-179900057D01*
X198340057Y-179757200D01*
X198482914Y-179685771D01*
X198768628Y-179685771D01*
X198911485Y-179757200D01*
X198982914Y-179900057D01*
X198982914Y-180042914D01*
X198268628Y-180185771D01*
X200982914Y-180685771D02*
X200840057Y-180614342D01*
X200768628Y-180542914D01*
X200697200Y-180400057D01*
X200697200Y-179971485D01*
X200768628Y-179828628D01*
X200840057Y-179757200D01*
X200982914Y-179685771D01*
X201197200Y-179685771D01*
X201340057Y-179757200D01*
X201411485Y-179828628D01*
X201482914Y-179971485D01*
X201482914Y-180400057D01*
X201411485Y-180542914D01*
X201340057Y-180614342D01*
X201197200Y-180685771D01*
X200982914Y-180685771D01*
X201911485Y-179685771D02*
X202482914Y-179685771D01*
X202125771Y-180685771D02*
X202125771Y-179400057D01*
X202197200Y-179257200D01*
X202340057Y-179185771D01*
X202482914Y-179185771D01*
X203911485Y-179185771D02*
X204768628Y-179185771D01*
X204340057Y-180685771D02*
X204340057Y-179185771D01*
X205840057Y-180614342D02*
X205697200Y-180685771D01*
X205411485Y-180685771D01*
X205268628Y-180614342D01*
X205197200Y-180471485D01*
X205197200Y-179900057D01*
X205268628Y-179757200D01*
X205411485Y-179685771D01*
X205697200Y-179685771D01*
X205840057Y-179757200D01*
X205911485Y-179900057D01*
X205911485Y-180042914D01*
X205197200Y-180185771D01*
X207197200Y-180614342D02*
X207054342Y-180685771D01*
X206768628Y-180685771D01*
X206625771Y-180614342D01*
X206554342Y-180542914D01*
X206482914Y-180400057D01*
X206482914Y-179971485D01*
X206554342Y-179828628D01*
X206625771Y-179757200D01*
X206768628Y-179685771D01*
X207054342Y-179685771D01*
X207197200Y-179757200D01*
X207840057Y-180685771D02*
X207840057Y-179185771D01*
X208482914Y-180685771D02*
X208482914Y-179900057D01*
X208411485Y-179757200D01*
X208268628Y-179685771D01*
X208054342Y-179685771D01*
X207911485Y-179757200D01*
X207840057Y-179828628D01*
X209197200Y-179685771D02*
X209197200Y-180685771D01*
X209197200Y-179828628D02*
X209268628Y-179757200D01*
X209411485Y-179685771D01*
X209625771Y-179685771D01*
X209768628Y-179757200D01*
X209840057Y-179900057D01*
X209840057Y-180685771D01*
X210768628Y-180685771D02*
X210625771Y-180614342D01*
X210554342Y-180542914D01*
X210482914Y-180400057D01*
X210482914Y-179971485D01*
X210554342Y-179828628D01*
X210625771Y-179757200D01*
X210768628Y-179685771D01*
X210982914Y-179685771D01*
X211125771Y-179757200D01*
X211197200Y-179828628D01*
X211268628Y-179971485D01*
X211268628Y-180400057D01*
X211197200Y-180542914D01*
X211125771Y-180614342D01*
X210982914Y-180685771D01*
X210768628Y-180685771D01*
X212125771Y-180685771D02*
X211982914Y-180614342D01*
X211911485Y-180471485D01*
X211911485Y-179185771D01*
X212911485Y-180685771D02*
X212768628Y-180614342D01*
X212697200Y-180542914D01*
X212625771Y-180400057D01*
X212625771Y-179971485D01*
X212697200Y-179828628D01*
X212768628Y-179757200D01*
X212911485Y-179685771D01*
X213125771Y-179685771D01*
X213268628Y-179757200D01*
X213340057Y-179828628D01*
X213411485Y-179971485D01*
X213411485Y-180400057D01*
X213340057Y-180542914D01*
X213268628Y-180614342D01*
X213125771Y-180685771D01*
X212911485Y-180685771D01*
X214697200Y-179685771D02*
X214697200Y-180900057D01*
X214625771Y-181042914D01*
X214554342Y-181114342D01*
X214411485Y-181185771D01*
X214197200Y-181185771D01*
X214054342Y-181114342D01*
X214697200Y-180614342D02*
X214554342Y-180685771D01*
X214268628Y-180685771D01*
X214125771Y-180614342D01*
X214054342Y-180542914D01*
X213982914Y-180400057D01*
X213982914Y-179971485D01*
X214054342Y-179828628D01*
X214125771Y-179757200D01*
X214268628Y-179685771D01*
X214554342Y-179685771D01*
X214697200Y-179757200D01*
X215268628Y-179685771D02*
X215625771Y-180685771D01*
X215982914Y-179685771D02*
X215625771Y-180685771D01*
X215482914Y-181042914D01*
X215411485Y-181114342D01*
X215268628Y-181185771D01*
X218125771Y-181257200D02*
X218054342Y-181185771D01*
X217911485Y-180971485D01*
X217840057Y-180828628D01*
X217768628Y-180614342D01*
X217697200Y-180257200D01*
X217697200Y-179971485D01*
X217768628Y-179614342D01*
X217840057Y-179400057D01*
X217911485Y-179257200D01*
X218054342Y-179042914D01*
X218125771Y-178971485D01*
X218697200Y-180685771D02*
X218697200Y-179185771D01*
X219554342Y-180685771D02*
X218911485Y-179828628D01*
X219554342Y-179185771D02*
X218697200Y-180042914D01*
X220197200Y-180685771D02*
X220197200Y-179185771D01*
X220697200Y-179185771D02*
X221554342Y-179185771D01*
X221125771Y-180685771D02*
X221125771Y-179185771D01*
X221911485Y-181257200D02*
X221982914Y-181185771D01*
X222125771Y-180971485D01*
X222197200Y-180828628D01*
X222268628Y-180614342D01*
X222340057Y-180257200D01*
X222340057Y-179971485D01*
X222268628Y-179614342D01*
X222197200Y-179400057D01*
X222125771Y-179257200D01*
X221982914Y-179042914D01*
X221911485Y-178971485D01*
D10*
D11*
X178434342Y-177685771D02*
X178434342Y-176185771D01*
X179148628Y-176685771D02*
X179148628Y-177685771D01*
X179148628Y-176828628D02*
X179220057Y-176757200D01*
X179362914Y-176685771D01*
X179577200Y-176685771D01*
X179720057Y-176757200D01*
X179791485Y-176900057D01*
X179791485Y-177685771D01*
X180434342Y-177614342D02*
X180577200Y-177685771D01*
X180862914Y-177685771D01*
X181005771Y-177614342D01*
X181077200Y-177471485D01*
X181077200Y-177400057D01*
X181005771Y-177257200D01*
X180862914Y-177185771D01*
X180648628Y-177185771D01*
X180505771Y-177114342D01*
X180434342Y-176971485D01*
X180434342Y-176900057D01*
X180505771Y-176757200D01*
X180648628Y-176685771D01*
X180862914Y-176685771D01*
X181005771Y-176757200D01*
X181505771Y-176685771D02*
X182077200Y-176685771D01*
X181720057Y-176185771D02*
X181720057Y-177471485D01*
X181791485Y-177614342D01*
X181934342Y-177685771D01*
X182077200Y-177685771D01*
X182577200Y-177685771D02*
X182577200Y-176685771D01*
X182577200Y-176185771D02*
X182505771Y-176257200D01*
X182577200Y-176328628D01*
X182648628Y-176257200D01*
X182577200Y-176185771D01*
X182577200Y-176328628D01*
X183077200Y-176685771D02*
X183648628Y-176685771D01*
X183291485Y-176185771D02*
X183291485Y-177471485D01*
X183362914Y-177614342D01*
X183505771Y-177685771D01*
X183648628Y-177685771D01*
X184791485Y-176685771D02*
X184791485Y-177685771D01*
X184148628Y-176685771D02*
X184148628Y-177471485D01*
X184220057Y-177614342D01*
X184362914Y-177685771D01*
X184577200Y-177685771D01*
X184720057Y-177614342D01*
X184791485Y-177542914D01*
X185291485Y-176685771D02*
X185862914Y-176685771D01*
X185505771Y-176185771D02*
X185505771Y-177471485D01*
X185577200Y-177614342D01*
X185720057Y-177685771D01*
X185862914Y-177685771D01*
X186934342Y-177614342D02*
X186791485Y-177685771D01*
X186505771Y-177685771D01*
X186362914Y-177614342D01*
X186291485Y-177471485D01*
X186291485Y-176900057D01*
X186362914Y-176757200D01*
X186505771Y-176685771D01*
X186791485Y-176685771D01*
X186934342Y-176757200D01*
X187005771Y-176900057D01*
X187005771Y-177042914D01*
X186291485Y-177185771D01*
X188577200Y-176685771D02*
X189148628Y-176685771D01*
X188791485Y-177685771D02*
X188791485Y-176400057D01*
X188862914Y-176257200D01*
X189005771Y-176185771D01*
X189148628Y-176185771D01*
X189862914Y-177685771D02*
X189720057Y-177614342D01*
X189648628Y-177542914D01*
X189577200Y-177400057D01*
X189577200Y-176971485D01*
X189648628Y-176828628D01*
X189720057Y-176757200D01*
X189862914Y-176685771D01*
X190077200Y-176685771D01*
X190220057Y-176757200D01*
X190291485Y-176828628D01*
X190362914Y-176971485D01*
X190362914Y-177400057D01*
X190291485Y-177542914D01*
X190220057Y-177614342D01*
X190077200Y-177685771D01*
X189862914Y-177685771D01*
X191005771Y-177685771D02*
X191005771Y-176685771D01*
X191005771Y-176971485D02*
X191077200Y-176828628D01*
X191148628Y-176757200D01*
X191291485Y-176685771D01*
X191434342Y-176685771D01*
X193077200Y-177685771D02*
X193077200Y-176185771D01*
X193434342Y-176185771D01*
X193648628Y-176257200D01*
X193791485Y-176400057D01*
X193862914Y-176542914D01*
X193934342Y-176828628D01*
X193934342Y-177042914D01*
X193862914Y-177328628D01*
X193791485Y-177471485D01*
X193648628Y-177614342D01*
X193434342Y-177685771D01*
X193077200Y-177685771D01*
X195220057Y-177685771D02*
X195220057Y-176900057D01*
X195148628Y-176757200D01*
X195005771Y-176685771D01*
X194720057Y-176685771D01*
X194577200Y-176757200D01*
X195220057Y-177614342D02*
X195077200Y-177685771D01*
X194720057Y-177685771D01*
X194577200Y-177614342D01*
X194505771Y-177471485D01*
X194505771Y-177328628D01*
X194577200Y-177185771D01*
X194720057Y-177114342D01*
X195077200Y-177114342D01*
X195220057Y-177042914D01*
X195720057Y-176685771D02*
X196291485Y-176685771D01*
X195934342Y-176185771D02*
X195934342Y-177471485D01*
X196005771Y-177614342D01*
X196148628Y-177685771D01*
X196291485Y-177685771D01*
X197434342Y-177685771D02*
X197434342Y-176900057D01*
X197362914Y-176757200D01*
X197220057Y-176685771D01*
X196934342Y-176685771D01*
X196791485Y-176757200D01*
X197434342Y-177614342D02*
X197291485Y-177685771D01*
X196934342Y-177685771D01*
X196791485Y-177614342D01*
X196720057Y-177471485D01*
X196720057Y-177328628D01*
X196791485Y-177185771D01*
X196934342Y-177114342D01*
X197291485Y-177114342D01*
X197434342Y-177042914D01*
X199291485Y-177685771D02*
X199291485Y-176185771D01*
X199862914Y-176185771D01*
X200005771Y-176257200D01*
X200077200Y-176328628D01*
X200148628Y-176471485D01*
X200148628Y-176685771D01*
X200077200Y-176828628D01*
X200005771Y-176900057D01*
X199862914Y-176971485D01*
X199291485Y-176971485D01*
X200791485Y-177685771D02*
X200791485Y-176685771D01*
X200791485Y-176971485D02*
X200862914Y-176828628D01*
X200934342Y-176757200D01*
X201077200Y-176685771D01*
X201220057Y-176685771D01*
X201934342Y-177685771D02*
X201791485Y-177614342D01*
X201720057Y-177542914D01*
X201648628Y-177400057D01*
X201648628Y-176971485D01*
X201720057Y-176828628D01*
X201791485Y-176757200D01*
X201934342Y-176685771D01*
X202148628Y-176685771D01*
X202291485Y-176757200D01*
X202362914Y-176828628D01*
X202434342Y-176971485D01*
X202434342Y-177400057D01*
X202362914Y-177542914D01*
X202291485Y-177614342D01*
X202148628Y-177685771D01*
X201934342Y-177685771D01*
X203720057Y-177614342D02*
X203577200Y-177685771D01*
X203291485Y-177685771D01*
X203148628Y-177614342D01*
X203077200Y-177542914D01*
X203005771Y-177400057D01*
X203005771Y-176971485D01*
X203077200Y-176828628D01*
X203148628Y-176757200D01*
X203291485Y-176685771D01*
X203577200Y-176685771D01*
X203720057Y-176757200D01*
X204934342Y-177614342D02*
X204791485Y-177685771D01*
X204505771Y-177685771D01*
X204362914Y-177614342D01*
X204291485Y-177471485D01*
X204291485Y-176900057D01*
X204362914Y-176757200D01*
X204505771Y-176685771D01*
X204791485Y-176685771D01*
X204934342Y-176757200D01*
X205005771Y-176900057D01*
X205005771Y-177042914D01*
X204291485Y-177185771D01*
X205577200Y-177614342D02*
X205720057Y-177685771D01*
X206005771Y-177685771D01*
X206148628Y-177614342D01*
X206220057Y-177471485D01*
X206220057Y-177400057D01*
X206148628Y-177257200D01*
X206005771Y-177185771D01*
X205791485Y-177185771D01*
X205648628Y-177114342D01*
X205577200Y-176971485D01*
X205577200Y-176900057D01*
X205648628Y-176757200D01*
X205791485Y-176685771D01*
X206005771Y-176685771D01*
X206148628Y-176757200D01*
X206791485Y-177614342D02*
X206934342Y-177685771D01*
X207220057Y-177685771D01*
X207362914Y-177614342D01*
X207434342Y-177471485D01*
X207434342Y-177400057D01*
X207362914Y-177257200D01*
X207220057Y-177185771D01*
X207005771Y-177185771D01*
X206862914Y-177114342D01*
X206791485Y-176971485D01*
X206791485Y-176900057D01*
X206862914Y-176757200D01*
X207005771Y-176685771D01*
X207220057Y-176685771D01*
X207362914Y-176757200D01*
X208077200Y-177685771D02*
X208077200Y-176685771D01*
X208077200Y-176185771D02*
X208005771Y-176257200D01*
X208077200Y-176328628D01*
X208148628Y-176257200D01*
X208077200Y-176185771D01*
X208077200Y-176328628D01*
X208791485Y-176685771D02*
X208791485Y-177685771D01*
X208791485Y-176828628D02*
X208862914Y-176757200D01*
X209005771Y-176685771D01*
X209220057Y-176685771D01*
X209362914Y-176757200D01*
X209434342Y-176900057D01*
X209434342Y-177685771D01*
X210791485Y-176685771D02*
X210791485Y-177900057D01*
X210720057Y-178042914D01*
X210648628Y-178114342D01*
X210505771Y-178185771D01*
X210291485Y-178185771D01*
X210148628Y-178114342D01*
X210791485Y-177614342D02*
X210648628Y-177685771D01*
X210362914Y-177685771D01*
X210220057Y-177614342D01*
X210148628Y-177542914D01*
X210077200Y-177400057D01*
X210077200Y-176971485D01*
X210148628Y-176828628D01*
X210220057Y-176757200D01*
X210362914Y-176685771D01*
X210648628Y-176685771D01*
X210791485Y-176757200D01*
X213291485Y-177685771D02*
X213291485Y-176900057D01*
X213220057Y-176757200D01*
X213077200Y-176685771D01*
X212791485Y-176685771D01*
X212648628Y-176757200D01*
X213291485Y-177614342D02*
X213148628Y-177685771D01*
X212791485Y-177685771D01*
X212648628Y-177614342D01*
X212577200Y-177471485D01*
X212577200Y-177328628D01*
X212648628Y-177185771D01*
X212791485Y-177114342D01*
X213148628Y-177114342D01*
X213291485Y-177042914D01*
X214005771Y-176685771D02*
X214005771Y-177685771D01*
X214005771Y-176828628D02*
X214077200Y-176757200D01*
X214220057Y-176685771D01*
X214434342Y-176685771D01*
X214577200Y-176757200D01*
X214648628Y-176900057D01*
X214648628Y-177685771D01*
X216005771Y-177685771D02*
X216005771Y-176185771D01*
X216005771Y-177614342D02*
X215862914Y-177685771D01*
X215577200Y-177685771D01*
X215434342Y-177614342D01*
X215362914Y-177542914D01*
X215291485Y-177400057D01*
X215291485Y-176971485D01*
X215362914Y-176828628D01*
X215434342Y-176757200D01*
X215577200Y-176685771D01*
X215862914Y-176685771D01*
X216005771Y-176757200D01*
X217862914Y-176900057D02*
X218362914Y-176900057D01*
X218577200Y-177685771D02*
X217862914Y-177685771D01*
X217862914Y-176185771D01*
X218577200Y-176185771D01*
X219434342Y-177685771D02*
X219291485Y-177614342D01*
X219220057Y-177471485D01*
X219220057Y-176185771D01*
X220577200Y-177614342D02*
X220434342Y-177685771D01*
X220148628Y-177685771D01*
X220005771Y-177614342D01*
X219934342Y-177471485D01*
X219934342Y-176900057D01*
X220005771Y-176757200D01*
X220148628Y-176685771D01*
X220434342Y-176685771D01*
X220577200Y-176757200D01*
X220648628Y-176900057D01*
X220648628Y-177042914D01*
X219934342Y-177185771D01*
X221934342Y-177614342D02*
X221791485Y-177685771D01*
X221505771Y-177685771D01*
X221362914Y-177614342D01*
X221291485Y-177542914D01*
X221220057Y-177400057D01*
X221220057Y-176971485D01*
X221291485Y-176828628D01*
X221362914Y-176757200D01*
X221505771Y-176685771D01*
X221791485Y-176685771D01*
X221934342Y-176757200D01*
X222362914Y-176685771D02*
X222934342Y-176685771D01*
X222577200Y-176185771D02*
X222577200Y-177471485D01*
X222648628Y-177614342D01*
X222791485Y-177685771D01*
X222934342Y-177685771D01*
X223434342Y-177685771D02*
X223434342Y-176685771D01*
X223434342Y-176971485D02*
X223505771Y-176828628D01*
X223577200Y-176757200D01*
X223720057Y-176685771D01*
X223862914Y-176685771D01*
X224577200Y-177685771D02*
X224434342Y-177614342D01*
X224362914Y-177542914D01*
X224291485Y-177400057D01*
X224291485Y-176971485D01*
X224362914Y-176828628D01*
X224434342Y-176757200D01*
X224577200Y-176685771D01*
X224791485Y-176685771D01*
X224934342Y-176757200D01*
X225005771Y-176828628D01*
X225077200Y-176971485D01*
X225077200Y-177400057D01*
X225005771Y-177542914D01*
X224934342Y-177614342D01*
X224791485Y-177685771D01*
X224577200Y-177685771D01*
X225720057Y-176685771D02*
X225720057Y-177685771D01*
X225720057Y-176828628D02*
X225791485Y-176757200D01*
X225934342Y-176685771D01*
X226148628Y-176685771D01*
X226291485Y-176757200D01*
X226362914Y-176900057D01*
X226362914Y-177685771D01*
X227077200Y-177685771D02*
X227077200Y-176685771D01*
X227077200Y-176185771D02*
X227005771Y-176257200D01*
X227077200Y-176328628D01*
X227148628Y-176257200D01*
X227077200Y-176185771D01*
X227077200Y-176328628D01*
X228434342Y-177614342D02*
X228291485Y-177685771D01*
X228005771Y-177685771D01*
X227862914Y-177614342D01*
X227791485Y-177542914D01*
X227720057Y-177400057D01*
X227720057Y-176971485D01*
X227791485Y-176828628D01*
X227862914Y-176757200D01*
X228005771Y-176685771D01*
X228291485Y-176685771D01*
X228434342Y-176757200D01*
X229005771Y-177614342D02*
X229148628Y-177685771D01*
X229434342Y-177685771D01*
X229577200Y-177614342D01*
X229648628Y-177471485D01*
X229648628Y-177400057D01*
X229577200Y-177257200D01*
X229434342Y-177185771D01*
X229220057Y-177185771D01*
X229077200Y-177114342D01*
X229005771Y-176971485D01*
X229005771Y-176900057D01*
X229077200Y-176757200D01*
X229220057Y-176685771D01*
X229434342Y-176685771D01*
X229577200Y-176757200D01*
X231862914Y-178257200D02*
X231791485Y-178185771D01*
X231648628Y-177971485D01*
X231577200Y-177828628D01*
X231505771Y-177614342D01*
X231434342Y-177257200D01*
X231434342Y-176971485D01*
X231505771Y-176614342D01*
X231577200Y-176400057D01*
X231648628Y-176257200D01*
X231791485Y-176042914D01*
X231862914Y-175971485D01*
X232434342Y-177685771D02*
X232434342Y-176185771D01*
X233148628Y-177685771D02*
X233148628Y-176185771D01*
X233720057Y-176185771D01*
X233862914Y-176257200D01*
X233934342Y-176328628D01*
X234005771Y-176471485D01*
X234005771Y-176685771D01*
X233934342Y-176828628D01*
X233862914Y-176900057D01*
X233720057Y-176971485D01*
X233148628Y-176971485D01*
X234648628Y-176900057D02*
X235148628Y-176900057D01*
X235362914Y-177685771D02*
X234648628Y-177685771D01*
X234648628Y-176185771D01*
X235362914Y-176185771D01*
X235862914Y-178257200D02*
X235934342Y-178185771D01*
X236077200Y-177971485D01*
X236148628Y-177828628D01*
X236220057Y-177614342D01*
X236291485Y-177257200D01*
X236291485Y-176971485D01*
X236220057Y-176614342D01*
X236148628Y-176400057D01*
X236077200Y-176257200D01*
X235934342Y-176042914D01*
X235862914Y-175971485D01*
D10*
D11*
X179148628Y-174685771D02*
X178434342Y-174685771D01*
X178434342Y-173185771D01*
X180291485Y-173685771D02*
X180291485Y-174685771D01*
X179648628Y-173685771D02*
X179648628Y-174471485D01*
X179720057Y-174614342D01*
X179862914Y-174685771D01*
X180077200Y-174685771D01*
X180220057Y-174614342D01*
X180291485Y-174542914D01*
X181005771Y-174685771D02*
X181005771Y-173685771D01*
X181005771Y-173185771D02*
X180934342Y-173257200D01*
X181005771Y-173328628D01*
X181077200Y-173257200D01*
X181005771Y-173185771D01*
X181005771Y-173328628D01*
X181648628Y-174614342D02*
X181791485Y-174685771D01*
X182077200Y-174685771D01*
X182220057Y-174614342D01*
X182291485Y-174471485D01*
X182291485Y-174400057D01*
X182220057Y-174257200D01*
X182077200Y-174185771D01*
X181862914Y-174185771D01*
X181720057Y-174114342D01*
X181648628Y-173971485D01*
X181648628Y-173900057D01*
X181720057Y-173757200D01*
X181862914Y-173685771D01*
X182077200Y-173685771D01*
X182220057Y-173757200D01*
X184005771Y-174257200D02*
X184720057Y-174257200D01*
X183862914Y-174685771D02*
X184362914Y-173185771D01*
X184862914Y-174685771D01*
X185362914Y-174685771D02*
X185362914Y-173685771D01*
X185362914Y-173971485D02*
X185434342Y-173828628D01*
X185505771Y-173757200D01*
X185648628Y-173685771D01*
X185791485Y-173685771D01*
X186934342Y-174685771D02*
X186934342Y-173185771D01*
X186934342Y-174614342D02*
X186791485Y-174685771D01*
X186505771Y-174685771D01*
X186362914Y-174614342D01*
X186291485Y-174542914D01*
X186220057Y-174400057D01*
X186220057Y-173971485D01*
X186291485Y-173828628D01*
X186362914Y-173757200D01*
X186505771Y-173685771D01*
X186791485Y-173685771D01*
X186934342Y-173757200D01*
X187648628Y-174685771D02*
X187648628Y-173685771D01*
X187648628Y-173185771D02*
X187577200Y-173257200D01*
X187648628Y-173328628D01*
X187720057Y-173257200D01*
X187648628Y-173185771D01*
X187648628Y-173328628D01*
X188577200Y-174685771D02*
X188434342Y-174614342D01*
X188362914Y-174471485D01*
X188362914Y-173185771D01*
X189791485Y-174685771D02*
X189791485Y-173900057D01*
X189720057Y-173757200D01*
X189577200Y-173685771D01*
X189291485Y-173685771D01*
X189148628Y-173757200D01*
X189791485Y-174614342D02*
X189648628Y-174685771D01*
X189291485Y-174685771D01*
X189148628Y-174614342D01*
X189077200Y-174471485D01*
X189077200Y-174328628D01*
X189148628Y-174185771D01*
X189291485Y-174114342D01*
X189648628Y-174114342D01*
X189791485Y-174042914D01*
D10*
D11*
X197002200Y-191507200D02*
X197002200Y-194507200D01*
D10*
D11*
X261002200Y-191507200D02*
X261002200Y-198007200D01*
X143138095Y-46000000D02*
X143042857Y-46047619D01*
X142900000Y-46047619D01*
X142757142Y-46000000D01*
X142661904Y-45904761D01*
X142614285Y-45809523D01*
X142566666Y-45619047D01*
X142566666Y-45476190D01*
X142614285Y-45285714D01*
X142661904Y-45190476D01*
X142757142Y-45095238D01*
X142900000Y-45047619D01*
X142995238Y-45047619D01*
X143138095Y-45095238D01*
X143185714Y-45142857D01*
X143185714Y-45476190D01*
X142995238Y-45476190D01*
X143614285Y-45047619D02*
X143614285Y-46047619D01*
X144185714Y-45047619D01*
X144185714Y-46047619D01*
X144661904Y-45047619D02*
X144661904Y-46047619D01*
X144900000Y-46047619D01*
X145042857Y-46000000D01*
X145138095Y-45904761D01*
X145185714Y-45809523D01*
X145233333Y-45619047D01*
X145233333Y-45476190D01*
X145185714Y-45285714D01*
X145138095Y-45190476D01*
X145042857Y-45095238D01*
X144900000Y-45047619D01*
X144661904Y-45047619D01*
X143238095Y-106000000D02*
X143142857Y-106047619D01*
X143000000Y-106047619D01*
X142857142Y-106000000D01*
X142761904Y-105904761D01*
X142714285Y-105809523D01*
X142666666Y-105619047D01*
X142666666Y-105476190D01*
X142714285Y-105285714D01*
X142761904Y-105190476D01*
X142857142Y-105095238D01*
X143000000Y-105047619D01*
X143095238Y-105047619D01*
X143238095Y-105095238D01*
X143285714Y-105142857D01*
X143285714Y-105476190D01*
X143095238Y-105476190D01*
X143714285Y-105047619D02*
X143714285Y-106047619D01*
X144285714Y-105047619D01*
X144285714Y-106047619D01*
X144761904Y-105047619D02*
X144761904Y-106047619D01*
X145000000Y-106047619D01*
X145142857Y-106000000D01*
X145238095Y-105904761D01*
X145285714Y-105809523D01*
X145333333Y-105619047D01*
X145333333Y-105476190D01*
X145285714Y-105285714D01*
X145238095Y-105190476D01*
X145142857Y-105095238D01*
X145000000Y-105047619D01*
X144761904Y-105047619D01*
D10*
X198788133Y-15046376D02*
X198788133Y-15046376D01*
D11*
%TO.C,J103*%
X130945000Y-47496000D02*
X126005000Y-47496000D01*
D14*
X111134914Y-103424452D02*
G75*
G03*
X111134914Y-103424452I-100000J0D01*
G01*
D11*
X110884914Y-102424452D02*
X112034914Y-103574452D01*
X110884914Y-89629952D02*
X110884914Y-102424452D01*
X110884914Y-47496452D02*
X115824914Y-47496452D01*
X110884914Y-47496452D02*
X115824914Y-47496452D01*
X112034914Y-103574452D02*
X115824914Y-103574452D01*
X110884914Y-61440952D02*
X110884914Y-47496452D01*
X130944914Y-103574452D02*
X126004914Y-103574452D01*
X130944914Y-89629952D02*
X130944914Y-103574452D01*
X110884914Y-61440952D02*
X110884914Y-47496452D01*
X110884914Y-47496452D02*
X115824914Y-47496452D01*
X110884914Y-61440952D02*
X110884914Y-47496452D01*
X130944914Y-61440952D02*
X130944914Y-47496452D01*
D15*
%TO.C,R113*%
X117342258Y-42627500D02*
X116867742Y-42627500D01*
X117342258Y-43672500D02*
X116867742Y-43672500D01*
%TO.C,J119*%
X137285035Y-62214988D02*
G75*
G02*
X140515000Y-62215000I1614965J-4785012D01*
G01*
X137285035Y-71785012D02*
G75*
G03*
X140515000Y-71785000I1614965J4785012D01*
G01*
X141720000Y-66325000D02*
G75*
G03*
X141720000Y-67675000I0J-675000D01*
G01*
X136080000Y-63420000D02*
X136080000Y-70580000D01*
X141720000Y-63420000D02*
X141720000Y-70580000D01*
X141720000Y-63420000D02*
X140515000Y-62215000D01*
X136080000Y-63420000D02*
X137285000Y-62215000D01*
X141720000Y-70580000D02*
X140515000Y-71785000D01*
X136080000Y-70580000D02*
X137285000Y-71785000D01*
%TO.C,J118*%
X185514965Y-71785012D02*
G75*
G02*
X182285000Y-71785000I-1614965J4785012D01*
G01*
X185514965Y-62214988D02*
G75*
G03*
X182285000Y-62215000I-1614965J-4785012D01*
G01*
X181080000Y-67675000D02*
G75*
G03*
X181080000Y-66325000I0J675000D01*
G01*
X186720000Y-70580000D02*
X186720000Y-63420000D01*
X181080000Y-70580000D02*
X181080000Y-63420000D01*
X181080000Y-70580000D02*
X182285000Y-71785000D01*
X186720000Y-70580000D02*
X185515000Y-71785000D01*
X181080000Y-63420000D02*
X182285000Y-62215000D01*
X186720000Y-63420000D02*
X185515000Y-62215000D01*
%TO.C,J117*%
X155514965Y-71785012D02*
G75*
G02*
X152285000Y-71785000I-1614965J4785012D01*
G01*
X155514965Y-62214988D02*
G75*
G03*
X152285000Y-62215000I-1614965J-4785012D01*
G01*
X151080000Y-67675000D02*
G75*
G03*
X151080000Y-66325000I0J675000D01*
G01*
X156720000Y-70580000D02*
X156720000Y-63420000D01*
X151080000Y-70580000D02*
X151080000Y-63420000D01*
X151080000Y-70580000D02*
X152285000Y-71785000D01*
X156720000Y-70580000D02*
X155515000Y-71785000D01*
X151080000Y-63420000D02*
X152285000Y-62215000D01*
X156720000Y-63420000D02*
X155515000Y-62215000D01*
%TO.C,J116*%
X167285035Y-62214988D02*
G75*
G02*
X170515000Y-62215000I1614965J-4785012D01*
G01*
X167285035Y-71785012D02*
G75*
G03*
X170515000Y-71785000I1614965J4785012D01*
G01*
X171720000Y-66325000D02*
G75*
G03*
X171720000Y-67675000I0J-675000D01*
G01*
X166080000Y-63420000D02*
X166080000Y-70580000D01*
X171720000Y-63420000D02*
X171720000Y-70580000D01*
X171720000Y-63420000D02*
X170515000Y-62215000D01*
X166080000Y-63420000D02*
X167285000Y-62215000D01*
X171720000Y-70580000D02*
X170515000Y-71785000D01*
X166080000Y-70580000D02*
X167285000Y-71785000D01*
%TO.C,C109*%
X171259420Y-51010000D02*
X171540580Y-51010000D01*
X171259420Y-49990000D02*
X171540580Y-49990000D01*
%TO.C,C118*%
X171259420Y-49510000D02*
X171540580Y-49510000D01*
X171259420Y-48490000D02*
X171540580Y-48490000D01*
%TO.C,U101*%
X164900000Y-45890000D02*
X167100000Y-45890000D01*
X164900000Y-45890000D02*
X162700000Y-45890000D01*
X164900000Y-49110000D02*
X167100000Y-49110000D01*
X164900000Y-49110000D02*
X161300000Y-49110000D01*
D11*
%TO.C,R110*%
X172700000Y-46550000D02*
X172700000Y-45450000D01*
X170100000Y-46550000D02*
X172700000Y-46550000D01*
X170100000Y-45450000D02*
X170100000Y-46550000D01*
X172700000Y-45450000D02*
X170100000Y-45450000D01*
%TO.C,R111*%
X172700000Y-48050000D02*
X172700000Y-46950000D01*
X170100000Y-48050000D02*
X172700000Y-48050000D01*
X170100000Y-46950000D02*
X170100000Y-48050000D01*
X172700000Y-46950000D02*
X170100000Y-46950000D01*
%TD*%
%LPC*%
D16*
%TO.C,J103*%
X123965000Y-48344500D03*
X120915000Y-102725500D03*
D17*
X127900000Y-90140000D03*
X126630000Y-90140000D03*
X125360000Y-90140000D03*
X124090000Y-90140000D03*
X122820000Y-90140000D03*
X121550000Y-90140000D03*
X120280000Y-90140000D03*
X119010000Y-90140000D03*
X117740000Y-90140000D03*
X116470000Y-90140000D03*
X115200000Y-90140000D03*
X112660000Y-91410000D03*
X113930000Y-91410000D03*
X129170000Y-91410000D03*
X127900000Y-91410000D03*
X126630000Y-91410000D03*
X125360000Y-91410000D03*
X124090000Y-91410000D03*
X122820000Y-91410000D03*
X121550000Y-91410000D03*
X120280000Y-91410000D03*
X119010000Y-91410000D03*
X117740000Y-91410000D03*
X116470000Y-91410000D03*
X115200000Y-91410000D03*
X112660000Y-92680000D03*
X113930000Y-92680000D03*
X129170000Y-92680000D03*
X127900000Y-92680000D03*
X126630000Y-92680000D03*
X125360000Y-92680000D03*
X124090000Y-92680000D03*
X122820000Y-92680000D03*
X121550000Y-92680000D03*
X120280000Y-92680000D03*
X119010000Y-92680000D03*
X117740000Y-92680000D03*
X116470000Y-92680000D03*
X115200000Y-92680000D03*
X112660000Y-93950000D03*
X113930000Y-93950000D03*
X129170000Y-93950000D03*
X127900000Y-93950000D03*
X126630000Y-93950000D03*
X125360000Y-93950000D03*
X124090000Y-93950000D03*
X122820000Y-93950000D03*
X121550000Y-93950000D03*
X120280000Y-93950000D03*
X119010000Y-93950000D03*
X117740000Y-93950000D03*
X116470000Y-93950000D03*
X115200000Y-93950000D03*
X112660000Y-95220000D03*
X113930000Y-95220000D03*
X129170000Y-95220000D03*
X127900000Y-95220000D03*
X126630000Y-95220000D03*
X125360000Y-95220000D03*
X124090000Y-95220000D03*
X122820000Y-95220000D03*
X121550000Y-95220000D03*
X120280000Y-95220000D03*
X119010000Y-95220000D03*
X117740000Y-95220000D03*
X116470000Y-95220000D03*
X115200000Y-95220000D03*
X112660000Y-96490000D03*
X113930000Y-96490000D03*
X129170000Y-96490000D03*
X127900000Y-96490000D03*
X126630000Y-96490000D03*
X125360000Y-96490000D03*
X124090000Y-96490000D03*
X122820000Y-96490000D03*
X121550000Y-96490000D03*
X120280000Y-96490000D03*
X119010000Y-96490000D03*
X117740000Y-96490000D03*
X116470000Y-96490000D03*
X115200000Y-96490000D03*
X112660000Y-97760000D03*
X113930000Y-97760000D03*
X129170000Y-97760000D03*
X127900000Y-97760000D03*
X126630000Y-97760000D03*
X125360000Y-97760000D03*
X112660000Y-50770000D03*
X113930000Y-50770000D03*
X129170000Y-50770000D03*
X127900000Y-50770000D03*
X126630000Y-50770000D03*
X125360000Y-50770000D03*
X124090000Y-50770000D03*
X122820000Y-50770000D03*
X121550000Y-50770000D03*
X120280000Y-50770000D03*
X119010000Y-50770000D03*
X117740000Y-50770000D03*
X116470000Y-50770000D03*
X115200000Y-50770000D03*
X112660000Y-52040000D03*
X113930000Y-52040000D03*
X129170000Y-52040000D03*
X127900000Y-52040000D03*
X126630000Y-52040000D03*
X125360000Y-52040000D03*
X124090000Y-52040000D03*
X122820000Y-52040000D03*
X121550000Y-52040000D03*
X120280000Y-52040000D03*
X119010000Y-52040000D03*
X117740000Y-52040000D03*
X116470000Y-52040000D03*
X115200000Y-52040000D03*
X112660000Y-53310000D03*
X113930000Y-53310000D03*
X129170000Y-53310000D03*
X127900000Y-53310000D03*
X126630000Y-53310000D03*
X125360000Y-53310000D03*
X124090000Y-53310000D03*
X122820000Y-53310000D03*
X121550000Y-53310000D03*
X120280000Y-53310000D03*
X119010000Y-53310000D03*
X117740000Y-53310000D03*
X116470000Y-53310000D03*
X115200000Y-53310000D03*
X112660000Y-54580000D03*
X113930000Y-54580000D03*
X129170000Y-54580000D03*
X127900000Y-54580000D03*
X126630000Y-54580000D03*
X125360000Y-54580000D03*
X124090000Y-54580000D03*
X122820000Y-54580000D03*
X121550000Y-54580000D03*
X120280000Y-54580000D03*
X119010000Y-54580000D03*
X117740000Y-54580000D03*
X116470000Y-54580000D03*
X115200000Y-54580000D03*
X112660000Y-55850000D03*
X113930000Y-55850000D03*
X129170000Y-55850000D03*
X127900000Y-55850000D03*
X126630000Y-55850000D03*
X125360000Y-55850000D03*
X124090000Y-55850000D03*
X122820000Y-55850000D03*
X121550000Y-55850000D03*
X120280000Y-55850000D03*
X119010000Y-55850000D03*
X117740000Y-55850000D03*
X116470000Y-55850000D03*
X115200000Y-55850000D03*
X112660000Y-57120000D03*
X113930000Y-57120000D03*
X129170000Y-57120000D03*
X127900000Y-57120000D03*
X126630000Y-57120000D03*
X125360000Y-57120000D03*
X124090000Y-57120000D03*
X122820000Y-57120000D03*
X121550000Y-57120000D03*
X120280000Y-57120000D03*
X119010000Y-57120000D03*
X117740000Y-57120000D03*
X116470000Y-57120000D03*
X115200000Y-57120000D03*
X112660000Y-58390000D03*
X113930000Y-58390000D03*
X129170000Y-58390000D03*
X127900000Y-58390000D03*
X126630000Y-58390000D03*
X125360000Y-58390000D03*
X124090000Y-58390000D03*
X122820000Y-58390000D03*
X121550000Y-58390000D03*
X120280000Y-58390000D03*
X119010000Y-58390000D03*
X117740000Y-58390000D03*
X116470000Y-58390000D03*
X115200000Y-58390000D03*
X112660000Y-59660000D03*
X113930000Y-59660000D03*
X129170000Y-59660000D03*
X127900000Y-59660000D03*
X126630000Y-59660000D03*
X125360000Y-59660000D03*
X124090000Y-59660000D03*
X122820000Y-59660000D03*
X121550000Y-59660000D03*
X120280000Y-59660000D03*
X119010000Y-59660000D03*
X117740000Y-59660000D03*
X116470000Y-59660000D03*
X115200000Y-59660000D03*
X112660000Y-60930000D03*
X113930000Y-60930000D03*
X129170000Y-60930000D03*
X127900000Y-60930000D03*
X126630000Y-60930000D03*
X125360000Y-60930000D03*
X124090000Y-60930000D03*
X122820000Y-60930000D03*
X121550000Y-60930000D03*
X120280000Y-60930000D03*
X119010000Y-60930000D03*
X117740000Y-60930000D03*
X116470000Y-60930000D03*
X115200000Y-60930000D03*
X112660000Y-62200000D03*
X113930000Y-62200000D03*
X129170000Y-62200000D03*
X127900000Y-62200000D03*
X126630000Y-62200000D03*
X125360000Y-62200000D03*
X124090000Y-62200000D03*
X122820000Y-62200000D03*
X121550000Y-62200000D03*
X120280000Y-62200000D03*
X119010000Y-62200000D03*
X117740000Y-62200000D03*
X116470000Y-62200000D03*
X115200000Y-62200000D03*
X112660000Y-63470000D03*
X113930000Y-63470000D03*
X129170000Y-63470000D03*
X127900000Y-63470000D03*
X126630000Y-63470000D03*
X125360000Y-63470000D03*
X124090000Y-63470000D03*
X122820000Y-63470000D03*
X121550000Y-63470000D03*
X120280000Y-63470000D03*
X119010000Y-63470000D03*
X117740000Y-63470000D03*
X116470000Y-63470000D03*
X115200000Y-63470000D03*
X112660000Y-64740000D03*
X113930000Y-64740000D03*
X129170000Y-64740000D03*
X127900000Y-64740000D03*
X126630000Y-64740000D03*
X125360000Y-64740000D03*
X124090000Y-64740000D03*
X122820000Y-64740000D03*
X121550000Y-64740000D03*
X120280000Y-64740000D03*
X119010000Y-64740000D03*
X117740000Y-64740000D03*
X116470000Y-64740000D03*
X115200000Y-64740000D03*
X112660000Y-66010000D03*
X113930000Y-66010000D03*
X129170000Y-66010000D03*
X127900000Y-66010000D03*
X126630000Y-66010000D03*
X125360000Y-66010000D03*
X124090000Y-66010000D03*
X122820000Y-66010000D03*
X121550000Y-66010000D03*
X120280000Y-66010000D03*
X119010000Y-66010000D03*
X117740000Y-66010000D03*
X116470000Y-66010000D03*
X115200000Y-66010000D03*
X112660000Y-67280000D03*
X113930000Y-67280000D03*
X129170000Y-67280000D03*
X127900000Y-67280000D03*
X126630000Y-67280000D03*
X125360000Y-67280000D03*
X124090000Y-67280000D03*
X122820000Y-67280000D03*
X121550000Y-67280000D03*
X120280000Y-67280000D03*
X119010000Y-67280000D03*
X117740000Y-67280000D03*
X116470000Y-67280000D03*
X115200000Y-67280000D03*
X112660000Y-68550000D03*
X113930000Y-68550000D03*
X129170000Y-68550000D03*
X127900000Y-68550000D03*
X126630000Y-68550000D03*
X125360000Y-68550000D03*
X124090000Y-68550000D03*
X122820000Y-68550000D03*
X121550000Y-68550000D03*
X120280000Y-68550000D03*
X119010000Y-68550000D03*
X117740000Y-68550000D03*
X116470000Y-68550000D03*
X115200000Y-68550000D03*
X112660000Y-69820000D03*
X113930000Y-69820000D03*
X129170000Y-69820000D03*
X127900000Y-69820000D03*
X126630000Y-69820000D03*
X125360000Y-69820000D03*
X124090000Y-69820000D03*
X122820000Y-69820000D03*
X121550000Y-69820000D03*
X120280000Y-69820000D03*
X119010000Y-69820000D03*
X117740000Y-69820000D03*
X116470000Y-69820000D03*
X115200000Y-69820000D03*
X112660000Y-71090000D03*
X113930000Y-71090000D03*
X129170000Y-71090000D03*
X127900000Y-71090000D03*
X126630000Y-71090000D03*
X125360000Y-71090000D03*
X124090000Y-71090000D03*
X122820000Y-71090000D03*
X121550000Y-71090000D03*
X120280000Y-71090000D03*
X119010000Y-71090000D03*
X117740000Y-71090000D03*
X116470000Y-71090000D03*
X115200000Y-71090000D03*
X112660000Y-72360000D03*
X113930000Y-72360000D03*
X129170000Y-72360000D03*
X127900000Y-72360000D03*
X126630000Y-72360000D03*
X125360000Y-72360000D03*
X124090000Y-72360000D03*
X122820000Y-72360000D03*
X121550000Y-72360000D03*
X120280000Y-72360000D03*
X119010000Y-72360000D03*
X117740000Y-72360000D03*
X116470000Y-72360000D03*
X115200000Y-72360000D03*
X112660000Y-73630000D03*
X113930000Y-73630000D03*
X129170000Y-73630000D03*
X127900000Y-73630000D03*
X126630000Y-73630000D03*
X125360000Y-73630000D03*
X124090000Y-73630000D03*
X122820000Y-73630000D03*
X121550000Y-73630000D03*
X120280000Y-73630000D03*
X119010000Y-73630000D03*
X117740000Y-73630000D03*
X116470000Y-73630000D03*
X115200000Y-73630000D03*
X112660000Y-74900000D03*
X113930000Y-74900000D03*
X129170000Y-74900000D03*
X127900000Y-74900000D03*
X126630000Y-74900000D03*
X125360000Y-74900000D03*
X124090000Y-74900000D03*
X122820000Y-74900000D03*
X121550000Y-74900000D03*
X120280000Y-74900000D03*
X119010000Y-74900000D03*
X117740000Y-74900000D03*
X116470000Y-74900000D03*
X115200000Y-74900000D03*
X112660000Y-76170000D03*
X113930000Y-76170000D03*
X129170000Y-76170000D03*
X127900000Y-76170000D03*
X126630000Y-76170000D03*
X125360000Y-76170000D03*
X124090000Y-76170000D03*
X122820000Y-76170000D03*
X121550000Y-76170000D03*
X120280000Y-76170000D03*
X119010000Y-76170000D03*
X117740000Y-76170000D03*
X116470000Y-76170000D03*
X115200000Y-76170000D03*
X112660000Y-77440000D03*
X113930000Y-77440000D03*
X129170000Y-77440000D03*
X127900000Y-77440000D03*
X126630000Y-77440000D03*
X125360000Y-77440000D03*
X124090000Y-77440000D03*
X122820000Y-77440000D03*
X121550000Y-77440000D03*
X120280000Y-77440000D03*
X119010000Y-77440000D03*
X117740000Y-77440000D03*
X116470000Y-77440000D03*
X115200000Y-77440000D03*
X112660000Y-78710000D03*
X113930000Y-78710000D03*
X129170000Y-78710000D03*
X127900000Y-78710000D03*
X126630000Y-78710000D03*
X125360000Y-78710000D03*
X124090000Y-78710000D03*
X122820000Y-78710000D03*
X121550000Y-78710000D03*
X120280000Y-78710000D03*
X119010000Y-78710000D03*
X117740000Y-78710000D03*
X116470000Y-78710000D03*
X115200000Y-78710000D03*
X112660000Y-79980000D03*
X113930000Y-79980000D03*
X129170000Y-79980000D03*
X127900000Y-79980000D03*
X126630000Y-79980000D03*
X125360000Y-79980000D03*
X124090000Y-79980000D03*
X122820000Y-79980000D03*
X121550000Y-79980000D03*
X120280000Y-79980000D03*
X119010000Y-79980000D03*
X117740000Y-79980000D03*
X116470000Y-79980000D03*
X115200000Y-79980000D03*
X112660000Y-81250000D03*
X113930000Y-81250000D03*
X129170000Y-81250000D03*
X127900000Y-81250000D03*
X126630000Y-81250000D03*
X125360000Y-81250000D03*
X124090000Y-81250000D03*
X122820000Y-81250000D03*
X121550000Y-81250000D03*
X120280000Y-81250000D03*
X119010000Y-81250000D03*
X117740000Y-81250000D03*
X116470000Y-81250000D03*
X115200000Y-81250000D03*
X112660000Y-82520000D03*
X113930000Y-82520000D03*
X129170000Y-82520000D03*
X127900000Y-82520000D03*
X126630000Y-82520000D03*
X125360000Y-82520000D03*
X124090000Y-82520000D03*
X122820000Y-82520000D03*
X121550000Y-82520000D03*
X120280000Y-82520000D03*
X119010000Y-82520000D03*
X117740000Y-82520000D03*
X116470000Y-82520000D03*
X115200000Y-82520000D03*
X112660000Y-83790000D03*
X113930000Y-83790000D03*
X129170000Y-83790000D03*
X127900000Y-83790000D03*
X126630000Y-83790000D03*
X125360000Y-83790000D03*
X124090000Y-83790000D03*
X122820000Y-83790000D03*
X121550000Y-83790000D03*
X120280000Y-83790000D03*
X119010000Y-83790000D03*
X117740000Y-83790000D03*
X116470000Y-83790000D03*
X115200000Y-83790000D03*
X112660000Y-85060000D03*
X113930000Y-85060000D03*
X129170000Y-85060000D03*
X127900000Y-85060000D03*
X126630000Y-85060000D03*
X125360000Y-85060000D03*
X124090000Y-85060000D03*
X122820000Y-85060000D03*
X121550000Y-85060000D03*
X120280000Y-85060000D03*
X119010000Y-85060000D03*
X117740000Y-85060000D03*
X116470000Y-85060000D03*
X115200000Y-85060000D03*
X112660000Y-86330000D03*
X113930000Y-86330000D03*
X129170000Y-86330000D03*
X127900000Y-86330000D03*
X126630000Y-86330000D03*
X125360000Y-86330000D03*
X124090000Y-86330000D03*
X122820000Y-86330000D03*
X121550000Y-86330000D03*
X120280000Y-86330000D03*
X119010000Y-86330000D03*
X117740000Y-86330000D03*
X116470000Y-86330000D03*
X115200000Y-86330000D03*
X112660000Y-87600000D03*
X113930000Y-87600000D03*
X129170000Y-87600000D03*
X127900000Y-87600000D03*
X126630000Y-87600000D03*
X125360000Y-87600000D03*
X124090000Y-87600000D03*
X122820000Y-87600000D03*
X121550000Y-87600000D03*
X120280000Y-87600000D03*
X119010000Y-87600000D03*
X117740000Y-87600000D03*
X116470000Y-87600000D03*
X115200000Y-87600000D03*
X112660000Y-88870000D03*
X113930000Y-88870000D03*
X129170000Y-88870000D03*
X127900000Y-88870000D03*
X126630000Y-88870000D03*
X125360000Y-88870000D03*
X124090000Y-88870000D03*
X122820000Y-88870000D03*
X121550000Y-88870000D03*
X120280000Y-88870000D03*
X119010000Y-88870000D03*
X117740000Y-88870000D03*
X116470000Y-88870000D03*
X115200000Y-88870000D03*
X112660000Y-90140000D03*
X113930000Y-90140000D03*
X129170000Y-90140000D03*
X124090000Y-97760000D03*
X122820000Y-97760000D03*
X121550000Y-97760000D03*
X120280000Y-97760000D03*
X119010000Y-97760000D03*
X117740000Y-97760000D03*
X116470000Y-97760000D03*
X115200000Y-97760000D03*
X112660000Y-99030000D03*
X113930000Y-99030000D03*
X129170000Y-99030000D03*
X127900000Y-99030000D03*
X126630000Y-99030000D03*
X125360000Y-99030000D03*
X124090000Y-99030000D03*
X122820000Y-99030000D03*
X121550000Y-99030000D03*
X120280000Y-99030000D03*
X119010000Y-99030000D03*
X117740000Y-99030000D03*
X116470000Y-99030000D03*
X115200000Y-99030000D03*
X112660000Y-100300000D03*
X113930000Y-100300000D03*
X129170000Y-100300000D03*
X127900000Y-100300000D03*
X126630000Y-100300000D03*
X125360000Y-100300000D03*
X124090000Y-100300000D03*
X122820000Y-100300000D03*
X121550000Y-100300000D03*
X120280000Y-100300000D03*
X119010000Y-100300000D03*
X117740000Y-100300000D03*
X116470000Y-100300000D03*
X115200000Y-100300000D03*
%TD*%
%TO.C,R113*%
G36*
G01*
X116680000Y-42875000D02*
X116680000Y-43425000D01*
G75*
G02*
X116480000Y-43625000I-200000J0D01*
G01*
X116080000Y-43625000D01*
G75*
G02*
X115880000Y-43425000I0J200000D01*
G01*
X115880000Y-42875000D01*
G75*
G02*
X116080000Y-42675000I200000J0D01*
G01*
X116480000Y-42675000D01*
G75*
G02*
X116680000Y-42875000I0J-200000D01*
G01*
G37*
G36*
G01*
X118330000Y-42875000D02*
X118330000Y-43425000D01*
G75*
G02*
X118130000Y-43625000I-200000J0D01*
G01*
X117730000Y-43625000D01*
G75*
G02*
X117530000Y-43425000I0J200000D01*
G01*
X117530000Y-42875000D01*
G75*
G02*
X117730000Y-42675000I200000J0D01*
G01*
X118130000Y-42675000D01*
G75*
G02*
X118330000Y-42875000I0J-200000D01*
G01*
G37*
%TD*%
D10*
%TO.C,J119*%
G36*
X138695054Y-69429119D02*
G01*
X138694217Y-69429082D01*
X138691739Y-69428835D01*
X138689214Y-69428619D01*
X138459013Y-69397530D01*
X138458993Y-69397528D01*
X138458970Y-69397524D01*
X138458163Y-69397409D01*
X138455753Y-69396928D01*
X138453229Y-69396460D01*
X138227144Y-69343051D01*
X138227139Y-69343050D01*
X138227133Y-69343048D01*
X138226325Y-69342851D01*
X138223957Y-69342132D01*
X138221507Y-69341425D01*
X138001709Y-69266207D01*
X138000918Y-69265930D01*
X137998578Y-69264961D01*
X137996263Y-69264040D01*
X137784861Y-69167738D01*
X137784853Y-69167735D01*
X137784844Y-69167730D01*
X137784094Y-69167382D01*
X137781879Y-69166200D01*
X137779644Y-69165046D01*
X137578658Y-69048577D01*
X137578642Y-69048569D01*
X137578625Y-69048558D01*
X137577920Y-69048143D01*
X137575837Y-69046754D01*
X137573720Y-69045385D01*
X137385052Y-68909856D01*
X137385042Y-68909850D01*
X137385031Y-68909841D01*
X137384366Y-68909356D01*
X137382478Y-68907812D01*
X137380454Y-68906202D01*
X137205915Y-68752909D01*
X137205904Y-68752901D01*
X137205892Y-68752890D01*
X137205279Y-68752343D01*
X137203535Y-68750606D01*
X137201694Y-68748822D01*
X137042936Y-68579220D01*
X137042368Y-68578604D01*
X137040786Y-68576686D01*
X137039144Y-68574750D01*
X136897694Y-68390466D01*
X136897189Y-68389797D01*
X136895827Y-68387770D01*
X136894356Y-68385647D01*
X136771575Y-68188453D01*
X136771565Y-68188439D01*
X136771555Y-68188421D01*
X136771128Y-68187725D01*
X136769941Y-68185522D01*
X136768714Y-68183317D01*
X136665760Y-67975084D01*
X136665751Y-67975068D01*
X136665742Y-67975048D01*
X136665386Y-67974314D01*
X136664429Y-67972028D01*
X136663414Y-67969693D01*
X136581272Y-67752408D01*
X136581264Y-67752390D01*
X136581257Y-67752369D01*
X136580974Y-67751604D01*
X136580249Y-67749247D01*
X136579462Y-67746812D01*
X136518911Y-67522530D01*
X136518698Y-67521719D01*
X136518201Y-67519279D01*
X136517661Y-67516803D01*
X136479285Y-67287682D01*
X136479153Y-67286855D01*
X136478894Y-67284357D01*
X136478601Y-67281861D01*
X136462767Y-67050110D01*
X136462765Y-67050090D01*
X136462765Y-67050067D01*
X136462714Y-67049254D01*
X136462701Y-67046761D01*
X136462652Y-67044229D01*
X136469509Y-66812018D01*
X136469540Y-66811181D01*
X136469770Y-66808694D01*
X136469968Y-66806174D01*
X136499453Y-66575741D01*
X136499566Y-66574910D01*
X136500033Y-66572481D01*
X136500480Y-66569970D01*
X136552310Y-66343514D01*
X136552503Y-66342698D01*
X136553213Y-66340299D01*
X136553896Y-66337870D01*
X136627577Y-66117552D01*
X136627848Y-66116759D01*
X136628787Y-66114445D01*
X136629705Y-66112090D01*
X136724533Y-65900014D01*
X136724881Y-65899252D01*
X136726031Y-65897061D01*
X136727185Y-65894786D01*
X136842248Y-65692991D01*
X136842256Y-65692975D01*
X136842267Y-65692958D01*
X136842677Y-65692250D01*
X136844043Y-65690169D01*
X136845405Y-65688031D01*
X136979611Y-65498427D01*
X136979620Y-65498413D01*
X136979632Y-65498398D01*
X136980110Y-65497732D01*
X136981681Y-65495785D01*
X136983237Y-65493800D01*
X137135305Y-65318195D01*
X137135314Y-65318183D01*
X137135326Y-65318170D01*
X137135868Y-65317554D01*
X137137603Y-65315788D01*
X137139364Y-65313945D01*
X137307843Y-65154017D01*
X137307853Y-65154006D01*
X137307866Y-65153995D01*
X137308465Y-65153434D01*
X137310365Y-65151845D01*
X137312297Y-65150183D01*
X137495579Y-65007458D01*
X137495589Y-65007450D01*
X137495601Y-65007442D01*
X137496255Y-65006940D01*
X137498297Y-65005547D01*
X137500385Y-65004079D01*
X137696731Y-64879914D01*
X137697443Y-64879471D01*
X137699635Y-64878271D01*
X137701833Y-64877027D01*
X137909342Y-64772622D01*
X137909358Y-64772613D01*
X137909377Y-64772605D01*
X137910109Y-64772242D01*
X137912416Y-64771258D01*
X137914717Y-64770238D01*
X138131441Y-64686574D01*
X138132225Y-64686278D01*
X138134590Y-64685532D01*
X138137006Y-64684732D01*
X138360840Y-64622622D01*
X138360859Y-64622616D01*
X138360881Y-64622611D01*
X138361668Y-64622398D01*
X138364108Y-64621884D01*
X138366578Y-64621327D01*
X138595425Y-64581352D01*
X138596251Y-64581214D01*
X138598738Y-64580939D01*
X138601242Y-64580627D01*
X138832874Y-64563177D01*
X138832896Y-64563174D01*
X138832921Y-64563173D01*
X138833733Y-64563118D01*
X138836193Y-64563087D01*
X138838756Y-64563020D01*
X139071009Y-64568256D01*
X139071011Y-64568256D01*
X139071847Y-64568281D01*
X139074353Y-64568496D01*
X139076857Y-64568675D01*
X139307489Y-64596549D01*
X139307491Y-64596549D01*
X139307494Y-64596550D01*
X139308322Y-64596656D01*
X139310762Y-64597108D01*
X139313269Y-64597536D01*
X139540081Y-64647784D01*
X139540898Y-64647971D01*
X139543309Y-64648667D01*
X139545735Y-64649330D01*
X139766562Y-64721471D01*
X139767357Y-64721737D01*
X139769683Y-64722663D01*
X139772039Y-64723562D01*
X139984755Y-64816900D01*
X139984772Y-64816907D01*
X139984791Y-64816917D01*
X139985537Y-64817250D01*
X139987721Y-64818377D01*
X139990018Y-64819522D01*
X140192627Y-64933181D01*
X140193355Y-64933597D01*
X140195448Y-64934950D01*
X140197593Y-64936296D01*
X140388135Y-65069178D01*
X140388145Y-65069184D01*
X140388156Y-65069192D01*
X140388828Y-65069668D01*
X140390785Y-65071224D01*
X140392783Y-65072768D01*
X140569456Y-65223617D01*
X140570090Y-65224166D01*
X140571910Y-65225929D01*
X140573723Y-65227637D01*
X140734833Y-65395004D01*
X140735410Y-65395612D01*
X140737057Y-65397553D01*
X140738687Y-65399422D01*
X140882696Y-65581713D01*
X140883211Y-65582375D01*
X140884637Y-65584433D01*
X140886101Y-65586485D01*
X141011635Y-65781959D01*
X141012083Y-65782667D01*
X141013314Y-65784879D01*
X141014558Y-65787041D01*
X141120417Y-65993832D01*
X141120793Y-65994581D01*
X141121784Y-65996860D01*
X141122830Y-65999175D01*
X141208004Y-66215309D01*
X141208305Y-66216091D01*
X141208798Y-66217615D01*
X141209371Y-66219156D01*
X141236989Y-66306175D01*
X141237237Y-66306976D01*
X141237377Y-66307537D01*
X141237559Y-66308060D01*
X141238937Y-66313757D01*
X141239753Y-66319562D01*
X141239999Y-66325419D01*
X141239671Y-66331272D01*
X141238775Y-66337065D01*
X141237317Y-66342742D01*
X141235312Y-66348251D01*
X141232779Y-66353537D01*
X141229742Y-66358552D01*
X141226231Y-66363245D01*
X141222278Y-66367574D01*
X141217922Y-66371497D01*
X141213203Y-66374975D01*
X141208168Y-66377977D01*
X141202864Y-66380473D01*
X141197342Y-66382439D01*
X141191654Y-66383857D01*
X141185855Y-66384714D01*
X141180000Y-66385000D01*
X140184203Y-66385000D01*
X140180523Y-66385205D01*
X140174665Y-66384960D01*
X140168861Y-66384143D01*
X140163163Y-66382764D01*
X140157627Y-66380836D01*
X140152306Y-66378376D01*
X140147250Y-66375410D01*
X140142508Y-66371964D01*
X140138125Y-66368071D01*
X140134143Y-66363770D01*
X140133322Y-66362688D01*
X140133240Y-66362596D01*
X140132982Y-66362241D01*
X140130599Y-66359101D01*
X140130042Y-66358196D01*
X140129794Y-66357854D01*
X140129003Y-66356506D01*
X140127528Y-66354107D01*
X140104157Y-66311587D01*
X140030649Y-66196624D01*
X139946859Y-66090130D01*
X139853073Y-65992315D01*
X139750194Y-65904123D01*
X139639191Y-65826384D01*
X139521136Y-65759852D01*
X139397167Y-65705163D01*
X139268436Y-65662827D01*
X139136190Y-65633255D01*
X139001696Y-65616730D01*
X138866222Y-65613408D01*
X138731078Y-65623321D01*
X138597548Y-65646375D01*
X138466902Y-65682350D01*
X138340383Y-65730903D01*
X138219219Y-65791565D01*
X138104534Y-65863774D01*
X137997466Y-65946809D01*
X137898989Y-66039920D01*
X137810083Y-66142179D01*
X137731577Y-66252628D01*
X137664221Y-66370215D01*
X137608666Y-66493805D01*
X137565431Y-66622242D01*
X137534938Y-66754269D01*
X137517473Y-66888658D01*
X137513206Y-67024096D01*
X137522176Y-67159304D01*
X137544296Y-67292994D01*
X137579361Y-67423899D01*
X137627025Y-67550737D01*
X137686848Y-67672339D01*
X137758241Y-67787504D01*
X137840537Y-67895163D01*
X137932949Y-67994277D01*
X138034582Y-68083895D01*
X138144491Y-68163178D01*
X138261601Y-68231351D01*
X138384808Y-68287772D01*
X138512938Y-68331901D01*
X138644744Y-68363313D01*
X138778997Y-68381715D01*
X138914412Y-68386928D01*
X139049689Y-68378902D01*
X139183524Y-68357715D01*
X139314667Y-68323566D01*
X139441838Y-68276788D01*
X139563839Y-68217824D01*
X139679520Y-68147225D01*
X139787747Y-68065684D01*
X139887502Y-67973969D01*
X139977833Y-67872957D01*
X140057881Y-67763604D01*
X140128358Y-67644454D01*
X140128790Y-67643735D01*
X140129551Y-67642616D01*
X140130258Y-67641448D01*
X140131207Y-67640179D01*
X140132085Y-67638888D01*
X140132951Y-67637849D01*
X140133769Y-67636755D01*
X140134828Y-67635596D01*
X140135837Y-67634384D01*
X140136808Y-67633427D01*
X140137722Y-67632426D01*
X140138899Y-67631366D01*
X140140012Y-67630269D01*
X140141056Y-67629424D01*
X140142078Y-67628503D01*
X140143350Y-67627566D01*
X140144568Y-67626579D01*
X140145706Y-67625829D01*
X140146797Y-67625025D01*
X140148154Y-67624216D01*
X140149462Y-67623354D01*
X140150656Y-67622724D01*
X140151832Y-67622023D01*
X140153253Y-67621354D01*
X140154647Y-67620619D01*
X140155913Y-67620102D01*
X140157136Y-67619527D01*
X140158611Y-67619002D01*
X140160074Y-67618405D01*
X140161383Y-67618015D01*
X140162658Y-67617561D01*
X140164179Y-67617182D01*
X140165692Y-67616731D01*
X140167030Y-67616471D01*
X140168346Y-67616143D01*
X140169904Y-67615913D01*
X140171447Y-67615613D01*
X140172795Y-67615485D01*
X140174145Y-67615286D01*
X140175715Y-67615209D01*
X140177283Y-67615061D01*
X140178646Y-67615066D01*
X140180000Y-67615000D01*
X141180000Y-67615000D01*
X141180838Y-67615006D01*
X141181924Y-67615074D01*
X141183027Y-67615076D01*
X141184863Y-67615259D01*
X141186688Y-67615374D01*
X141187771Y-67615549D01*
X141188860Y-67615658D01*
X141190650Y-67616016D01*
X141192475Y-67616311D01*
X141193543Y-67616593D01*
X141194608Y-67616806D01*
X141196371Y-67617341D01*
X141198142Y-67617809D01*
X141199153Y-67618185D01*
X141200218Y-67618508D01*
X141201930Y-67619218D01*
X141203637Y-67619852D01*
X141204624Y-67620334D01*
X141205634Y-67620752D01*
X141207258Y-67621619D01*
X141208905Y-67622422D01*
X141209828Y-67622990D01*
X141210805Y-67623511D01*
X141212344Y-67624537D01*
X141213898Y-67625493D01*
X141214770Y-67626155D01*
X141215682Y-67626763D01*
X141217105Y-67627928D01*
X141218567Y-67629037D01*
X141219368Y-67629778D01*
X141220219Y-67630475D01*
X141221525Y-67631776D01*
X141222868Y-67633020D01*
X141223594Y-67633838D01*
X141224371Y-67634612D01*
X141225544Y-67636034D01*
X141226760Y-67637404D01*
X141227401Y-67638286D01*
X141228102Y-67639136D01*
X141229128Y-67640662D01*
X141230206Y-67642146D01*
X141230762Y-67643094D01*
X141231371Y-67644000D01*
X141232240Y-67645613D01*
X141233172Y-67647202D01*
X141233632Y-67648197D01*
X141234151Y-67649161D01*
X141234863Y-67650863D01*
X141235631Y-67652524D01*
X141235988Y-67653549D01*
X141236415Y-67654569D01*
X141236957Y-67656331D01*
X141237559Y-67658060D01*
X141237819Y-67659134D01*
X141238138Y-67660172D01*
X141238501Y-67661956D01*
X141238937Y-67663757D01*
X141239090Y-67664846D01*
X141239308Y-67665916D01*
X141239497Y-67667741D01*
X141239753Y-67669562D01*
X141239799Y-67670655D01*
X141239912Y-67671747D01*
X141239922Y-67673578D01*
X141239999Y-67675419D01*
X141239937Y-67676521D01*
X141239943Y-67677608D01*
X141239774Y-67679427D01*
X141239671Y-67681272D01*
X141239502Y-67682363D01*
X141239402Y-67683445D01*
X141239059Y-67685229D01*
X141238775Y-67687065D01*
X141238500Y-67688135D01*
X141238295Y-67689202D01*
X141237776Y-67690955D01*
X141237317Y-67692742D01*
X141236941Y-67693776D01*
X141236631Y-67694822D01*
X141159881Y-67914090D01*
X141159599Y-67914879D01*
X141158612Y-67917218D01*
X141157676Y-67919522D01*
X141059904Y-68130236D01*
X141059897Y-68130253D01*
X141059887Y-68130272D01*
X141059538Y-68131011D01*
X141058355Y-68133190D01*
X141057172Y-68135444D01*
X140939303Y-68335612D01*
X140939295Y-68335628D01*
X140939284Y-68335645D01*
X140938864Y-68336347D01*
X140937486Y-68338383D01*
X140936077Y-68340528D01*
X140799234Y-68528244D01*
X140799227Y-68528254D01*
X140799218Y-68528265D01*
X140798728Y-68528927D01*
X140797130Y-68530853D01*
X140795546Y-68532816D01*
X140641031Y-68706292D01*
X140640469Y-68706914D01*
X140638679Y-68708687D01*
X140636923Y-68710474D01*
X140466217Y-68868044D01*
X140465597Y-68868608D01*
X140463658Y-68870184D01*
X140461720Y-68871805D01*
X140276463Y-69011956D01*
X140276454Y-69011964D01*
X140276442Y-69011972D01*
X140275782Y-69012465D01*
X140273696Y-69013846D01*
X140271611Y-69015268D01*
X140073551Y-69136680D01*
X140072833Y-69137112D01*
X140070668Y-69138259D01*
X140068409Y-69139496D01*
X139859446Y-69241001D01*
X139858690Y-69241361D01*
X139856398Y-69242301D01*
X139854055Y-69243301D01*
X139636202Y-69323924D01*
X139636184Y-69323932D01*
X139636162Y-69323939D01*
X139635396Y-69324216D01*
X139633029Y-69324927D01*
X139630593Y-69325695D01*
X139405894Y-69384679D01*
X139405082Y-69384886D01*
X139402609Y-69385371D01*
X139400158Y-69385888D01*
X139170793Y-69422662D01*
X139170776Y-69422665D01*
X139170756Y-69422667D01*
X139169948Y-69422791D01*
X139167492Y-69423028D01*
X139164950Y-69423309D01*
X138933073Y-69437526D01*
X138932237Y-69437571D01*
X138929723Y-69437567D01*
X138927211Y-69437598D01*
X138695054Y-69429119D01*
G37*
D18*
X138900000Y-70580000D03*
X138900000Y-63420000D03*
D19*
X138900000Y-67000000D03*
%TD*%
D10*
%TO.C,J118*%
G36*
X184104946Y-64570881D02*
G01*
X184105783Y-64570918D01*
X184108261Y-64571165D01*
X184110786Y-64571381D01*
X184340987Y-64602470D01*
X184341007Y-64602472D01*
X184341030Y-64602476D01*
X184341837Y-64602591D01*
X184344247Y-64603072D01*
X184346771Y-64603540D01*
X184572856Y-64656949D01*
X184572861Y-64656950D01*
X184572867Y-64656952D01*
X184573675Y-64657149D01*
X184576043Y-64657868D01*
X184578493Y-64658575D01*
X184798291Y-64733793D01*
X184799082Y-64734070D01*
X184801422Y-64735039D01*
X184803737Y-64735960D01*
X185015139Y-64832262D01*
X185015147Y-64832265D01*
X185015156Y-64832270D01*
X185015906Y-64832618D01*
X185018121Y-64833800D01*
X185020356Y-64834954D01*
X185221342Y-64951423D01*
X185221358Y-64951431D01*
X185221375Y-64951442D01*
X185222080Y-64951857D01*
X185224163Y-64953246D01*
X185226280Y-64954615D01*
X185414948Y-65090144D01*
X185414958Y-65090150D01*
X185414969Y-65090159D01*
X185415634Y-65090644D01*
X185417522Y-65092188D01*
X185419546Y-65093798D01*
X185594085Y-65247091D01*
X185594096Y-65247099D01*
X185594108Y-65247110D01*
X185594721Y-65247657D01*
X185596465Y-65249394D01*
X185598306Y-65251178D01*
X185757064Y-65420780D01*
X185757632Y-65421396D01*
X185759214Y-65423314D01*
X185760856Y-65425250D01*
X185902306Y-65609534D01*
X185902811Y-65610203D01*
X185904173Y-65612230D01*
X185905644Y-65614353D01*
X186028425Y-65811547D01*
X186028435Y-65811561D01*
X186028445Y-65811579D01*
X186028872Y-65812275D01*
X186030059Y-65814478D01*
X186031286Y-65816683D01*
X186134240Y-66024916D01*
X186134249Y-66024932D01*
X186134258Y-66024952D01*
X186134614Y-66025686D01*
X186135571Y-66027972D01*
X186136586Y-66030307D01*
X186218728Y-66247592D01*
X186218736Y-66247610D01*
X186218743Y-66247631D01*
X186219026Y-66248396D01*
X186219751Y-66250753D01*
X186220538Y-66253188D01*
X186281089Y-66477470D01*
X186281302Y-66478281D01*
X186281799Y-66480721D01*
X186282339Y-66483197D01*
X186320715Y-66712318D01*
X186320847Y-66713145D01*
X186321106Y-66715643D01*
X186321399Y-66718139D01*
X186337233Y-66949890D01*
X186337235Y-66949910D01*
X186337235Y-66949933D01*
X186337286Y-66950746D01*
X186337299Y-66953239D01*
X186337348Y-66955771D01*
X186330491Y-67187982D01*
X186330460Y-67188819D01*
X186330230Y-67191306D01*
X186330032Y-67193826D01*
X186300547Y-67424259D01*
X186300434Y-67425090D01*
X186299967Y-67427519D01*
X186299520Y-67430030D01*
X186247690Y-67656486D01*
X186247497Y-67657302D01*
X186246787Y-67659701D01*
X186246104Y-67662130D01*
X186172423Y-67882448D01*
X186172152Y-67883241D01*
X186171213Y-67885555D01*
X186170295Y-67887910D01*
X186075467Y-68099986D01*
X186075119Y-68100748D01*
X186073969Y-68102939D01*
X186072815Y-68105214D01*
X185957752Y-68307009D01*
X185957744Y-68307025D01*
X185957733Y-68307042D01*
X185957323Y-68307750D01*
X185955957Y-68309831D01*
X185954595Y-68311969D01*
X185820389Y-68501573D01*
X185820380Y-68501587D01*
X185820368Y-68501602D01*
X185819890Y-68502268D01*
X185818319Y-68504215D01*
X185816763Y-68506200D01*
X185664695Y-68681805D01*
X185664686Y-68681817D01*
X185664674Y-68681830D01*
X185664132Y-68682446D01*
X185662397Y-68684212D01*
X185660636Y-68686055D01*
X185492157Y-68845983D01*
X185492147Y-68845994D01*
X185492134Y-68846005D01*
X185491535Y-68846566D01*
X185489635Y-68848155D01*
X185487703Y-68849817D01*
X185304421Y-68992542D01*
X185304411Y-68992550D01*
X185304399Y-68992558D01*
X185303745Y-68993060D01*
X185301703Y-68994453D01*
X185299615Y-68995921D01*
X185103269Y-69120086D01*
X185102557Y-69120529D01*
X185100365Y-69121729D01*
X185098167Y-69122973D01*
X184890658Y-69227378D01*
X184890642Y-69227387D01*
X184890623Y-69227395D01*
X184889891Y-69227758D01*
X184887584Y-69228742D01*
X184885283Y-69229762D01*
X184668559Y-69313426D01*
X184667775Y-69313722D01*
X184665410Y-69314468D01*
X184662994Y-69315268D01*
X184439160Y-69377378D01*
X184439141Y-69377384D01*
X184439119Y-69377389D01*
X184438332Y-69377602D01*
X184435892Y-69378116D01*
X184433422Y-69378673D01*
X184204575Y-69418648D01*
X184203749Y-69418786D01*
X184201262Y-69419061D01*
X184198758Y-69419373D01*
X183967126Y-69436823D01*
X183967104Y-69436826D01*
X183967079Y-69436827D01*
X183966267Y-69436882D01*
X183963807Y-69436913D01*
X183961244Y-69436980D01*
X183728991Y-69431744D01*
X183728989Y-69431744D01*
X183728153Y-69431719D01*
X183725647Y-69431504D01*
X183723143Y-69431325D01*
X183492511Y-69403451D01*
X183492509Y-69403451D01*
X183492506Y-69403450D01*
X183491678Y-69403344D01*
X183489238Y-69402892D01*
X183486731Y-69402464D01*
X183259919Y-69352216D01*
X183259102Y-69352029D01*
X183256691Y-69351333D01*
X183254265Y-69350670D01*
X183033438Y-69278529D01*
X183032643Y-69278263D01*
X183030317Y-69277337D01*
X183027961Y-69276438D01*
X182815245Y-69183100D01*
X182815228Y-69183093D01*
X182815209Y-69183083D01*
X182814463Y-69182750D01*
X182812279Y-69181623D01*
X182809982Y-69180478D01*
X182607373Y-69066819D01*
X182606645Y-69066403D01*
X182604552Y-69065050D01*
X182602407Y-69063704D01*
X182411865Y-68930822D01*
X182411855Y-68930816D01*
X182411844Y-68930808D01*
X182411172Y-68930332D01*
X182409215Y-68928776D01*
X182407217Y-68927232D01*
X182230544Y-68776383D01*
X182229910Y-68775834D01*
X182228090Y-68774071D01*
X182226277Y-68772363D01*
X182065167Y-68604996D01*
X182064590Y-68604388D01*
X182062943Y-68602447D01*
X182061313Y-68600578D01*
X181917304Y-68418287D01*
X181916789Y-68417625D01*
X181915363Y-68415567D01*
X181913899Y-68413515D01*
X181788365Y-68218041D01*
X181787917Y-68217333D01*
X181786686Y-68215121D01*
X181785442Y-68212959D01*
X181679583Y-68006168D01*
X181679207Y-68005419D01*
X181678216Y-68003140D01*
X181677170Y-68000825D01*
X181591996Y-67784691D01*
X181591695Y-67783909D01*
X181591202Y-67782385D01*
X181590629Y-67780844D01*
X181563011Y-67693825D01*
X181562763Y-67693024D01*
X181562623Y-67692463D01*
X181562441Y-67691940D01*
X181561063Y-67686243D01*
X181560247Y-67680438D01*
X181560001Y-67674581D01*
X181560329Y-67668728D01*
X181561225Y-67662935D01*
X181562683Y-67657258D01*
X181564688Y-67651749D01*
X181567221Y-67646463D01*
X181570258Y-67641448D01*
X181573769Y-67636755D01*
X181577722Y-67632426D01*
X181582078Y-67628503D01*
X181586797Y-67625025D01*
X181591832Y-67622023D01*
X181597136Y-67619527D01*
X181602658Y-67617561D01*
X181608346Y-67616143D01*
X181614145Y-67615286D01*
X181620000Y-67615000D01*
X182615797Y-67615000D01*
X182619477Y-67614795D01*
X182625335Y-67615040D01*
X182631139Y-67615857D01*
X182636837Y-67617236D01*
X182642373Y-67619164D01*
X182647694Y-67621624D01*
X182652750Y-67624590D01*
X182657492Y-67628036D01*
X182661875Y-67631929D01*
X182665857Y-67636230D01*
X182666678Y-67637312D01*
X182666760Y-67637404D01*
X182667018Y-67637759D01*
X182669401Y-67640899D01*
X182669958Y-67641804D01*
X182670206Y-67642146D01*
X182670997Y-67643494D01*
X182672472Y-67645893D01*
X182695843Y-67688413D01*
X182769351Y-67803376D01*
X182853141Y-67909870D01*
X182946927Y-68007685D01*
X183049806Y-68095877D01*
X183160809Y-68173616D01*
X183278864Y-68240148D01*
X183402833Y-68294837D01*
X183531564Y-68337173D01*
X183663810Y-68366745D01*
X183798304Y-68383270D01*
X183933778Y-68386592D01*
X184068922Y-68376679D01*
X184202452Y-68353625D01*
X184333098Y-68317650D01*
X184459617Y-68269097D01*
X184580781Y-68208435D01*
X184695466Y-68136226D01*
X184802534Y-68053191D01*
X184901011Y-67960080D01*
X184989917Y-67857821D01*
X185068423Y-67747372D01*
X185135779Y-67629785D01*
X185191334Y-67506195D01*
X185234569Y-67377758D01*
X185265062Y-67245731D01*
X185282527Y-67111342D01*
X185286794Y-66975904D01*
X185277824Y-66840696D01*
X185255704Y-66707006D01*
X185220639Y-66576101D01*
X185172975Y-66449263D01*
X185113152Y-66327661D01*
X185041759Y-66212496D01*
X184959463Y-66104837D01*
X184867051Y-66005723D01*
X184765418Y-65916105D01*
X184655509Y-65836822D01*
X184538399Y-65768649D01*
X184415192Y-65712228D01*
X184287062Y-65668099D01*
X184155256Y-65636687D01*
X184021003Y-65618285D01*
X183885588Y-65613072D01*
X183750311Y-65621098D01*
X183616476Y-65642285D01*
X183485333Y-65676434D01*
X183358162Y-65723212D01*
X183236161Y-65782176D01*
X183120480Y-65852775D01*
X183012253Y-65934316D01*
X182912498Y-66026031D01*
X182822167Y-66127043D01*
X182742119Y-66236396D01*
X182671642Y-66355546D01*
X182671210Y-66356265D01*
X182670449Y-66357384D01*
X182669742Y-66358552D01*
X182668793Y-66359821D01*
X182667915Y-66361112D01*
X182667049Y-66362151D01*
X182666231Y-66363245D01*
X182665172Y-66364404D01*
X182664163Y-66365616D01*
X182663192Y-66366573D01*
X182662278Y-66367574D01*
X182661101Y-66368634D01*
X182659988Y-66369731D01*
X182658944Y-66370576D01*
X182657922Y-66371497D01*
X182656650Y-66372434D01*
X182655432Y-66373421D01*
X182654294Y-66374171D01*
X182653203Y-66374975D01*
X182651846Y-66375784D01*
X182650538Y-66376646D01*
X182649344Y-66377276D01*
X182648168Y-66377977D01*
X182646747Y-66378646D01*
X182645353Y-66379381D01*
X182644087Y-66379898D01*
X182642864Y-66380473D01*
X182641389Y-66380998D01*
X182639926Y-66381595D01*
X182638617Y-66381985D01*
X182637342Y-66382439D01*
X182635821Y-66382818D01*
X182634308Y-66383269D01*
X182632970Y-66383529D01*
X182631654Y-66383857D01*
X182630096Y-66384087D01*
X182628553Y-66384387D01*
X182627205Y-66384515D01*
X182625855Y-66384714D01*
X182624285Y-66384791D01*
X182622717Y-66384939D01*
X182621354Y-66384934D01*
X182620000Y-66385000D01*
X181620000Y-66385000D01*
X181619162Y-66384994D01*
X181618076Y-66384926D01*
X181616973Y-66384924D01*
X181615137Y-66384741D01*
X181613312Y-66384626D01*
X181612229Y-66384451D01*
X181611140Y-66384342D01*
X181609350Y-66383984D01*
X181607525Y-66383689D01*
X181606457Y-66383407D01*
X181605392Y-66383194D01*
X181603629Y-66382659D01*
X181601858Y-66382191D01*
X181600847Y-66381815D01*
X181599782Y-66381492D01*
X181598070Y-66380782D01*
X181596363Y-66380148D01*
X181595376Y-66379666D01*
X181594366Y-66379248D01*
X181592742Y-66378381D01*
X181591095Y-66377578D01*
X181590172Y-66377010D01*
X181589195Y-66376489D01*
X181587656Y-66375463D01*
X181586102Y-66374507D01*
X181585230Y-66373845D01*
X181584318Y-66373237D01*
X181582895Y-66372072D01*
X181581433Y-66370963D01*
X181580632Y-66370222D01*
X181579781Y-66369525D01*
X181578475Y-66368224D01*
X181577132Y-66366980D01*
X181576406Y-66366162D01*
X181575629Y-66365388D01*
X181574456Y-66363966D01*
X181573240Y-66362596D01*
X181572599Y-66361714D01*
X181571898Y-66360864D01*
X181570872Y-66359338D01*
X181569794Y-66357854D01*
X181569238Y-66356906D01*
X181568629Y-66356000D01*
X181567760Y-66354387D01*
X181566828Y-66352798D01*
X181566368Y-66351803D01*
X181565849Y-66350839D01*
X181565137Y-66349137D01*
X181564369Y-66347476D01*
X181564012Y-66346451D01*
X181563585Y-66345431D01*
X181563043Y-66343669D01*
X181562441Y-66341940D01*
X181562181Y-66340866D01*
X181561862Y-66339828D01*
X181561499Y-66338044D01*
X181561063Y-66336243D01*
X181560910Y-66335154D01*
X181560692Y-66334084D01*
X181560503Y-66332259D01*
X181560247Y-66330438D01*
X181560201Y-66329345D01*
X181560088Y-66328253D01*
X181560078Y-66326422D01*
X181560001Y-66324581D01*
X181560063Y-66323479D01*
X181560057Y-66322392D01*
X181560226Y-66320573D01*
X181560329Y-66318728D01*
X181560498Y-66317637D01*
X181560598Y-66316555D01*
X181560941Y-66314771D01*
X181561225Y-66312935D01*
X181561500Y-66311865D01*
X181561705Y-66310798D01*
X181562224Y-66309045D01*
X181562683Y-66307258D01*
X181563059Y-66306224D01*
X181563369Y-66305178D01*
X181640119Y-66085910D01*
X181640401Y-66085121D01*
X181641388Y-66082782D01*
X181642324Y-66080478D01*
X181740096Y-65869764D01*
X181740103Y-65869747D01*
X181740113Y-65869728D01*
X181740462Y-65868989D01*
X181741645Y-65866810D01*
X181742828Y-65864556D01*
X181860697Y-65664388D01*
X181860705Y-65664372D01*
X181860716Y-65664355D01*
X181861136Y-65663653D01*
X181862514Y-65661617D01*
X181863923Y-65659472D01*
X182000766Y-65471756D01*
X182000773Y-65471746D01*
X182000782Y-65471735D01*
X182001272Y-65471073D01*
X182002870Y-65469147D01*
X182004454Y-65467184D01*
X182158969Y-65293708D01*
X182159531Y-65293086D01*
X182161321Y-65291313D01*
X182163077Y-65289526D01*
X182333783Y-65131956D01*
X182334403Y-65131392D01*
X182336342Y-65129816D01*
X182338280Y-65128195D01*
X182523537Y-64988044D01*
X182523546Y-64988036D01*
X182523558Y-64988028D01*
X182524218Y-64987535D01*
X182526304Y-64986154D01*
X182528389Y-64984732D01*
X182726449Y-64863320D01*
X182727167Y-64862888D01*
X182729332Y-64861741D01*
X182731591Y-64860504D01*
X182940554Y-64758999D01*
X182941310Y-64758639D01*
X182943602Y-64757699D01*
X182945945Y-64756699D01*
X183163798Y-64676076D01*
X183163816Y-64676068D01*
X183163838Y-64676061D01*
X183164604Y-64675784D01*
X183166971Y-64675073D01*
X183169407Y-64674305D01*
X183394106Y-64615321D01*
X183394918Y-64615114D01*
X183397391Y-64614629D01*
X183399842Y-64614112D01*
X183629207Y-64577338D01*
X183629224Y-64577335D01*
X183629244Y-64577333D01*
X183630052Y-64577209D01*
X183632508Y-64576972D01*
X183635050Y-64576691D01*
X183866927Y-64562474D01*
X183867763Y-64562429D01*
X183870277Y-64562433D01*
X183872789Y-64562402D01*
X184104946Y-64570881D01*
G37*
D18*
X183900000Y-63420000D03*
X183900000Y-70580000D03*
D19*
X183900000Y-67000000D03*
%TD*%
D10*
%TO.C,J117*%
G36*
X154104946Y-64570881D02*
G01*
X154105783Y-64570918D01*
X154108261Y-64571165D01*
X154110786Y-64571381D01*
X154340987Y-64602470D01*
X154341007Y-64602472D01*
X154341030Y-64602476D01*
X154341837Y-64602591D01*
X154344247Y-64603072D01*
X154346771Y-64603540D01*
X154572856Y-64656949D01*
X154572861Y-64656950D01*
X154572867Y-64656952D01*
X154573675Y-64657149D01*
X154576043Y-64657868D01*
X154578493Y-64658575D01*
X154798291Y-64733793D01*
X154799082Y-64734070D01*
X154801422Y-64735039D01*
X154803737Y-64735960D01*
X155015139Y-64832262D01*
X155015147Y-64832265D01*
X155015156Y-64832270D01*
X155015906Y-64832618D01*
X155018121Y-64833800D01*
X155020356Y-64834954D01*
X155221342Y-64951423D01*
X155221358Y-64951431D01*
X155221375Y-64951442D01*
X155222080Y-64951857D01*
X155224163Y-64953246D01*
X155226280Y-64954615D01*
X155414948Y-65090144D01*
X155414958Y-65090150D01*
X155414969Y-65090159D01*
X155415634Y-65090644D01*
X155417522Y-65092188D01*
X155419546Y-65093798D01*
X155594085Y-65247091D01*
X155594096Y-65247099D01*
X155594108Y-65247110D01*
X155594721Y-65247657D01*
X155596465Y-65249394D01*
X155598306Y-65251178D01*
X155757064Y-65420780D01*
X155757632Y-65421396D01*
X155759214Y-65423314D01*
X155760856Y-65425250D01*
X155902306Y-65609534D01*
X155902811Y-65610203D01*
X155904173Y-65612230D01*
X155905644Y-65614353D01*
X156028425Y-65811547D01*
X156028435Y-65811561D01*
X156028445Y-65811579D01*
X156028872Y-65812275D01*
X156030059Y-65814478D01*
X156031286Y-65816683D01*
X156134240Y-66024916D01*
X156134249Y-66024932D01*
X156134258Y-66024952D01*
X156134614Y-66025686D01*
X156135571Y-66027972D01*
X156136586Y-66030307D01*
X156218728Y-66247592D01*
X156218736Y-66247610D01*
X156218743Y-66247631D01*
X156219026Y-66248396D01*
X156219751Y-66250753D01*
X156220538Y-66253188D01*
X156281089Y-66477470D01*
X156281302Y-66478281D01*
X156281799Y-66480721D01*
X156282339Y-66483197D01*
X156320715Y-66712318D01*
X156320847Y-66713145D01*
X156321106Y-66715643D01*
X156321399Y-66718139D01*
X156337233Y-66949890D01*
X156337235Y-66949910D01*
X156337235Y-66949933D01*
X156337286Y-66950746D01*
X156337299Y-66953239D01*
X156337348Y-66955771D01*
X156330491Y-67187982D01*
X156330460Y-67188819D01*
X156330230Y-67191306D01*
X156330032Y-67193826D01*
X156300547Y-67424259D01*
X156300434Y-67425090D01*
X156299967Y-67427519D01*
X156299520Y-67430030D01*
X156247690Y-67656486D01*
X156247497Y-67657302D01*
X156246787Y-67659701D01*
X156246104Y-67662130D01*
X156172423Y-67882448D01*
X156172152Y-67883241D01*
X156171213Y-67885555D01*
X156170295Y-67887910D01*
X156075467Y-68099986D01*
X156075119Y-68100748D01*
X156073969Y-68102939D01*
X156072815Y-68105214D01*
X155957752Y-68307009D01*
X155957744Y-68307025D01*
X155957733Y-68307042D01*
X155957323Y-68307750D01*
X155955957Y-68309831D01*
X155954595Y-68311969D01*
X155820389Y-68501573D01*
X155820380Y-68501587D01*
X155820368Y-68501602D01*
X155819890Y-68502268D01*
X155818319Y-68504215D01*
X155816763Y-68506200D01*
X155664695Y-68681805D01*
X155664686Y-68681817D01*
X155664674Y-68681830D01*
X155664132Y-68682446D01*
X155662397Y-68684212D01*
X155660636Y-68686055D01*
X155492157Y-68845983D01*
X155492147Y-68845994D01*
X155492134Y-68846005D01*
X155491535Y-68846566D01*
X155489635Y-68848155D01*
X155487703Y-68849817D01*
X155304421Y-68992542D01*
X155304411Y-68992550D01*
X155304399Y-68992558D01*
X155303745Y-68993060D01*
X155301703Y-68994453D01*
X155299615Y-68995921D01*
X155103269Y-69120086D01*
X155102557Y-69120529D01*
X155100365Y-69121729D01*
X155098167Y-69122973D01*
X154890658Y-69227378D01*
X154890642Y-69227387D01*
X154890623Y-69227395D01*
X154889891Y-69227758D01*
X154887584Y-69228742D01*
X154885283Y-69229762D01*
X154668559Y-69313426D01*
X154667775Y-69313722D01*
X154665410Y-69314468D01*
X154662994Y-69315268D01*
X154439160Y-69377378D01*
X154439141Y-69377384D01*
X154439119Y-69377389D01*
X154438332Y-69377602D01*
X154435892Y-69378116D01*
X154433422Y-69378673D01*
X154204575Y-69418648D01*
X154203749Y-69418786D01*
X154201262Y-69419061D01*
X154198758Y-69419373D01*
X153967126Y-69436823D01*
X153967104Y-69436826D01*
X153967079Y-69436827D01*
X153966267Y-69436882D01*
X153963807Y-69436913D01*
X153961244Y-69436980D01*
X153728991Y-69431744D01*
X153728989Y-69431744D01*
X153728153Y-69431719D01*
X153725647Y-69431504D01*
X153723143Y-69431325D01*
X153492511Y-69403451D01*
X153492509Y-69403451D01*
X153492506Y-69403450D01*
X153491678Y-69403344D01*
X153489238Y-69402892D01*
X153486731Y-69402464D01*
X153259919Y-69352216D01*
X153259102Y-69352029D01*
X153256691Y-69351333D01*
X153254265Y-69350670D01*
X153033438Y-69278529D01*
X153032643Y-69278263D01*
X153030317Y-69277337D01*
X153027961Y-69276438D01*
X152815245Y-69183100D01*
X152815228Y-69183093D01*
X152815209Y-69183083D01*
X152814463Y-69182750D01*
X152812279Y-69181623D01*
X152809982Y-69180478D01*
X152607373Y-69066819D01*
X152606645Y-69066403D01*
X152604552Y-69065050D01*
X152602407Y-69063704D01*
X152411865Y-68930822D01*
X152411855Y-68930816D01*
X152411844Y-68930808D01*
X152411172Y-68930332D01*
X152409215Y-68928776D01*
X152407217Y-68927232D01*
X152230544Y-68776383D01*
X152229910Y-68775834D01*
X152228090Y-68774071D01*
X152226277Y-68772363D01*
X152065167Y-68604996D01*
X152064590Y-68604388D01*
X152062943Y-68602447D01*
X152061313Y-68600578D01*
X151917304Y-68418287D01*
X151916789Y-68417625D01*
X151915363Y-68415567D01*
X151913899Y-68413515D01*
X151788365Y-68218041D01*
X151787917Y-68217333D01*
X151786686Y-68215121D01*
X151785442Y-68212959D01*
X151679583Y-68006168D01*
X151679207Y-68005419D01*
X151678216Y-68003140D01*
X151677170Y-68000825D01*
X151591996Y-67784691D01*
X151591695Y-67783909D01*
X151591202Y-67782385D01*
X151590629Y-67780844D01*
X151563011Y-67693825D01*
X151562763Y-67693024D01*
X151562623Y-67692463D01*
X151562441Y-67691940D01*
X151561063Y-67686243D01*
X151560247Y-67680438D01*
X151560001Y-67674581D01*
X151560329Y-67668728D01*
X151561225Y-67662935D01*
X151562683Y-67657258D01*
X151564688Y-67651749D01*
X151567221Y-67646463D01*
X151570258Y-67641448D01*
X151573769Y-67636755D01*
X151577722Y-67632426D01*
X151582078Y-67628503D01*
X151586797Y-67625025D01*
X151591832Y-67622023D01*
X151597136Y-67619527D01*
X151602658Y-67617561D01*
X151608346Y-67616143D01*
X151614145Y-67615286D01*
X151620000Y-67615000D01*
X152615797Y-67615000D01*
X152619477Y-67614795D01*
X152625335Y-67615040D01*
X152631139Y-67615857D01*
X152636837Y-67617236D01*
X152642373Y-67619164D01*
X152647694Y-67621624D01*
X152652750Y-67624590D01*
X152657492Y-67628036D01*
X152661875Y-67631929D01*
X152665857Y-67636230D01*
X152666678Y-67637312D01*
X152666760Y-67637404D01*
X152667018Y-67637759D01*
X152669401Y-67640899D01*
X152669958Y-67641804D01*
X152670206Y-67642146D01*
X152670997Y-67643494D01*
X152672472Y-67645893D01*
X152695843Y-67688413D01*
X152769351Y-67803376D01*
X152853141Y-67909870D01*
X152946927Y-68007685D01*
X153049806Y-68095877D01*
X153160809Y-68173616D01*
X153278864Y-68240148D01*
X153402833Y-68294837D01*
X153531564Y-68337173D01*
X153663810Y-68366745D01*
X153798304Y-68383270D01*
X153933778Y-68386592D01*
X154068922Y-68376679D01*
X154202452Y-68353625D01*
X154333098Y-68317650D01*
X154459617Y-68269097D01*
X154580781Y-68208435D01*
X154695466Y-68136226D01*
X154802534Y-68053191D01*
X154901011Y-67960080D01*
X154989917Y-67857821D01*
X155068423Y-67747372D01*
X155135779Y-67629785D01*
X155191334Y-67506195D01*
X155234569Y-67377758D01*
X155265062Y-67245731D01*
X155282527Y-67111342D01*
X155286794Y-66975904D01*
X155277824Y-66840696D01*
X155255704Y-66707006D01*
X155220639Y-66576101D01*
X155172975Y-66449263D01*
X155113152Y-66327661D01*
X155041759Y-66212496D01*
X154959463Y-66104837D01*
X154867051Y-66005723D01*
X154765418Y-65916105D01*
X154655509Y-65836822D01*
X154538399Y-65768649D01*
X154415192Y-65712228D01*
X154287062Y-65668099D01*
X154155256Y-65636687D01*
X154021003Y-65618285D01*
X153885588Y-65613072D01*
X153750311Y-65621098D01*
X153616476Y-65642285D01*
X153485333Y-65676434D01*
X153358162Y-65723212D01*
X153236161Y-65782176D01*
X153120480Y-65852775D01*
X153012253Y-65934316D01*
X152912498Y-66026031D01*
X152822167Y-66127043D01*
X152742119Y-66236396D01*
X152671642Y-66355546D01*
X152671210Y-66356265D01*
X152670449Y-66357384D01*
X152669742Y-66358552D01*
X152668793Y-66359821D01*
X152667915Y-66361112D01*
X152667049Y-66362151D01*
X152666231Y-66363245D01*
X152665172Y-66364404D01*
X152664163Y-66365616D01*
X152663192Y-66366573D01*
X152662278Y-66367574D01*
X152661101Y-66368634D01*
X152659988Y-66369731D01*
X152658944Y-66370576D01*
X152657922Y-66371497D01*
X152656650Y-66372434D01*
X152655432Y-66373421D01*
X152654294Y-66374171D01*
X152653203Y-66374975D01*
X152651846Y-66375784D01*
X152650538Y-66376646D01*
X152649344Y-66377276D01*
X152648168Y-66377977D01*
X152646747Y-66378646D01*
X152645353Y-66379381D01*
X152644087Y-66379898D01*
X152642864Y-66380473D01*
X152641389Y-66380998D01*
X152639926Y-66381595D01*
X152638617Y-66381985D01*
X152637342Y-66382439D01*
X152635821Y-66382818D01*
X152634308Y-66383269D01*
X152632970Y-66383529D01*
X152631654Y-66383857D01*
X152630096Y-66384087D01*
X152628553Y-66384387D01*
X152627205Y-66384515D01*
X152625855Y-66384714D01*
X152624285Y-66384791D01*
X152622717Y-66384939D01*
X152621354Y-66384934D01*
X152620000Y-66385000D01*
X151620000Y-66385000D01*
X151619162Y-66384994D01*
X151618076Y-66384926D01*
X151616973Y-66384924D01*
X151615137Y-66384741D01*
X151613312Y-66384626D01*
X151612229Y-66384451D01*
X151611140Y-66384342D01*
X151609350Y-66383984D01*
X151607525Y-66383689D01*
X151606457Y-66383407D01*
X151605392Y-66383194D01*
X151603629Y-66382659D01*
X151601858Y-66382191D01*
X151600847Y-66381815D01*
X151599782Y-66381492D01*
X151598070Y-66380782D01*
X151596363Y-66380148D01*
X151595376Y-66379666D01*
X151594366Y-66379248D01*
X151592742Y-66378381D01*
X151591095Y-66377578D01*
X151590172Y-66377010D01*
X151589195Y-66376489D01*
X151587656Y-66375463D01*
X151586102Y-66374507D01*
X151585230Y-66373845D01*
X151584318Y-66373237D01*
X151582895Y-66372072D01*
X151581433Y-66370963D01*
X151580632Y-66370222D01*
X151579781Y-66369525D01*
X151578475Y-66368224D01*
X151577132Y-66366980D01*
X151576406Y-66366162D01*
X151575629Y-66365388D01*
X151574456Y-66363966D01*
X151573240Y-66362596D01*
X151572599Y-66361714D01*
X151571898Y-66360864D01*
X151570872Y-66359338D01*
X151569794Y-66357854D01*
X151569238Y-66356906D01*
X151568629Y-66356000D01*
X151567760Y-66354387D01*
X151566828Y-66352798D01*
X151566368Y-66351803D01*
X151565849Y-66350839D01*
X151565137Y-66349137D01*
X151564369Y-66347476D01*
X151564012Y-66346451D01*
X151563585Y-66345431D01*
X151563043Y-66343669D01*
X151562441Y-66341940D01*
X151562181Y-66340866D01*
X151561862Y-66339828D01*
X151561499Y-66338044D01*
X151561063Y-66336243D01*
X151560910Y-66335154D01*
X151560692Y-66334084D01*
X151560503Y-66332259D01*
X151560247Y-66330438D01*
X151560201Y-66329345D01*
X151560088Y-66328253D01*
X151560078Y-66326422D01*
X151560001Y-66324581D01*
X151560063Y-66323479D01*
X151560057Y-66322392D01*
X151560226Y-66320573D01*
X151560329Y-66318728D01*
X151560498Y-66317637D01*
X151560598Y-66316555D01*
X151560941Y-66314771D01*
X151561225Y-66312935D01*
X151561500Y-66311865D01*
X151561705Y-66310798D01*
X151562224Y-66309045D01*
X151562683Y-66307258D01*
X151563059Y-66306224D01*
X151563369Y-66305178D01*
X151640119Y-66085910D01*
X151640401Y-66085121D01*
X151641388Y-66082782D01*
X151642324Y-66080478D01*
X151740096Y-65869764D01*
X151740103Y-65869747D01*
X151740113Y-65869728D01*
X151740462Y-65868989D01*
X151741645Y-65866810D01*
X151742828Y-65864556D01*
X151860697Y-65664388D01*
X151860705Y-65664372D01*
X151860716Y-65664355D01*
X151861136Y-65663653D01*
X151862514Y-65661617D01*
X151863923Y-65659472D01*
X152000766Y-65471756D01*
X152000773Y-65471746D01*
X152000782Y-65471735D01*
X152001272Y-65471073D01*
X152002870Y-65469147D01*
X152004454Y-65467184D01*
X152158969Y-65293708D01*
X152159531Y-65293086D01*
X152161321Y-65291313D01*
X152163077Y-65289526D01*
X152333783Y-65131956D01*
X152334403Y-65131392D01*
X152336342Y-65129816D01*
X152338280Y-65128195D01*
X152523537Y-64988044D01*
X152523546Y-64988036D01*
X152523558Y-64988028D01*
X152524218Y-64987535D01*
X152526304Y-64986154D01*
X152528389Y-64984732D01*
X152726449Y-64863320D01*
X152727167Y-64862888D01*
X152729332Y-64861741D01*
X152731591Y-64860504D01*
X152940554Y-64758999D01*
X152941310Y-64758639D01*
X152943602Y-64757699D01*
X152945945Y-64756699D01*
X153163798Y-64676076D01*
X153163816Y-64676068D01*
X153163838Y-64676061D01*
X153164604Y-64675784D01*
X153166971Y-64675073D01*
X153169407Y-64674305D01*
X153394106Y-64615321D01*
X153394918Y-64615114D01*
X153397391Y-64614629D01*
X153399842Y-64614112D01*
X153629207Y-64577338D01*
X153629224Y-64577335D01*
X153629244Y-64577333D01*
X153630052Y-64577209D01*
X153632508Y-64576972D01*
X153635050Y-64576691D01*
X153866927Y-64562474D01*
X153867763Y-64562429D01*
X153870277Y-64562433D01*
X153872789Y-64562402D01*
X154104946Y-64570881D01*
G37*
D18*
X153900000Y-63420000D03*
X153900000Y-70580000D03*
D19*
X153900000Y-67000000D03*
%TD*%
D10*
%TO.C,J116*%
G36*
X168695054Y-69429119D02*
G01*
X168694217Y-69429082D01*
X168691739Y-69428835D01*
X168689214Y-69428619D01*
X168459013Y-69397530D01*
X168458993Y-69397528D01*
X168458970Y-69397524D01*
X168458163Y-69397409D01*
X168455753Y-69396928D01*
X168453229Y-69396460D01*
X168227144Y-69343051D01*
X168227139Y-69343050D01*
X168227133Y-69343048D01*
X168226325Y-69342851D01*
X168223957Y-69342132D01*
X168221507Y-69341425D01*
X168001709Y-69266207D01*
X168000918Y-69265930D01*
X167998578Y-69264961D01*
X167996263Y-69264040D01*
X167784861Y-69167738D01*
X167784853Y-69167735D01*
X167784844Y-69167730D01*
X167784094Y-69167382D01*
X167781879Y-69166200D01*
X167779644Y-69165046D01*
X167578658Y-69048577D01*
X167578642Y-69048569D01*
X167578625Y-69048558D01*
X167577920Y-69048143D01*
X167575837Y-69046754D01*
X167573720Y-69045385D01*
X167385052Y-68909856D01*
X167385042Y-68909850D01*
X167385031Y-68909841D01*
X167384366Y-68909356D01*
X167382478Y-68907812D01*
X167380454Y-68906202D01*
X167205915Y-68752909D01*
X167205904Y-68752901D01*
X167205892Y-68752890D01*
X167205279Y-68752343D01*
X167203535Y-68750606D01*
X167201694Y-68748822D01*
X167042936Y-68579220D01*
X167042368Y-68578604D01*
X167040786Y-68576686D01*
X167039144Y-68574750D01*
X166897694Y-68390466D01*
X166897189Y-68389797D01*
X166895827Y-68387770D01*
X166894356Y-68385647D01*
X166771575Y-68188453D01*
X166771565Y-68188439D01*
X166771555Y-68188421D01*
X166771128Y-68187725D01*
X166769941Y-68185522D01*
X166768714Y-68183317D01*
X166665760Y-67975084D01*
X166665751Y-67975068D01*
X166665742Y-67975048D01*
X166665386Y-67974314D01*
X166664429Y-67972028D01*
X166663414Y-67969693D01*
X166581272Y-67752408D01*
X166581264Y-67752390D01*
X166581257Y-67752369D01*
X166580974Y-67751604D01*
X166580249Y-67749247D01*
X166579462Y-67746812D01*
X166518911Y-67522530D01*
X166518698Y-67521719D01*
X166518201Y-67519279D01*
X166517661Y-67516803D01*
X166479285Y-67287682D01*
X166479153Y-67286855D01*
X166478894Y-67284357D01*
X166478601Y-67281861D01*
X166462767Y-67050110D01*
X166462765Y-67050090D01*
X166462765Y-67050067D01*
X166462714Y-67049254D01*
X166462701Y-67046761D01*
X166462652Y-67044229D01*
X166469509Y-66812018D01*
X166469540Y-66811181D01*
X166469770Y-66808694D01*
X166469968Y-66806174D01*
X166499453Y-66575741D01*
X166499566Y-66574910D01*
X166500033Y-66572481D01*
X166500480Y-66569970D01*
X166552310Y-66343514D01*
X166552503Y-66342698D01*
X166553213Y-66340299D01*
X166553896Y-66337870D01*
X166627577Y-66117552D01*
X166627848Y-66116759D01*
X166628787Y-66114445D01*
X166629705Y-66112090D01*
X166724533Y-65900014D01*
X166724881Y-65899252D01*
X166726031Y-65897061D01*
X166727185Y-65894786D01*
X166842248Y-65692991D01*
X166842256Y-65692975D01*
X166842267Y-65692958D01*
X166842677Y-65692250D01*
X166844043Y-65690169D01*
X166845405Y-65688031D01*
X166979611Y-65498427D01*
X166979620Y-65498413D01*
X166979632Y-65498398D01*
X166980110Y-65497732D01*
X166981681Y-65495785D01*
X166983237Y-65493800D01*
X167135305Y-65318195D01*
X167135314Y-65318183D01*
X167135326Y-65318170D01*
X167135868Y-65317554D01*
X167137603Y-65315788D01*
X167139364Y-65313945D01*
X167307843Y-65154017D01*
X167307853Y-65154006D01*
X167307866Y-65153995D01*
X167308465Y-65153434D01*
X167310365Y-65151845D01*
X167312297Y-65150183D01*
X167495579Y-65007458D01*
X167495589Y-65007450D01*
X167495601Y-65007442D01*
X167496255Y-65006940D01*
X167498297Y-65005547D01*
X167500385Y-65004079D01*
X167696731Y-64879914D01*
X167697443Y-64879471D01*
X167699635Y-64878271D01*
X167701833Y-64877027D01*
X167909342Y-64772622D01*
X167909358Y-64772613D01*
X167909377Y-64772605D01*
X167910109Y-64772242D01*
X167912416Y-64771258D01*
X167914717Y-64770238D01*
X168131441Y-64686574D01*
X168132225Y-64686278D01*
X168134590Y-64685532D01*
X168137006Y-64684732D01*
X168360840Y-64622622D01*
X168360859Y-64622616D01*
X168360881Y-64622611D01*
X168361668Y-64622398D01*
X168364108Y-64621884D01*
X168366578Y-64621327D01*
X168595425Y-64581352D01*
X168596251Y-64581214D01*
X168598738Y-64580939D01*
X168601242Y-64580627D01*
X168832874Y-64563177D01*
X168832896Y-64563174D01*
X168832921Y-64563173D01*
X168833733Y-64563118D01*
X168836193Y-64563087D01*
X168838756Y-64563020D01*
X169071009Y-64568256D01*
X169071011Y-64568256D01*
X169071847Y-64568281D01*
X169074353Y-64568496D01*
X169076857Y-64568675D01*
X169307489Y-64596549D01*
X169307491Y-64596549D01*
X169307494Y-64596550D01*
X169308322Y-64596656D01*
X169310762Y-64597108D01*
X169313269Y-64597536D01*
X169540081Y-64647784D01*
X169540898Y-64647971D01*
X169543309Y-64648667D01*
X169545735Y-64649330D01*
X169766562Y-64721471D01*
X169767357Y-64721737D01*
X169769683Y-64722663D01*
X169772039Y-64723562D01*
X169984755Y-64816900D01*
X169984772Y-64816907D01*
X169984791Y-64816917D01*
X169985537Y-64817250D01*
X169987721Y-64818377D01*
X169990018Y-64819522D01*
X170192627Y-64933181D01*
X170193355Y-64933597D01*
X170195448Y-64934950D01*
X170197593Y-64936296D01*
X170388135Y-65069178D01*
X170388145Y-65069184D01*
X170388156Y-65069192D01*
X170388828Y-65069668D01*
X170390785Y-65071224D01*
X170392783Y-65072768D01*
X170569456Y-65223617D01*
X170570090Y-65224166D01*
X170571910Y-65225929D01*
X170573723Y-65227637D01*
X170734833Y-65395004D01*
X170735410Y-65395612D01*
X170737057Y-65397553D01*
X170738687Y-65399422D01*
X170882696Y-65581713D01*
X170883211Y-65582375D01*
X170884637Y-65584433D01*
X170886101Y-65586485D01*
X171011635Y-65781959D01*
X171012083Y-65782667D01*
X171013314Y-65784879D01*
X171014558Y-65787041D01*
X171120417Y-65993832D01*
X171120793Y-65994581D01*
X171121784Y-65996860D01*
X171122830Y-65999175D01*
X171208004Y-66215309D01*
X171208305Y-66216091D01*
X171208798Y-66217615D01*
X171209371Y-66219156D01*
X171236989Y-66306175D01*
X171237237Y-66306976D01*
X171237377Y-66307537D01*
X171237559Y-66308060D01*
X171238937Y-66313757D01*
X171239753Y-66319562D01*
X171239999Y-66325419D01*
X171239671Y-66331272D01*
X171238775Y-66337065D01*
X171237317Y-66342742D01*
X171235312Y-66348251D01*
X171232779Y-66353537D01*
X171229742Y-66358552D01*
X171226231Y-66363245D01*
X171222278Y-66367574D01*
X171217922Y-66371497D01*
X171213203Y-66374975D01*
X171208168Y-66377977D01*
X171202864Y-66380473D01*
X171197342Y-66382439D01*
X171191654Y-66383857D01*
X171185855Y-66384714D01*
X171180000Y-66385000D01*
X170184203Y-66385000D01*
X170180523Y-66385205D01*
X170174665Y-66384960D01*
X170168861Y-66384143D01*
X170163163Y-66382764D01*
X170157627Y-66380836D01*
X170152306Y-66378376D01*
X170147250Y-66375410D01*
X170142508Y-66371964D01*
X170138125Y-66368071D01*
X170134143Y-66363770D01*
X170133322Y-66362688D01*
X170133240Y-66362596D01*
X170132982Y-66362241D01*
X170130599Y-66359101D01*
X170130042Y-66358196D01*
X170129794Y-66357854D01*
X170129003Y-66356506D01*
X170127528Y-66354107D01*
X170104157Y-66311587D01*
X170030649Y-66196624D01*
X169946859Y-66090130D01*
X169853073Y-65992315D01*
X169750194Y-65904123D01*
X169639191Y-65826384D01*
X169521136Y-65759852D01*
X169397167Y-65705163D01*
X169268436Y-65662827D01*
X169136190Y-65633255D01*
X169001696Y-65616730D01*
X168866222Y-65613408D01*
X168731078Y-65623321D01*
X168597548Y-65646375D01*
X168466902Y-65682350D01*
X168340383Y-65730903D01*
X168219219Y-65791565D01*
X168104534Y-65863774D01*
X167997466Y-65946809D01*
X167898989Y-66039920D01*
X167810083Y-66142179D01*
X167731577Y-66252628D01*
X167664221Y-66370215D01*
X167608666Y-66493805D01*
X167565431Y-66622242D01*
X167534938Y-66754269D01*
X167517473Y-66888658D01*
X167513206Y-67024096D01*
X167522176Y-67159304D01*
X167544296Y-67292994D01*
X167579361Y-67423899D01*
X167627025Y-67550737D01*
X167686848Y-67672339D01*
X167758241Y-67787504D01*
X167840537Y-67895163D01*
X167932949Y-67994277D01*
X168034582Y-68083895D01*
X168144491Y-68163178D01*
X168261601Y-68231351D01*
X168384808Y-68287772D01*
X168512938Y-68331901D01*
X168644744Y-68363313D01*
X168778997Y-68381715D01*
X168914412Y-68386928D01*
X169049689Y-68378902D01*
X169183524Y-68357715D01*
X169314667Y-68323566D01*
X169441838Y-68276788D01*
X169563839Y-68217824D01*
X169679520Y-68147225D01*
X169787747Y-68065684D01*
X169887502Y-67973969D01*
X169977833Y-67872957D01*
X170057881Y-67763604D01*
X170128358Y-67644454D01*
X170128790Y-67643735D01*
X170129551Y-67642616D01*
X170130258Y-67641448D01*
X170131207Y-67640179D01*
X170132085Y-67638888D01*
X170132951Y-67637849D01*
X170133769Y-67636755D01*
X170134828Y-67635596D01*
X170135837Y-67634384D01*
X170136808Y-67633427D01*
X170137722Y-67632426D01*
X170138899Y-67631366D01*
X170140012Y-67630269D01*
X170141056Y-67629424D01*
X170142078Y-67628503D01*
X170143350Y-67627566D01*
X170144568Y-67626579D01*
X170145706Y-67625829D01*
X170146797Y-67625025D01*
X170148154Y-67624216D01*
X170149462Y-67623354D01*
X170150656Y-67622724D01*
X170151832Y-67622023D01*
X170153253Y-67621354D01*
X170154647Y-67620619D01*
X170155913Y-67620102D01*
X170157136Y-67619527D01*
X170158611Y-67619002D01*
X170160074Y-67618405D01*
X170161383Y-67618015D01*
X170162658Y-67617561D01*
X170164179Y-67617182D01*
X170165692Y-67616731D01*
X170167030Y-67616471D01*
X170168346Y-67616143D01*
X170169904Y-67615913D01*
X170171447Y-67615613D01*
X170172795Y-67615485D01*
X170174145Y-67615286D01*
X170175715Y-67615209D01*
X170177283Y-67615061D01*
X170178646Y-67615066D01*
X170180000Y-67615000D01*
X171180000Y-67615000D01*
X171180838Y-67615006D01*
X171181924Y-67615074D01*
X171183027Y-67615076D01*
X171184863Y-67615259D01*
X171186688Y-67615374D01*
X171187771Y-67615549D01*
X171188860Y-67615658D01*
X171190650Y-67616016D01*
X171192475Y-67616311D01*
X171193543Y-67616593D01*
X171194608Y-67616806D01*
X171196371Y-67617341D01*
X171198142Y-67617809D01*
X171199153Y-67618185D01*
X171200218Y-67618508D01*
X171201930Y-67619218D01*
X171203637Y-67619852D01*
X171204624Y-67620334D01*
X171205634Y-67620752D01*
X171207258Y-67621619D01*
X171208905Y-67622422D01*
X171209828Y-67622990D01*
X171210805Y-67623511D01*
X171212344Y-67624537D01*
X171213898Y-67625493D01*
X171214770Y-67626155D01*
X171215682Y-67626763D01*
X171217105Y-67627928D01*
X171218567Y-67629037D01*
X171219368Y-67629778D01*
X171220219Y-67630475D01*
X171221525Y-67631776D01*
X171222868Y-67633020D01*
X171223594Y-67633838D01*
X171224371Y-67634612D01*
X171225544Y-67636034D01*
X171226760Y-67637404D01*
X171227401Y-67638286D01*
X171228102Y-67639136D01*
X171229128Y-67640662D01*
X171230206Y-67642146D01*
X171230762Y-67643094D01*
X171231371Y-67644000D01*
X171232240Y-67645613D01*
X171233172Y-67647202D01*
X171233632Y-67648197D01*
X171234151Y-67649161D01*
X171234863Y-67650863D01*
X171235631Y-67652524D01*
X171235988Y-67653549D01*
X171236415Y-67654569D01*
X171236957Y-67656331D01*
X171237559Y-67658060D01*
X171237819Y-67659134D01*
X171238138Y-67660172D01*
X171238501Y-67661956D01*
X171238937Y-67663757D01*
X171239090Y-67664846D01*
X171239308Y-67665916D01*
X171239497Y-67667741D01*
X171239753Y-67669562D01*
X171239799Y-67670655D01*
X171239912Y-67671747D01*
X171239922Y-67673578D01*
X171239999Y-67675419D01*
X171239937Y-67676521D01*
X171239943Y-67677608D01*
X171239774Y-67679427D01*
X171239671Y-67681272D01*
X171239502Y-67682363D01*
X171239402Y-67683445D01*
X171239059Y-67685229D01*
X171238775Y-67687065D01*
X171238500Y-67688135D01*
X171238295Y-67689202D01*
X171237776Y-67690955D01*
X171237317Y-67692742D01*
X171236941Y-67693776D01*
X171236631Y-67694822D01*
X171159881Y-67914090D01*
X171159599Y-67914879D01*
X171158612Y-67917218D01*
X171157676Y-67919522D01*
X171059904Y-68130236D01*
X171059897Y-68130253D01*
X171059887Y-68130272D01*
X171059538Y-68131011D01*
X171058355Y-68133190D01*
X171057172Y-68135444D01*
X170939303Y-68335612D01*
X170939295Y-68335628D01*
X170939284Y-68335645D01*
X170938864Y-68336347D01*
X170937486Y-68338383D01*
X170936077Y-68340528D01*
X170799234Y-68528244D01*
X170799227Y-68528254D01*
X170799218Y-68528265D01*
X170798728Y-68528927D01*
X170797130Y-68530853D01*
X170795546Y-68532816D01*
X170641031Y-68706292D01*
X170640469Y-68706914D01*
X170638679Y-68708687D01*
X170636923Y-68710474D01*
X170466217Y-68868044D01*
X170465597Y-68868608D01*
X170463658Y-68870184D01*
X170461720Y-68871805D01*
X170276463Y-69011956D01*
X170276454Y-69011964D01*
X170276442Y-69011972D01*
X170275782Y-69012465D01*
X170273696Y-69013846D01*
X170271611Y-69015268D01*
X170073551Y-69136680D01*
X170072833Y-69137112D01*
X170070668Y-69138259D01*
X170068409Y-69139496D01*
X169859446Y-69241001D01*
X169858690Y-69241361D01*
X169856398Y-69242301D01*
X169854055Y-69243301D01*
X169636202Y-69323924D01*
X169636184Y-69323932D01*
X169636162Y-69323939D01*
X169635396Y-69324216D01*
X169633029Y-69324927D01*
X169630593Y-69325695D01*
X169405894Y-69384679D01*
X169405082Y-69384886D01*
X169402609Y-69385371D01*
X169400158Y-69385888D01*
X169170793Y-69422662D01*
X169170776Y-69422665D01*
X169170756Y-69422667D01*
X169169948Y-69422791D01*
X169167492Y-69423028D01*
X169164950Y-69423309D01*
X168933073Y-69437526D01*
X168932237Y-69437571D01*
X168929723Y-69437567D01*
X168927211Y-69437598D01*
X168695054Y-69429119D01*
G37*
D18*
X168900000Y-70580000D03*
X168900000Y-63420000D03*
D19*
X168900000Y-67000000D03*
%TD*%
D18*
%TO.C,J107*%
X168900000Y-63420000D03*
X168900000Y-70580000D03*
%TD*%
%TO.C,J106*%
X183900000Y-70580000D03*
X183900000Y-63420000D03*
%TD*%
%TO.C,J105*%
X138900000Y-63420000D03*
X138900000Y-70580000D03*
%TD*%
%TO.C,J104*%
X153900000Y-70580000D03*
X153900000Y-63420000D03*
%TD*%
%TO.C,J102*%
X138900000Y-47420000D03*
X138900000Y-54580000D03*
%TD*%
%TO.C,J101*%
X153900000Y-54580000D03*
X153900000Y-47420000D03*
%TD*%
%TO.C,C109*%
G36*
G01*
X171725000Y-50750000D02*
X171725000Y-50250000D01*
G75*
G02*
X171950000Y-50025000I225000J0D01*
G01*
X172400000Y-50025000D01*
G75*
G02*
X172625000Y-50250000I0J-225000D01*
G01*
X172625000Y-50750000D01*
G75*
G02*
X172400000Y-50975000I-225000J0D01*
G01*
X171950000Y-50975000D01*
G75*
G02*
X171725000Y-50750000I0J225000D01*
G01*
G37*
G36*
G01*
X170175000Y-50750000D02*
X170175000Y-50250000D01*
G75*
G02*
X170400000Y-50025000I225000J0D01*
G01*
X170850000Y-50025000D01*
G75*
G02*
X171075000Y-50250000I0J-225000D01*
G01*
X171075000Y-50750000D01*
G75*
G02*
X170850000Y-50975000I-225000J0D01*
G01*
X170400000Y-50975000D01*
G75*
G02*
X170175000Y-50750000I0J225000D01*
G01*
G37*
%TD*%
%TO.C,R112*%
G36*
G01*
X145740000Y-67100000D02*
X145740000Y-66900000D01*
G75*
G02*
X145840000Y-66800000I100000J0D01*
G01*
X146100000Y-66800000D01*
G75*
G02*
X146200000Y-66900000I0J-100000D01*
G01*
X146200000Y-67100000D01*
G75*
G02*
X146100000Y-67200000I-100000J0D01*
G01*
X145840000Y-67200000D01*
G75*
G02*
X145740000Y-67100000I0J100000D01*
G01*
G37*
G36*
G01*
X145100000Y-67100000D02*
X145100000Y-66900000D01*
G75*
G02*
X145200000Y-66800000I100000J0D01*
G01*
X145460000Y-66800000D01*
G75*
G02*
X145560000Y-66900000I0J-100000D01*
G01*
X145560000Y-67100000D01*
G75*
G02*
X145460000Y-67200000I-100000J0D01*
G01*
X145200000Y-67200000D01*
G75*
G02*
X145100000Y-67100000I0J100000D01*
G01*
G37*
%TD*%
%TO.C,R109*%
G36*
G01*
X147060000Y-66900000D02*
X147060000Y-67100000D01*
G75*
G02*
X146960000Y-67200000I-100000J0D01*
G01*
X146700000Y-67200000D01*
G75*
G02*
X146600000Y-67100000I0J100000D01*
G01*
X146600000Y-66900000D01*
G75*
G02*
X146700000Y-66800000I100000J0D01*
G01*
X146960000Y-66800000D01*
G75*
G02*
X147060000Y-66900000I0J-100000D01*
G01*
G37*
G36*
G01*
X147700000Y-66900000D02*
X147700000Y-67100000D01*
G75*
G02*
X147600000Y-67200000I-100000J0D01*
G01*
X147340000Y-67200000D01*
G75*
G02*
X147240000Y-67100000I0J100000D01*
G01*
X147240000Y-66900000D01*
G75*
G02*
X147340000Y-66800000I100000J0D01*
G01*
X147600000Y-66800000D01*
G75*
G02*
X147700000Y-66900000I0J-100000D01*
G01*
G37*
%TD*%
%TO.C,C108*%
G36*
G01*
X177060000Y-66900000D02*
X177060000Y-67100000D01*
G75*
G02*
X176960000Y-67200000I-100000J0D01*
G01*
X176700000Y-67200000D01*
G75*
G02*
X176600000Y-67100000I0J100000D01*
G01*
X176600000Y-66900000D01*
G75*
G02*
X176700000Y-66800000I100000J0D01*
G01*
X176960000Y-66800000D01*
G75*
G02*
X177060000Y-66900000I0J-100000D01*
G01*
G37*
G36*
G01*
X177700000Y-66900000D02*
X177700000Y-67100000D01*
G75*
G02*
X177600000Y-67200000I-100000J0D01*
G01*
X177340000Y-67200000D01*
G75*
G02*
X177240000Y-67100000I0J100000D01*
G01*
X177240000Y-66900000D01*
G75*
G02*
X177340000Y-66800000I100000J0D01*
G01*
X177600000Y-66800000D01*
G75*
G02*
X177700000Y-66900000I0J-100000D01*
G01*
G37*
%TD*%
%TO.C,C107*%
G36*
G01*
X175740000Y-67100000D02*
X175740000Y-66900000D01*
G75*
G02*
X175840000Y-66800000I100000J0D01*
G01*
X176100000Y-66800000D01*
G75*
G02*
X176200000Y-66900000I0J-100000D01*
G01*
X176200000Y-67100000D01*
G75*
G02*
X176100000Y-67200000I-100000J0D01*
G01*
X175840000Y-67200000D01*
G75*
G02*
X175740000Y-67100000I0J100000D01*
G01*
G37*
G36*
G01*
X175100000Y-67100000D02*
X175100000Y-66900000D01*
G75*
G02*
X175200000Y-66800000I100000J0D01*
G01*
X175460000Y-66800000D01*
G75*
G02*
X175560000Y-66900000I0J-100000D01*
G01*
X175560000Y-67100000D01*
G75*
G02*
X175460000Y-67200000I-100000J0D01*
G01*
X175200000Y-67200000D01*
G75*
G02*
X175100000Y-67100000I0J100000D01*
G01*
G37*
%TD*%
%TO.C,C118*%
G36*
G01*
X171725000Y-49250000D02*
X171725000Y-48750000D01*
G75*
G02*
X171950000Y-48525000I225000J0D01*
G01*
X172400000Y-48525000D01*
G75*
G02*
X172625000Y-48750000I0J-225000D01*
G01*
X172625000Y-49250000D01*
G75*
G02*
X172400000Y-49475000I-225000J0D01*
G01*
X171950000Y-49475000D01*
G75*
G02*
X171725000Y-49250000I0J225000D01*
G01*
G37*
G36*
G01*
X170175000Y-49250000D02*
X170175000Y-48750000D01*
G75*
G02*
X170400000Y-48525000I225000J0D01*
G01*
X170850000Y-48525000D01*
G75*
G02*
X171075000Y-48750000I0J-225000D01*
G01*
X171075000Y-49250000D01*
G75*
G02*
X170850000Y-49475000I-225000J0D01*
G01*
X170400000Y-49475000D01*
G75*
G02*
X170175000Y-49250000I0J225000D01*
G01*
G37*
%TD*%
%TO.C,U101*%
G36*
G01*
X167025000Y-48575000D02*
X167025000Y-48375000D01*
G75*
G02*
X167125000Y-48275000I100000J0D01*
G01*
X168400000Y-48275000D01*
G75*
G02*
X168500000Y-48375000I0J-100000D01*
G01*
X168500000Y-48575000D01*
G75*
G02*
X168400000Y-48675000I-100000J0D01*
G01*
X167125000Y-48675000D01*
G75*
G02*
X167025000Y-48575000I0J100000D01*
G01*
G37*
G36*
G01*
X167025000Y-47925000D02*
X167025000Y-47725000D01*
G75*
G02*
X167125000Y-47625000I100000J0D01*
G01*
X168400000Y-47625000D01*
G75*
G02*
X168500000Y-47725000I0J-100000D01*
G01*
X168500000Y-47925000D01*
G75*
G02*
X168400000Y-48025000I-100000J0D01*
G01*
X167125000Y-48025000D01*
G75*
G02*
X167025000Y-47925000I0J100000D01*
G01*
G37*
G36*
G01*
X167025000Y-47275000D02*
X167025000Y-47075000D01*
G75*
G02*
X167125000Y-46975000I100000J0D01*
G01*
X168400000Y-46975000D01*
G75*
G02*
X168500000Y-47075000I0J-100000D01*
G01*
X168500000Y-47275000D01*
G75*
G02*
X168400000Y-47375000I-100000J0D01*
G01*
X167125000Y-47375000D01*
G75*
G02*
X167025000Y-47275000I0J100000D01*
G01*
G37*
G36*
G01*
X167025000Y-46625000D02*
X167025000Y-46425000D01*
G75*
G02*
X167125000Y-46325000I100000J0D01*
G01*
X168400000Y-46325000D01*
G75*
G02*
X168500000Y-46425000I0J-100000D01*
G01*
X168500000Y-46625000D01*
G75*
G02*
X168400000Y-46725000I-100000J0D01*
G01*
X167125000Y-46725000D01*
G75*
G02*
X167025000Y-46625000I0J100000D01*
G01*
G37*
G36*
G01*
X161300000Y-46625000D02*
X161300000Y-46425000D01*
G75*
G02*
X161400000Y-46325000I100000J0D01*
G01*
X162675000Y-46325000D01*
G75*
G02*
X162775000Y-46425000I0J-100000D01*
G01*
X162775000Y-46625000D01*
G75*
G02*
X162675000Y-46725000I-100000J0D01*
G01*
X161400000Y-46725000D01*
G75*
G02*
X161300000Y-46625000I0J100000D01*
G01*
G37*
G36*
G01*
X161300000Y-47275000D02*
X161300000Y-47075000D01*
G75*
G02*
X161400000Y-46975000I100000J0D01*
G01*
X162675000Y-46975000D01*
G75*
G02*
X162775000Y-47075000I0J-100000D01*
G01*
X162775000Y-47275000D01*
G75*
G02*
X162675000Y-47375000I-100000J0D01*
G01*
X161400000Y-47375000D01*
G75*
G02*
X161300000Y-47275000I0J100000D01*
G01*
G37*
G36*
G01*
X161300000Y-47925000D02*
X161300000Y-47725000D01*
G75*
G02*
X161400000Y-47625000I100000J0D01*
G01*
X162675000Y-47625000D01*
G75*
G02*
X162775000Y-47725000I0J-100000D01*
G01*
X162775000Y-47925000D01*
G75*
G02*
X162675000Y-48025000I-100000J0D01*
G01*
X161400000Y-48025000D01*
G75*
G02*
X161300000Y-47925000I0J100000D01*
G01*
G37*
G36*
G01*
X161300000Y-48575000D02*
X161300000Y-48375000D01*
G75*
G02*
X161400000Y-48275000I100000J0D01*
G01*
X162675000Y-48275000D01*
G75*
G02*
X162775000Y-48375000I0J-100000D01*
G01*
X162775000Y-48575000D01*
G75*
G02*
X162675000Y-48675000I-100000J0D01*
G01*
X161400000Y-48675000D01*
G75*
G02*
X161300000Y-48575000I0J100000D01*
G01*
G37*
%TD*%
D20*
%TO.C,TP105*%
X143900000Y-43000000D03*
%TD*%
D21*
%TO.C,J115*%
X136360000Y-85540000D03*
X136360000Y-80460000D03*
X141440000Y-80460000D03*
X141440000Y-85540000D03*
D22*
X138900000Y-83000000D03*
%TD*%
D21*
%TO.C,J114*%
X151360000Y-85540000D03*
X151360000Y-80460000D03*
X156440000Y-80460000D03*
X156440000Y-85540000D03*
D22*
X153900000Y-83000000D03*
%TD*%
D21*
%TO.C,J113*%
X181360000Y-101540000D03*
X181360000Y-96460000D03*
X186440000Y-96460000D03*
X186440000Y-101540000D03*
D22*
X183900000Y-99000000D03*
%TD*%
D21*
%TO.C,J112*%
X166360000Y-101540000D03*
X166360000Y-96460000D03*
X171440000Y-96460000D03*
X171440000Y-101540000D03*
D22*
X168900000Y-99000000D03*
%TD*%
D21*
%TO.C,J111*%
X151360000Y-101540000D03*
X151360000Y-96460000D03*
X156440000Y-96460000D03*
X156440000Y-101540000D03*
D22*
X153900000Y-99000000D03*
%TD*%
D21*
%TO.C,J110*%
X136360000Y-101540000D03*
X136360000Y-96460000D03*
X141440000Y-96460000D03*
X141440000Y-101540000D03*
D22*
X138900000Y-99000000D03*
%TD*%
D21*
%TO.C,J109*%
X166360000Y-85540000D03*
X166360000Y-80460000D03*
X171440000Y-80460000D03*
X171440000Y-85540000D03*
D22*
X168900000Y-83000000D03*
%TD*%
D21*
%TO.C,J108*%
X181360000Y-85540000D03*
X181360000Y-80460000D03*
X186440000Y-80460000D03*
X186440000Y-85540000D03*
D22*
X183900000Y-83000000D03*
%TD*%
%TO.C,R110*%
G36*
G01*
X171050000Y-45743750D02*
X171050000Y-46256250D01*
G75*
G02*
X170831250Y-46475000I-218750J0D01*
G01*
X170393750Y-46475000D01*
G75*
G02*
X170175000Y-46256250I0J218750D01*
G01*
X170175000Y-45743750D01*
G75*
G02*
X170393750Y-45525000I218750J0D01*
G01*
X170831250Y-45525000D01*
G75*
G02*
X171050000Y-45743750I0J-218750D01*
G01*
G37*
G36*
G01*
X172625000Y-45743750D02*
X172625000Y-46256250D01*
G75*
G02*
X172406250Y-46475000I-218750J0D01*
G01*
X171968750Y-46475000D01*
G75*
G02*
X171750000Y-46256250I0J218750D01*
G01*
X171750000Y-45743750D01*
G75*
G02*
X171968750Y-45525000I218750J0D01*
G01*
X172406250Y-45525000D01*
G75*
G02*
X172625000Y-45743750I0J-218750D01*
G01*
G37*
%TD*%
%TO.C,R111*%
G36*
G01*
X171050000Y-47243750D02*
X171050000Y-47756250D01*
G75*
G02*
X170831250Y-47975000I-218750J0D01*
G01*
X170393750Y-47975000D01*
G75*
G02*
X170175000Y-47756250I0J218750D01*
G01*
X170175000Y-47243750D01*
G75*
G02*
X170393750Y-47025000I218750J0D01*
G01*
X170831250Y-47025000D01*
G75*
G02*
X171050000Y-47243750I0J-218750D01*
G01*
G37*
G36*
G01*
X172625000Y-47243750D02*
X172625000Y-47756250D01*
G75*
G02*
X172406250Y-47975000I-218750J0D01*
G01*
X171968750Y-47975000D01*
G75*
G02*
X171750000Y-47756250I0J218750D01*
G01*
X171750000Y-47243750D01*
G75*
G02*
X171968750Y-47025000I218750J0D01*
G01*
X172406250Y-47025000D01*
G75*
G02*
X172625000Y-47243750I0J-218750D01*
G01*
G37*
%TD*%
D20*
%TO.C,TP104*%
X144000000Y-108000000D03*
%TD*%
%TO.C,FID106*%
X173000000Y-105000000D03*
%TD*%
D23*
%TO.C,H102*%
X177500000Y-47950000D03*
%TD*%
%TO.C,H104*%
X177500000Y-104500000D03*
%TD*%
D20*
%TO.C,FID103*%
X112000000Y-107000000D03*
%TD*%
%TO.C,FID105*%
X112000000Y-44000000D03*
%TD*%
D24*
%TO.C,H103*%
X122900000Y-107000000D03*
%TD*%
%TO.C,H101*%
X122900000Y-44000000D03*
%TD*%
M02*
